# MagicaVoxel @ Ephtracy

# group
o 

# material
mtllib player_skin_robot-4.mtl
usemtl palette

# normals
vn -1 0 0
vn 1 0 0
vn 0 0 1
vn 0 0 -1
vn 0 -1 0
vn 0 1 0

# texcoords
vt 0.908203 0.5
vt 0.912109 0.5
vt 0.939453 0.5
vt 0.970703 0.5
vt 0.986328 0.5

# verts
v -0.3 0.7 0.3
v -0.3 0.7 0.1
v -0.3 0.7 0
v -0.3 0.7 -0.1
v -0.3 0.7 -0.3
v -0.3 0.8 0.2
v -0.3 0.8 0.1
v -0.3 0.8 0
v -0.3 0.8 -0.1
v -0.3 0.8 -0.2
v -0.3 0.9 0.3
v -0.3 0.9 0.2
v -0.3 0.9 0.1
v -0.3 0.9 0
v -0.3 0.9 -0.1
v -0.3 0.9 -0.2
v -0.3 0.9 -0.3
v -0.3 1 0.3
v -0.3 1 0.2
v -0.3 1 0.1
v -0.3 1 0
v -0.3 1 -0.1
v -0.3 1 -0.2
v -0.3 1 -0.3
v -0.3 1.1 0.2
v -0.3 1.1 0.1
v -0.3 1.1 0
v -0.3 1.1 -0.1
v -0.3 1.1 -0.2
v -0.3 1.1 -0.3
v -0.3 1.2 0.3
v -0.3 1.2 0.2
v -0.3 1.2 0.1
v -0.3 1.2 0
v -0.3 1.2 -0.1
v -0.3 1.2 -0.2
v -0.3 1.2 -0.3
v -0.1 1.2 0.1
v -0.1 1.2 0
v -0.1 1.3 0.1
v -0.1 1.3 0
v -0.1 1.4 0.1
v -0.1 1.4 0
v 0 1.2 0.1
v 0 1.2 0
v 0 1.3 0.1
v 0 1.3 0
v 0 1.4 0.1
v 0 1.4 0
v 0.2 0.7 0.3
v 0.2 0.7 0.2
v 0.2 0.7 0.1
v 0.2 0.7 -0.1
v 0.2 0.7 -0.2
v 0.2 0.7 -0.3
v 0.2 0.9 0.3
v 0.2 0.9 0.2
v 0.2 0.9 0.1
v 0.2 0.9 -0.1
v 0.2 0.9 -0.2
v 0.2 0.9 -0.3
v 0.2 1 0.3
v 0.2 1 0.2
v 0.2 1 0.1
v 0.2 1 0
v 0.2 1 -0.1
v 0.2 1 -0.2
v 0.2 1 -0.3
v 0.2 1.1 0.2
v 0.2 1.1 0.1
v 0.2 1.1 0
v 0.2 1.2 0.3
v 0.2 1.2 0.1
v 0.2 1.2 -0.1
v 0.2 1.2 -0.2
v 0.2 1.2 -0.3
v -0.3 0.7 0.3
v -0.3 0.9 0.3
v -0.3 1 0.3
v -0.3 1.2 0.3
v -0.2 0.7 0.3
v -0.2 0.8 0.3
v -0.2 0.9 0.3
v -0.2 1 0.3
v -0.2 1.1 0.3
v -0.2 1.2 0.3
v -0.1 0.8 0.3
v -0.1 1.1 0.3
v 0 0.7 0.3
v 0 0.9 0.3
v 0 1.1 0.3
v 0 1.2 0.3
v 0.1 1 0.3
v 0.1 1.1 0.3
v 0.2 0.7 0.3
v 0.2 0.9 0.3
v 0.2 1 0.3
v 0.2 1.2 0.3
v -0.1 1.2 0.1
v -0.1 1.3 0.1
v -0.1 1.4 0.1
v 0 1.2 0.1
v 0 1.3 0.1
v 0 1.4 0.1
v -0.1 1.2 0
v -0.1 1.3 0
v -0.1 1.4 0
v 0 1.2 0
v 0 1.3 0
v 0 1.4 0
v -0.3 0.7 -0.3
v -0.3 0.9 -0.3
v -0.3 1 -0.3
v -0.3 1.1 -0.3
v -0.3 1.2 -0.3
v -0.2 0.7 -0.3
v -0.2 0.8 -0.3
v -0.2 0.9 -0.3
v -0.2 1 -0.3
v -0.1 0.8 -0.3
v -0.1 1.1 -0.3
v 0 0.7 -0.3
v 0 0.9 -0.3
v 0 1 -0.3
v 0 1.2 -0.3
v 0.2 0.7 -0.3
v 0.2 0.9 -0.3
v 0.2 1 -0.3
v 0.2 1.2 -0.3
v -0.3 0.7 0.3
v -0.2 0.7 0.3
v 0 0.7 0.3
v 0.2 0.7 0.3
v -0.2 0.7 0.2
v -0.1 0.7 0.2
v 0 0.7 0.2
v 0.2 0.7 0.2
v -0.3 0.7 0.1
v -0.2 0.7 0.1
v 0 0.7 0.1
v 0.2 0.7 0.1
v -0.3 0.7 0
v -0.2 0.7 0
v -0.3 0.7 -0.1
v -0.2 0.7 -0.1
v 0 0.7 -0.1
v 0.2 0.7 -0.1
v -0.2 0.7 -0.2
v -0.1 0.7 -0.2
v 0 0.7 -0.2
v 0.2 0.7 -0.2
v -0.3 0.7 -0.3
v -0.2 0.7 -0.3
v 0 0.7 -0.3
v 0.2 0.7 -0.3
v -0.3 1.2 0.3
v -0.2 1.2 0.3
v 0 1.2 0.3
v 0.2 1.2 0.3
v -0.3 1.2 0.2
v -0.2 1.2 0.2
v -0.1 1.2 0.2
v 0 1.2 0.2
v 0.1 1.2 0.2
v -0.3 1.2 0.1
v -0.2 1.2 0.1
v -0.1 1.2 0.1
v 0 1.2 0.1
v 0.1 1.2 0.1
v 0.2 1.2 0.1
v -0.3 1.2 0
v -0.2 1.2 0
v -0.1 1.2 0
v 0 1.2 0
v -0.3 1.2 -0.1
v -0.2 1.2 -0.1
v 0 1.2 -0.1
v 0.2 1.2 -0.1
v -0.3 1.2 -0.2
v -0.1 1.2 -0.2
v 0 1.2 -0.2
v 0.2 1.2 -0.2
v -0.3 1.2 -0.3
v 0 1.2 -0.3
v 0.2 1.2 -0.3
v -0.1 1.4 0.1
v 0 1.4 0.1
v -0.1 1.4 0
v 0 1.4 0

# faces
f 6/4/1 2/4/1 1/4/1
f 7/1/1 3/1/1 2/1/1
f 7/4/1 2/4/1 6/4/1
f 8/3/1 4/3/1 3/3/1
f 8/1/1 3/1/1 7/1/1
f 9/4/1 5/4/1 4/4/1
f 9/3/1 4/3/1 8/3/1
f 10/4/1 5/4/1 9/4/1
f 11/4/1 6/4/1 1/4/1
f 12/3/1 8/3/1 7/3/1
f 12/4/1 6/4/1 11/4/1
f 12/3/1 7/3/1 6/3/1
f 12/3/1 10/3/1 9/3/1
f 12/3/1 9/3/1 8/3/1
f 13/3/1 10/3/1 12/3/1
f 14/3/1 10/3/1 13/3/1
f 15/3/1 10/3/1 14/3/1
f 16/4/1 5/4/1 10/4/1
f 16/3/1 10/3/1 15/3/1
f 17/4/1 5/4/1 16/4/1
f 18/3/1 12/3/1 11/3/1
f 19/1/1 13/1/1 12/1/1
f 19/3/1 12/3/1 18/3/1
f 20/4/1 14/4/1 13/4/1
f 20/1/1 13/1/1 19/1/1
f 21/3/1 15/3/1 14/3/1
f 21/4/1 14/4/1 20/4/1
f 22/1/1 16/1/1 15/1/1
f 22/3/1 15/3/1 21/3/1
f 23/3/1 17/3/1 16/3/1
f 23/1/1 16/1/1 22/1/1
f 24/3/1 17/3/1 23/3/1
f 25/3/1 20/3/1 19/3/1
f 25/4/1 19/4/1 18/4/1
f 25/3/1 21/3/1 20/3/1
f 26/3/1 21/3/1 25/3/1
f 27/1/1 22/1/1 21/1/1
f 27/3/1 21/3/1 26/3/1
f 28/3/1 23/3/1 22/3/1
f 28/1/1 22/1/1 27/1/1
f 29/4/1 24/4/1 23/4/1
f 29/3/1 23/3/1 28/3/1
f 30/4/1 24/4/1 29/4/1
f 31/4/1 25/4/1 18/4/1
f 32/1/1 26/1/1 25/1/1
f 32/4/1 25/4/1 31/4/1
f 33/4/1 27/4/1 26/4/1
f 33/1/1 26/1/1 32/1/1
f 34/3/1 28/3/1 27/3/1
f 34/4/1 27/4/1 33/4/1
f 35/4/1 29/4/1 28/4/1
f 35/3/1 28/3/1 34/3/1
f 36/3/1 30/3/1 29/3/1
f 36/4/1 29/4/1 35/4/1
f 37/3/1 30/3/1 36/3/1
f 40/3/1 39/3/1 38/3/1
f 41/3/1 39/3/1 40/3/1
f 42/2/1 41/2/1 40/2/1
f 43/2/1 41/2/1 42/2/1
f 44/3/2 45/3/2 46/3/2
f 46/3/2 45/3/2 47/3/2
f 46/2/2 47/2/2 48/2/2
f 48/2/2 47/2/2 49/2/2
f 50/4/2 51/4/2 56/4/2
f 51/3/2 52/3/2 57/3/2
f 56/4/2 51/4/2 57/4/2
f 52/4/2 53/4/2 58/4/2
f 57/3/2 52/3/2 58/3/2
f 53/3/2 54/3/2 59/3/2
f 58/4/2 53/4/2 59/4/2
f 54/4/2 55/4/2 60/4/2
f 59/3/2 54/3/2 60/3/2
f 60/4/2 55/4/2 61/4/2
f 56/3/2 57/3/2 62/3/2
f 57/5/2 58/5/2 63/5/2
f 62/3/2 57/3/2 63/3/2
f 58/3/2 59/3/2 64/3/2
f 63/5/2 58/5/2 64/5/2
f 64/3/2 59/3/2 65/3/2
f 59/5/2 60/5/2 66/5/2
f 65/3/2 59/3/2 66/3/2
f 60/3/2 61/3/2 67/3/2
f 66/5/2 60/5/2 67/5/2
f 67/3/2 61/3/2 68/3/2
f 62/1/2 63/1/2 69/1/2
f 64/3/2 65/3/2 69/3/2
f 63/3/2 64/3/2 69/3/2
f 69/3/2 65/3/2 70/3/2
f 65/4/2 66/4/2 71/4/2
f 70/3/2 65/3/2 71/3/2
f 69/1/2 70/1/2 72/1/2
f 62/1/2 69/1/2 72/1/2
f 70/4/2 71/4/2 73/4/2
f 72/1/2 70/1/2 73/1/2
f 71/4/2 66/4/2 74/4/2
f 73/4/2 71/4/2 74/4/2
f 66/3/2 67/3/2 74/3/2
f 67/4/2 68/4/2 75/4/2
f 74/3/2 67/3/2 75/3/2
f 75/4/2 68/4/2 76/4/2
f 81/4/3 78/4/3 77/4/3
f 82/4/3 78/4/3 81/4/3
f 83/3/3 79/3/3 78/3/3
f 83/4/3 78/4/3 82/4/3
f 84/4/3 80/4/3 79/4/3
f 84/3/3 79/3/3 83/3/3
f 85/4/3 80/4/3 84/4/3
f 86/4/3 80/4/3 85/4/3
f 87/4/3 83/4/3 82/4/3
f 87/3/3 82/3/3 81/3/3
f 87/4/3 84/4/3 83/4/3
f 87/4/3 85/4/3 84/4/3
f 88/3/3 86/3/3 85/3/3
f 88/4/3 85/4/3 87/4/3
f 89/3/3 87/3/3 81/3/3
f 89/3/3 88/3/3 87/3/3
f 90/3/3 88/3/3 89/3/3
f 91/3/3 86/3/3 88/3/3
f 91/3/3 88/3/3 90/3/3
f 92/3/3 86/3/3 91/3/3
f 93/3/3 91/3/3 90/3/3
f 94/1/3 92/1/3 91/1/3
f 94/3/3 91/3/3 93/3/3
f 95/4/3 90/4/3 89/4/3
f 96/3/3 93/3/3 90/3/3
f 96/4/3 90/4/3 95/4/3
f 97/1/3 94/1/3 93/1/3
f 97/3/3 93/3/3 96/3/3
f 98/1/3 92/1/3 94/1/3
f 98/1/3 94/1/3 97/1/3
f 102/3/3 100/3/3 99/3/3
f 103/2/3 101/2/3 100/2/3
f 103/3/3 100/3/3 102/3/3
f 104/2/3 101/2/3 103/2/3
f 105/3/4 106/3/4 108/3/4
f 106/2/4 107/2/4 109/2/4
f 108/3/4 106/3/4 109/3/4
f 109/2/4 107/2/4 110/2/4
f 111/4/4 112/4/4 116/4/4
f 116/4/4 112/4/4 117/4/4
f 112/3/4 113/3/4 118/3/4
f 117/4/4 112/4/4 118/4/4
f 113/4/4 114/4/4 119/4/4
f 118/3/4 113/3/4 119/3/4
f 116/3/4 117/3/4 120/3/4
f 117/4/4 118/4/4 120/4/4
f 118/4/4 119/4/4 120/4/4
f 114/3/4 115/3/4 121/3/4
f 120/4/4 119/4/4 121/4/4
f 119/4/4 114/4/4 121/4/4
f 116/3/4 120/3/4 122/3/4
f 120/3/4 121/3/4 122/3/4
f 122/3/4 121/3/4 123/3/4
f 123/3/4 121/3/4 124/3/4
f 121/3/4 115/3/4 125/3/4
f 124/3/4 121/3/4 125/3/4
f 122/4/4 123/4/4 126/4/4
f 123/3/4 124/3/4 127/3/4
f 126/4/4 123/4/4 127/4/4
f 124/4/4 125/4/4 128/4/4
f 127/3/4 124/3/4 128/3/4
f 128/4/4 125/4/4 129/4/4
f 134/4/5 131/4/5 130/4/5
f 134/3/5 132/3/5 131/3/5
f 135/3/5 132/3/5 134/3/5
f 136/4/5 133/4/5 132/4/5
f 136/3/5 132/3/5 135/3/5
f 137/4/5 133/4/5 136/4/5
f 138/4/5 135/4/5 134/4/5
f 138/4/5 134/4/5 130/4/5
f 139/4/5 135/4/5 138/4/5
f 140/3/5 137/3/5 136/3/5
f 140/3/5 136/3/5 135/3/5
f 141/3/5 137/3/5 140/3/5
f 142/1/5 139/1/5 138/1/5
f 143/4/5 135/4/5 139/4/5
f 143/1/5 139/1/5 142/1/5
f 144/3/5 143/3/5 142/3/5
f 145/4/5 135/4/5 143/4/5
f 145/3/5 143/3/5 144/3/5
f 146/3/5 140/3/5 135/3/5
f 146/4/5 141/4/5 140/4/5
f 147/4/5 141/4/5 146/4/5
f 148/4/5 135/4/5 145/4/5
f 148/4/5 145/4/5 144/4/5
f 149/3/5 147/3/5 146/3/5
f 149/4/5 135/4/5 148/4/5
f 149/3/5 146/3/5 135/3/5
f 150/3/5 147/3/5 149/3/5
f 151/3/5 147/3/5 150/3/5
f 152/4/5 148/4/5 144/4/5
f 153/3/5 149/3/5 148/3/5
f 153/4/5 148/4/5 152/4/5
f 153/3/5 150/3/5 149/3/5
f 154/4/5 151/4/5 150/4/5
f 154/3/5 150/3/5 153/3/5
f 155/4/5 151/4/5 154/4/5
f 156/4/6 157/4/6 160/4/6
f 157/3/6 158/3/6 161/3/6
f 160/4/6 157/4/6 161/4/6
f 161/3/6 158/3/6 162/3/6
f 158/1/6 159/1/6 163/1/6
f 162/3/6 158/3/6 163/3/6
f 163/1/6 159/1/6 164/1/6
f 160/1/6 161/1/6 165/1/6
f 161/4/6 162/4/6 166/4/6
f 165/1/6 161/1/6 166/1/6
f 162/3/6 163/3/6 167/3/6
f 166/4/6 162/4/6 167/4/6
f 163/3/6 164/3/6 167/3/6
f 167/3/6 164/3/6 168/3/6
f 164/1/6 159/1/6 169/1/6
f 168/3/6 164/3/6 169/3/6
f 169/1/6 159/1/6 170/1/6
f 165/4/6 166/4/6 171/4/6
f 166/4/6 167/4/6 171/4/6
f 171/4/6 167/4/6 172/4/6
f 172/4/6 167/4/6 173/4/6
f 169/4/6 170/4/6 174/4/6
f 168/4/6 169/4/6 174/4/6
f 171/3/6 172/3/6 175/3/6
f 172/4/6 173/4/6 176/4/6
f 175/3/6 172/3/6 176/3/6
f 173/3/6 174/3/6 177/3/6
f 174/4/6 170/4/6 177/4/6
f 177/4/6 170/4/6 178/4/6
f 175/4/6 176/4/6 179/4/6
f 176/4/6 173/4/6 180/4/6
f 179/4/6 176/4/6 180/4/6
f 173/3/6 177/3/6 180/3/6
f 177/3/6 178/3/6 180/3/6
f 180/3/6 178/3/6 181/3/6
f 181/3/6 178/3/6 182/3/6
f 179/3/6 180/3/6 183/3/6
f 180/3/6 181/3/6 183/3/6
f 181/4/6 182/4/6 184/4/6
f 183/3/6 181/3/6 184/3/6
f 184/4/6 182/4/6 185/4/6
f 186/2/6 187/2/6 188/2/6
f 188/2/6 187/2/6 189/2/6
