# MagicaVoxel @ Ephtracy

# group
o 

# material
mtllib spider-1.mtl
usemtl palette

# normals
vn -1 0 0
vn 1 0 0
vn 0 0 1
vn 0 0 -1
vn 0 -1 0
vn 0 1 0

# texcoords
vt 0.970703 0.5
vt 0.974609 0.5
vt 0.978516 0.5
vt 0.982422 0.5
vt 0.986328 0.5

# verts
v -0.5 0.1 0.1
v -0.5 0.1 -0.1
v -0.5 0.2 0.2
v -0.5 0.2 0.1
v -0.5 0.2 -0.1
v -0.5 0.2 -0.2
v -0.5 0.3 -0.1
v -0.5 0.3 -0.2
v -0.5 0.4 0.2
v -0.5 0.4 -0.1
v -0.5 0.4 -0.2
v -0.4 0.1 0.2
v -0.4 0.1 0.1
v -0.4 0.1 -0.1
v -0.4 0.1 -0.2
v -0.4 0.2 0.3
v -0.4 0.2 0.2
v -0.4 0.2 0.1
v -0.4 0.2 -0.1
v -0.4 0.2 -0.2
v -0.4 0.2 -0.3
v -0.4 0.3 -0.2
v -0.4 0.3 -0.3
v -0.4 0.4 0.3
v -0.4 0.4 0.2
v -0.4 0.4 0.1
v -0.4 0.4 0
v -0.4 0.4 -0.1
v -0.4 0.4 -0.2
v -0.4 0.4 -0.3
v -0.4 0.5 0.2
v -0.4 0.5 0.1
v -0.4 0.5 0
v -0.4 0.5 -0.1
v -0.4 0.5 -0.2
v 0.2 0 0.1
v 0.2 0 -0.1
v 0.2 0.1 0.2
v 0.2 0.1 0.1
v 0.2 0.1 -0.1
v 0.2 0.1 -0.2
v 0.2 0.2 0.2
v 0.2 0.2 0.1
v 0.2 0.2 -0.1
v 0.2 0.2 -0.2
v 0.2 0.3 0.2
v 0.2 0.3 0.1
v 0.2 0.3 -0.1
v 0.2 0.3 -0.2
v 0.2 0.4 0.1
v 0.2 0.4 -0.1
v -0.1 0.1 0.2
v -0.1 0.1 0.1
v -0.1 0.1 -0.1
v -0.1 0.1 -0.2
v -0.1 0.2 0.3
v -0.1 0.2 0.2
v -0.1 0.2 0.1
v -0.1 0.2 -0.1
v -0.1 0.2 -0.2
v -0.1 0.2 -0.3
v -0.1 0.3 0.3
v -0.1 0.3 0.2
v -0.1 0.3 -0.2
v -0.1 0.3 -0.3
v -0.1 0.4 0.3
v -0.1 0.4 0.2
v -0.1 0.4 0.1
v -0.1 0.4 0
v -0.1 0.4 -0.2
v -0.1 0.4 -0.3
v -0.1 0.5 0.2
v -0.1 0.5 0.1
v -0.1 0.5 0
v -0.1 0.5 -0.2
v 0 0.2 0.2
v 0 0.2 0.1
v 0 0.2 -0.1
v 0 0.2 -0.2
v 0 0.3 0.2
v 0 0.3 0.1
v 0 0.3 0
v 0 0.3 -0.1
v 0 0.3 -0.2
v 0 0.4 0.2
v 0 0.4 0.1
v 0 0.4 0
v 0 0.4 -0.2
v 0.3 0.2 0.2
v 0.3 0.2 0.1
v 0.3 0.2 -0.1
v 0.3 0.2 -0.2
v 0.3 0.3 0.2
v 0.3 0.3 0.1
v 0.3 0.3 -0.1
v 0.3 0.3 -0.2
v 0.4 0 0.1
v 0.4 0 -0.1
v 0.4 0.1 0.2
v 0.4 0.1 0.1
v 0.4 0.1 -0.1
v 0.4 0.1 -0.2
v 0.4 0.2 0.2
v 0.4 0.2 0.1
v 0.4 0.2 -0.1
v 0.4 0.2 -0.2
v 0.4 0.3 0.1
v 0.4 0.3 0
v 0.4 0.3 -0.1
v 0.4 0.4 0.1
v 0.4 0.4 0
v 0.4 0.4 -0.1
v 0.5 0.1 0.1
v 0.5 0.1 -0.1
v 0.5 0.2 0.1
v 0.5 0.2 0
v 0.5 0.2 -0.1
v 0.5 0.3 0.1
v 0.5 0.3 0
v 0.5 0.3 -0.1
v -0.4 0.2 0.3
v -0.4 0.4 0.3
v -0.3 0.2 0.3
v -0.3 0.3 0.3
v -0.3 0.4 0.3
v -0.1 0.2 0.3
v -0.1 0.3 0.3
v -0.1 0.4 0.3
v -0.5 0.2 0.2
v -0.5 0.4 0.2
v -0.4 0.1 0.2
v -0.4 0.2 0.2
v -0.4 0.4 0.2
v -0.4 0.5 0.2
v -0.3 0.2 0.2
v -0.3 0.4 0.2
v -0.2 0.4 0.2
v -0.2 0.5 0.2
v -0.1 0.1 0.2
v -0.1 0.2 0.2
v -0.1 0.3 0.2
v -0.1 0.4 0.2
v -0.1 0.5 0.2
v 0 0.2 0.2
v 0 0.3 0.2
v 0 0.4 0.2
v 0.2 0.1 0.2
v 0.2 0.2 0.2
v 0.2 0.3 0.2
v 0.3 0.2 0.2
v 0.3 0.3 0.2
v 0.4 0.1 0.2
v 0.4 0.2 0.2
v -0.5 0.1 0.1
v -0.5 0.2 0.1
v -0.4 0.1 0.1
v -0.4 0.2 0.1
v -0.1 0.1 0.1
v -0.1 0.2 0.1
v 0 0.2 0.1
v 0 0.3 0.1
v 0.1 0.2 0.1
v 0.1 0.3 0.1
v 0.2 0 0.1
v 0.2 0.1 0.1
v 0.2 0.2 0.1
v 0.2 0.3 0.1
v 0.2 0.4 0.1
v 0.3 0 0.1
v 0.3 0.1 0.1
v 0.3 0.2 0.1
v 0.3 0.3 0.1
v 0.4 0 0.1
v 0.4 0.1 0.1
v 0.4 0.2 0.1
v 0.4 0.3 0.1
v 0.4 0.4 0.1
v 0.5 0.1 0.1
v 0.5 0.2 0.1
v 0.5 0.3 0.1
v -0.5 0.1 -0.1
v -0.5 0.2 -0.1
v -0.4 0.1 -0.1
v -0.4 0.2 -0.1
v -0.1 0.1 -0.1
v -0.1 0.2 -0.1
v 0 0.1 -0.1
v 0 0.2 -0.1
v 0 0.3 -0.1
v 0.2 0 -0.1
v 0.2 0.1 -0.1
v 0.2 0.2 -0.1
v 0.2 0.3 -0.1
v 0.2 0.4 -0.1
v 0.3 0 -0.1
v 0.3 0.1 -0.1
v 0.3 0.2 -0.1
v 0.3 0.3 -0.1
v 0.3 0.4 -0.1
v 0.4 0 -0.1
v 0.4 0.1 -0.1
v 0.4 0.2 -0.1
v 0.4 0.3 -0.1
v 0.4 0.4 -0.1
v 0.5 0.1 -0.1
v 0.5 0.2 -0.1
v 0.5 0.3 -0.1
v -0.5 0.2 -0.2
v -0.5 0.3 -0.2
v -0.5 0.4 -0.2
v -0.4 0.1 -0.2
v -0.4 0.2 -0.2
v -0.4 0.3 -0.2
v -0.4 0.4 -0.2
v -0.4 0.5 -0.2
v -0.3 0.1 -0.2
v -0.3 0.2 -0.2
v -0.3 0.4 -0.2
v -0.3 0.5 -0.2
v -0.1 0.1 -0.2
v -0.1 0.2 -0.2
v -0.1 0.3 -0.2
v -0.1 0.4 -0.2
v -0.1 0.5 -0.2
v 0 0.2 -0.2
v 0 0.3 -0.2
v 0 0.4 -0.2
v 0.2 0.1 -0.2
v 0.2 0.2 -0.2
v 0.2 0.3 -0.2
v 0.3 0.2 -0.2
v 0.3 0.3 -0.2
v 0.4 0.1 -0.2
v 0.4 0.2 -0.2
v -0.4 0.2 -0.3
v -0.4 0.3 -0.3
v -0.4 0.4 -0.3
v -0.3 0.2 -0.3
v -0.3 0.3 -0.3
v -0.1 0.2 -0.3
v -0.1 0.3 -0.3
v -0.1 0.4 -0.3
v 0.2 0 0.1
v 0.3 0 0.1
v 0.4 0 0.1
v 0.2 0 -0.1
v 0.3 0 -0.1
v 0.4 0 -0.1
v -0.4 0.1 0.2
v -0.1 0.1 0.2
v 0.2 0.1 0.2
v 0.4 0.1 0.2
v -0.5 0.1 0.1
v -0.4 0.1 0.1
v -0.1 0.1 0.1
v 0.2 0.1 0.1
v 0.3 0.1 0.1
v 0.4 0.1 0.1
v 0.5 0.1 0.1
v -0.4 0.1 0
v -0.3 0.1 0
v -0.1 0.1 0
v 0 0.1 0
v -0.5 0.1 -0.1
v -0.4 0.1 -0.1
v -0.3 0.1 -0.1
v -0.1 0.1 -0.1
v 0 0.1 -0.1
v 0.2 0.1 -0.1
v 0.3 0.1 -0.1
v 0.4 0.1 -0.1
v 0.5 0.1 -0.1
v -0.4 0.1 -0.2
v -0.3 0.1 -0.2
v -0.1 0.1 -0.2
v 0.2 0.1 -0.2
v 0.4 0.1 -0.2
v -0.4 0.2 0.3
v -0.3 0.2 0.3
v -0.1 0.2 0.3
v -0.5 0.2 0.2
v -0.4 0.2 0.2
v -0.3 0.2 0.2
v -0.1 0.2 0.2
v 0 0.2 0.2
v -0.5 0.2 0.1
v -0.4 0.2 0.1
v -0.1 0.2 0.1
v 0 0.2 0.1
v -0.5 0.2 -0.1
v -0.4 0.2 -0.1
v -0.1 0.2 -0.1
v 0 0.2 -0.1
v -0.5 0.2 -0.2
v -0.4 0.2 -0.2
v -0.3 0.2 -0.2
v -0.1 0.2 -0.2
v 0 0.2 -0.2
v -0.4 0.2 -0.3
v -0.3 0.2 -0.3
v -0.1 0.2 -0.3
v 0.3 0.2 0.2
v 0.4 0.2 0.2
v 0.3 0.2 0.1
v 0.4 0.2 0.1
v 0.3 0.2 -0.1
v 0.4 0.2 -0.1
v 0.3 0.2 -0.2
v 0.4 0.2 -0.2
v 0.2 0.3 0.2
v 0.3 0.3 0.2
v 0 0.3 0.1
v 0.1 0.3 0.1
v 0.2 0.3 0.1
v 0.3 0.3 0.1
v 0.4 0.3 0.1
v 0.5 0.3 0.1
v 0 0.3 0
v 0.1 0.3 0
v 0.4 0.3 0
v 0.5 0.3 0
v 0 0.3 -0.1
v 0.2 0.3 -0.1
v 0.3 0.3 -0.1
v 0.4 0.3 -0.1
v 0.5 0.3 -0.1
v 0.2 0.3 -0.2
v 0.3 0.3 -0.2
v -0.4 0.4 0.3
v -0.3 0.4 0.3
v -0.1 0.4 0.3
v -0.5 0.4 0.2
v -0.4 0.4 0.2
v -0.3 0.4 0.2
v -0.2 0.4 0.2
v -0.1 0.4 0.2
v 0 0.4 0.2
v -0.4 0.4 0.1
v -0.1 0.4 0.1
v 0 0.4 0.1
v 0.2 0.4 0.1
v 0.4 0.4 0.1
v -0.4 0.4 0
v -0.1 0.4 0
v 0 0.4 0
v 0.3 0.4 0
v 0.4 0.4 0
v -0.5 0.4 -0.1
v -0.4 0.4 -0.1
v 0.2 0.4 -0.1
v 0.3 0.4 -0.1
v 0.4 0.4 -0.1
v -0.5 0.4 -0.2
v -0.4 0.4 -0.2
v -0.3 0.4 -0.2
v -0.1 0.4 -0.2
v 0 0.4 -0.2
v -0.4 0.4 -0.3
v -0.1 0.4 -0.3
v -0.4 0.5 0.2
v -0.2 0.5 0.2
v -0.1 0.5 0.2
v -0.4 0.5 0.1
v -0.2 0.5 0.1
v -0.1 0.5 0.1
v -0.4 0.5 0
v -0.3 0.5 0
v -0.2 0.5 0
v -0.1 0.5 0
v -0.4 0.5 -0.1
v -0.3 0.5 -0.1
v -0.2 0.5 -0.1
v -0.4 0.5 -0.2
v -0.3 0.5 -0.2
v -0.1 0.5 -0.2

# faces
f 4/4/1 2/4/1 1/4/1
f 5/4/1 2/4/1 4/4/1
f 7/4/1 4/4/1 3/4/1
f 7/4/1 6/4/1 5/4/1
f 7/4/1 5/4/1 4/4/1
f 8/4/1 6/4/1 7/4/1
f 9/4/1 7/4/1 3/4/1
f 10/3/1 8/3/1 7/3/1
f 10/4/1 7/4/1 9/4/1
f 11/3/1 8/3/1 10/3/1
f 17/3/1 13/3/1 12/3/1
f 18/3/1 13/3/1 17/3/1
f 19/4/1 15/4/1 14/4/1
f 20/4/1 15/4/1 19/4/1
f 22/4/1 21/4/1 20/4/1
f 23/4/1 21/4/1 22/4/1
f 24/4/1 17/4/1 16/4/1
f 25/4/1 17/4/1 24/4/1
f 29/3/1 23/3/1 22/3/1
f 30/3/1 23/3/1 29/3/1
f 31/1/1 26/1/1 25/1/1
f 32/3/1 27/3/1 26/3/1
f 32/1/1 26/1/1 31/1/1
f 33/4/1 28/4/1 27/4/1
f 33/3/1 27/3/1 32/3/1
f 34/1/1 29/1/1 28/1/1
f 34/4/1 28/4/1 33/4/1
f 35/1/1 29/1/1 34/1/1
f 39/1/1 37/1/1 36/1/1
f 40/1/1 37/1/1 39/1/1
f 42/2/1 39/2/1 38/2/1
f 43/2/1 39/2/1 42/2/1
f 44/2/1 41/2/1 40/2/1
f 45/2/1 41/2/1 44/2/1
f 46/5/1 43/5/1 42/5/1
f 47/5/1 43/5/1 46/5/1
f 48/5/1 45/5/1 44/5/1
f 49/5/1 45/5/1 48/5/1
f 50/3/1 48/3/1 47/3/1
f 51/3/1 48/3/1 50/3/1
f 52/3/2 53/3/2 57/3/2
f 57/3/2 53/3/2 58/3/2
f 54/3/2 55/3/2 59/3/2
f 59/3/2 55/3/2 60/3/2
f 56/1/2 57/1/2 62/1/2
f 62/1/2 57/1/2 63/1/2
f 60/1/2 61/1/2 64/1/2
f 64/1/2 61/1/2 65/1/2
f 62/3/2 63/3/2 66/3/2
f 66/3/2 63/3/2 67/3/2
f 64/3/2 65/3/2 70/3/2
f 70/3/2 65/3/2 71/3/2
f 67/3/2 68/3/2 72/3/2
f 68/1/2 69/1/2 73/1/2
f 72/3/2 68/3/2 73/3/2
f 69/3/2 70/3/2 74/3/2
f 73/1/2 69/1/2 74/1/2
f 74/3/2 70/3/2 75/3/2
f 76/3/2 77/3/2 80/3/2
f 80/3/2 77/3/2 81/3/2
f 78/3/2 79/3/2 83/3/2
f 83/3/2 79/3/2 84/3/2
f 80/1/2 81/1/2 85/1/2
f 81/3/2 82/3/2 86/3/2
f 85/1/2 81/1/2 86/1/2
f 82/1/2 83/1/2 87/1/2
f 86/3/2 82/3/2 87/3/2
f 83/1/2 84/1/2 87/1/2
f 87/1/2 84/1/2 88/1/2
f 89/5/2 90/5/2 93/5/2
f 93/5/2 90/5/2 94/5/2
f 91/5/2 92/5/2 95/5/2
f 95/5/2 92/5/2 96/5/2
f 97/4/2 98/4/2 100/4/2
f 100/4/2 98/4/2 101/4/2
f 99/2/2 100/2/2 103/2/2
f 103/2/2 100/2/2 104/2/2
f 101/2/2 102/2/2 105/2/2
f 105/2/2 102/2/2 106/2/2
f 107/3/2 108/3/2 110/3/2
f 108/5/2 109/5/2 111/5/2
f 110/3/2 108/3/2 111/3/2
f 111/5/2 109/5/2 112/5/2
f 113/4/2 114/4/2 115/4/2
f 115/4/2 114/4/2 116/4/2
f 116/4/2 114/4/2 117/4/2
f 115/5/2 116/5/2 118/5/2
f 116/3/2 117/3/2 119/3/2
f 118/5/2 116/5/2 119/5/2
f 119/3/2 117/3/2 120/3/2
f 123/4/3 122/4/3 121/4/3
f 124/4/3 122/4/3 123/4/3
f 125/4/3 122/4/3 124/4/3
f 126/1/3 124/1/3 123/1/3
f 127/3/3 125/3/3 124/3/3
f 127/1/3 124/1/3 126/1/3
f 128/3/3 125/3/3 127/3/3
f 132/4/3 130/4/3 129/4/3
f 133/4/3 130/4/3 132/4/3
f 135/3/3 132/3/3 131/3/3
f 136/1/3 134/1/3 133/1/3
f 137/1/3 134/1/3 136/1/3
f 138/1/3 134/1/3 137/1/3
f 139/3/3 135/3/3 131/3/3
f 140/3/3 135/3/3 139/3/3
f 142/3/3 138/3/3 137/3/3
f 143/3/3 138/3/3 142/3/3
f 144/3/3 141/3/3 140/3/3
f 145/1/3 142/1/3 141/1/3
f 145/3/3 141/3/3 144/3/3
f 146/1/3 142/1/3 145/1/3
f 150/2/3 148/2/3 147/2/3
f 150/5/3 149/5/3 148/5/3
f 151/5/3 149/5/3 150/5/3
f 152/2/3 150/2/3 147/2/3
f 153/2/3 150/2/3 152/2/3
f 156/4/3 155/4/3 154/4/3
f 157/4/3 155/4/3 156/4/3
f 160/4/3 159/4/3 158/4/3
f 162/4/3 160/4/3 158/4/3
f 162/1/3 161/1/3 160/1/3
f 163/1/3 161/1/3 162/1/3
f 165/4/3 162/4/3 158/4/3
f 166/3/3 163/3/3 162/3/3
f 166/4/3 162/4/3 165/4/3
f 167/3/3 163/3/3 166/3/3
f 169/1/3 165/1/3 164/1/3
f 170/1/3 165/1/3 169/1/3
f 172/3/3 168/3/3 167/3/3
f 173/4/3 170/4/3 169/4/3
f 174/4/3 170/4/3 173/4/3
f 175/3/3 172/3/3 171/3/3
f 176/3/3 168/3/3 172/3/3
f 176/3/3 172/3/3 175/3/3
f 177/3/3 168/3/3 176/3/3
f 178/4/3 175/4/3 174/4/3
f 179/5/3 176/5/3 175/5/3
f 179/4/3 175/4/3 178/4/3
f 180/5/3 176/5/3 179/5/3
f 181/4/4 182/4/4 183/4/4
f 183/4/4 182/4/4 184/4/4
f 185/1/4 186/1/4 187/1/4
f 187/1/4 186/1/4 188/1/4
f 187/4/4 188/4/4 191/4/4
f 188/3/4 189/3/4 192/3/4
f 191/4/4 188/4/4 192/4/4
f 192/3/4 189/3/4 193/3/4
f 190/1/4 191/1/4 195/1/4
f 195/1/4 191/1/4 196/1/4
f 193/3/4 194/3/4 198/3/4
f 198/3/4 194/3/4 199/3/4
f 195/4/4 196/4/4 200/4/4
f 200/4/4 196/4/4 201/4/4
f 197/3/4 198/3/4 202/3/4
f 198/5/4 199/5/4 203/5/4
f 202/3/4 198/3/4 203/3/4
f 203/5/4 199/5/4 204/5/4
f 201/4/4 202/4/4 205/4/4
f 202/3/4 203/3/4 206/3/4
f 205/4/4 202/4/4 206/4/4
f 206/3/4 203/3/4 207/3/4
f 208/4/4 209/4/4 212/4/4
f 209/3/4 210/3/4 213/3/4
f 212/4/4 209/4/4 213/4/4
f 213/3/4 210/3/4 214/3/4
f 211/4/4 212/4/4 216/4/4
f 216/4/4 212/4/4 217/4/4
f 214/1/4 215/1/4 218/1/4
f 218/1/4 215/1/4 219/1/4
f 216/3/4 217/3/4 220/3/4
f 220/3/4 217/3/4 221/3/4
f 218/3/4 219/3/4 223/3/4
f 223/3/4 219/3/4 224/3/4
f 221/3/4 222/3/4 225/3/4
f 222/1/4 223/1/4 226/1/4
f 225/3/4 222/3/4 226/3/4
f 226/1/4 223/1/4 227/1/4
f 228/2/4 229/2/4 231/2/4
f 229/5/4 230/5/4 231/5/4
f 231/5/4 230/5/4 232/5/4
f 228/2/4 231/2/4 233/2/4
f 233/2/4 231/2/4 234/2/4
f 235/4/4 236/4/4 238/4/4
f 236/3/4 237/3/4 239/3/4
f 238/4/4 236/4/4 239/4/4
f 238/1/4 239/1/4 240/1/4
f 239/3/4 237/3/4 241/3/4
f 240/1/4 239/1/4 241/1/4
f 241/3/4 237/3/4 242/3/4
f 246/1/5 244/1/5 243/1/5
f 247/4/5 245/4/5 244/4/5
f 247/1/5 244/1/5 246/1/5
f 248/4/5 245/4/5 247/4/5
f 254/3/5 250/3/5 249/3/5
f 255/3/5 250/3/5 254/3/5
f 256/2/5 252/2/5 251/2/5
f 257/2/5 252/2/5 256/2/5
f 258/2/5 252/2/5 257/2/5
f 260/1/5 255/1/5 254/1/5
f 260/4/5 254/4/5 253/4/5
f 261/1/5 255/1/5 260/1/5
f 262/4/5 256/4/5 255/4/5
f 262/1/5 255/1/5 261/1/5
f 263/4/5 256/4/5 262/4/5
f 264/4/5 261/4/5 260/4/5
f 264/4/5 260/4/5 253/4/5
f 265/4/5 261/4/5 264/4/5
f 266/1/5 263/1/5 262/1/5
f 266/4/5 261/4/5 265/4/5
f 266/1/5 262/1/5 261/1/5
f 267/1/5 263/1/5 266/1/5
f 268/4/5 256/4/5 263/4/5
f 268/1/5 263/1/5 267/1/5
f 269/4/5 256/4/5 268/4/5
f 271/4/5 259/4/5 258/4/5
f 272/4/5 259/4/5 271/4/5
f 273/4/5 266/4/5 265/4/5
f 274/3/5 267/3/5 266/3/5
f 274/4/5 266/4/5 273/4/5
f 275/3/5 267/3/5 274/3/5
f 276/2/5 270/2/5 269/2/5
f 276/2/5 271/2/5 270/2/5
f 277/2/5 271/2/5 276/2/5
f 282/4/5 279/4/5 278/4/5
f 283/1/5 280/1/5 279/1/5
f 283/4/5 279/4/5 282/4/5
f 284/1/5 280/1/5 283/1/5
f 286/4/5 282/4/5 281/4/5
f 287/4/5 282/4/5 286/4/5
f 288/3/5 285/3/5 284/3/5
f 289/3/5 285/3/5 288/3/5
f 294/4/5 291/4/5 290/4/5
f 295/4/5 291/4/5 294/4/5
f 297/3/5 293/3/5 292/3/5
f 298/3/5 293/3/5 297/3/5
f 299/4/5 296/4/5 295/4/5
f 300/1/5 297/1/5 296/1/5
f 300/4/5 296/4/5 299/4/5
f 301/1/5 297/1/5 300/1/5
f 302/2/6 303/2/6 304/2/6
f 304/2/6 303/2/6 305/2/6
f 306/2/6 307/2/6 308/2/6
f 308/2/6 307/2/6 309/2/6
f 310/5/6 311/5/6 314/5/6
f 314/5/6 311/5/6 315/5/6
f 312/1/6 313/1/6 318/1/6
f 313/3/6 314/3/6 319/3/6
f 318/1/6 313/1/6 319/1/6
f 316/5/6 317/5/6 320/5/6
f 320/5/6 317/5/6 321/5/6
f 318/3/6 319/3/6 322/3/6
f 319/3/6 314/3/6 323/3/6
f 322/3/6 319/3/6 323/3/6
f 320/3/6 321/3/6 325/3/6
f 325/3/6 321/3/6 326/3/6
f 323/5/6 324/5/6 327/5/6
f 327/5/6 324/5/6 328/5/6
f 329/4/6 330/4/6 333/4/6
f 330/3/6 331/3/6 334/3/6
f 333/4/6 330/4/6 334/4/6
f 334/3/6 331/3/6 335/3/6
f 335/3/6 331/3/6 336/3/6
f 332/4/6 333/4/6 338/4/6
f 336/1/6 337/1/6 339/1/6
f 339/1/6 337/1/6 340/1/6
f 332/4/6 338/4/6 343/4/6
f 339/3/6 340/3/6 344/3/6
f 344/3/6 340/3/6 345/3/6
f 341/3/6 342/3/6 346/3/6
f 346/3/6 342/3/6 347/3/6
f 332/4/6 343/4/6 348/4/6
f 348/4/6 343/4/6 349/4/6
f 341/3/6 346/3/6 350/3/6
f 346/5/6 347/5/6 351/5/6
f 350/3/6 346/3/6 351/3/6
f 351/5/6 347/5/6 352/5/6
f 348/3/6 349/3/6 353/3/6
f 353/3/6 349/3/6 354/3/6
f 344/1/6 345/1/6 356/1/6
f 356/1/6 345/1/6 357/1/6
f 354/3/6 355/3/6 358/3/6
f 355/3/6 356/3/6 358/3/6
f 358/3/6 356/3/6 359/3/6
f 360/1/6 361/1/6 363/1/6
f 361/3/6 362/3/6 364/3/6
f 363/1/6 361/1/6 364/1/6
f 364/3/6 362/3/6 365/3/6
f 363/3/6 364/3/6 366/3/6
f 366/3/6 364/3/6 367/3/6
f 364/1/6 365/1/6 368/1/6
f 367/3/6 364/3/6 368/3/6
f 368/1/6 365/1/6 369/1/6
f 366/4/6 367/4/6 370/4/6
f 367/1/6 368/1/6 371/1/6
f 370/4/6 367/4/6 371/4/6
f 368/3/6 369/3/6 372/3/6
f 371/1/6 368/1/6 372/1/6
f 370/1/6 371/1/6 373/1/6
f 371/3/6 372/3/6 374/3/6
f 373/1/6 371/1/6 374/1/6
f 372/3/6 369/3/6 375/3/6
f 374/3/6 372/3/6 375/3/6
