# MagicaVoxel @ Ephtracy

# group
o 

# material
mtllib zombie-0.mtl
usemtl palette

# normals
vn -1 0 0
vn 1 0 0
vn 0 0 1
vn 0 0 -1
vn 0 -1 0
vn 0 1 0

# texcoords
vt 0.943359 0.5
vt 0.951172 0.5
vt 0.955078 0.5

# verts
v -0.4 0.7 0.3
v -0.4 0.7 -0.1
v -0.4 0.7 -0.3
v -0.4 0.8 0.1
v -0.4 0.8 0
v -0.4 0.8 -0.1
v -0.4 0.8 -0.2
v -0.4 0.9 0.3
v -0.4 0.9 0.1
v -0.4 1 0.3
v -0.4 1 0.2
v -0.4 1 0.1
v -0.4 1 0
v -0.4 1 -0.1
v -0.4 1 -0.2
v -0.4 1.1 0.3
v -0.4 1.1 0.2
v -0.4 1.1 0.1
v -0.4 1.1 0
v -0.4 1.1 -0.2
v -0.4 1.1 -0.3
v -0.4 1.2 0.3
v -0.4 1.2 0
v -0.4 1.2 -0.1
v -0.4 1.2 -0.3
v -0.3 0.7 0.4
v -0.3 0.7 0.3
v -0.3 0.8 -0.3
v -0.3 0.8 -0.4
v -0.3 0.9 0.3
v -0.3 1 0.3
v -0.3 1.1 0.3
v -0.3 1.1 -0.3
v -0.3 1.1 -0.4
v -0.3 1.2 0.4
v -0.3 1.2 0.3
v -0.3 1.2 0
v -0.3 1.2 -0.1
v -0.3 1.2 -0.2
v -0.3 1.2 -0.3
v -0.3 1.2 -0.4
v -0.3 1.3 0.3
v -0.3 1.3 -0.1
v -0.3 1.3 -0.2
v -0.3 1.3 -0.3
v 0.2 1.1 0.3
v 0.2 1.1 0.2
v 0.2 1.1 0
v 0.2 1.2 0.3
v 0.2 1.2 0.2
v 0.2 1.2 0.1
v 0.2 1.2 0
v -0.3 0.7 0.3
v -0.3 0.7 -0.1
v -0.3 0.7 -0.3
v -0.3 0.8 0.1
v -0.3 0.8 0
v -0.3 0.8 -0.1
v -0.3 0.8 -0.2
v -0.3 0.8 -0.3
v -0.3 0.9 0.3
v -0.3 0.9 0.1
v -0.3 1 0.3
v -0.3 1 0.2
v -0.3 1 0.1
v -0.3 1 0
v -0.3 1 -0.1
v -0.3 1 -0.2
v -0.3 1.1 0.3
v -0.3 1.1 0.2
v -0.3 1.1 0.1
v -0.3 1.1 0
v -0.3 1.1 -0.2
v -0.3 1.1 -0.3
v -0.3 1.2 0.3
v -0.3 1.2 0
v -0.3 1.2 -0.1
v -0.3 1.2 -0.2
v -0.3 1.2 -0.3
v -0.2 0.7 0.4
v -0.2 0.7 0.3
v -0.2 0.8 -0.3
v -0.2 0.8 -0.4
v -0.2 0.9 0.4
v -0.2 0.9 0.3
v -0.2 0.9 -0.3
v -0.2 0.9 -0.4
v -0.1 0.9 0.4
v -0.1 0.9 0.3
v -0.1 1 0.4
v -0.1 1 0.3
v 0 0.9 -0.3
v 0 0.9 -0.4
v 0 1.1 -0.3
v 0 1.1 -0.4
v 0.1 1 0.4
v 0.1 1 0.3
v 0.1 1.1 0.4
v 0.1 1.1 0.3
v 0.2 1.1 0.4
v 0.2 1.1 0.3
v 0.2 1.1 -0.3
v 0.2 1.1 -0.4
v 0.2 1.2 0.4
v 0.2 1.2 0.3
v 0.2 1.2 0.2
v 0.2 1.2 0.1
v 0.2 1.2 0
v 0.2 1.2 -0.3
v 0.2 1.2 -0.4
v 0.2 1.3 0.3
v 0.2 1.3 0.2
v 0.2 1.3 0.1
v 0.2 1.3 0
v 0.3 1.1 0.3
v 0.3 1.1 0.2
v 0.3 1.1 0
v 0.3 1.2 0.3
v 0.3 1.2 0.2
v 0.3 1.2 0
v 0.3 1.2 -0.1
v 0.3 1.2 -0.3
v 0.3 1.3 0
v 0.3 1.3 -0.1
v 0.3 1.3 -0.3
v -0.3 0.7 0.4
v -0.3 1.2 0.4
v -0.2 0.7 0.4
v -0.2 0.9 0.4
v -0.2 1 0.4
v -0.2 1.2 0.4
v -0.1 0.9 0.4
v -0.1 1 0.4
v -0.1 1.1 0.4
v 0 1.1 0.4
v 0 1.2 0.4
v 0.1 1 0.4
v 0.1 1.1 0.4
v 0.2 1.1 0.4
v 0.2 1.2 0.4
v -0.4 0.7 0.3
v -0.4 0.9 0.3
v -0.4 1 0.3
v -0.4 1.1 0.3
v -0.4 1.2 0.3
v -0.3 0.7 0.3
v -0.3 0.9 0.3
v -0.3 1 0.3
v -0.3 1.1 0.3
v -0.3 1.2 0.3
v -0.3 1.3 0.3
v -0.2 1.2 0.3
v 0 1.2 0.3
v 0.2 1.1 0.3
v 0.2 1.2 0.3
v 0.2 1.3 0.3
v 0.3 1.1 0.3
v 0.3 1.2 0.3
v 0.2 1.2 0
v 0.2 1.3 0
v 0.3 1.2 0
v 0.3 1.3 0
v -0.3 0.8 -0.3
v -0.3 1.1 -0.3
v -0.3 1.2 -0.3
v -0.2 0.8 -0.3
v -0.2 0.9 -0.3
v -0.2 1 -0.3
v -0.2 1.1 -0.3
v -0.2 1.2 -0.3
v -0.1 0.9 -0.3
v -0.1 1 -0.3
v -0.1 1.1 -0.3
v 0 0.9 -0.3
v 0 1.1 -0.3
v 0 1.2 -0.3
v 0.1 1.1 -0.3
v 0.1 1.2 -0.3
v 0.2 1.1 -0.3
v 0.2 1.2 -0.3
v -0.3 0.7 0.3
v -0.3 0.9 0.3
v -0.3 1 0.3
v -0.3 1.1 0.3
v -0.3 1.2 0.3
v -0.2 0.7 0.3
v -0.2 0.9 0.3
v -0.2 1 0.3
v -0.2 1.2 0.3
v -0.1 0.9 0.3
v -0.1 1 0.3
v -0.1 1.1 0.3
v 0 1.1 0.3
v 0 1.2 0.3
v 0.1 1 0.3
v 0.1 1.1 0.3
v 0.2 1.1 0.3
v 0.2 1.2 0.3
v 0.2 1.1 0
v 0.2 1.2 0
v 0.3 1.1 0
v 0.3 1.2 0
v -0.4 0.7 -0.3
v -0.4 1.1 -0.3
v -0.4 1.2 -0.3
v -0.3 0.7 -0.3
v -0.3 0.8 -0.3
v -0.3 1.1 -0.3
v -0.3 1.2 -0.3
v -0.3 1.3 -0.3
v -0.2 1.2 -0.3
v 0 1.2 -0.3
v 0 1.3 -0.3
v 0.1 1.2 -0.3
v 0.2 1.2 -0.3
v 0.3 1.2 -0.3
v 0.3 1.3 -0.3
v -0.3 0.8 -0.4
v -0.3 1.1 -0.4
v -0.3 1.2 -0.4
v -0.2 0.8 -0.4
v -0.2 0.9 -0.4
v -0.2 1 -0.4
v -0.2 1.1 -0.4
v -0.2 1.2 -0.4
v -0.1 0.9 -0.4
v -0.1 1 -0.4
v -0.1 1.1 -0.4
v 0 0.9 -0.4
v 0 1.1 -0.4
v 0 1.2 -0.4
v 0.1 1.1 -0.4
v 0.1 1.2 -0.4
v 0.2 1.1 -0.4
v 0.2 1.2 -0.4
v -0.3 0.7 0.4
v -0.2 0.7 0.4
v -0.4 0.7 0.3
v -0.3 0.7 0.3
v -0.2 0.7 0.3
v -0.4 0.7 -0.1
v -0.3 0.7 -0.1
v -0.4 0.7 -0.3
v -0.3 0.7 -0.3
v -0.3 0.8 -0.3
v -0.2 0.8 -0.3
v -0.3 0.8 -0.4
v -0.2 0.8 -0.4
v -0.2 0.9 0.4
v -0.1 0.9 0.4
v -0.2 0.9 0.3
v -0.1 0.9 0.3
v -0.2 0.9 -0.3
v -0.1 0.9 -0.3
v 0 0.9 -0.3
v -0.2 0.9 -0.4
v -0.1 0.9 -0.4
v 0 0.9 -0.4
v -0.1 1 0.4
v 0.1 1 0.4
v -0.1 1 0.3
v 0.1 1 0.3
v 0.1 1.1 0.4
v 0.2 1.1 0.4
v 0.1 1.1 0.3
v 0.2 1.1 0.3
v 0.3 1.1 0.3
v 0.2 1.1 0.2
v 0.3 1.1 0.2
v 0.2 1.1 0
v 0.3 1.1 0
v 0 1.1 -0.3
v 0.1 1.1 -0.3
v 0.2 1.1 -0.3
v 0 1.1 -0.4
v 0.1 1.1 -0.4
v 0.2 1.1 -0.4
v -0.3 1.2 0.3
v -0.2 1.2 0.3
v 0 1.2 0.3
v 0.2 1.2 0.3
v -0.1 1.2 0.2
v 0 1.2 0.2
v 0.1 1.2 0.2
v 0.2 1.2 0.2
v -0.1 1.2 0.1
v 0 1.2 0.1
v 0.1 1.2 0.1
v 0.2 1.2 0.1
v -0.3 1.2 0
v 0 1.2 0
v 0.2 1.2 0
v 0.3 1.2 0
v -0.3 1.2 -0.1
v -0.2 1.2 -0.1
v 0 1.2 -0.1
v 0.1 1.2 -0.1
v 0.3 1.2 -0.1
v -0.3 1.2 -0.2
v -0.2 1.2 -0.2
v 0 1.2 -0.2
v 0.1 1.2 -0.2
v -0.3 1.2 -0.3
v -0.2 1.2 -0.3
v 0 1.2 -0.3
v 0.1 1.2 -0.3
v 0.2 1.2 -0.3
v 0.3 1.2 -0.3
v -0.3 1.2 0.4
v -0.2 1.2 0.4
v 0 1.2 0.4
v 0.2 1.2 0.4
v -0.4 1.2 0.3
v -0.3 1.2 0.3
v -0.2 1.2 0.3
v 0 1.2 0.3
v 0.2 1.2 0.3
v 0.3 1.2 0.3
v 0.2 1.2 0.2
v 0.3 1.2 0.2
v 0.2 1.2 0.1
v -0.4 1.2 0
v -0.3 1.2 0
v 0.2 1.2 0
v 0.3 1.2 0
v -0.4 1.2 -0.1
v -0.3 1.2 -0.1
v -0.3 1.2 -0.2
v -0.4 1.2 -0.3
v -0.3 1.2 -0.3
v -0.2 1.2 -0.3
v 0 1.2 -0.3
v 0.1 1.2 -0.3
v 0.2 1.2 -0.3
v -0.3 1.2 -0.4
v -0.2 1.2 -0.4
v 0 1.2 -0.4
v 0.1 1.2 -0.4
v 0.2 1.2 -0.4
v -0.3 1.3 0.3
v 0.2 1.3 0.3
v -0.1 1.3 0.2
v 0 1.3 0.2
v 0.1 1.3 0.2
v 0.2 1.3 0.2
v -0.1 1.3 0.1
v 0 1.3 0.1
v 0.1 1.3 0.1
v 0.2 1.3 0.1
v 0 1.3 0
v 0.2 1.3 0
v 0.3 1.3 0
v -0.3 1.3 -0.1
v -0.2 1.3 -0.1
v 0 1.3 -0.1
v 0.1 1.3 -0.1
v 0.3 1.3 -0.1
v -0.3 1.3 -0.2
v -0.2 1.3 -0.2
v 0 1.3 -0.2
v 0.1 1.3 -0.2
v -0.3 1.3 -0.3
v 0 1.3 -0.3
v 0.3 1.3 -0.3

# faces
f 4/2/1 2/2/1 1/2/1
f 5/2/1 2/2/1 4/2/1
f 6/1/1 3/1/1 2/1/1
f 6/2/1 2/2/1 5/2/1
f 7/1/1 3/1/1 6/1/1
f 8/2/1 4/2/1 1/2/1
f 9/3/1 5/3/1 4/3/1
f 9/2/1 4/2/1 8/2/1
f 10/3/1 9/3/1 8/3/1
f 11/3/1 9/3/1 10/3/1
f 12/3/1 5/3/1 9/3/1
f 12/3/1 9/3/1 11/3/1
f 13/2/1 6/2/1 5/2/1
f 13/3/1 5/3/1 12/3/1
f 13/2/1 7/2/1 6/2/1
f 14/2/1 7/2/1 13/2/1
f 15/1/1 3/1/1 7/1/1
f 15/2/1 7/2/1 14/2/1
f 16/2/1 11/2/1 10/2/1
f 17/3/1 12/3/1 11/3/1
f 17/2/1 11/2/1 16/2/1
f 18/2/1 14/2/1 13/2/1
f 18/3/1 12/3/1 17/3/1
f 18/2/1 13/2/1 12/2/1
f 19/2/1 14/2/1 18/2/1
f 20/1/1 3/1/1 15/1/1
f 20/3/1 15/3/1 14/3/1
f 21/1/1 3/1/1 20/1/1
f 22/3/1 17/3/1 16/3/1
f 22/3/1 19/3/1 18/3/1
f 22/3/1 18/3/1 17/3/1
f 23/2/1 14/2/1 19/2/1
f 23/3/1 19/3/1 22/3/1
f 24/3/1 21/3/1 20/3/1
f 24/2/1 14/2/1 23/2/1
f 24/3/1 20/3/1 14/3/1
f 25/3/1 21/3/1 24/3/1
f 30/2/1 27/2/1 26/2/1
f 31/2/1 30/2/1 26/2/1
f 32/2/1 31/2/1 26/2/1
f 33/1/1 29/1/1 28/1/1
f 34/1/1 29/1/1 33/1/1
f 35/2/1 32/2/1 26/2/1
f 36/2/1 32/2/1 35/2/1
f 40/2/1 34/2/1 33/2/1
f 41/2/1 34/2/1 40/2/1
f 42/3/1 37/3/1 36/3/1
f 42/3/1 38/3/1 37/3/1
f 43/2/1 39/2/1 38/2/1
f 43/3/1 38/3/1 42/3/1
f 44/3/1 40/3/1 39/3/1
f 44/2/1 39/2/1 43/2/1
f 45/3/1 40/3/1 44/3/1
f 49/3/1 47/3/1 46/3/1
f 50/2/1 48/2/1 47/2/1
f 50/3/1 47/3/1 49/3/1
f 51/2/1 48/2/1 50/2/1
f 52/2/1 48/2/1 51/2/1
f 53/2/2 54/2/2 56/2/2
f 56/2/2 54/2/2 57/2/2
f 54/1/2 55/1/2 58/1/2
f 57/2/2 54/2/2 58/2/2
f 58/1/2 55/1/2 59/1/2
f 59/1/2 55/1/2 60/1/2
f 53/2/2 56/2/2 61/2/2
f 56/3/2 57/3/2 62/3/2
f 61/2/2 56/2/2 62/2/2
f 61/3/2 62/3/2 63/3/2
f 63/3/2 62/3/2 64/3/2
f 62/3/2 57/3/2 65/3/2
f 64/3/2 62/3/2 65/3/2
f 57/2/2 58/2/2 66/2/2
f 65/3/2 57/3/2 66/3/2
f 58/2/2 59/2/2 66/2/2
f 66/2/2 59/2/2 67/2/2
f 59/1/2 60/1/2 68/1/2
f 67/2/2 59/2/2 68/2/2
f 63/2/2 64/2/2 69/2/2
f 64/3/2 65/3/2 70/3/2
f 69/2/2 64/2/2 70/2/2
f 66/2/2 67/2/2 71/2/2
f 70/3/2 65/3/2 71/3/2
f 65/2/2 66/2/2 71/2/2
f 71/2/2 67/2/2 72/2/2
f 68/1/2 60/1/2 73/1/2
f 67/3/2 68/3/2 73/3/2
f 73/1/2 60/1/2 74/1/2
f 69/3/2 70/3/2 75/3/2
f 71/3/2 72/3/2 75/3/2
f 70/3/2 71/3/2 75/3/2
f 72/2/2 67/2/2 76/2/2
f 75/3/2 72/3/2 76/3/2
f 73/3/2 74/3/2 77/3/2
f 76/2/2 67/2/2 77/2/2
f 67/3/2 73/3/2 77/3/2
f 77/3/2 74/3/2 78/3/2
f 78/3/2 74/3/2 79/3/2
f 80/2/2 81/2/2 84/2/2
f 84/2/2 81/2/2 85/2/2
f 82/1/2 83/1/2 86/1/2
f 86/1/2 83/1/2 87/1/2
f 88/2/2 89/2/2 90/2/2
f 90/2/2 89/2/2 91/2/2
f 92/2/2 93/2/2 94/2/2
f 94/2/2 93/2/2 95/2/2
f 96/2/2 97/2/2 98/2/2
f 98/2/2 97/2/2 99/2/2
f 100/2/2 101/2/2 104/2/2
f 104/2/2 101/2/2 105/2/2
f 102/1/2 103/1/2 109/1/2
f 109/1/2 103/1/2 110/1/2
f 105/3/2 106/3/2 111/3/2
f 106/2/2 107/2/2 112/2/2
f 111/3/2 106/3/2 112/3/2
f 107/3/2 108/3/2 113/3/2
f 112/2/2 107/2/2 113/2/2
f 113/3/2 108/3/2 114/3/2
f 115/3/2 116/3/2 118/3/2
f 116/2/2 117/2/2 119/2/2
f 118/3/2 116/3/2 119/3/2
f 119/2/2 117/2/2 120/2/2
f 120/2/2 121/2/2 123/2/2
f 121/1/2 122/1/2 124/1/2
f 123/2/2 121/2/2 124/2/2
f 124/1/2 122/1/2 125/1/2
f 128/2/3 127/2/3 126/2/3
f 129/2/3 127/2/3 128/2/3
f 130/2/3 127/2/3 129/2/3
f 131/2/3 127/2/3 130/2/3
f 132/2/3 130/2/3 129/2/3
f 133/3/3 131/3/3 130/3/3
f 133/2/3 130/2/3 132/2/3
f 134/3/3 131/3/3 133/3/3
f 135/3/3 131/3/3 134/3/3
f 135/2/3 134/2/3 133/2/3
f 136/3/3 131/3/3 135/3/3
f 137/2/3 135/2/3 133/2/3
f 137/2/3 136/2/3 135/2/3
f 138/2/3 136/2/3 137/2/3
f 139/2/3 136/2/3 138/2/3
f 140/2/3 136/2/3 139/2/3
f 146/2/3 142/2/3 141/2/3
f 147/3/3 143/3/3 142/3/3
f 147/2/3 142/2/3 146/2/3
f 148/2/3 144/2/3 143/2/3
f 148/3/3 143/3/3 147/3/3
f 149/3/3 145/3/3 144/3/3
f 149/2/3 144/2/3 148/2/3
f 150/3/3 145/3/3 149/3/3
f 152/3/3 151/3/3 150/3/3
f 153/3/3 151/3/3 152/3/3
f 155/3/3 151/3/3 153/3/3
f 156/3/3 151/3/3 155/3/3
f 157/3/3 155/3/3 154/3/3
f 158/3/3 155/3/3 157/3/3
f 161/2/3 160/2/3 159/2/3
f 162/2/3 160/2/3 161/2/3
f 166/1/3 164/1/3 163/1/3
f 167/1/3 164/1/3 166/1/3
f 168/1/3 164/1/3 167/1/3
f 169/2/3 165/2/3 164/2/3
f 169/1/3 164/1/3 168/1/3
f 170/2/3 165/2/3 169/2/3
f 171/1/3 168/1/3 167/1/3
f 172/3/3 170/3/3 169/3/3
f 172/1/3 168/1/3 171/1/3
f 172/3/3 169/3/3 168/3/3
f 173/3/3 170/3/3 172/3/3
f 174/2/3 172/2/3 171/2/3
f 174/2/3 173/2/3 172/2/3
f 175/3/3 170/3/3 173/3/3
f 175/2/3 173/2/3 174/2/3
f 176/3/3 170/3/3 175/3/3
f 177/2/3 176/2/3 175/2/3
f 178/2/3 176/2/3 177/2/3
f 179/1/3 178/1/3 177/1/3
f 180/1/3 178/1/3 179/1/3
f 181/2/4 182/2/4 186/2/4
f 184/2/4 185/2/4 186/2/4
f 183/2/4 184/2/4 186/2/4
f 182/2/4 183/2/4 186/2/4
f 186/2/4 185/2/4 187/2/4
f 187/2/4 185/2/4 188/2/4
f 188/2/4 185/2/4 189/2/4
f 187/2/4 188/2/4 190/2/4
f 188/3/4 189/3/4 191/3/4
f 190/2/4 188/2/4 191/2/4
f 191/3/4 189/3/4 192/3/4
f 192/3/4 189/3/4 193/3/4
f 191/2/4 192/2/4 193/2/4
f 193/3/4 189/3/4 194/3/4
f 191/2/4 193/2/4 195/2/4
f 193/2/4 194/2/4 195/2/4
f 195/2/4 194/2/4 196/2/4
f 196/2/4 194/2/4 197/2/4
f 197/2/4 194/2/4 198/2/4
f 199/2/4 200/2/4 201/2/4
f 201/2/4 200/2/4 202/2/4
f 203/1/4 204/1/4 206/1/4
f 206/1/4 204/1/4 207/1/4
f 204/3/4 205/3/4 208/3/4
f 207/1/4 204/1/4 208/1/4
f 208/3/4 205/3/4 209/3/4
f 209/3/4 210/3/4 211/3/4
f 211/3/4 210/3/4 212/3/4
f 212/3/4 210/3/4 213/3/4
f 212/1/4 213/1/4 214/1/4
f 214/1/4 213/1/4 215/1/4
f 215/1/4 213/1/4 216/1/4
f 216/1/4 213/1/4 217/1/4
f 218/1/4 219/1/4 221/1/4
f 221/1/4 219/1/4 222/1/4
f 222/1/4 219/1/4 223/1/4
f 219/2/4 220/2/4 224/2/4
f 223/1/4 219/1/4 224/1/4
f 224/2/4 220/2/4 225/2/4
f 222/1/4 223/1/4 226/1/4
f 224/3/4 225/3/4 227/3/4
f 226/1/4 223/1/4 227/1/4
f 223/3/4 224/3/4 227/3/4
f 227/3/4 225/3/4 228/3/4
f 226/2/4 227/2/4 229/2/4
f 227/2/4 228/2/4 229/2/4
f 228/3/4 225/3/4 230/3/4
f 229/2/4 228/2/4 230/2/4
f 230/3/4 225/3/4 231/3/4
f 230/2/4 231/2/4 232/2/4
f 232/2/4 231/2/4 233/2/4
f 232/1/4 233/1/4 234/1/4
f 234/1/4 233/1/4 235/1/4
f 239/2/5 237/2/5 236/2/5
f 240/2/5 237/2/5 239/2/5
f 241/2/5 239/2/5 238/2/5
f 242/2/5 239/2/5 241/2/5
f 243/1/5 242/1/5 241/1/5
f 244/1/5 242/1/5 243/1/5
f 247/1/5 246/1/5 245/1/5
f 248/1/5 246/1/5 247/1/5
f 251/2/5 250/2/5 249/2/5
f 252/2/5 250/2/5 251/2/5
f 256/1/5 254/1/5 253/1/5
f 257/2/5 255/2/5 254/2/5
f 257/1/5 254/1/5 256/1/5
f 258/2/5 255/2/5 257/2/5
f 261/2/5 260/2/5 259/2/5
f 262/2/5 260/2/5 261/2/5
f 265/2/5 264/2/5 263/2/5
f 266/2/5 264/2/5 265/2/5
f 268/3/5 267/3/5 266/3/5
f 269/3/5 267/3/5 268/3/5
f 270/2/5 269/2/5 268/2/5
f 271/2/5 269/2/5 270/2/5
f 275/2/5 273/2/5 272/2/5
f 276/1/5 274/1/5 273/1/5
f 276/2/5 273/2/5 275/2/5
f 277/1/5 274/1/5 276/1/5
f 282/3/5 279/3/5 278/3/5
f 282/3/5 281/3/5 280/3/5
f 282/3/5 280/3/5 279/3/5
f 283/3/5 281/3/5 282/3/5
f 284/3/5 281/3/5 283/3/5
f 285/3/5 281/3/5 284/3/5
f 286/3/5 282/3/5 278/3/5
f 286/2/5 283/2/5 282/2/5
f 287/3/5 284/3/5 283/3/5
f 287/2/5 283/2/5 286/2/5
f 288/2/5 285/2/5 284/2/5
f 288/3/5 284/3/5 287/3/5
f 289/2/5 285/2/5 288/2/5
f 290/3/5 287/3/5 286/3/5
f 290/3/5 286/3/5 278/3/5
f 290/3/5 289/3/5 288/3/5
f 290/3/5 288/3/5 287/3/5
f 291/3/5 289/3/5 290/3/5
f 292/3/5 289/3/5 291/3/5
f 294/3/5 291/3/5 290/3/5
f 295/3/5 291/3/5 294/3/5
f 296/2/5 292/2/5 291/2/5
f 296/3/5 291/3/5 295/3/5
f 296/2/5 293/2/5 292/2/5
f 297/2/5 293/2/5 296/2/5
f 298/2/5 293/2/5 297/2/5
f 299/2/5 295/2/5 294/2/5
f 300/3/5 296/3/5 295/3/5
f 300/2/5 295/2/5 299/2/5
f 300/3/5 297/3/5 296/3/5
f 301/3/5 297/3/5 300/3/5
f 302/1/5 298/1/5 297/1/5
f 302/3/5 297/3/5 301/3/5
f 303/3/5 301/3/5 300/3/5
f 303/3/5 300/3/5 299/3/5
f 304/3/5 301/3/5 303/3/5
f 305/1/5 302/1/5 301/1/5
f 305/3/5 301/3/5 304/3/5
f 306/1/5 298/1/5 302/1/5
f 306/1/5 302/1/5 305/1/5
f 307/1/5 298/1/5 306/1/5
f 308/1/5 298/1/5 307/1/5
f 309/2/6 310/2/6 314/2/6
f 310/3/6 311/3/6 315/3/6
f 314/2/6 310/2/6 315/2/6
f 311/2/6 312/2/6 316/2/6
f 315/3/6 311/3/6 316/3/6
f 316/2/6 312/2/6 317/2/6
f 317/3/6 318/3/6 319/3/6
f 319/3/6 318/3/6 320/3/6
f 319/2/6 320/2/6 321/2/6
f 313/3/6 314/3/6 322/3/6
f 322/3/6 314/3/6 323/3/6
f 321/2/6 320/2/6 324/2/6
f 324/2/6 320/2/6 325/2/6
f 322/2/6 323/2/6 326/2/6
f 326/2/6 323/2/6 327/2/6
f 326/3/6 327/3/6 328/3/6
f 326/3/6 328/3/6 329/3/6
f 329/3/6 328/3/6 330/3/6
f 330/2/6 331/2/6 335/2/6
f 331/3/6 332/3/6 336/3/6
f 335/2/6 331/2/6 336/2/6
f 332/2/6 333/2/6 337/2/6
f 336/3/6 332/3/6 337/3/6
f 333/1/6 334/1/6 338/1/6
f 337/2/6 333/2/6 338/2/6
f 338/1/6 334/1/6 339/1/6
f 340/3/6 341/3/6 342/3/6
f 342/3/6 341/3/6 343/3/6
f 343/3/6 341/3/6 344/3/6
f 344/3/6 341/3/6 345/3/6
f 340/3/6 342/3/6 346/3/6
f 342/2/6 343/2/6 346/2/6
f 343/3/6 344/3/6 347/3/6
f 346/2/6 343/2/6 347/2/6
f 344/2/6 345/2/6 348/2/6
f 347/3/6 344/3/6 348/3/6
f 348/2/6 345/2/6 349/2/6
f 346/3/6 347/3/6 350/3/6
f 347/3/6 348/3/6 350/3/6
f 348/3/6 349/3/6 350/3/6
f 350/3/6 349/3/6 351/3/6
f 346/3/6 350/3/6 353/3/6
f 340/3/6 346/3/6 353/3/6
f 353/3/6 350/3/6 354/3/6
f 350/2/6 351/2/6 355/2/6
f 354/3/6 350/3/6 355/3/6
f 351/2/6 352/2/6 355/2/6
f 355/2/6 352/2/6 356/2/6
f 356/2/6 352/2/6 357/2/6
f 353/2/6 354/2/6 358/2/6
f 354/3/6 355/3/6 359/3/6
f 358/2/6 354/2/6 359/2/6
f 355/3/6 356/3/6 359/3/6
f 359/3/6 356/3/6 360/3/6
f 356/1/6 357/1/6 361/1/6
f 360/3/6 356/3/6 361/3/6
f 359/3/6 360/3/6 362/3/6
f 358/3/6 359/3/6 362/3/6
f 360/1/6 361/1/6 363/1/6
f 362/3/6 360/3/6 363/3/6
f 361/1/6 357/1/6 364/1/6
f 363/1/6 361/1/6 364/1/6
