# MagicaVoxel @ Ephtracy

# group
o 

# material
mtllib zombie-5.mtl
usemtl palette

# normals
vn -1 0 0
vn 1 0 0
vn 0 0 1
vn 0 0 -1
vn 0 -1 0
vn 0 1 0

# texcoords
vt 0.939453 0.5
vt 0.943359 0.5
vt 0.970703 0.5
vt 0.986328 0.5

# verts
v -0.3 0.7 0.3
v -0.3 0.7 -0.2
v -0.3 0.7 -0.3
v -0.3 0.8 -0.2
v -0.3 0.8 -0.3
v -0.3 1.2 0.3
v -0.3 1.2 -0.3
v 0.2 0.7 0.3
v 0.2 0.7 0.2
v 0.2 0.7 0.1
v 0.2 0.7 -0.1
v 0.2 0.7 -0.3
v 0.2 0.8 0.3
v 0.2 0.8 0.2
v 0.2 0.8 0.1
v 0.2 0.8 -0.1
v 0.2 0.9 0.2
v 0.2 0.9 0.1
v 0.2 0.9 -0.1
v 0.2 0.9 -0.2
v 0.2 1 0.3
v 0.2 1 0.2
v 0.2 1 0.1
v 0.2 1 -0.1
v 0.2 1 -0.2
v 0.2 1 -0.3
v 0.2 1.1 0.3
v 0.2 1.1 0.1
v 0.2 1.1 -0.1
v 0.2 1.1 -0.3
v 0.2 1.2 0.3
v 0.2 1.2 -0.3
v -0.3 0.7 0.3
v -0.3 1.2 0.3
v -0.1 0.7 0.3
v -0.1 0.8 0.3
v -0.1 1.1 0.3
v -0.1 1.2 0.3
v 0 0.7 0.3
v 0 0.8 0.3
v 0 0.9 0.3
v 0 1.1 0.3
v 0 1.2 0.3
v 0.1 0.7 0.3
v 0.1 0.8 0.3
v 0.1 0.9 0.3
v 0.1 1 0.3
v 0.1 1.1 0.3
v 0.2 0.7 0.3
v 0.2 0.8 0.3
v 0.2 1 0.3
v 0.2 1.1 0.3
v 0.2 1.2 0.3
v -0.3 0.7 -0.3
v -0.3 0.8 -0.3
v -0.3 1.2 -0.3
v -0.2 0.8 -0.3
v -0.2 0.9 -0.3
v -0.1 0.7 -0.3
v -0.1 0.8 -0.3
v 0 0.8 -0.3
v 0 0.9 -0.3
v 0.1 1 -0.3
v 0.1 1.1 -0.3
v 0.2 0.7 -0.3
v 0.2 1 -0.3
v 0.2 1.1 -0.3
v 0.2 1.2 -0.3
v -0.3 0.7 0.3
v -0.1 0.7 0.3
v 0 0.7 0.3
v 0.1 0.7 0.3
v 0.2 0.7 0.3
v -0.1 0.7 0.2
v 0 0.7 0.2
v 0.1 0.7 0.2
v 0.2 0.7 0.2
v 0 0.7 0.1
v 0.2 0.7 0.1
v -0.1 0.7 0
v 0 0.7 0
v 0.1 0.7 0
v -0.1 0.7 -0.1
v 0 0.7 -0.1
v 0.1 0.7 -0.1
v 0.2 0.7 -0.1
v -0.3 0.7 -0.2
v -0.1 0.7 -0.2
v -0.3 0.7 -0.3
v -0.1 0.7 -0.3
v 0.2 0.7 -0.3
v -0.3 1.2 0.3
v -0.1 1.2 0.3
v 0 1.2 0.3
v 0.2 1.2 0.3
v -0.1 1.2 0.1
v 0 1.2 0.1
v 0.1 1.2 0.1
v 0 1.2 0
v 0.1 1.2 0
v -0.3 1.2 -0.3
v 0.2 1.2 -0.3

# faces
f 4/3/1 2/3/1 1/3/1
f 4/2/1 3/2/1 2/2/1
f 5/2/1 3/2/1 4/2/1
f 6/3/1 4/3/1 1/3/1
f 6/3/1 5/3/1 4/3/1
f 7/3/1 5/3/1 6/3/1
f 8/2/2 9/2/2 13/2/2
f 9/3/2 10/3/2 14/3/2
f 13/2/2 9/2/2 14/2/2
f 10/2/2 11/2/2 15/2/2
f 14/3/2 10/3/2 15/3/2
f 11/3/2 12/3/2 16/3/2
f 15/2/2 11/2/2 16/2/2
f 14/3/2 15/3/2 17/3/2
f 13/3/2 14/3/2 17/3/2
f 15/3/2 16/3/2 17/3/2
f 17/3/2 16/3/2 18/3/2
f 16/3/2 12/3/2 19/3/2
f 18/3/2 16/3/2 19/3/2
f 19/3/2 12/3/2 20/3/2
f 13/3/2 17/3/2 21/3/2
f 17/4/2 18/4/2 22/4/2
f 21/3/2 17/3/2 22/3/2
f 18/3/2 19/3/2 23/3/2
f 22/4/2 18/4/2 23/4/2
f 19/4/2 20/4/2 24/4/2
f 23/3/2 19/3/2 24/3/2
f 20/3/2 12/3/2 25/3/2
f 24/4/2 20/4/2 25/4/2
f 25/3/2 12/3/2 26/3/2
f 21/1/2 22/1/2 27/1/2
f 22/1/2 23/1/2 27/1/2
f 23/3/2 24/3/2 28/3/2
f 27/1/2 23/1/2 28/1/2
f 25/1/2 26/1/2 29/1/2
f 28/3/2 24/3/2 29/3/2
f 24/1/2 25/1/2 29/1/2
f 29/1/2 26/1/2 30/1/2
f 27/3/2 28/3/2 31/3/2
f 28/3/2 29/3/2 31/3/2
f 29/3/2 30/3/2 31/3/2
f 31/3/2 30/3/2 32/3/2
f 35/3/3 34/3/3 33/3/3
f 36/3/3 34/3/3 35/3/3
f 37/3/3 34/3/3 36/3/3
f 38/3/3 34/3/3 37/3/3
f 39/2/3 36/2/3 35/2/3
f 40/3/3 37/3/3 36/3/3
f 40/2/3 36/2/3 39/2/3
f 41/3/3 37/3/3 40/3/3
f 42/2/3 38/2/3 37/2/3
f 42/3/3 37/3/3 41/3/3
f 43/2/3 38/2/3 42/2/3
f 44/3/3 40/3/3 39/3/3
f 45/2/3 41/2/3 40/2/3
f 45/3/3 40/3/3 44/3/3
f 46/3/3 42/3/3 41/3/3
f 46/2/3 41/2/3 45/2/3
f 46/3/3 43/3/3 42/3/3
f 47/3/3 43/3/3 46/3/3
f 48/3/3 43/3/3 47/3/3
f 49/2/3 45/2/3 44/2/3
f 50/3/3 46/3/3 45/3/3
f 50/2/3 45/2/3 49/2/3
f 50/3/3 47/3/3 46/3/3
f 51/1/3 48/1/3 47/1/3
f 51/3/3 47/3/3 50/3/3
f 52/3/3 43/3/3 48/3/3
f 52/1/3 48/1/3 51/1/3
f 53/3/3 43/3/3 52/3/3
f 54/2/4 55/2/4 57/2/4
f 55/3/4 56/3/4 57/3/4
f 57/3/4 56/3/4 58/3/4
f 54/2/4 57/2/4 59/2/4
f 57/2/4 58/2/4 59/2/4
f 59/2/4 58/2/4 60/2/4
f 59/3/4 60/3/4 61/3/4
f 60/2/4 58/2/4 61/2/4
f 58/3/4 56/3/4 62/3/4
f 61/2/4 58/2/4 62/2/4
f 61/3/4 62/3/4 63/3/4
f 62/3/4 56/3/4 63/3/4
f 63/3/4 56/3/4 64/3/4
f 59/3/4 61/3/4 65/3/4
f 61/3/4 63/3/4 65/3/4
f 63/1/4 64/1/4 66/1/4
f 65/3/4 63/3/4 66/3/4
f 64/3/4 56/3/4 67/3/4
f 66/1/4 64/1/4 67/1/4
f 67/3/4 56/3/4 68/3/4
f 74/3/5 70/3/5 69/3/5
f 74/2/5 71/2/5 70/2/5
f 75/3/5 72/3/5 71/3/5
f 75/2/5 71/2/5 74/2/5
f 76/2/5 73/2/5 72/2/5
f 76/3/5 72/3/5 75/3/5
f 77/2/5 73/2/5 76/2/5
f 78/3/5 75/3/5 74/3/5
f 78/3/5 76/3/5 75/3/5
f 78/3/5 77/3/5 76/3/5
f 79/3/5 77/3/5 78/3/5
f 80/3/5 74/3/5 69/3/5
f 80/3/5 78/3/5 74/3/5
f 81/2/5 79/2/5 78/2/5
f 81/3/5 78/3/5 80/3/5
f 82/2/5 79/2/5 81/2/5
f 83/3/5 80/3/5 69/3/5
f 83/2/5 81/2/5 80/2/5
f 84/3/5 82/3/5 81/3/5
f 84/2/5 81/2/5 83/2/5
f 85/2/5 79/2/5 82/2/5
f 85/3/5 82/3/5 84/3/5
f 86/2/5 79/2/5 85/2/5
f 87/3/5 84/3/5 83/3/5
f 87/3/5 83/3/5 69/3/5
f 87/3/5 86/3/5 85/3/5
f 87/3/5 85/3/5 84/3/5
f 88/3/5 86/3/5 87/3/5
f 89/2/5 88/2/5 87/2/5
f 90/3/5 86/3/5 88/3/5
f 90/2/5 88/2/5 89/2/5
f 91/3/5 86/3/5 90/3/5
f 92/3/6 93/3/6 96/3/6
f 93/2/6 94/2/6 96/2/6
f 94/3/6 95/3/6 97/3/6
f 96/2/6 94/2/6 97/2/6
f 97/3/6 95/3/6 98/3/6
f 96/3/6 97/3/6 99/3/6
f 97/2/6 98/2/6 99/2/6
f 98/3/6 95/3/6 100/3/6
f 99/2/6 98/2/6 100/2/6
f 92/3/6 96/3/6 101/3/6
f 96/3/6 99/3/6 101/3/6
f 99/3/6 100/3/6 101/3/6
f 100/3/6 95/3/6 102/3/6
f 101/3/6 100/3/6 102/3/6
