# MagicaVoxel @ Ephtracy

# group
o 

# material
mtllib dynamit.mtl
usemtl palette

# normals
vn -1 0 0
vn 1 0 0
vn 0 0 1
vn 0 0 -1
vn 0 -1 0
vn 0 1 0

# texcoords
vt 0.939453 0.5
vt 0.943359 0.5
vt 0.970703 0.5
vt 0.974609 0.5
vt 0.978516 0.5
vt 0.982422 0.5
vt 0.986328 0.5
vt 0.990234 0.5

# verts
v -0.2 0 0.2
v -0.2 0 -0.1
v -0.2 0.1 0.2
v -0.2 0.1 0.1
v -0.2 0.1 0
v -0.2 0.1 -0.1
v -0.2 0.2 0.2
v -0.2 0.2 0.1
v -0.2 0.2 0
v -0.2 0.2 -0.1
v -0.2 0.3 0.2
v -0.2 0.3 0.1
v -0.2 0.3 0
v -0.2 0.3 -0.1
v -0.2 0.4 0.2
v -0.2 0.4 0.1
v -0.2 0.4 0
v -0.2 0.4 -0.1
v -0.2 0.5 0.2
v -0.2 0.5 0.1
v -0.2 0.5 0
v -0.2 0.5 -0.1
v -0.2 0.6 0.2
v -0.2 0.6 0.1
v -0.2 0.6 0
v -0.2 0.6 -0.1
v -0.2 0.7 0.2
v -0.2 0.7 -0.1
v -0.1 0.7 0.1
v -0.1 0.7 0
v -0.1 0.8 0.1
v -0.1 0.8 0
v 0 0.8 0.2
v 0 0.8 0.1
v 0 0.9 0.2
v 0 0.9 0.1
v 0 0.7 0.1
v 0 0.7 0
v 0 0.8 0.1
v 0 0.8 0
v 0.1 0 0.2
v 0.1 0 -0.1
v 0.1 0.1 0.2
v 0.1 0.1 0.1
v 0.1 0.1 0
v 0.1 0.1 -0.1
v 0.1 0.2 0.2
v 0.1 0.2 0.1
v 0.1 0.2 0
v 0.1 0.2 -0.1
v 0.1 0.3 0.2
v 0.1 0.3 0.1
v 0.1 0.3 0
v 0.1 0.3 -0.1
v 0.1 0.4 0.2
v 0.1 0.4 0.1
v 0.1 0.4 -0.1
v 0.1 0.5 0.2
v 0.1 0.5 0.1
v 0.1 0.5 0
v 0.1 0.5 -0.1
v 0.1 0.6 0.2
v 0.1 0.6 0
v 0.1 0.6 -0.1
v 0.1 0.7 0.2
v 0.1 0.7 -0.1
v 0.1 0.8 0.2
v 0.1 0.8 0.1
v 0.1 0.9 0.2
v 0.1 0.9 0.1
v -0.2 0 0.2
v -0.2 0.1 0.2
v -0.2 0.2 0.2
v -0.2 0.3 0.2
v -0.2 0.4 0.2
v -0.2 0.5 0.2
v -0.2 0.6 0.2
v -0.2 0.7 0.2
v -0.1 0.3 0.2
v -0.1 0.4 0.2
v -0.1 0.5 0.2
v -0.1 0.6 0.2
v 0 0.1 0.2
v 0 0.2 0.2
v 0 0.3 0.2
v 0 0.4 0.2
v 0 0.5 0.2
v 0 0.6 0.2
v 0 0.8 0.2
v 0 0.9 0.2
v 0.1 0 0.2
v 0.1 0.1 0.2
v 0.1 0.2 0.2
v 0.1 0.3 0.2
v 0.1 0.4 0.2
v 0.1 0.5 0.2
v 0.1 0.6 0.2
v 0.1 0.7 0.2
v 0.1 0.8 0.2
v 0.1 0.9 0.2
v -0.1 0.7 0.1
v -0.1 0.8 0.1
v 0 0.7 0.1
v 0 0.8 0.1
v 0 0.8 0.1
v 0 0.9 0.1
v 0.1 0.8 0.1
v 0.1 0.9 0.1
v -0.1 0.7 0
v -0.1 0.8 0
v 0 0.7 0
v 0 0.8 0
v -0.2 0 -0.1
v -0.2 0.1 -0.1
v -0.2 0.2 -0.1
v -0.2 0.3 -0.1
v -0.2 0.4 -0.1
v -0.2 0.5 -0.1
v -0.2 0.6 -0.1
v -0.2 0.7 -0.1
v -0.1 0.3 -0.1
v -0.1 0.4 -0.1
v -0.1 0.5 -0.1
v -0.1 0.6 -0.1
v 0 0.1 -0.1
v 0 0.2 -0.1
v 0 0.3 -0.1
v 0 0.4 -0.1
v 0.1 0 -0.1
v 0.1 0.1 -0.1
v 0.1 0.2 -0.1
v 0.1 0.3 -0.1
v 0.1 0.4 -0.1
v 0.1 0.5 -0.1
v 0.1 0.6 -0.1
v 0.1 0.7 -0.1
v -0.2 0 0.2
v 0.1 0 0.2
v -0.1 0 0.1
v 0 0 0.1
v -0.1 0 0
v 0 0 0
v -0.2 0 -0.1
v 0.1 0 -0.1
v 0 0.8 0.2
v 0.1 0.8 0.2
v 0 0.8 0.1
v 0.1 0.8 0.1
v -0.2 0.7 0.2
v 0.1 0.7 0.2
v -0.1 0.7 0.1
v 0 0.7 0.1
v -0.1 0.7 0
v 0 0.7 0
v -0.2 0.7 -0.1
v 0.1 0.7 -0.1
v -0.1 0.8 0.1
v 0 0.8 0.1
v -0.1 0.8 0
v 0 0.8 0
v 0 0.9 0.2
v 0.1 0.9 0.2
v 0 0.9 0.1
v 0.1 0.9 0.1

# faces
f 3/4/1 2/4/1 1/4/1
f 4/4/1 2/4/1 3/4/1
f 5/4/1 2/4/1 4/4/1
f 6/4/1 2/4/1 5/4/1
f 7/2/1 4/2/1 3/2/1
f 8/1/1 5/1/1 4/1/1
f 8/2/1 4/2/1 7/2/1
f 9/2/1 6/2/1 5/2/1
f 9/1/1 5/1/1 8/1/1
f 10/2/1 6/2/1 9/2/1
f 11/3/1 8/3/1 7/3/1
f 12/4/1 9/4/1 8/4/1
f 12/3/1 8/3/1 11/3/1
f 13/3/1 10/3/1 9/3/1
f 13/4/1 9/4/1 12/4/1
f 14/3/1 10/3/1 13/3/1
f 15/2/1 12/2/1 11/2/1
f 15/2/1 13/2/1 12/2/1
f 16/2/1 13/2/1 15/2/1
f 17/1/1 14/1/1 13/1/1
f 17/2/1 13/2/1 16/2/1
f 18/1/1 14/1/1 17/1/1
f 19/5/1 16/5/1 15/5/1
f 20/3/1 17/3/1 16/3/1
f 20/5/1 16/5/1 19/5/1
f 21/5/1 18/5/1 17/5/1
f 21/3/1 17/3/1 20/3/1
f 22/5/1 18/5/1 21/5/1
f 23/1/1 20/1/1 19/1/1
f 24/2/1 21/2/1 20/2/1
f 24/1/1 20/1/1 23/1/1
f 25/1/1 22/1/1 21/1/1
f 25/2/1 21/2/1 24/2/1
f 26/1/1 22/1/1 25/1/1
f 27/5/1 24/5/1 23/5/1
f 27/5/1 25/5/1 24/5/1
f 27/5/1 26/5/1 25/5/1
f 28/5/1 26/5/1 27/5/1
f 31/6/1 30/6/1 29/6/1
f 32/6/1 30/6/1 31/6/1
f 35/7/1 34/7/1 33/7/1
f 36/7/1 34/7/1 35/7/1
f 37/6/2 38/6/2 39/6/2
f 39/6/2 38/6/2 40/6/2
f 41/4/2 42/4/2 43/4/2
f 43/4/2 42/4/2 44/4/2
f 44/4/2 42/4/2 45/4/2
f 45/4/2 42/4/2 46/4/2
f 43/1/2 44/1/2 47/1/2
f 44/2/2 45/2/2 48/2/2
f 47/1/2 44/1/2 48/1/2
f 45/1/2 46/1/2 49/1/2
f 48/2/2 45/2/2 49/2/2
f 49/1/2 46/1/2 50/1/2
f 47/3/2 48/3/2 51/3/2
f 48/3/2 49/3/2 51/3/2
f 51/3/2 49/3/2 52/3/2
f 49/4/2 50/4/2 53/4/2
f 52/3/2 49/3/2 53/3/2
f 53/4/2 50/4/2 54/4/2
f 51/2/2 52/2/2 55/2/2
f 52/1/2 53/1/2 56/1/2
f 55/2/2 52/2/2 56/2/2
f 53/1/2 54/1/2 56/1/2
f 56/1/2 54/1/2 57/1/2
f 55/5/2 56/5/2 58/5/2
f 56/3/2 57/3/2 59/3/2
f 58/5/2 56/5/2 59/5/2
f 59/3/2 57/3/2 60/3/2
f 60/3/2 57/3/2 61/3/2
f 58/1/2 59/1/2 62/1/2
f 59/1/2 60/1/2 62/1/2
f 60/2/2 61/2/2 63/2/2
f 62/1/2 60/1/2 63/1/2
f 63/2/2 61/2/2 64/2/2
f 62/5/2 63/5/2 65/5/2
f 63/5/2 64/5/2 65/5/2
f 65/5/2 64/5/2 66/5/2
f 67/7/2 68/7/2 69/7/2
f 69/7/2 68/7/2 70/7/2
f 79/3/3 74/3/3 73/3/3
f 79/2/3 75/2/3 74/2/3
f 80/5/3 76/5/3 75/5/3
f 80/2/3 75/2/3 79/2/3
f 81/1/3 77/1/3 76/1/3
f 81/5/3 76/5/3 80/5/3
f 82/5/3 78/5/3 77/5/3
f 82/1/3 77/1/3 81/1/3
f 83/4/3 72/4/3 71/4/3
f 83/2/3 73/2/3 72/2/3
f 84/3/3 79/3/3 73/3/3
f 84/2/3 73/2/3 83/2/3
f 85/1/3 80/1/3 79/1/3
f 85/3/3 79/3/3 84/3/3
f 86/3/3 81/3/3 80/3/3
f 86/1/3 80/1/3 85/1/3
f 87/2/3 82/2/3 81/2/3
f 87/3/3 81/3/3 86/3/3
f 88/5/3 78/5/3 82/5/3
f 88/2/3 82/2/3 87/2/3
f 91/4/3 83/4/3 71/4/3
f 92/1/3 84/1/3 83/1/3
f 92/4/3 83/4/3 91/4/3
f 93/3/3 85/3/3 84/3/3
f 93/1/3 84/1/3 92/1/3
f 94/2/3 86/2/3 85/2/3
f 94/3/3 85/3/3 93/3/3
f 95/5/3 87/5/3 86/5/3
f 95/2/3 86/2/3 94/2/3
f 96/1/3 88/1/3 87/1/3
f 96/5/3 87/5/3 95/5/3
f 97/5/3 78/5/3 88/5/3
f 97/1/3 88/1/3 96/1/3
f 98/5/3 78/5/3 97/5/3
f 99/7/3 90/7/3 89/7/3
f 100/7/3 90/7/3 99/7/3
f 103/6/3 102/6/3 101/6/3
f 104/6/3 102/6/3 103/6/3
f 105/7/4 106/7/4 107/7/4
f 107/7/4 106/7/4 108/7/4
f 109/6/4 110/6/4 111/6/4
f 111/6/4 110/6/4 112/6/4
f 115/3/4 116/3/4 121/3/4
f 116/1/4 117/1/4 121/1/4
f 117/5/4 118/5/4 122/5/4
f 121/1/4 117/1/4 122/1/4
f 118/1/4 119/1/4 123/1/4
f 122/5/4 118/5/4 123/5/4
f 119/5/4 120/5/4 124/5/4
f 123/1/4 119/1/4 124/1/4
f 113/4/4 114/4/4 125/4/4
f 114/2/4 115/2/4 125/2/4
f 115/3/4 121/3/4 126/3/4
f 125/2/4 115/2/4 126/2/4
f 121/2/4 122/2/4 127/2/4
f 126/3/4 121/3/4 127/3/4
f 122/3/4 123/3/4 128/3/4
f 127/2/4 122/2/4 128/2/4
f 113/4/4 125/4/4 129/4/4
f 125/1/4 126/1/4 130/1/4
f 129/4/4 125/4/4 130/4/4
f 126/4/4 127/4/4 131/4/4
f 130/1/4 126/1/4 131/1/4
f 127/1/4 128/1/4 132/1/4
f 131/4/4 127/4/4 132/4/4
f 128/3/4 123/3/4 133/3/4
f 132/1/4 128/1/4 133/1/4
f 123/2/4 124/2/4 134/2/4
f 133/3/4 123/3/4 134/3/4
f 124/5/4 120/5/4 135/5/4
f 134/2/4 124/2/4 135/2/4
f 135/5/4 120/5/4 136/5/4
f 139/4/5 138/4/5 137/4/5
f 140/4/5 138/4/5 139/4/5
f 141/4/5 139/4/5 137/4/5
f 141/8/5 140/8/5 139/8/5
f 142/4/5 138/4/5 140/4/5
f 142/8/5 140/8/5 141/8/5
f 143/4/5 141/4/5 137/4/5
f 143/4/5 142/4/5 141/4/5
f 144/4/5 138/4/5 142/4/5
f 144/4/5 142/4/5 143/4/5
f 147/7/5 146/7/5 145/7/5
f 148/7/5 146/7/5 147/7/5
f 149/5/6 150/5/6 151/5/6
f 151/5/6 150/5/6 152/5/6
f 149/5/6 151/5/6 153/5/6
f 152/5/6 150/5/6 154/5/6
f 149/5/6 153/5/6 155/5/6
f 153/5/6 154/5/6 155/5/6
f 154/5/6 150/5/6 156/5/6
f 155/5/6 154/5/6 156/5/6
f 157/6/6 158/6/6 159/6/6
f 159/6/6 158/6/6 160/6/6
f 161/7/6 162/7/6 163/7/6
f 163/7/6 162/7/6 164/7/6
