# MagicaVoxel @ Ephtracy

# group
o 

# material
mtllib pirateBomb.mtl
usemtl palette

# normals
vn -1 0 0
vn 1 0 0
vn 0 0 1
vn 0 0 -1
vn 0 -1 0
vn 0 1 0

# texcoords
vt 0.970703 0.5
vt 0.974609 0.5
vt 0.978516 0.5
vt 0.982422 0.5
vt 0.986328 0.5

# verts
v -0.3 0 0.2
v -0.3 0 -0.1
v -0.3 0.1 0.3
v -0.3 0.1 0.2
v -0.3 0.1 0.1
v -0.3 0.1 0
v -0.3 0.1 -0.1
v -0.3 0.1 -0.2
v -0.3 0.2 0.3
v -0.3 0.2 0.2
v -0.3 0.2 0.1
v -0.3 0.2 0
v -0.3 0.2 -0.1
v -0.3 0.3 0.2
v -0.3 0.3 0.1
v -0.3 0.3 0
v -0.3 0.3 -0.1
v -0.3 0.3 -0.2
v -0.3 0.4 0.3
v -0.3 0.4 0.2
v -0.3 0.4 0.1
v -0.3 0.4 0
v -0.3 0.4 -0.1
v -0.3 0.4 -0.2
v -0.3 0.5 0.2
v -0.3 0.5 -0.1
v -0.2 0 0.3
v -0.2 0 0.2
v -0.2 0 -0.1
v -0.2 0 -0.2
v -0.2 0.1 0.3
v -0.2 0.1 0.2
v -0.2 0.1 -0.1
v -0.2 0.1 -0.2
v -0.2 0.4 0.3
v -0.2 0.4 0.2
v -0.2 0.4 -0.1
v -0.2 0.4 -0.2
v -0.2 0.5 0.3
v -0.2 0.5 0.2
v -0.2 0.5 -0.1
v -0.2 0.5 -0.2
v -0.1 0.5 0.1
v -0.1 0.5 0
v -0.1 0.6 0.1
v -0.1 0.6 0
v 0 0.6 0.2
v 0 0.6 0.1
v 0 0.7 0.2
v 0 0.7 0.1
v 0 0.5 0.1
v 0 0.5 0
v 0 0.6 0.1
v 0 0.6 0
v 0.1 0 0.3
v 0.1 0 0.2
v 0.1 0 -0.1
v 0.1 0 -0.2
v 0.1 0.1 0.3
v 0.1 0.1 0.2
v 0.1 0.1 -0.1
v 0.1 0.1 -0.2
v 0.1 0.4 0.3
v 0.1 0.4 0.2
v 0.1 0.4 -0.1
v 0.1 0.4 -0.2
v 0.1 0.5 0.3
v 0.1 0.5 0.2
v 0.1 0.5 -0.1
v 0.1 0.5 -0.2
v 0.2 0 0.2
v 0.2 0 -0.1
v 0.2 0.1 0.3
v 0.2 0.1 0.2
v 0.2 0.1 0.1
v 0.2 0.1 0
v 0.2 0.1 -0.1
v 0.2 0.1 -0.2
v 0.2 0.2 0.3
v 0.2 0.2 0.2
v 0.2 0.2 0.1
v 0.2 0.2 0
v 0.2 0.2 -0.1
v 0.2 0.3 0.2
v 0.2 0.3 0.1
v 0.2 0.3 0
v 0.2 0.3 -0.1
v 0.2 0.3 -0.2
v 0.2 0.4 0.3
v 0.2 0.4 0.2
v 0.2 0.4 0.1
v 0.2 0.4 0
v 0.2 0.4 -0.1
v 0.2 0.4 -0.2
v 0.2 0.5 0.2
v 0.2 0.5 -0.1
v 0.2 0.6 0.2
v 0.2 0.6 0.1
v 0.2 0.7 0.2
v 0.2 0.7 0.1
v -0.3 0.1 0.3
v -0.3 0.2 0.3
v -0.3 0.4 0.3
v -0.2 0 0.3
v -0.2 0.1 0.3
v -0.2 0.2 0.3
v -0.2 0.4 0.3
v -0.2 0.5 0.3
v -0.1 0.1 0.3
v -0.1 0.3 0.3
v 0.1 0 0.3
v 0.1 0.1 0.3
v 0.1 0.2 0.3
v 0.1 0.3 0.3
v 0.1 0.4 0.3
v 0.1 0.5 0.3
v 0.2 0.1 0.3
v 0.2 0.2 0.3
v 0.2 0.4 0.3
v -0.3 0 0.2
v -0.3 0.1 0.2
v -0.3 0.4 0.2
v -0.3 0.5 0.2
v -0.2 0 0.2
v -0.2 0.1 0.2
v -0.2 0.4 0.2
v -0.2 0.5 0.2
v 0 0.6 0.2
v 0 0.7 0.2
v 0.1 0 0.2
v 0.1 0.1 0.2
v 0.1 0.4 0.2
v 0.1 0.5 0.2
v 0.1 0.6 0.2
v 0.1 0.7 0.2
v 0.2 0 0.2
v 0.2 0.1 0.2
v 0.2 0.4 0.2
v 0.2 0.5 0.2
v 0.2 0.6 0.2
v 0.2 0.7 0.2
v -0.1 0.5 0.1
v -0.1 0.6 0.1
v 0 0.5 0.1
v 0 0.6 0.1
v 0 0.6 0.1
v 0 0.7 0.1
v 0.1 0.6 0.1
v 0.1 0.7 0.1
v 0.2 0.6 0.1
v 0.2 0.7 0.1
v -0.1 0.5 0
v -0.1 0.6 0
v 0 0.5 0
v 0 0.6 0
v -0.3 0 -0.1
v -0.3 0.1 -0.1
v -0.3 0.4 -0.1
v -0.3 0.5 -0.1
v -0.2 0 -0.1
v -0.2 0.1 -0.1
v -0.2 0.4 -0.1
v -0.2 0.5 -0.1
v 0.1 0 -0.1
v 0.1 0.1 -0.1
v 0.1 0.4 -0.1
v 0.1 0.5 -0.1
v 0.2 0 -0.1
v 0.2 0.1 -0.1
v 0.2 0.4 -0.1
v 0.2 0.5 -0.1
v -0.3 0.1 -0.2
v -0.3 0.3 -0.2
v -0.3 0.4 -0.2
v -0.2 0 -0.2
v -0.2 0.1 -0.2
v -0.2 0.4 -0.2
v -0.2 0.5 -0.2
v -0.1 0.2 -0.2
v -0.1 0.3 -0.2
v 0 0.2 -0.2
v 0 0.4 -0.2
v 0.1 0 -0.2
v 0.1 0.1 -0.2
v 0.1 0.3 -0.2
v 0.1 0.4 -0.2
v 0.1 0.5 -0.2
v 0.2 0.1 -0.2
v 0.2 0.3 -0.2
v 0.2 0.4 -0.2
v -0.2 0 0.3
v 0.1 0 0.3
v -0.3 0 0.2
v -0.2 0 0.2
v 0.1 0 0.2
v 0.2 0 0.2
v -0.3 0 -0.1
v -0.2 0 -0.1
v 0.1 0 -0.1
v 0.2 0 -0.1
v -0.2 0 -0.2
v 0.1 0 -0.2
v -0.3 0.1 0.3
v -0.2 0.1 0.3
v 0.1 0.1 0.3
v 0.2 0.1 0.3
v -0.3 0.1 0.2
v -0.2 0.1 0.2
v 0.1 0.1 0.2
v 0.2 0.1 0.2
v -0.3 0.1 -0.1
v -0.2 0.1 -0.1
v 0.1 0.1 -0.1
v 0.2 0.1 -0.1
v -0.3 0.1 -0.2
v -0.2 0.1 -0.2
v 0.1 0.1 -0.2
v 0.2 0.1 -0.2
v 0 0.6 0.2
v 0.1 0.6 0.2
v 0.2 0.6 0.2
v 0 0.6 0.1
v 0.1 0.6 0.1
v 0.2 0.6 0.1
v -0.3 0.4 0.3
v -0.2 0.4 0.3
v 0.1 0.4 0.3
v 0.2 0.4 0.3
v -0.3 0.4 0.2
v -0.2 0.4 0.2
v 0.1 0.4 0.2
v 0.2 0.4 0.2
v -0.3 0.4 -0.1
v -0.2 0.4 -0.1
v 0.1 0.4 -0.1
v 0.2 0.4 -0.1
v -0.3 0.4 -0.2
v -0.2 0.4 -0.2
v 0.1 0.4 -0.2
v 0.2 0.4 -0.2
v -0.2 0.5 0.3
v 0.1 0.5 0.3
v -0.3 0.5 0.2
v -0.2 0.5 0.2
v 0.1 0.5 0.2
v 0.2 0.5 0.2
v -0.1 0.5 0.1
v 0 0.5 0.1
v -0.1 0.5 0
v 0 0.5 0
v -0.3 0.5 -0.1
v -0.2 0.5 -0.1
v 0.1 0.5 -0.1
v 0.2 0.5 -0.1
v -0.2 0.5 -0.2
v 0.1 0.5 -0.2
v -0.1 0.6 0.1
v 0 0.6 0.1
v -0.1 0.6 0
v 0 0.6 0
v 0 0.7 0.2
v 0.1 0.7 0.2
v 0.2 0.7 0.2
v 0 0.7 0.1
v 0.1 0.7 0.1
v 0.2 0.7 0.1

# faces
f 4/1/1 2/1/1 1/1/1
f 5/1/1 2/1/1 4/1/1
f 6/1/1 2/1/1 5/1/1
f 7/1/1 2/1/1 6/1/1
f 9/1/1 4/1/1 3/1/1
f 10/3/1 5/3/1 4/3/1
f 10/1/1 4/1/1 9/1/1
f 11/2/1 6/2/1 5/2/1
f 11/3/1 5/3/1 10/3/1
f 12/3/1 7/3/1 6/3/1
f 12/2/1 6/2/1 11/2/1
f 13/1/1 8/1/1 7/1/1
f 13/3/1 7/3/1 12/3/1
f 14/2/1 10/2/1 9/2/1
f 14/1/1 11/1/1 10/1/1
f 15/3/1 12/3/1 11/3/1
f 15/1/1 11/1/1 14/1/1
f 16/2/1 13/2/1 12/2/1
f 16/3/1 12/3/1 15/3/1
f 17/1/1 8/1/1 13/1/1
f 17/2/1 13/2/1 16/2/1
f 18/1/1 8/1/1 17/1/1
f 19/2/1 14/2/1 9/2/1
f 20/3/1 15/3/1 14/3/1
f 20/2/1 14/2/1 19/2/1
f 21/2/1 16/2/1 15/2/1
f 21/3/1 15/3/1 20/3/1
f 22/3/1 17/3/1 16/3/1
f 22/2/1 16/2/1 21/2/1
f 23/2/1 18/2/1 17/2/1
f 23/3/1 17/3/1 22/3/1
f 24/2/1 18/2/1 23/2/1
f 25/2/1 21/2/1 20/2/1
f 25/2/1 23/2/1 22/2/1
f 25/2/1 22/2/1 21/2/1
f 26/2/1 23/2/1 25/2/1
f 31/1/1 28/1/1 27/1/1
f 32/1/1 28/1/1 31/1/1
f 33/1/1 30/1/1 29/1/1
f 34/1/1 30/1/1 33/1/1
f 39/2/1 36/2/1 35/2/1
f 40/2/1 36/2/1 39/2/1
f 41/2/1 38/2/1 37/2/1
f 42/2/1 38/2/1 41/2/1
f 45/4/1 44/4/1 43/4/1
f 46/4/1 44/4/1 45/4/1
f 49/4/1 48/4/1 47/4/1
f 50/4/1 48/4/1 49/4/1
f 51/4/2 52/4/2 53/4/2
f 53/4/2 52/4/2 54/4/2
f 55/1/2 56/1/2 59/1/2
f 59/1/2 56/1/2 60/1/2
f 57/1/2 58/1/2 61/1/2
f 61/1/2 58/1/2 62/1/2
f 63/2/2 64/2/2 67/2/2
f 67/2/2 64/2/2 68/2/2
f 65/2/2 66/2/2 69/2/2
f 69/2/2 66/2/2 70/2/2
f 71/1/2 72/1/2 74/1/2
f 74/1/2 72/1/2 75/1/2
f 75/1/2 72/1/2 76/1/2
f 76/1/2 72/1/2 77/1/2
f 73/1/2 74/1/2 79/1/2
f 74/3/2 75/3/2 80/3/2
f 79/1/2 74/1/2 80/1/2
f 75/1/2 76/1/2 81/1/2
f 80/3/2 75/3/2 81/3/2
f 76/3/2 77/3/2 82/3/2
f 81/1/2 76/1/2 82/1/2
f 77/1/2 78/1/2 83/1/2
f 82/3/2 77/3/2 83/3/2
f 79/2/2 80/2/2 84/2/2
f 80/1/2 81/1/2 84/1/2
f 81/3/2 82/3/2 85/3/2
f 84/1/2 81/1/2 85/1/2
f 82/2/2 83/2/2 86/2/2
f 85/3/2 82/3/2 86/3/2
f 83/1/2 78/1/2 87/1/2
f 86/2/2 83/2/2 87/2/2
f 87/1/2 78/1/2 88/1/2
f 79/2/2 84/2/2 89/2/2
f 84/3/2 85/3/2 90/3/2
f 89/2/2 84/2/2 90/2/2
f 85/2/2 86/2/2 91/2/2
f 90/3/2 85/3/2 91/3/2
f 86/3/2 87/3/2 92/3/2
f 91/2/2 86/2/2 92/2/2
f 87/2/2 88/2/2 93/2/2
f 92/3/2 87/3/2 93/3/2
f 93/2/2 88/2/2 94/2/2
f 90/2/2 91/2/2 95/2/2
f 92/2/2 93/2/2 95/2/2
f 91/2/2 92/2/2 95/2/2
f 95/2/2 93/2/2 96/2/2
f 97/5/2 98/5/2 99/5/2
f 99/5/2 98/5/2 100/5/2
f 105/1/3 102/1/3 101/1/3
f 106/2/3 103/2/3 102/2/3
f 106/1/3 102/1/3 105/1/3
f 107/2/3 103/2/3 106/2/3
f 109/1/3 105/1/3 104/1/3
f 109/2/3 108/2/3 107/2/3
f 109/2/3 107/2/3 106/2/3
f 109/2/3 106/2/3 105/2/3
f 110/2/3 108/2/3 109/2/3
f 111/1/3 109/1/3 104/1/3
f 111/1/3 110/1/3 109/1/3
f 112/1/3 110/1/3 111/1/3
f 113/1/3 110/1/3 112/1/3
f 114/2/3 108/2/3 110/2/3
f 114/1/3 110/1/3 113/1/3
f 115/2/3 108/2/3 114/2/3
f 116/2/3 108/2/3 115/2/3
f 117/1/3 113/1/3 112/1/3
f 118/2/3 115/2/3 114/2/3
f 118/1/3 113/1/3 117/1/3
f 118/2/3 114/2/3 113/2/3
f 119/2/3 115/2/3 118/2/3
f 124/1/3 121/1/3 120/1/3
f 125/1/3 121/1/3 124/1/3
f 126/2/3 123/2/3 122/2/3
f 127/2/3 123/2/3 126/2/3
f 134/4/3 129/4/3 128/4/3
f 135/4/3 129/4/3 134/4/3
f 136/1/3 131/1/3 130/1/3
f 137/1/3 131/1/3 136/1/3
f 138/2/3 133/2/3 132/2/3
f 139/2/3 133/2/3 138/2/3
f 140/5/3 135/5/3 134/5/3
f 141/5/3 135/5/3 140/5/3
f 144/4/3 143/4/3 142/4/3
f 145/4/3 143/4/3 144/4/3
f 146/4/4 147/4/4 148/4/4
f 148/4/4 147/4/4 149/4/4
f 148/5/4 149/5/4 150/5/4
f 150/5/4 149/5/4 151/5/4
f 152/4/4 153/4/4 154/4/4
f 154/4/4 153/4/4 155/4/4
f 156/1/4 157/1/4 160/1/4
f 160/1/4 157/1/4 161/1/4
f 158/2/4 159/2/4 162/2/4
f 162/2/4 159/2/4 163/2/4
f 164/1/4 165/1/4 168/1/4
f 168/1/4 165/1/4 169/1/4
f 166/2/4 167/2/4 170/2/4
f 170/2/4 167/2/4 171/2/4
f 172/1/4 173/1/4 176/1/4
f 173/2/4 174/2/4 177/2/4
f 175/1/4 176/1/4 179/1/4
f 176/1/4 173/1/4 179/1/4
f 177/2/4 178/2/4 180/2/4
f 179/1/4 173/1/4 180/1/4
f 173/2/4 177/2/4 180/2/4
f 175/1/4 179/1/4 181/1/4
f 179/2/4 180/2/4 181/2/4
f 180/2/4 178/2/4 182/2/4
f 181/2/4 180/2/4 182/2/4
f 175/1/4 181/1/4 183/1/4
f 181/1/4 182/1/4 183/1/4
f 183/1/4 182/1/4 184/1/4
f 184/1/4 182/1/4 185/1/4
f 182/2/4 178/2/4 186/2/4
f 185/1/4 182/1/4 186/1/4
f 186/2/4 178/2/4 187/2/4
f 184/1/4 185/1/4 188/1/4
f 185/2/4 186/2/4 189/2/4
f 188/1/4 185/1/4 189/1/4
f 189/2/4 186/2/4 190/2/4
f 194/1/5 192/1/5 191/1/5
f 195/1/5 192/1/5 194/1/5
f 197/1/5 194/1/5 193/1/5
f 197/1/5 196/1/5 195/1/5
f 197/1/5 195/1/5 194/1/5
f 198/1/5 196/1/5 197/1/5
f 199/1/5 196/1/5 198/1/5
f 200/1/5 196/1/5 199/1/5
f 201/1/5 199/1/5 198/1/5
f 202/1/5 199/1/5 201/1/5
f 207/1/5 204/1/5 203/1/5
f 208/1/5 204/1/5 207/1/5
f 209/1/5 206/1/5 205/1/5
f 210/1/5 206/1/5 209/1/5
f 215/1/5 212/1/5 211/1/5
f 216/1/5 212/1/5 215/1/5
f 217/1/5 214/1/5 213/1/5
f 218/1/5 214/1/5 217/1/5
f 222/4/5 220/4/5 219/4/5
f 223/5/5 221/5/5 220/5/5
f 223/4/5 220/4/5 222/4/5
f 224/5/5 221/5/5 223/5/5
f 225/2/6 226/2/6 229/2/6
f 229/2/6 226/2/6 230/2/6
f 227/2/6 228/2/6 231/2/6
f 231/2/6 228/2/6 232/2/6
f 233/2/6 234/2/6 237/2/6
f 237/2/6 234/2/6 238/2/6
f 235/2/6 236/2/6 239/2/6
f 239/2/6 236/2/6 240/2/6
f 241/2/6 242/2/6 244/2/6
f 244/2/6 242/2/6 245/2/6
f 243/2/6 244/2/6 247/2/6
f 245/2/6 246/2/6 247/2/6
f 244/2/6 245/2/6 247/2/6
f 247/2/6 246/2/6 248/2/6
f 243/2/6 247/2/6 249/2/6
f 248/2/6 246/2/6 250/2/6
f 243/2/6 249/2/6 251/2/6
f 249/2/6 250/2/6 251/2/6
f 251/2/6 250/2/6 252/2/6
f 250/2/6 246/2/6 253/2/6
f 252/2/6 250/2/6 253/2/6
f 253/2/6 246/2/6 254/2/6
f 252/2/6 253/2/6 255/2/6
f 255/2/6 253/2/6 256/2/6
f 257/4/6 258/4/6 259/4/6
f 259/4/6 258/4/6 260/4/6
f 261/4/6 262/4/6 264/4/6
f 262/5/6 263/5/6 265/5/6
f 264/4/6 262/4/6 265/4/6
f 265/5/6 263/5/6 266/5/6
