# MagicaVoxel @ Ephtracy

# group
o 

# material
mtllib addSpeedMove.mtl
usemtl palette

# normals
vn -1 0 0
vn 1 0 0
vn 0 0 1
vn 0 0 -1
vn 0 -1 0
vn 0 1 0

# texcoords
vt 0.970703 0.5
vt 0.974609 0.5
vt 0.994141 0.5

# verts
v -0.4 0 0.4
v -0.4 0 -0.3
v -0.4 0.1 0.3
v -0.4 0.1 0
v -0.4 0.1 -0.2
v -0.4 0.2 0.3
v -0.4 0.2 0.2
v -0.4 0.2 0
v -0.4 0.2 -0.1
v -0.4 0.2 -0.2
v -0.4 0.3 0.2
v -0.4 0.3 0.1
v -0.4 0.4 0.2
v -0.4 0.4 0.1
v -0.4 0.4 0
v -0.4 0.4 -0.1
v -0.4 0.6 0.3
v -0.4 0.6 0.2
v -0.4 0.6 0
v -0.4 0.6 -0.2
v -0.4 0.7 0.4
v -0.4 0.7 -0.3
v -0.3 0.2 0.3
v -0.3 0.2 0.2
v -0.3 0.2 -0.1
v -0.3 0.2 -0.2
v -0.3 0.3 0.2
v -0.3 0.3 0.1
v -0.3 0.4 0.2
v -0.3 0.4 0.1
v -0.3 0.4 0
v -0.3 0.4 -0.1
v -0.3 0.6 0.3
v -0.3 0.6 0.2
v -0.3 0.6 0
v -0.3 0.6 -0.2
v -0.2 0 0.1
v -0.2 0 -0.1
v -0.2 0.1 0.1
v -0.2 0.1 -0.1
v -0.2 0.2 0.4
v -0.2 0.2 0.3
v -0.2 0.2 -0.2
v -0.2 0.2 -0.3
v -0.2 0.3 -0.2
v -0.2 0.3 -0.3
v -0.2 0.4 0.4
v -0.2 0.4 0.3
v -0.2 0.4 -0.2
v -0.2 0.4 -0.3
v -0.2 0.6 0.2
v -0.2 0.6 0
v -0.2 0.6 -0.2
v -0.2 0.6 -0.3
v -0.2 0.7 0.2
v -0.2 0.7 0
v -0.1 0 0.3
v -0.1 0 0.1
v -0.1 0.1 0.3
v -0.1 0.1 0.1
v -0.1 0.3 -0.2
v -0.1 0.3 -0.3
v -0.1 0.4 0.4
v -0.1 0.4 0.3
v -0.1 0.4 -0.2
v -0.1 0.4 -0.3
v -0.1 0.6 0.4
v -0.1 0.6 0.3
v -0.1 0.6 0
v -0.1 0.6 -0.2
v -0.1 0.7 0
v -0.1 0.7 -0.2
v 0.2 0 0.3
v 0.2 0 -0.1
v 0.2 0.1 0.3
v 0.2 0.1 -0.1
v 0.2 0.2 0.4
v 0.2 0.2 0.3
v 0.2 0.2 -0.2
v 0.2 0.2 -0.3
v 0.2 0.6 0.4
v 0.2 0.6 0.3
v 0.2 0.6 0.2
v 0.2 0.6 -0.2
v 0.2 0.6 -0.3
v 0.2 0.7 0.2
v 0.2 0.7 -0.2
v -0.3 0 0.3
v -0.3 0 -0.1
v -0.3 0.1 0.3
v -0.3 0.1 -0.1
v -0.3 0.2 0.4
v -0.3 0.2 0.3
v -0.3 0.2 -0.2
v -0.3 0.2 -0.3
v -0.3 0.6 0.4
v -0.3 0.6 0.3
v -0.3 0.6 0.2
v -0.3 0.6 -0.2
v -0.3 0.6 -0.3
v -0.3 0.7 0.2
v -0.3 0.7 -0.2
v 0 0 0.1
v 0 0 0
v 0 0.1 0.1
v 0 0.1 0
v 0 0.3 0.4
v 0 0.3 0.3
v 0 0.4 0.4
v 0 0.4 0.3
v 0 0.4 -0.2
v 0 0.4 -0.3
v 0 0.6 0.1
v 0 0.6 0
v 0 0.6 -0.2
v 0 0.6 -0.3
v 0 0.7 0.1
v 0 0.7 0
v 0.1 0 0.3
v 0.1 0 0.1
v 0.1 0 0
v 0.1 0 -0.1
v 0.1 0.1 0.3
v 0.1 0.1 0.1
v 0.1 0.1 0
v 0.1 0.1 -0.1
v 0.1 0.2 0.4
v 0.1 0.2 0.3
v 0.1 0.2 -0.2
v 0.1 0.2 -0.3
v 0.1 0.3 0.4
v 0.1 0.3 0.3
v 0.1 0.4 0.4
v 0.1 0.4 0.3
v 0.1 0.4 -0.2
v 0.1 0.4 -0.3
v 0.1 0.6 0.4
v 0.1 0.6 0.3
v 0.1 0.6 0.2
v 0.1 0.6 0.1
v 0.1 0.6 0
v 0.1 0.6 -0.2
v 0.1 0.7 0.2
v 0.1 0.7 0.1
v 0.1 0.7 0
v 0.1 0.7 -0.2
v 0.2 0.2 0.3
v 0.2 0.2 0.2
v 0.2 0.2 -0.1
v 0.2 0.2 -0.2
v 0.2 0.3 0
v 0.2 0.3 -0.1
v 0.2 0.4 0.2
v 0.2 0.4 0.1
v 0.2 0.4 0
v 0.2 0.4 -0.1
v 0.2 0.6 0.3
v 0.2 0.6 0.1
v 0.2 0.6 -0.1
v 0.2 0.6 -0.2
v 0.3 0 0.4
v 0.3 0 -0.3
v 0.3 0.1 0.3
v 0.3 0.1 0.1
v 0.3 0.1 -0.2
v 0.3 0.2 0.3
v 0.3 0.2 0.2
v 0.3 0.2 0.1
v 0.3 0.2 -0.1
v 0.3 0.2 -0.2
v 0.3 0.3 0
v 0.3 0.3 -0.1
v 0.3 0.4 0.2
v 0.3 0.4 0.1
v 0.3 0.4 0
v 0.3 0.4 -0.1
v 0.3 0.6 0.3
v 0.3 0.6 0.1
v 0.3 0.6 -0.1
v 0.3 0.6 -0.2
v 0.3 0.7 0.4
v 0.3 0.7 -0.3
v -0.4 0 0.4
v -0.4 0.7 0.4
v -0.3 0.1 0.4
v -0.3 0.2 0.4
v -0.3 0.6 0.4
v -0.2 0.2 0.4
v -0.2 0.4 0.4
v -0.1 0.1 0.4
v -0.1 0.2 0.4
v -0.1 0.4 0.4
v -0.1 0.6 0.4
v 0 0.3 0.4
v 0 0.4 0.4
v 0.1 0.2 0.4
v 0.1 0.3 0.4
v 0.1 0.4 0.4
v 0.1 0.6 0.4
v 0.2 0.1 0.4
v 0.2 0.2 0.4
v 0.2 0.6 0.4
v 0.3 0 0.4
v 0.3 0.7 0.4
v -0.3 0.2 0.3
v -0.3 0.6 0.3
v -0.2 0.2 0.3
v -0.2 0.4 0.3
v -0.1 0.4 0.3
v -0.1 0.6 0.3
v 0 0.3 0.3
v 0 0.4 0.3
v 0.1 0.2 0.3
v 0.1 0.3 0.3
v 0.1 0.4 0.3
v 0.1 0.6 0.3
v 0.2 0.2 0.3
v 0.2 0.6 0.3
v -0.4 0.2 0.2
v -0.4 0.3 0.2
v -0.4 0.4 0.2
v -0.4 0.6 0.2
v -0.3 0.2 0.2
v -0.3 0.3 0.2
v -0.3 0.4 0.2
v -0.3 0.6 0.2
v 0.2 0.2 0.2
v 0.2 0.4 0.2
v 0.3 0.2 0.2
v 0.3 0.4 0.2
v -0.4 0.3 0.1
v -0.4 0.4 0.1
v -0.3 0.3 0.1
v -0.3 0.4 0.1
v -0.2 0 0.1
v -0.2 0.1 0.1
v -0.1 0 0.1
v -0.1 0.1 0.1
v 0.2 0.4 0.1
v 0.2 0.6 0.1
v 0.3 0.4 0.1
v 0.3 0.6 0.1
v 0 0 0
v 0 0.1 0
v 0 0.6 0
v 0 0.7 0
v 0.1 0 0
v 0.1 0.1 0
v 0.1 0.6 0
v 0.1 0.7 0
v -0.3 0 -0.1
v -0.3 0.1 -0.1
v -0.2 0 -0.1
v -0.2 0.1 -0.1
v 0.1 0 -0.1
v 0.1 0.1 -0.1
v 0.2 0 -0.1
v 0.2 0.1 -0.1
v -0.4 0.2 -0.2
v -0.4 0.6 -0.2
v -0.3 0.2 -0.2
v -0.3 0.6 -0.2
v -0.3 0.7 -0.2
v -0.1 0.6 -0.2
v -0.1 0.7 -0.2
v 0.1 0.6 -0.2
v 0.1 0.7 -0.2
v 0.2 0.2 -0.2
v 0.2 0.6 -0.2
v 0.2 0.7 -0.2
v 0.3 0.2 -0.2
v 0.3 0.6 -0.2
v -0.4 0.2 0.3
v -0.4 0.6 0.3
v -0.3 0 0.3
v -0.3 0.1 0.3
v -0.3 0.2 0.3
v -0.3 0.6 0.3
v -0.1 0 0.3
v -0.1 0.1 0.3
v 0.1 0 0.3
v 0.1 0.1 0.3
v 0.2 0 0.3
v 0.2 0.1 0.3
v 0.2 0.2 0.3
v 0.2 0.6 0.3
v 0.3 0.2 0.3
v 0.3 0.6 0.3
v -0.3 0.6 0.2
v -0.3 0.7 0.2
v -0.2 0.6 0.2
v -0.2 0.7 0.2
v 0.1 0.6 0.2
v 0.1 0.7 0.2
v 0.2 0.6 0.2
v 0.2 0.7 0.2
v 0 0 0.1
v 0 0.1 0.1
v 0 0.6 0.1
v 0 0.7 0.1
v 0.1 0 0.1
v 0.1 0.1 0.1
v 0.1 0.6 0.1
v 0.1 0.7 0.1
v -0.4 0.4 0
v -0.4 0.6 0
v -0.3 0.4 0
v -0.3 0.6 0
v -0.2 0.6 0
v -0.2 0.7 0
v -0.1 0.6 0
v -0.1 0.7 0
v 0.2 0.3 0
v 0.2 0.4 0
v 0.3 0.3 0
v 0.3 0.4 0
v -0.4 0.2 -0.1
v -0.4 0.4 -0.1
v -0.3 0.2 -0.1
v -0.3 0.4 -0.1
v 0.2 0.2 -0.1
v 0.2 0.3 -0.1
v 0.2 0.4 -0.1
v 0.2 0.6 -0.1
v 0.3 0.2 -0.1
v 0.3 0.3 -0.1
v 0.3 0.4 -0.1
v 0.3 0.6 -0.1
v -0.3 0.2 -0.2
v -0.3 0.6 -0.2
v -0.2 0.2 -0.2
v -0.2 0.3 -0.2
v -0.2 0.4 -0.2
v -0.2 0.6 -0.2
v -0.1 0.3 -0.2
v -0.1 0.4 -0.2
v 0 0.4 -0.2
v 0 0.6 -0.2
v 0.1 0.2 -0.2
v 0.1 0.4 -0.2
v 0.2 0.2 -0.2
v 0.2 0.6 -0.2
v -0.4 0 -0.3
v -0.4 0.7 -0.3
v -0.3 0.1 -0.3
v -0.3 0.2 -0.3
v -0.3 0.6 -0.3
v -0.2 0.2 -0.3
v -0.2 0.3 -0.3
v -0.2 0.4 -0.3
v -0.2 0.6 -0.3
v -0.1 0.3 -0.3
v -0.1 0.4 -0.3
v 0 0.1 -0.3
v 0 0.2 -0.3
v 0 0.4 -0.3
v 0 0.6 -0.3
v 0.1 0.2 -0.3
v 0.1 0.4 -0.3
v 0.2 0.1 -0.3
v 0.2 0.2 -0.3
v 0.2 0.6 -0.3
v 0.3 0 -0.3
v 0.3 0.7 -0.3
v -0.4 0 0.4
v 0.3 0 0.4
v -0.3 0 0.3
v -0.1 0 0.3
v 0.1 0 0.3
v 0.2 0 0.3
v -0.2 0 0.1
v -0.1 0 0.1
v 0 0 0.1
v 0.1 0 0.1
v 0 0 0
v 0.1 0 0
v -0.3 0 -0.1
v -0.2 0 -0.1
v -0.1 0 -0.1
v 0.1 0 -0.1
v 0.2 0 -0.1
v -0.3 0 -0.2
v -0.1 0 -0.2
v 0.2 0 -0.2
v -0.4 0 -0.3
v 0.3 0 -0.3
v -0.3 0.1 0.3
v -0.1 0.1 0.3
v 0.1 0.1 0.3
v 0.2 0.1 0.3
v -0.2 0.1 0.1
v -0.1 0.1 0.1
v 0 0.1 0.1
v 0.1 0.1 0.1
v 0 0.1 0
v 0.1 0.1 0
v -0.3 0.1 -0.1
v -0.2 0.1 -0.1
v 0.1 0.1 -0.1
v 0.2 0.1 -0.1
v 0 0.4 0.4
v 0.1 0.4 0.4
v 0 0.4 0.3
v 0.1 0.4 0.3
v -0.4 0.4 0.2
v -0.3 0.4 0.2
v -0.4 0.4 0.1
v -0.3 0.4 0.1
v 0.2 0.4 0
v 0.3 0.4 0
v 0.2 0.4 -0.1
v 0.3 0.4 -0.1
v -0.2 0.4 -0.2
v -0.1 0.4 -0.2
v -0.2 0.4 -0.3
v -0.1 0.4 -0.3
v -0.3 0.6 0.4
v -0.1 0.6 0.4
v 0.1 0.6 0.4
v 0.2 0.6 0.4
v -0.4 0.6 0.3
v -0.3 0.6 0.3
v -0.1 0.6 0.3
v 0.1 0.6 0.3
v 0.2 0.6 0.3
v 0.3 0.6 0.3
v -0.4 0.6 0.2
v -0.3 0.6 0.2
v 0.2 0.6 0.1
v 0.3 0.6 0.1
v -0.4 0.6 0
v -0.3 0.6 0
v 0.2 0.6 -0.1
v 0.3 0.6 -0.1
v -0.4 0.6 -0.2
v -0.3 0.6 -0.2
v -0.2 0.6 -0.2
v 0 0.6 -0.2
v 0.2 0.6 -0.2
v 0.3 0.6 -0.2
v -0.3 0.6 -0.3
v -0.2 0.6 -0.3
v 0 0.6 -0.3
v 0.2 0.6 -0.3
v -0.3 0.2 0.4
v -0.2 0.2 0.4
v 0.1 0.2 0.4
v 0.2 0.2 0.4
v -0.4 0.2 0.3
v -0.3 0.2 0.3
v -0.2 0.2 0.3
v 0.1 0.2 0.3
v 0.2 0.2 0.3
v 0.3 0.2 0.3
v -0.4 0.2 0.2
v -0.3 0.2 0.2
v 0.2 0.2 0.2
v 0.3 0.2 0.2
v -0.4 0.2 -0.1
v -0.3 0.2 -0.1
v 0.2 0.2 -0.1
v 0.3 0.2 -0.1
v -0.4 0.2 -0.2
v -0.3 0.2 -0.2
v -0.2 0.2 -0.2
v 0.1 0.2 -0.2
v 0.2 0.2 -0.2
v 0.3 0.2 -0.2
v -0.3 0.2 -0.3
v -0.2 0.2 -0.3
v 0.1 0.2 -0.3
v 0.2 0.2 -0.3
v 0 0.3 0.4
v 0.1 0.3 0.4
v 0 0.3 0.3
v 0.1 0.3 0.3
v -0.4 0.3 0.2
v -0.3 0.3 0.2
v -0.4 0.3 0.1
v -0.3 0.3 0.1
v 0.2 0.3 0
v 0.3 0.3 0
v 0.2 0.3 -0.1
v 0.3 0.3 -0.1
v -0.2 0.3 -0.2
v -0.1 0.3 -0.2
v -0.2 0.3 -0.3
v -0.1 0.3 -0.3
v -0.2 0.4 0.4
v -0.1 0.4 0.4
v -0.2 0.4 0.3
v -0.1 0.4 0.3
v 0.2 0.4 0.2
v 0.3 0.4 0.2
v 0.2 0.4 0.1
v 0.3 0.4 0.1
v -0.4 0.4 0
v -0.3 0.4 0
v -0.4 0.4 -0.1
v -0.3 0.4 -0.1
v 0 0.4 -0.2
v 0.1 0.4 -0.2
v 0 0.4 -0.3
v 0.1 0.4 -0.3
v -0.3 0.6 0.2
v -0.2 0.6 0.2
v 0.1 0.6 0.2
v 0.2 0.6 0.2
v 0 0.6 0.1
v 0.1 0.6 0.1
v -0.2 0.6 0
v -0.1 0.6 0
v 0 0.6 0
v 0.1 0.6 0
v -0.3 0.6 -0.2
v -0.1 0.6 -0.2
v 0.1 0.6 -0.2
v 0.2 0.6 -0.2
v -0.4 0.7 0.4
v 0.3 0.7 0.4
v -0.3 0.7 0.3
v -0.1 0.7 0.3
v 0.2 0.7 0.3
v -0.3 0.7 0.2
v -0.2 0.7 0.2
v -0.1 0.7 0.2
v 0.1 0.7 0.2
v 0.2 0.7 0.2
v 0 0.7 0.1
v 0.1 0.7 0.1
v -0.2 0.7 0
v -0.1 0.7 0
v 0 0.7 0
v 0.1 0.7 0
v -0.3 0.7 -0.2
v -0.1 0.7 -0.2
v 0.1 0.7 -0.2
v 0.2 0.7 -0.2
v -0.4 0.7 -0.3
v 0.3 0.7 -0.3

# faces
f 3/2/1 2/2/1 1/2/1
f 4/2/1 2/2/1 3/2/1
f 5/2/1 2/2/1 4/2/1
f 6/2/1 3/2/1 1/2/1
f 6/3/1 4/3/1 3/3/1
f 7/3/1 4/3/1 6/3/1
f 8/1/1 5/1/1 4/1/1
f 8/3/1 4/3/1 7/3/1
f 9/1/1 5/1/1 8/1/1
f 10/2/1 2/2/1 5/2/1
f 10/1/1 5/1/1 9/1/1
f 11/3/1 9/3/1 8/3/1
f 11/3/1 8/3/1 7/3/1
f 12/3/1 9/3/1 11/3/1
f 14/3/1 9/3/1 12/3/1
f 15/3/1 9/3/1 14/3/1
f 16/3/1 9/3/1 15/3/1
f 17/2/1 6/2/1 1/2/1
f 18/3/1 14/3/1 13/3/1
f 18/3/1 15/3/1 14/3/1
f 19/3/1 15/3/1 18/3/1
f 20/2/1 2/2/1 10/2/1
f 21/2/1 19/2/1 18/2/1
f 21/2/1 20/2/1 19/2/1
f 21/2/1 18/2/1 17/2/1
f 21/2/1 17/2/1 1/2/1
f 22/2/1 2/2/1 20/2/1
f 22/2/1 20/2/1 21/2/1
f 27/1/1 24/1/1 23/1/1
f 29/1/1 27/1/1 23/1/1
f 29/1/1 28/1/1 27/1/1
f 30/1/1 28/1/1 29/1/1
f 32/1/1 26/1/1 25/1/1
f 33/1/1 29/1/1 23/1/1
f 34/1/1 29/1/1 33/1/1
f 35/1/1 32/1/1 31/1/1
f 36/1/1 26/1/1 32/1/1
f 36/1/1 32/1/1 35/1/1
f 39/3/1 38/3/1 37/3/1
f 40/3/1 38/3/1 39/3/1
f 45/3/1 44/3/1 43/3/1
f 46/3/1 44/3/1 45/3/1
f 47/3/1 42/3/1 41/3/1
f 48/3/1 42/3/1 47/3/1
f 53/3/1 50/3/1 49/3/1
f 54/3/1 50/3/1 53/3/1
f 55/3/1 52/3/1 51/3/1
f 56/3/1 52/3/1 55/3/1
f 59/3/1 58/3/1 57/3/1
f 60/3/1 58/3/1 59/3/1
f 65/3/1 62/3/1 61/3/1
f 66/3/1 62/3/1 65/3/1
f 67/3/1 64/3/1 63/3/1
f 68/3/1 64/3/1 67/3/1
f 71/3/1 70/3/1 69/3/1
f 72/3/1 70/3/1 71/3/1
f 75/2/1 74/2/1 73/2/1
f 76/2/1 74/2/1 75/2/1
f 81/2/1 78/2/1 77/2/1
f 82/2/1 78/2/1 81/2/1
f 84/2/1 80/2/1 79/2/1
f 85/2/1 80/2/1 84/2/1
f 86/2/1 84/2/1 83/2/1
f 87/2/1 84/2/1 86/2/1
f 88/2/2 89/2/2 90/2/2
f 90/2/2 89/2/2 91/2/2
f 92/2/2 93/2/2 96/2/2
f 96/2/2 93/2/2 97/2/2
f 94/2/2 95/2/2 99/2/2
f 99/2/2 95/2/2 100/2/2
f 98/2/2 99/2/2 101/2/2
f 101/2/2 99/2/2 102/2/2
f 103/3/2 104/3/2 105/3/2
f 105/3/2 104/3/2 106/3/2
f 107/3/2 108/3/2 109/3/2
f 109/3/2 108/3/2 110/3/2
f 111/3/2 112/3/2 115/3/2
f 115/3/2 112/3/2 116/3/2
f 113/3/2 114/3/2 117/3/2
f 117/3/2 114/3/2 118/3/2
f 119/3/2 120/3/2 123/3/2
f 123/3/2 120/3/2 124/3/2
f 121/3/2 122/3/2 125/3/2
f 125/3/2 122/3/2 126/3/2
f 127/3/2 128/3/2 131/3/2
f 131/3/2 128/3/2 132/3/2
f 129/3/2 130/3/2 135/3/2
f 135/3/2 130/3/2 136/3/2
f 133/3/2 134/3/2 137/3/2
f 137/3/2 134/3/2 138/3/2
f 139/3/2 140/3/2 143/3/2
f 143/3/2 140/3/2 144/3/2
f 141/3/2 142/3/2 145/3/2
f 145/3/2 142/3/2 146/3/2
f 149/1/2 150/1/2 152/1/2
f 147/1/2 148/1/2 153/1/2
f 151/1/2 152/1/2 155/1/2
f 152/1/2 150/1/2 156/1/2
f 155/1/2 152/1/2 156/1/2
f 153/1/2 154/1/2 157/1/2
f 147/1/2 153/1/2 157/1/2
f 157/1/2 154/1/2 158/1/2
f 156/1/2 150/1/2 159/1/2
f 159/1/2 150/1/2 160/1/2
f 161/2/2 162/2/2 163/2/2
f 163/2/2 162/2/2 164/2/2
f 164/2/2 162/2/2 165/2/2
f 161/2/2 163/2/2 166/2/2
f 163/1/2 164/1/2 166/1/2
f 166/1/2 164/1/2 167/1/2
f 164/3/2 165/3/2 168/3/2
f 167/1/2 164/1/2 168/1/2
f 168/3/2 165/3/2 169/3/2
f 165/2/2 162/2/2 170/2/2
f 169/3/2 165/3/2 170/3/2
f 168/3/2 169/3/2 171/3/2
f 167/3/2 168/3/2 171/3/2
f 171/3/2 169/3/2 172/3/2
f 167/3/2 171/3/2 173/3/2
f 173/3/2 171/3/2 174/3/2
f 174/3/2 171/3/2 175/3/2
f 161/2/2 166/2/2 177/2/2
f 175/3/2 176/3/2 178/3/2
f 174/3/2 175/3/2 178/3/2
f 178/3/2 176/3/2 179/3/2
f 170/2/2 162/2/2 180/2/2
f 178/2/2 179/2/2 181/2/2
f 179/2/2 180/2/2 181/2/2
f 161/2/2 177/2/2 181/2/2
f 177/2/2 178/2/2 181/2/2
f 180/2/2 162/2/2 182/2/2
f 181/2/2 180/2/2 182/2/2
f 185/2/3 184/2/3 183/2/3
f 186/2/3 184/2/3 185/2/3
f 187/2/3 184/2/3 186/2/3
f 188/1/3 186/1/3 185/1/3
f 190/2/3 185/2/3 183/2/3
f 190/1/3 188/1/3 185/1/3
f 191/3/3 189/3/3 188/3/3
f 191/1/3 188/1/3 190/1/3
f 192/3/3 189/3/3 191/3/3
f 193/2/3 184/2/3 187/2/3
f 194/3/3 192/3/3 191/3/3
f 194/3/3 193/3/3 192/3/3
f 194/3/3 191/3/3 190/3/3
f 195/3/3 193/3/3 194/3/3
f 196/3/3 194/3/3 190/3/3
f 197/3/3 194/3/3 196/3/3
f 198/3/3 193/3/3 195/3/3
f 199/2/3 184/2/3 193/2/3
f 199/3/3 193/3/3 198/3/3
f 200/2/3 190/2/3 183/2/3
f 200/3/3 196/3/3 190/3/3
f 201/3/3 196/3/3 200/3/3
f 202/2/3 184/2/3 199/2/3
f 203/2/3 201/2/3 200/2/3
f 203/2/3 202/2/3 201/2/3
f 203/2/3 200/2/3 183/2/3
f 204/2/3 184/2/3 202/2/3
f 204/2/3 202/2/3 203/2/3
f 207/1/3 206/1/3 205/1/3
f 208/1/3 206/1/3 207/1/3
f 209/1/3 206/1/3 208/1/3
f 210/1/3 206/1/3 209/1/3
f 214/1/3 212/1/3 211/1/3
f 215/1/3 212/1/3 214/1/3
f 217/1/3 214/1/3 213/1/3
f 217/1/3 216/1/3 215/1/3
f 217/1/3 215/1/3 214/1/3
f 218/1/3 216/1/3 217/1/3
f 223/3/3 220/3/3 219/3/3
f 224/3/3 220/3/3 223/3/3
f 225/3/3 222/3/3 221/3/3
f 226/3/3 222/3/3 225/3/3
f 229/3/3 228/3/3 227/3/3
f 230/3/3 228/3/3 229/3/3
f 233/3/3 232/3/3 231/3/3
f 234/3/3 232/3/3 233/3/3
f 237/3/3 236/3/3 235/3/3
f 238/3/3 236/3/3 237/3/3
f 241/3/3 240/3/3 239/3/3
f 242/3/3 240/3/3 241/3/3
f 247/3/3 244/3/3 243/3/3
f 248/3/3 244/3/3 247/3/3
f 249/3/3 246/3/3 245/3/3
f 250/3/3 246/3/3 249/3/3
f 253/1/3 252/1/3 251/1/3
f 254/1/3 252/1/3 253/1/3
f 257/3/3 256/3/3 255/3/3
f 258/3/3 256/3/3 257/3/3
f 261/2/3 260/2/3 259/2/3
f 262/2/3 260/2/3 261/2/3
f 264/2/3 263/2/3 262/2/3
f 265/2/3 263/2/3 264/2/3
f 269/2/3 267/2/3 266/2/3
f 270/2/3 267/2/3 269/2/3
f 271/2/3 269/2/3 268/2/3
f 272/2/3 269/2/3 271/2/3
f 273/2/4 274/2/4 277/2/4
f 277/2/4 274/2/4 278/2/4
f 275/2/4 276/2/4 279/2/4
f 279/2/4 276/2/4 280/2/4
f 281/2/4 282/2/4 283/2/4
f 283/2/4 282/2/4 284/2/4
f 285/2/4 286/2/4 287/2/4
f 287/2/4 286/2/4 288/2/4
f 289/1/4 290/1/4 291/1/4
f 291/1/4 290/1/4 292/1/4
f 293/3/4 294/3/4 295/3/4
f 295/3/4 294/3/4 296/3/4
f 297/3/4 298/3/4 301/3/4
f 301/3/4 298/3/4 302/3/4
f 299/3/4 300/3/4 303/3/4
f 303/3/4 300/3/4 304/3/4
f 305/3/4 306/3/4 307/3/4
f 307/3/4 306/3/4 308/3/4
f 309/3/4 310/3/4 311/3/4
f 311/3/4 310/3/4 312/3/4
f 313/3/4 314/3/4 315/3/4
f 315/3/4 314/3/4 316/3/4
f 317/3/4 318/3/4 319/3/4
f 319/3/4 318/3/4 320/3/4
f 321/3/4 322/3/4 325/3/4
f 325/3/4 322/3/4 326/3/4
f 323/3/4 324/3/4 327/3/4
f 327/3/4 324/3/4 328/3/4
f 329/1/4 330/1/4 331/1/4
f 331/1/4 330/1/4 332/1/4
f 332/1/4 330/1/4 333/1/4
f 333/1/4 330/1/4 334/1/4
f 332/1/4 333/1/4 335/1/4
f 335/1/4 333/1/4 336/1/4
f 337/1/4 338/1/4 340/1/4
f 339/1/4 340/1/4 341/1/4
f 340/1/4 338/1/4 342/1/4
f 341/1/4 340/1/4 342/1/4
f 343/2/4 344/2/4 345/2/4
f 345/2/4 344/2/4 346/2/4
f 346/2/4 344/2/4 347/2/4
f 345/3/4 346/3/4 348/3/4
f 347/2/4 344/2/4 351/2/4
f 348/3/4 349/3/4 352/3/4
f 350/3/4 351/3/4 353/3/4
f 343/2/4 345/2/4 354/2/4
f 352/3/4 353/3/4 354/3/4
f 348/3/4 352/3/4 354/3/4
f 345/3/4 348/3/4 354/3/4
f 354/3/4 353/3/4 355/3/4
f 353/3/4 351/3/4 356/3/4
f 355/3/4 353/3/4 356/3/4
f 351/2/4 344/2/4 357/2/4
f 356/3/4 351/3/4 357/3/4
f 354/1/4 355/1/4 358/1/4
f 355/3/4 356/3/4 358/3/4
f 358/3/4 356/3/4 359/3/4
f 343/2/4 354/2/4 360/2/4
f 354/1/4 358/1/4 360/1/4
f 360/1/4 358/1/4 361/1/4
f 357/2/4 344/2/4 362/2/4
f 360/2/4 361/2/4 363/2/4
f 361/2/4 362/2/4 363/2/4
f 343/2/4 360/2/4 363/2/4
f 362/2/4 344/2/4 364/2/4
f 363/2/4 362/2/4 364/2/4
f 367/2/5 366/2/5 365/2/5
f 368/2/5 366/2/5 367/2/5
f 369/2/5 366/2/5 368/2/5
f 370/2/5 366/2/5 369/2/5
f 372/3/5 369/3/5 368/3/5
f 373/3/5 369/3/5 372/3/5
f 374/3/5 369/3/5 373/3/5
f 375/3/5 372/3/5 371/3/5
f 375/3/5 373/3/5 372/3/5
f 377/2/5 367/2/5 365/2/5
f 378/3/5 376/3/5 375/3/5
f 378/3/5 375/3/5 371/3/5
f 379/3/5 376/3/5 378/3/5
f 380/3/5 376/3/5 379/3/5
f 381/2/5 366/2/5 370/2/5
f 382/2/5 377/2/5 365/2/5
f 382/1/5 379/1/5 378/1/5
f 382/1/5 378/1/5 377/1/5
f 383/3/5 381/3/5 380/3/5
f 383/1/5 379/1/5 382/1/5
f 383/3/5 380/3/5 379/3/5
f 384/2/5 366/2/5 381/2/5
f 384/3/5 381/3/5 383/3/5
f 385/2/5 382/2/5 365/2/5
f 385/2/5 383/2/5 382/2/5
f 385/2/5 384/2/5 383/2/5
f 386/2/5 366/2/5 384/2/5
f 386/2/5 384/2/5 385/2/5
f 391/1/5 388/1/5 387/1/5
f 392/1/5 388/1/5 391/1/5
f 394/1/5 390/1/5 389/1/5
f 395/1/5 394/1/5 393/1/5
f 396/1/5 390/1/5 394/1/5
f 396/1/5 394/1/5 395/1/5
f 397/1/5 391/1/5 387/1/5
f 398/1/5 391/1/5 397/1/5
f 399/1/5 390/1/5 396/1/5
f 400/1/5 390/1/5 399/1/5
f 403/3/5 402/3/5 401/3/5
f 404/3/5 402/3/5 403/3/5
f 407/3/5 406/3/5 405/3/5
f 408/3/5 406/3/5 407/3/5
f 411/3/5 410/3/5 409/3/5
f 412/3/5 410/3/5 411/3/5
f 415/3/5 414/3/5 413/3/5
f 416/3/5 414/3/5 415/3/5
f 422/2/5 418/2/5 417/2/5
f 423/2/5 418/2/5 422/2/5
f 424/2/5 420/2/5 419/2/5
f 425/2/5 420/2/5 424/2/5
f 427/2/5 422/2/5 421/2/5
f 428/2/5 422/2/5 427/2/5
f 429/2/5 426/2/5 425/2/5
f 430/2/5 426/2/5 429/2/5
f 435/2/5 432/2/5 431/2/5
f 436/2/5 432/2/5 435/2/5
f 439/2/5 434/2/5 433/2/5
f 440/2/5 434/2/5 439/2/5
f 441/2/5 437/2/5 436/2/5
f 442/2/5 437/2/5 441/2/5
f 443/2/5 439/2/5 438/2/5
f 444/2/5 439/2/5 443/2/5
f 445/1/6 446/1/6 450/1/6
f 450/1/6 446/1/6 451/1/6
f 447/3/6 448/3/6 452/3/6
f 452/3/6 448/3/6 453/3/6
f 449/3/6 450/3/6 455/3/6
f 455/3/6 450/3/6 456/3/6
f 453/1/6 454/1/6 457/1/6
f 457/1/6 454/1/6 458/1/6
f 459/1/6 460/1/6 463/1/6
f 463/1/6 460/1/6 464/1/6
f 461/3/6 462/3/6 467/3/6
f 467/3/6 462/3/6 468/3/6
f 464/3/6 465/3/6 469/3/6
f 469/3/6 465/3/6 470/3/6
f 466/1/6 467/1/6 471/1/6
f 471/1/6 467/1/6 472/1/6
f 473/3/6 474/3/6 475/3/6
f 475/3/6 474/3/6 476/3/6
f 477/3/6 478/3/6 479/3/6
f 479/3/6 478/3/6 480/3/6
f 481/3/6 482/3/6 483/3/6
f 483/3/6 482/3/6 484/3/6
f 485/3/6 486/3/6 487/3/6
f 487/3/6 486/3/6 488/3/6
f 489/3/6 490/3/6 491/3/6
f 491/3/6 490/3/6 492/3/6
f 493/3/6 494/3/6 495/3/6
f 495/3/6 494/3/6 496/3/6
f 497/3/6 498/3/6 499/3/6
f 499/3/6 498/3/6 500/3/6
f 501/3/6 502/3/6 503/3/6
f 503/3/6 502/3/6 504/3/6
f 507/1/6 508/1/6 510/1/6
f 505/1/6 506/1/6 511/1/6
f 509/1/6 510/1/6 513/1/6
f 510/1/6 508/1/6 514/1/6
f 513/1/6 510/1/6 514/1/6
f 511/1/6 512/1/6 515/1/6
f 505/1/6 511/1/6 515/1/6
f 515/1/6 512/1/6 516/1/6
f 514/1/6 508/1/6 517/1/6
f 517/1/6 508/1/6 518/1/6
f 519/2/6 520/2/6 521/2/6
f 521/2/6 520/2/6 522/2/6
f 522/2/6 520/2/6 523/2/6
f 519/2/6 521/2/6 524/2/6
f 521/1/6 522/1/6 524/1/6
f 524/1/6 522/1/6 525/1/6
f 522/3/6 523/3/6 526/3/6
f 525/1/6 522/1/6 526/1/6
f 526/3/6 523/3/6 527/3/6
f 523/2/6 520/2/6 528/2/6
f 527/3/6 523/3/6 528/3/6
f 526/3/6 527/3/6 529/3/6
f 525/3/6 526/3/6 529/3/6
f 529/3/6 527/3/6 530/3/6
f 525/3/6 529/3/6 531/3/6
f 531/3/6 529/3/6 532/3/6
f 532/3/6 529/3/6 533/3/6
f 519/2/6 524/2/6 535/2/6
f 533/3/6 534/3/6 536/3/6
f 532/3/6 533/3/6 536/3/6
f 536/3/6 534/3/6 537/3/6
f 528/2/6 520/2/6 538/2/6
f 536/2/6 537/2/6 539/2/6
f 537/2/6 538/2/6 539/2/6
f 519/2/6 535/2/6 539/2/6
f 535/2/6 536/2/6 539/2/6
f 538/2/6 520/2/6 540/2/6
f 539/2/6 538/2/6 540/2/6
