# MagicaVoxel @ Ephtracy

# group
o 

# material
mtllib cat.mtl
usemtl palette

# normals
vn -1 0 0
vn 1 0 0
vn 0 0 1
vn 0 0 -1
vn 0 -1 0
vn 0 1 0

# texcoords
vt 0.970703 0.5
vt 0.974609 0.5
vt 0.978516 0.5
vt 0.982422 0.5
vt 0.986328 0.5
vt 0.990234 0.5

# verts
v -0.5 0.2 0.1
v -0.5 0.2 0
v -0.5 0.4 0.2
v -0.5 0.4 0.1
v -0.5 0.4 0
v -0.5 0.4 -0.1
v -0.5 0.5 0.2
v -0.5 0.5 0.1
v -0.5 0.5 0
v -0.5 0.5 -0.1
v -0.5 0.6 0.1
v -0.5 0.6 0
v -0.3 0 0.1
v -0.3 0 0
v -0.3 0.2 0.1
v -0.3 0.2 0
v -0.3 0.3 0.2
v -0.3 0.3 0.1
v -0.3 0.3 0
v -0.3 0.3 -0.1
v -0.3 0.4 0.2
v -0.3 0.4 0.1
v -0.3 0.4 0
v -0.3 0.4 -0.1
v -0.1 0.6 0.1
v -0.1 0.6 0
v -0.1 0.7 0.1
v -0.1 0.7 0
v -0.4 0.2 0.1
v -0.4 0.2 0
v -0.4 0.3 0.1
v -0.4 0.3 0
v -0.1 0 0.1
v -0.1 0 0
v -0.1 0.1 0.1
v -0.1 0.1 0
v -0.1 0.3 0.2
v -0.1 0.3 0.1
v -0.1 0.3 0
v -0.1 0.3 -0.1
v -0.1 0.4 0.2
v -0.1 0.4 0.1
v -0.1 0.4 0
v -0.1 0.4 -0.1
v 0 0.6 0.1
v 0 0.6 0
v 0 0.7 0.1
v 0 0.7 0
v 0.1 0.3 0.1
v 0.1 0.3 0
v 0.1 0.4 0.2
v 0.1 0.4 0.1
v 0.1 0.4 0
v 0.1 0.4 -0.1
v 0.1 0.5 0.2
v 0.1 0.5 0.1
v 0.1 0.5 0
v 0.1 0.5 -0.1
v 0.2 0.4 0.1
v 0.2 0.4 0
v 0.2 0.5 0.1
v 0.2 0.5 0
v 0.4 0.5 0.1
v 0.4 0.5 0
v 0.4 0.6 0.1
v 0.4 0.6 0
v -0.5 0.4 0.2
v -0.5 0.5 0.2
v -0.4 0.4 0.2
v -0.4 0.5 0.2
v -0.3 0.3 0.2
v -0.3 0.4 0.2
v -0.2 0.3 0.2
v -0.2 0.5 0.2
v -0.1 0.3 0.2
v -0.1 0.4 0.2
v 0.1 0.4 0.2
v 0.1 0.5 0.2
v -0.5 0.2 0.1
v -0.5 0.4 0.1
v -0.5 0.5 0.1
v -0.5 0.6 0.1
v -0.4 0.2 0.1
v -0.4 0.3 0.1
v -0.4 0.4 0.1
v -0.4 0.5 0.1
v -0.4 0.6 0.1
v -0.3 0 0.1
v -0.3 0.2 0.1
v -0.3 0.3 0.1
v -0.3 0.4 0.1
v -0.2 0 0.1
v -0.2 0.1 0.1
v -0.2 0.2 0.1
v -0.2 0.3 0.1
v -0.2 0.5 0.1
v -0.2 0.6 0.1
v -0.1 0 0.1
v -0.1 0.1 0.1
v -0.1 0.3 0.1
v -0.1 0.4 0.1
v -0.1 0.6 0.1
v -0.1 0.7 0.1
v 0 0.6 0.1
v 0 0.7 0.1
v 0.1 0.3 0.1
v 0.1 0.4 0.1
v 0.1 0.5 0.1
v 0.1 0.6 0.1
v 0.2 0.4 0.1
v 0.2 0.5 0.1
v 0.3 0.5 0.1
v 0.3 0.6 0.1
v 0.4 0.5 0.1
v 0.4 0.6 0.1
v -0.5 0.2 0
v -0.5 0.4 0
v -0.5 0.5 0
v -0.5 0.6 0
v -0.4 0.2 0
v -0.4 0.3 0
v -0.4 0.4 0
v -0.4 0.5 0
v -0.4 0.6 0
v -0.3 0 0
v -0.3 0.2 0
v -0.3 0.3 0
v -0.3 0.4 0
v -0.2 0 0
v -0.2 0.1 0
v -0.2 0.2 0
v -0.2 0.3 0
v -0.2 0.5 0
v -0.2 0.6 0
v -0.1 0 0
v -0.1 0.1 0
v -0.1 0.3 0
v -0.1 0.4 0
v -0.1 0.6 0
v -0.1 0.7 0
v 0 0.6 0
v 0 0.7 0
v 0.1 0.3 0
v 0.1 0.4 0
v 0.1 0.5 0
v 0.1 0.6 0
v 0.2 0.4 0
v 0.2 0.5 0
v 0.3 0.5 0
v 0.3 0.6 0
v 0.4 0.5 0
v 0.4 0.6 0
v -0.5 0.4 -0.1
v -0.5 0.5 -0.1
v -0.4 0.4 -0.1
v -0.4 0.5 -0.1
v -0.3 0.3 -0.1
v -0.3 0.4 -0.1
v -0.2 0.3 -0.1
v -0.2 0.5 -0.1
v -0.1 0.3 -0.1
v -0.1 0.4 -0.1
v 0.1 0.4 -0.1
v 0.1 0.5 -0.1
v -0.3 0 0.1
v -0.2 0 0.1
v -0.1 0 0.1
v -0.3 0 0
v -0.2 0 0
v -0.1 0 0
v -0.5 0.2 0.1
v -0.4 0.2 0.1
v -0.5 0.2 0
v -0.4 0.2 0
v -0.3 0.3 0.2
v -0.2 0.3 0.2
v -0.1 0.3 0.2
v -0.4 0.3 0.1
v -0.3 0.3 0.1
v -0.2 0.3 0.1
v -0.1 0.3 0.1
v 0.1 0.3 0.1
v -0.4 0.3 0
v -0.3 0.3 0
v -0.2 0.3 0
v -0.1 0.3 0
v 0.1 0.3 0
v -0.3 0.3 -0.1
v -0.2 0.3 -0.1
v -0.1 0.3 -0.1
v -0.5 0.4 0.2
v -0.4 0.4 0.2
v -0.3 0.4 0.2
v -0.1 0.4 0.2
v 0.1 0.4 0.2
v -0.5 0.4 0.1
v -0.4 0.4 0.1
v -0.3 0.4 0.1
v -0.1 0.4 0.1
v 0.1 0.4 0.1
v 0.2 0.4 0.1
v -0.5 0.4 0
v -0.4 0.4 0
v -0.3 0.4 0
v -0.1 0.4 0
v 0.1 0.4 0
v 0.2 0.4 0
v -0.5 0.4 -0.1
v -0.4 0.4 -0.1
v -0.3 0.4 -0.1
v -0.1 0.4 -0.1
v 0.1 0.4 -0.1
v 0.2 0.5 0.1
v 0.3 0.5 0.1
v 0.4 0.5 0.1
v 0.2 0.5 0
v 0.3 0.5 0
v 0.4 0.5 0
v -0.5 0.5 0.2
v -0.4 0.5 0.2
v -0.2 0.5 0.2
v 0.1 0.5 0.2
v -0.5 0.5 0.1
v -0.4 0.5 0.1
v -0.2 0.5 0.1
v 0.1 0.5 0.1
v -0.5 0.5 0
v -0.4 0.5 0
v -0.2 0.5 0
v 0.1 0.5 0
v -0.5 0.5 -0.1
v -0.4 0.5 -0.1
v -0.2 0.5 -0.1
v 0.1 0.5 -0.1
v -0.5 0.6 0.1
v -0.4 0.6 0.1
v -0.2 0.6 0.1
v -0.1 0.6 0.1
v 0 0.6 0.1
v 0.1 0.6 0.1
v 0.3 0.6 0.1
v 0.4 0.6 0.1
v -0.5 0.6 0
v -0.4 0.6 0
v -0.2 0.6 0
v -0.1 0.6 0
v 0 0.6 0
v 0.1 0.6 0
v 0.3 0.6 0
v 0.4 0.6 0
v -0.1 0.7 0.1
v 0 0.7 0.1
v -0.1 0.7 0
v 0 0.7 0

# faces
f 4/3/1 2/3/1 1/3/1
f 5/3/1 2/3/1 4/3/1
f 7/3/1 4/3/1 3/3/1
f 7/3/1 6/3/1 5/3/1
f 7/3/1 5/3/1 4/3/1
f 8/3/1 6/3/1 7/3/1
f 9/3/1 6/3/1 8/3/1
f 10/3/1 6/3/1 9/3/1
f 11/3/1 9/3/1 8/3/1
f 12/3/1 9/3/1 11/3/1
f 15/5/1 14/5/1 13/5/1
f 16/5/1 14/5/1 15/5/1
f 18/4/1 16/4/1 15/4/1
f 19/4/1 16/4/1 18/4/1
f 21/5/1 18/5/1 17/5/1
f 22/5/1 18/5/1 21/5/1
f 23/5/1 20/5/1 19/5/1
f 24/5/1 20/5/1 23/5/1
f 27/1/1 26/1/1 25/1/1
f 28/1/1 26/1/1 27/1/1
f 29/3/2 30/3/2 31/3/2
f 31/3/2 30/3/2 32/3/2
f 33/4/2 34/4/2 35/4/2
f 35/4/2 34/4/2 36/4/2
f 35/2/2 36/2/2 38/2/2
f 38/2/2 36/2/2 39/2/2
f 37/4/2 38/4/2 41/4/2
f 41/4/2 38/4/2 42/4/2
f 39/4/2 40/4/2 43/4/2
f 43/4/2 40/4/2 44/4/2
f 45/1/2 46/1/2 47/1/2
f 47/1/2 46/1/2 48/1/2
f 49/5/2 50/5/2 52/5/2
f 52/5/2 50/5/2 53/5/2
f 51/4/2 52/4/2 55/4/2
f 55/4/2 52/4/2 56/4/2
f 53/4/2 54/4/2 57/4/2
f 57/4/2 54/4/2 58/4/2
f 59/5/2 60/5/2 61/5/2
f 61/5/2 60/5/2 62/5/2
f 63/6/2 64/6/2 65/6/2
f 65/6/2 64/6/2 66/6/2
f 69/3/3 68/3/3 67/3/3
f 70/3/3 68/3/3 69/3/3
f 72/5/3 70/5/3 69/5/3
f 73/5/3 72/5/3 71/5/3
f 74/5/3 70/5/3 72/5/3
f 74/5/3 72/5/3 73/5/3
f 75/4/3 74/4/3 73/4/3
f 76/4/3 74/4/3 75/4/3
f 77/4/3 74/4/3 76/4/3
f 78/4/3 74/4/3 77/4/3
f 83/3/3 80/3/3 79/3/3
f 84/3/3 80/3/3 83/3/3
f 85/3/3 80/3/3 84/3/3
f 86/3/3 82/3/3 81/3/3
f 87/3/3 82/3/3 86/3/3
f 90/5/3 85/5/3 84/5/3
f 91/5/3 85/5/3 90/5/3
f 92/5/3 89/5/3 88/5/3
f 93/5/3 89/5/3 92/5/3
f 94/4/3 90/4/3 89/4/3
f 94/5/3 89/5/3 93/5/3
f 95/4/3 90/4/3 94/4/3
f 96/4/3 87/4/3 86/4/3
f 97/4/3 87/4/3 96/4/3
f 98/4/3 93/4/3 92/4/3
f 99/2/3 95/2/3 94/2/3
f 99/4/3 93/4/3 98/4/3
f 99/2/3 94/2/3 93/2/3
f 100/2/3 95/2/3 99/2/3
f 102/2/3 97/2/3 96/2/3
f 104/2/3 102/2/3 96/2/3
f 104/1/3 103/1/3 102/1/3
f 105/1/3 103/1/3 104/1/3
f 106/5/3 101/5/3 100/5/3
f 107/5/3 101/5/3 106/5/3
f 108/2/3 104/2/3 96/2/3
f 109/2/3 104/2/3 108/2/3
f 110/5/3 108/5/3 107/5/3
f 111/1/3 109/1/3 108/1/3
f 111/5/3 108/5/3 110/5/3
f 112/1/3 109/1/3 111/1/3
f 113/1/3 109/1/3 112/1/3
f 114/6/3 113/6/3 112/6/3
f 115/6/3 113/6/3 114/6/3
f 116/3/4 117/3/4 120/3/4
f 120/3/4 117/3/4 121/3/4
f 121/3/4 117/3/4 122/3/4
f 118/3/4 119/3/4 123/3/4
f 123/3/4 119/3/4 124/3/4
f 121/5/4 122/5/4 127/5/4
f 127/5/4 122/5/4 128/5/4
f 125/5/4 126/5/4 129/5/4
f 129/5/4 126/5/4 130/5/4
f 126/4/4 127/4/4 131/4/4
f 130/5/4 126/5/4 131/5/4
f 131/4/4 127/4/4 132/4/4
f 123/4/4 124/4/4 133/4/4
f 133/4/4 124/4/4 134/4/4
f 129/4/4 130/4/4 135/4/4
f 131/2/4 132/2/4 136/2/4
f 135/4/4 130/4/4 136/4/4
f 130/2/4 131/2/4 136/2/4
f 136/2/4 132/2/4 137/2/4
f 133/2/4 134/2/4 139/2/4
f 133/2/4 139/2/4 141/2/4
f 139/1/4 140/1/4 141/1/4
f 141/1/4 140/1/4 142/1/4
f 137/5/4 138/5/4 143/5/4
f 143/5/4 138/5/4 144/5/4
f 133/2/4 141/2/4 145/2/4
f 145/2/4 141/2/4 146/2/4
f 144/5/4 145/5/4 147/5/4
f 145/1/4 146/1/4 148/1/4
f 147/5/4 145/5/4 148/5/4
f 148/1/4 146/1/4 149/1/4
f 149/1/4 146/1/4 150/1/4
f 149/6/4 150/6/4 151/6/4
f 151/6/4 150/6/4 152/6/4
f 153/3/4 154/3/4 155/3/4
f 155/3/4 154/3/4 156/3/4
f 155/5/4 156/5/4 158/5/4
f 157/5/4 158/5/4 159/5/4
f 158/5/4 156/5/4 160/5/4
f 159/5/4 158/5/4 160/5/4
f 159/4/4 160/4/4 161/4/4
f 161/4/4 160/4/4 162/4/4
f 162/4/4 160/4/4 163/4/4
f 163/4/4 160/4/4 164/4/4
f 168/5/5 166/5/5 165/5/5
f 169/4/5 167/4/5 166/4/5
f 169/5/5 166/5/5 168/5/5
f 170/4/5 167/4/5 169/4/5
f 173/3/5 172/3/5 171/3/5
f 174/3/5 172/3/5 173/3/5
f 179/5/5 176/5/5 175/5/5
f 180/4/5 177/4/5 176/4/5
f 180/5/5 176/5/5 179/5/5
f 181/4/5 177/4/5 180/4/5
f 183/5/5 179/5/5 178/5/5
f 184/5/5 179/5/5 183/5/5
f 186/5/5 182/5/5 181/5/5
f 187/5/5 182/5/5 186/5/5
f 188/5/5 185/5/5 184/5/5
f 189/4/5 186/4/5 185/4/5
f 189/5/5 185/5/5 188/5/5
f 190/4/5 186/4/5 189/4/5
f 196/3/5 192/3/5 191/3/5
f 197/5/5 193/5/5 192/5/5
f 197/3/5 192/3/5 196/3/5
f 198/5/5 193/5/5 197/5/5
f 199/4/5 195/4/5 194/4/5
f 200/4/5 195/4/5 199/4/5
f 206/5/5 201/5/5 200/5/5
f 207/5/5 201/5/5 206/5/5
f 208/3/5 203/3/5 202/3/5
f 209/5/5 204/5/5 203/5/5
f 209/3/5 203/3/5 208/3/5
f 210/5/5 204/5/5 209/5/5
f 211/4/5 206/4/5 205/4/5
f 212/4/5 206/4/5 211/4/5
f 216/1/5 214/1/5 213/1/5
f 217/6/5 215/6/5 214/6/5
f 217/1/5 214/1/5 216/1/5
f 218/6/5 215/6/5 217/6/5
f 219/3/6 220/3/6 223/3/6
f 220/5/6 221/5/6 224/5/6
f 223/3/6 220/3/6 224/3/6
f 221/4/6 222/4/6 225/4/6
f 224/5/6 221/5/6 225/5/6
f 225/4/6 222/4/6 226/4/6
f 227/3/6 228/3/6 231/3/6
f 228/5/6 229/5/6 232/5/6
f 231/3/6 228/3/6 232/3/6
f 229/4/6 230/4/6 233/4/6
f 232/5/6 229/5/6 233/5/6
f 233/4/6 230/4/6 234/4/6
f 235/3/6 236/3/6 243/3/6
f 236/4/6 237/4/6 244/4/6
f 243/3/6 236/3/6 244/3/6
f 237/2/6 238/2/6 245/2/6
f 244/4/6 237/4/6 245/4/6
f 245/2/6 238/2/6 246/2/6
f 239/2/6 240/2/6 247/2/6
f 240/1/6 241/1/6 248/1/6
f 247/2/6 240/2/6 248/2/6
f 241/6/6 242/6/6 249/6/6
f 248/1/6 241/1/6 249/1/6
f 249/6/6 242/6/6 250/6/6
f 251/1/6 252/1/6 253/1/6
f 253/1/6 252/1/6 254/1/6
