# MagicaVoxel @ Ephtracy

# group
o 

# material
mtllib m-16.mtl
usemtl palette

# normals
vn -1 0 0
vn 1 0 0
vn 0 0 1
vn 0 0 -1
vn 0 -1 0
vn 0 1 0

# texcoords
vt 0.939453 0.5
vt 0.943359 0.5
vt 0.955078 0.5
vt 0.970703 0.5
vt 0.974609 0.5
vt 0.982422 0.5
vt 0.986328 0.5

# verts
v -1 0.2 0.2
v -1 0.2 -0.1
v -1 0.6 0.2
v -1 0.6 -0.1
v -0.6 0 0.1
v -0.6 0 0
v -0.6 0.2 0.1
v -0.6 0.2 0
v -0.5 0.2 0.2
v -0.5 0.2 0.1
v -0.5 0.2 0
v -0.5 0.2 -0.1
v -0.5 0.3 0.2
v -0.5 0.3 -0.1
v -0.4 0.5 0.1
v -0.4 0.5 0
v -0.4 0.6 0.1
v -0.4 0.6 0
v -0.4 0.7 0.1
v -0.4 0.7 0
v -0.1 0 0.1
v -0.1 0 0
v -0.1 0.1 0.1
v -0.1 0.1 0
v -0.1 0.2 0.1
v -0.1 0.2 0
v 0 0.5 0.1
v 0 0.5 0
v 0 0.6 0.1
v 0 0.6 0
v 0.4 0.3 0.2
v 0.4 0.3 0.1
v 0.4 0.3 0
v 0.4 0.3 -0.1
v 0.4 0.4 0.2
v 0.4 0.4 0.1
v 0.4 0.4 0
v 0.4 0.4 -0.1
v 0.4 0.5 0.1
v 0.4 0.5 0
v 0.4 0.6 0.1
v 0.4 0.6 0
v 0.4 0.7 0.1
v 0.4 0.7 0
v -0.8 0.2 0.2
v -0.8 0.2 -0.1
v -0.8 0.3 0.2
v -0.8 0.3 -0.1
v -0.7 0.5 0.2
v -0.7 0.5 0.1
v -0.7 0.5 0
v -0.7 0.5 -0.1
v -0.7 0.6 0.2
v -0.7 0.6 0.1
v -0.7 0.6 0
v -0.7 0.6 -0.1
v -0.4 0 0.1
v -0.4 0 0
v -0.4 0.1 0.1
v -0.4 0.1 0
v -0.3 0.1 0.1
v -0.3 0.1 0
v -0.3 0.2 0.1
v -0.3 0.2 0
v -0.3 0.5 0.1
v -0.3 0.5 0
v -0.3 0.6 0.1
v -0.3 0.6 0
v -0.2 0.2 0.2
v -0.2 0.2 0.1
v -0.2 0.2 0
v -0.2 0.2 -0.1
v -0.2 0.3 0.2
v -0.2 0.3 0.1
v -0.2 0.3 0
v -0.2 0.3 -0.1
v 0 0.6 0.1
v 0 0.6 0
v 0 0.7 0.1
v 0 0.7 0
v 0.1 0 0.1
v 0.1 0 0
v 0.1 0.2 0.1
v 0.1 0.2 0
v 0.1 0.5 0.1
v 0.1 0.5 0
v 0.1 0.6 0.1
v 0.1 0.6 0
v 0.2 0.2 0.1
v 0.2 0.2 0
v 0.2 0.3 0.1
v 0.2 0.3 0
v 0.3 0.3 0.2
v 0.3 0.3 0.1
v 0.3 0.3 0
v 0.3 0.3 -0.1
v 0.3 0.4 0.2
v 0.3 0.4 0.1
v 0.3 0.4 0
v 0.3 0.4 -0.1
v 0.5 0.3 0.2
v 0.5 0.3 0.1
v 0.5 0.3 0
v 0.5 0.3 -0.1
v 0.5 0.4 0.2
v 0.5 0.4 0.1
v 0.5 0.4 0
v 0.5 0.4 -0.1
v 0.5 0.6 0.1
v 0.5 0.6 0
v 0.5 0.7 0.1
v 0.5 0.7 0
v 0.6 0.5 0.1
v 0.6 0.5 0
v 0.6 0.6 0.1
v 0.6 0.6 0
v 0.7 0.4 0.2
v 0.7 0.4 0.1
v 0.7 0.4 0
v 0.7 0.4 -0.1
v 0.7 0.5 0.2
v 0.7 0.5 0.1
v 0.7 0.5 0
v 0.7 0.5 -0.1
v 0.8 0.3 0.1
v 0.8 0.3 0
v 0.8 0.4 0.1
v 0.8 0.4 0
v 1 0.4 0.1
v 1 0.4 0
v 1 0.5 0.1
v 1 0.5 0
v -1 0.2 0.2
v -1 0.6 0.2
v -0.9 0.3 0.2
v -0.9 0.4 0.2
v -0.9 0.5 0.2
v -0.8 0.2 0.2
v -0.8 0.3 0.2
v -0.8 0.4 0.2
v -0.8 0.5 0.2
v -0.8 0.6 0.2
v -0.7 0.3 0.2
v -0.7 0.4 0.2
v -0.7 0.5 0.2
v -0.7 0.6 0.2
v -0.6 0.3 0.2
v -0.6 0.4 0.2
v -0.6 0.5 0.2
v -0.5 0.2 0.2
v -0.5 0.3 0.2
v -0.5 0.4 0.2
v -0.4 0.2 0.2
v -0.4 0.3 0.2
v -0.3 0.2 0.2
v -0.3 0.3 0.2
v -0.2 0.2 0.2
v -0.2 0.3 0.2
v -0.2 0.4 0.2
v -0.1 0.3 0.2
v -0.1 0.4 0.2
v 0 0.3 0.2
v 0 0.4 0.2
v 0 0.5 0.2
v 0.2 0.3 0.2
v 0.2 0.4 0.2
v 0.3 0.3 0.2
v 0.3 0.4 0.2
v 0.4 0.3 0.2
v 0.4 0.4 0.2
v 0.4 0.5 0.2
v 0.5 0.3 0.2
v 0.5 0.4 0.2
v 0.7 0.4 0.2
v 0.7 0.5 0.2
v -0.6 0 0.1
v -0.6 0.2 0.1
v -0.5 0.2 0.1
v -0.4 0 0.1
v -0.4 0.1 0.1
v -0.4 0.2 0.1
v -0.4 0.5 0.1
v -0.4 0.6 0.1
v -0.4 0.7 0.1
v -0.3 0.1 0.1
v -0.3 0.2 0.1
v -0.3 0.5 0.1
v -0.3 0.6 0.1
v -0.3 0.7 0.1
v -0.2 0.2 0.1
v -0.2 0.3 0.1
v -0.2 0.6 0.1
v -0.2 0.7 0.1
v -0.1 0 0.1
v -0.1 0.1 0.1
v -0.1 0.2 0.1
v -0.1 0.3 0.1
v -0.1 0.6 0.1
v -0.1 0.7 0.1
v 0 0.1 0.1
v 0 0.2 0.1
v 0 0.3 0.1
v 0 0.5 0.1
v 0 0.6 0.1
v 0 0.7 0.1
v 0.1 0 0.1
v 0.1 0.2 0.1
v 0.1 0.3 0.1
v 0.1 0.5 0.1
v 0.1 0.6 0.1
v 0.2 0.2 0.1
v 0.2 0.3 0.1
v 0.3 0.3 0.1
v 0.3 0.4 0.1
v 0.4 0.3 0.1
v 0.4 0.4 0.1
v 0.4 0.5 0.1
v 0.4 0.6 0.1
v 0.4 0.7 0.1
v 0.5 0.3 0.1
v 0.5 0.4 0.1
v 0.5 0.5 0.1
v 0.5 0.6 0.1
v 0.5 0.7 0.1
v 0.6 0.3 0.1
v 0.6 0.4 0.1
v 0.6 0.5 0.1
v 0.6 0.6 0.1
v 0.7 0.3 0.1
v 0.7 0.4 0.1
v 0.7 0.5 0.1
v 0.8 0.3 0.1
v 0.8 0.4 0.1
v 0.8 0.5 0.1
v 1 0.4 0.1
v 1 0.5 0.1
v -0.6 0 0
v -0.6 0.2 0
v -0.5 0.2 0
v -0.4 0 0
v -0.4 0.1 0
v -0.4 0.2 0
v -0.4 0.5 0
v -0.4 0.6 0
v -0.4 0.7 0
v -0.3 0.1 0
v -0.3 0.2 0
v -0.3 0.5 0
v -0.3 0.6 0
v -0.3 0.7 0
v -0.2 0.2 0
v -0.2 0.3 0
v -0.2 0.6 0
v -0.2 0.7 0
v -0.1 0 0
v -0.1 0.1 0
v -0.1 0.2 0
v -0.1 0.3 0
v -0.1 0.6 0
v -0.1 0.7 0
v 0 0.1 0
v 0 0.2 0
v 0 0.3 0
v 0 0.5 0
v 0 0.6 0
v 0 0.7 0
v 0.1 0 0
v 0.1 0.2 0
v 0.1 0.3 0
v 0.1 0.5 0
v 0.1 0.6 0
v 0.2 0.2 0
v 0.2 0.3 0
v 0.3 0.3 0
v 0.3 0.4 0
v 0.4 0.3 0
v 0.4 0.4 0
v 0.4 0.5 0
v 0.4 0.6 0
v 0.4 0.7 0
v 0.5 0.3 0
v 0.5 0.4 0
v 0.5 0.5 0
v 0.5 0.6 0
v 0.5 0.7 0
v 0.6 0.3 0
v 0.6 0.4 0
v 0.6 0.5 0
v 0.6 0.6 0
v 0.7 0.3 0
v 0.7 0.4 0
v 0.7 0.5 0
v 0.8 0.3 0
v 0.8 0.4 0
v 0.8 0.5 0
v 1 0.4 0
v 1 0.5 0
v -1 0.2 -0.1
v -1 0.6 -0.1
v -0.9 0.3 -0.1
v -0.9 0.4 -0.1
v -0.9 0.5 -0.1
v -0.8 0.2 -0.1
v -0.8 0.3 -0.1
v -0.8 0.4 -0.1
v -0.8 0.5 -0.1
v -0.8 0.6 -0.1
v -0.7 0.3 -0.1
v -0.7 0.4 -0.1
v -0.7 0.5 -0.1
v -0.7 0.6 -0.1
v -0.6 0.3 -0.1
v -0.6 0.4 -0.1
v -0.6 0.5 -0.1
v -0.5 0.2 -0.1
v -0.5 0.3 -0.1
v -0.5 0.4 -0.1
v -0.4 0.2 -0.1
v -0.4 0.3 -0.1
v -0.3 0.2 -0.1
v -0.3 0.3 -0.1
v -0.2 0.2 -0.1
v -0.2 0.3 -0.1
v -0.2 0.4 -0.1
v -0.1 0.3 -0.1
v -0.1 0.4 -0.1
v 0 0.3 -0.1
v 0 0.4 -0.1
v 0 0.5 -0.1
v 0.2 0.3 -0.1
v 0.2 0.4 -0.1
v 0.3 0.3 -0.1
v 0.3 0.4 -0.1
v 0.4 0.3 -0.1
v 0.4 0.4 -0.1
v 0.4 0.5 -0.1
v 0.5 0.3 -0.1
v 0.5 0.4 -0.1
v 0.7 0.4 -0.1
v 0.7 0.5 -0.1
v -0.6 0 0.1
v -0.4 0 0.1
v -0.1 0 0.1
v 0.1 0 0.1
v -0.6 0 0
v -0.4 0 0
v -0.1 0 0
v 0.1 0 0
v -0.4 0.1 0.1
v -0.3 0.1 0.1
v -0.4 0.1 0
v -0.3 0.1 0
v -1 0.2 0.2
v -0.8 0.2 0.2
v -0.5 0.2 0.2
v -0.4 0.2 0.2
v -0.3 0.2 0.2
v -0.2 0.2 0.2
v -0.5 0.2 0.1
v -0.4 0.2 0.1
v -0.3 0.2 0.1
v -0.2 0.2 0.1
v -0.1 0.2 0.1
v 0.1 0.2 0.1
v 0.2 0.2 0.1
v -0.5 0.2 0
v -0.4 0.2 0
v -0.3 0.2 0
v -0.2 0.2 0
v -0.1 0.2 0
v 0.1 0.2 0
v 0.2 0.2 0
v -1 0.2 -0.1
v -0.8 0.2 -0.1
v -0.5 0.2 -0.1
v -0.4 0.2 -0.1
v -0.3 0.2 -0.1
v -0.2 0.2 -0.1
v -0.8 0.3 0.2
v -0.7 0.3 0.2
v -0.6 0.3 0.2
v -0.5 0.3 0.2
v -0.2 0.3 0.2
v -0.1 0.3 0.2
v 0 0.3 0.2
v 0.2 0.3 0.2
v 0.3 0.3 0.2
v 0.4 0.3 0.2
v 0.5 0.3 0.2
v -0.7 0.3 0.1
v -0.6 0.3 0.1
v -0.2 0.3 0.1
v -0.1 0.3 0.1
v 0 0.3 0.1
v 0.1 0.3 0.1
v 0.2 0.3 0.1
v 0.3 0.3 0.1
v 0.4 0.3 0.1
v 0.5 0.3 0.1
v 0.6 0.3 0.1
v 0.7 0.3 0.1
v 0.8 0.3 0.1
v -0.7 0.3 0
v -0.6 0.3 0
v -0.2 0.3 0
v -0.1 0.3 0
v 0 0.3 0
v 0.1 0.3 0
v 0.2 0.3 0
v 0.3 0.3 0
v 0.4 0.3 0
v 0.5 0.3 0
v 0.6 0.3 0
v 0.7 0.3 0
v 0.8 0.3 0
v -0.8 0.3 -0.1
v -0.7 0.3 -0.1
v -0.6 0.3 -0.1
v -0.5 0.3 -0.1
v -0.2 0.3 -0.1
v -0.1 0.3 -0.1
v 0 0.3 -0.1
v 0.2 0.3 -0.1
v 0.3 0.3 -0.1
v 0.4 0.3 -0.1
v 0.5 0.3 -0.1
v 0.3 0.4 0.2
v 0.4 0.4 0.2
v 0.5 0.4 0.2
v 0.7 0.4 0.2
v 0.3 0.4 0.1
v 0.4 0.4 0.1
v 0.5 0.4 0.1
v 0.6 0.4 0.1
v 0.7 0.4 0.1
v 0.8 0.4 0.1
v 1 0.4 0.1
v 0.3 0.4 0
v 0.4 0.4 0
v 0.5 0.4 0
v 0.6 0.4 0
v 0.7 0.4 0
v 0.8 0.4 0
v 1 0.4 0
v 0.3 0.4 -0.1
v 0.4 0.4 -0.1
v 0.5 0.4 -0.1
v 0.7 0.4 -0.1
v -0.3 0.6 0.1
v -0.2 0.6 0.1
v -0.1 0.6 0.1
v 0 0.6 0.1
v -0.3 0.6 0
v -0.2 0.6 0
v -0.1 0.6 0
v 0 0.6 0
v -0.6 0.2 0.1
v -0.5 0.2 0.1
v -0.6 0.2 0
v -0.5 0.2 0
v -0.7 0.5 0.2
v -0.6 0.5 0.2
v 0 0.5 0.2
v 0.4 0.5 0.2
v 0.7 0.5 0.2
v -0.7 0.5 0.1
v -0.6 0.5 0.1
v -0.4 0.5 0.1
v -0.3 0.5 0.1
v 0 0.5 0.1
v 0.1 0.5 0.1
v 0.3 0.5 0.1
v 0.4 0.5 0.1
v 0.5 0.5 0.1
v 0.6 0.5 0.1
v 0.7 0.5 0.1
v 0.8 0.5 0.1
v 1 0.5 0.1
v -0.7 0.5 0
v -0.6 0.5 0
v -0.4 0.5 0
v -0.3 0.5 0
v 0 0.5 0
v 0.1 0.5 0
v 0.3 0.5 0
v 0.4 0.5 0
v 0.5 0.5 0
v 0.6 0.5 0
v 0.7 0.5 0
v 0.8 0.5 0
v 1 0.5 0
v -0.7 0.5 -0.1
v -0.6 0.5 -0.1
v 0 0.5 -0.1
v 0.4 0.5 -0.1
v 0.7 0.5 -0.1
v -1 0.6 0.2
v -0.8 0.6 0.2
v -0.7 0.6 0.2
v -0.8 0.6 0.1
v -0.7 0.6 0.1
v 0 0.6 0.1
v 0.1 0.6 0.1
v 0.5 0.6 0.1
v 0.6 0.6 0.1
v -0.8 0.6 0
v -0.7 0.6 0
v 0 0.6 0
v 0.1 0.6 0
v 0.5 0.6 0
v 0.6 0.6 0
v -1 0.6 -0.1
v -0.8 0.6 -0.1
v -0.7 0.6 -0.1
v -0.4 0.7 0.1
v -0.3 0.7 0.1
v -0.2 0.7 0.1
v -0.1 0.7 0.1
v 0 0.7 0.1
v 0.4 0.7 0.1
v 0.5 0.7 0.1
v -0.4 0.7 0
v -0.3 0.7 0
v -0.2 0.7 0
v -0.1 0.7 0
v 0 0.7 0
v 0.4 0.7 0
v 0.5 0.7 0

# faces
f 3/3/1 2/3/1 1/3/1
f 4/3/1 2/3/1 3/3/1
f 7/3/1 6/3/1 5/3/1
f 8/3/1 6/3/1 7/3/1
f 13/7/1 10/7/1 9/7/1
f 13/7/1 12/7/1 11/7/1
f 13/7/1 11/7/1 10/7/1
f 14/7/1 12/7/1 13/7/1
f 17/5/1 16/5/1 15/5/1
f 18/5/1 16/5/1 17/5/1
f 19/4/1 18/4/1 17/4/1
f 20/4/1 18/4/1 19/4/1
f 23/3/1 22/3/1 21/3/1
f 24/3/1 22/3/1 23/3/1
f 25/7/1 24/7/1 23/7/1
f 26/7/1 24/7/1 25/7/1
f 29/5/1 28/5/1 27/5/1
f 30/5/1 28/5/1 29/5/1
f 35/2/1 32/2/1 31/2/1
f 36/2/1 32/2/1 35/2/1
f 37/2/1 34/2/1 33/2/1
f 38/2/1 34/2/1 37/2/1
f 41/4/1 40/4/1 39/4/1
f 42/4/1 40/4/1 41/4/1
f 43/1/1 42/1/1 41/1/1
f 44/1/1 42/1/1 43/1/1
f 45/3/2 46/3/2 47/3/2
f 47/3/2 46/3/2 48/3/2
f 49/2/2 50/2/2 53/2/2
f 50/6/2 51/6/2 54/6/2
f 53/2/2 50/2/2 54/2/2
f 51/2/2 52/2/2 55/2/2
f 54/6/2 51/6/2 55/6/2
f 55/2/2 52/2/2 56/2/2
f 57/3/2 58/3/2 59/3/2
f 59/3/2 58/3/2 60/3/2
f 61/3/2 62/3/2 63/3/2
f 63/3/2 62/3/2 64/3/2
f 65/5/2 66/5/2 67/5/2
f 67/5/2 66/5/2 68/5/2
f 69/7/2 70/7/2 73/7/2
f 73/7/2 70/7/2 74/7/2
f 71/7/2 72/7/2 75/7/2
f 75/7/2 72/7/2 76/7/2
f 77/1/2 78/1/2 79/1/2
f 79/1/2 78/1/2 80/1/2
f 81/3/2 82/3/2 83/3/2
f 83/3/2 82/3/2 84/3/2
f 85/5/2 86/5/2 87/5/2
f 87/5/2 86/5/2 88/5/2
f 89/3/2 90/3/2 91/3/2
f 91/3/2 90/3/2 92/3/2
f 93/2/2 94/2/2 97/2/2
f 97/2/2 94/2/2 98/2/2
f 95/2/2 96/2/2 99/2/2
f 99/2/2 96/2/2 100/2/2
f 101/2/2 102/2/2 105/2/2
f 105/2/2 102/2/2 106/2/2
f 103/2/2 104/2/2 107/2/2
f 107/2/2 104/2/2 108/2/2
f 109/1/2 110/1/2 111/1/2
f 111/1/2 110/1/2 112/1/2
f 113/5/2 114/5/2 115/5/2
f 115/5/2 114/5/2 116/5/2
f 117/5/2 118/5/2 121/5/2
f 121/5/2 118/5/2 122/5/2
f 119/5/2 120/5/2 123/5/2
f 123/5/2 120/5/2 124/5/2
f 125/6/2 126/6/2 127/6/2
f 127/6/2 126/6/2 128/6/2
f 129/7/2 130/7/2 131/7/2
f 131/7/2 130/7/2 132/7/2
f 135/3/3 134/3/3 133/3/3
f 136/3/3 134/3/3 135/3/3
f 137/3/3 134/3/3 136/3/3
f 138/3/3 135/3/3 133/3/3
f 139/7/3 136/7/3 135/7/3
f 139/3/3 135/3/3 138/3/3
f 140/2/3 137/2/3 136/2/3
f 140/7/3 136/7/3 139/7/3
f 141/3/3 134/3/3 137/3/3
f 141/2/3 137/2/3 140/2/3
f 142/3/3 134/3/3 141/3/3
f 143/3/3 140/3/3 139/3/3
f 144/2/3 142/2/3 141/2/3
f 144/3/3 140/3/3 143/3/3
f 144/2/3 141/2/3 140/2/3
f 145/2/3 142/2/3 144/2/3
f 146/2/3 142/2/3 145/2/3
f 147/2/3 144/2/3 143/2/3
f 147/2/3 145/2/3 144/2/3
f 148/2/3 145/2/3 147/2/3
f 149/2/3 145/2/3 148/2/3
f 151/7/3 148/7/3 147/7/3
f 152/5/3 149/5/3 148/5/3
f 152/7/3 148/7/3 151/7/3
f 153/7/3 151/7/3 150/7/3
f 154/2/3 152/2/3 151/2/3
f 154/7/3 151/7/3 153/7/3
f 155/2/3 154/2/3 153/2/3
f 156/2/3 152/2/3 154/2/3
f 156/2/3 154/2/3 155/2/3
f 157/7/3 156/7/3 155/7/3
f 158/2/3 152/2/3 156/2/3
f 158/7/3 156/7/3 157/7/3
f 159/5/3 149/5/3 152/5/3
f 159/2/3 152/2/3 158/2/3
f 160/7/3 159/7/3 158/7/3
f 161/5/3 149/5/3 159/5/3
f 161/7/3 159/7/3 160/7/3
f 162/2/3 161/2/3 160/2/3
f 163/5/3 149/5/3 161/5/3
f 163/2/3 161/2/3 162/2/3
f 164/5/3 149/5/3 163/5/3
f 165/7/3 163/7/3 162/7/3
f 166/2/3 164/2/3 163/2/3
f 166/7/3 163/7/3 165/7/3
f 167/2/3 166/2/3 165/2/3
f 168/2/3 164/2/3 166/2/3
f 168/2/3 166/2/3 167/2/3
f 170/2/3 164/2/3 168/2/3
f 171/2/3 164/2/3 170/2/3
f 172/2/3 170/2/3 169/2/3
f 173/5/3 171/5/3 170/5/3
f 173/2/3 170/2/3 172/2/3
f 174/5/3 171/5/3 173/5/3
f 175/5/3 171/5/3 174/5/3
f 178/3/3 177/3/3 176/3/3
f 179/3/3 178/3/3 176/3/3
f 180/3/3 178/3/3 179/3/3
f 181/3/3 178/3/3 180/3/3
f 185/3/3 181/3/3 180/3/3
f 186/3/3 181/3/3 185/3/3
f 187/5/3 183/5/3 182/5/3
f 188/4/3 184/4/3 183/4/3
f 188/5/3 183/5/3 187/5/3
f 189/4/3 184/4/3 188/4/3
f 192/1/3 189/1/3 188/1/3
f 193/1/3 189/1/3 192/1/3
f 196/7/3 191/7/3 190/7/3
f 197/7/3 191/7/3 196/7/3
f 198/4/3 193/4/3 192/4/3
f 199/4/3 193/4/3 198/4/3
f 200/3/3 195/3/3 194/3/3
f 200/7/3 197/7/3 196/7/3
f 200/7/3 196/7/3 195/7/3
f 201/7/3 197/7/3 200/7/3
f 202/7/3 197/7/3 201/7/3
f 204/1/3 199/1/3 198/1/3
f 205/1/3 199/1/3 204/1/3
f 206/3/3 200/3/3 194/3/3
f 206/3/3 201/3/3 200/3/3
f 207/7/3 202/7/3 201/7/3
f 207/3/3 201/3/3 206/3/3
f 208/7/3 202/7/3 207/7/3
f 209/5/3 204/5/3 203/5/3
f 210/5/3 204/5/3 209/5/3
f 211/3/3 208/3/3 207/3/3
f 212/3/3 208/3/3 211/3/3
f 215/7/3 214/7/3 213/7/3
f 216/7/3 214/7/3 215/7/3
f 222/4/3 218/4/3 217/4/3
f 223/1/3 219/1/3 218/1/3
f 223/4/3 218/4/3 222/4/3
f 224/1/3 219/1/3 223/1/3
f 225/6/3 221/6/3 220/6/3
f 226/6/3 221/6/3 225/6/3
f 227/5/3 223/5/3 222/5/3
f 228/5/3 223/5/3 227/5/3
f 229/7/3 226/7/3 225/7/3
f 230/7/3 226/7/3 229/7/3
f 232/6/3 230/6/3 229/6/3
f 232/6/3 231/6/3 230/6/3
f 233/6/3 231/6/3 232/6/3
f 234/6/3 231/6/3 233/6/3
f 235/7/3 234/7/3 233/7/3
f 236/7/3 234/7/3 235/7/3
f 237/3/4 238/3/4 239/3/4
f 237/3/4 239/3/4 240/3/4
f 240/3/4 239/3/4 241/3/4
f 241/3/4 239/3/4 242/3/4
f 241/3/4 242/3/4 246/3/4
f 246/3/4 242/3/4 247/3/4
f 243/5/4 244/5/4 248/5/4
f 244/4/4 245/4/4 249/4/4
f 248/5/4 244/5/4 249/5/4
f 249/4/4 245/4/4 250/4/4
f 249/1/4 250/1/4 253/1/4
f 253/1/4 250/1/4 254/1/4
f 251/7/4 252/7/4 257/7/4
f 257/7/4 252/7/4 258/7/4
f 253/4/4 254/4/4 259/4/4
f 259/4/4 254/4/4 260/4/4
f 255/3/4 256/3/4 261/3/4
f 257/7/4 258/7/4 261/7/4
f 256/7/4 257/7/4 261/7/4
f 261/7/4 258/7/4 262/7/4
f 262/7/4 258/7/4 263/7/4
f 259/1/4 260/1/4 265/1/4
f 265/1/4 260/1/4 266/1/4
f 255/3/4 261/3/4 267/3/4
f 261/3/4 262/3/4 267/3/4
f 262/7/4 263/7/4 268/7/4
f 267/3/4 262/3/4 268/3/4
f 268/7/4 263/7/4 269/7/4
f 264/5/4 265/5/4 270/5/4
f 270/5/4 265/5/4 271/5/4
f 268/3/4 269/3/4 272/3/4
f 272/3/4 269/3/4 273/3/4
f 274/7/4 275/7/4 276/7/4
f 276/7/4 275/7/4 277/7/4
f 278/4/4 279/4/4 283/4/4
f 279/1/4 280/1/4 284/1/4
f 283/4/4 279/4/4 284/4/4
f 284/1/4 280/1/4 285/1/4
f 281/6/4 282/6/4 286/6/4
f 286/6/4 282/6/4 287/6/4
f 283/5/4 284/5/4 288/5/4
f 288/5/4 284/5/4 289/5/4
f 286/7/4 287/7/4 290/7/4
f 290/7/4 287/7/4 291/7/4
f 290/6/4 291/6/4 293/6/4
f 291/6/4 292/6/4 293/6/4
f 293/6/4 292/6/4 294/6/4
f 294/6/4 292/6/4 295/6/4
f 294/7/4 295/7/4 296/7/4
f 296/7/4 295/7/4 297/7/4
f 298/3/4 299/3/4 300/3/4
f 300/3/4 299/3/4 301/3/4
f 301/3/4 299/3/4 302/3/4
f 298/3/4 300/3/4 303/3/4
f 300/7/4 301/7/4 304/7/4
f 303/3/4 300/3/4 304/3/4
f 301/2/4 302/2/4 305/2/4
f 304/7/4 301/7/4 305/7/4
f 302/3/4 299/3/4 306/3/4
f 305/2/4 302/2/4 306/2/4
f 306/3/4 299/3/4 307/3/4
f 304/3/4 305/3/4 308/3/4
f 306/2/4 307/2/4 309/2/4
f 308/3/4 305/3/4 309/3/4
f 305/2/4 306/2/4 309/2/4
f 309/2/4 307/2/4 310/2/4
f 310/2/4 307/2/4 311/2/4
f 308/2/4 309/2/4 312/2/4
f 309/2/4 310/2/4 312/2/4
f 312/2/4 310/2/4 313/2/4
f 313/2/4 310/2/4 314/2/4
f 312/7/4 313/7/4 316/7/4
f 313/5/4 314/5/4 317/5/4
f 316/7/4 313/7/4 317/7/4
f 315/7/4 316/7/4 318/7/4
f 316/2/4 317/2/4 319/2/4
f 318/7/4 316/7/4 319/7/4
f 318/2/4 319/2/4 320/2/4
f 319/2/4 317/2/4 321/2/4
f 320/2/4 319/2/4 321/2/4
f 320/7/4 321/7/4 322/7/4
f 321/2/4 317/2/4 323/2/4
f 322/7/4 321/7/4 323/7/4
f 317/5/4 314/5/4 324/5/4
f 323/2/4 317/2/4 324/2/4
f 323/7/4 324/7/4 325/7/4
f 324/5/4 314/5/4 326/5/4
f 325/7/4 324/7/4 326/7/4
f 325/2/4 326/2/4 327/2/4
f 326/5/4 314/5/4 328/5/4
f 327/2/4 326/2/4 328/2/4
f 328/5/4 314/5/4 329/5/4
f 327/7/4 328/7/4 330/7/4
f 328/2/4 329/2/4 331/2/4
f 330/7/4 328/7/4 331/7/4
f 330/2/4 331/2/4 332/2/4
f 331/2/4 329/2/4 333/2/4
f 332/2/4 331/2/4 333/2/4
f 333/2/4 329/2/4 335/2/4
f 335/2/4 329/2/4 336/2/4
f 334/2/4 335/2/4 337/2/4
f 335/5/4 336/5/4 338/5/4
f 337/2/4 335/2/4 338/2/4
f 338/5/4 336/5/4 339/5/4
f 339/5/4 336/5/4 340/5/4
f 345/3/5 342/3/5 341/3/5
f 346/3/5 342/3/5 345/3/5
f 347/3/5 344/3/5 343/3/5
f 348/3/5 344/3/5 347/3/5
f 351/3/5 350/3/5 349/3/5
f 352/3/5 350/3/5 351/3/5
f 359/7/5 356/7/5 355/7/5
f 360/2/5 357/2/5 356/2/5
f 360/7/5 356/7/5 359/7/5
f 361/7/5 358/7/5 357/7/5
f 361/2/5 357/2/5 360/2/5
f 362/7/5 358/7/5 361/7/5
f 368/7/5 363/7/5 362/7/5
f 368/7/5 362/7/5 361/7/5
f 369/7/5 363/7/5 368/7/5
f 370/7/5 363/7/5 369/7/5
f 371/3/5 365/3/5 364/3/5
f 372/3/5 365/3/5 371/3/5
f 373/3/5 354/3/5 353/3/5
f 374/3/5 354/3/5 373/3/5
f 375/7/5 367/7/5 366/7/5
f 376/2/5 368/2/5 367/2/5
f 376/7/5 367/7/5 375/7/5
f 377/7/5 369/7/5 368/7/5
f 377/2/5 368/2/5 376/2/5
f 378/7/5 369/7/5 377/7/5
f 390/3/5 380/3/5 379/3/5
f 390/2/5 381/2/5 380/2/5
f 391/7/5 382/7/5 381/7/5
f 391/2/5 381/2/5 390/2/5
f 392/7/5 384/7/5 383/7/5
f 393/2/5 385/2/5 384/2/5
f 393/7/5 384/7/5 392/7/5
f 394/7/5 386/7/5 385/7/5
f 394/2/5 385/2/5 393/2/5
f 395/7/5 386/7/5 394/7/5
f 396/2/5 387/2/5 386/2/5
f 396/7/5 386/7/5 395/7/5
f 397/2/5 387/2/5 396/2/5
f 398/2/5 389/2/5 388/2/5
f 399/2/5 389/2/5 398/2/5
f 403/3/5 390/3/5 379/3/5
f 403/6/5 391/6/5 390/6/5
f 404/7/5 382/7/5 391/7/5
f 404/6/5 391/6/5 403/6/5
f 409/2/5 397/2/5 396/2/5
f 410/7/5 398/7/5 397/7/5
f 410/2/5 397/2/5 409/2/5
f 411/2/5 399/2/5 398/2/5
f 411/7/5 398/7/5 410/7/5
f 412/6/5 400/6/5 399/6/5
f 412/2/5 399/2/5 411/2/5
f 413/7/5 401/7/5 400/7/5
f 413/6/5 400/6/5 412/6/5
f 414/6/5 402/6/5 401/6/5
f 414/7/5 401/7/5 413/7/5
f 415/6/5 402/6/5 414/6/5
f 416/3/5 403/3/5 379/3/5
f 417/2/5 404/2/5 403/2/5
f 417/3/5 403/3/5 416/3/5
f 418/7/5 382/7/5 404/7/5
f 418/2/5 404/2/5 417/2/5
f 419/7/5 382/7/5 418/7/5
f 420/7/5 406/7/5 405/7/5
f 421/2/5 407/2/5 406/2/5
f 421/7/5 406/7/5 420/7/5
f 422/7/5 408/7/5 407/7/5
f 422/2/5 407/2/5 421/2/5
f 422/7/5 409/7/5 408/7/5
f 423/2/5 410/2/5 409/2/5
f 423/7/5 409/7/5 422/7/5
f 424/2/5 410/2/5 423/2/5
f 425/2/5 412/2/5 411/2/5
f 426/2/5 412/2/5 425/2/5
f 431/2/5 428/2/5 427/2/5
f 432/2/5 428/2/5 431/2/5
f 433/5/5 430/5/5 429/5/5
f 434/5/5 430/5/5 433/5/5
f 435/5/5 430/5/5 434/5/5
f 443/7/5 437/7/5 436/7/5
f 444/7/5 437/7/5 443/7/5
f 445/2/5 439/2/5 438/2/5
f 446/2/5 439/2/5 445/2/5
f 447/5/5 442/5/5 441/5/5
f 447/5/5 441/5/5 440/5/5
f 448/5/5 442/5/5 447/5/5
f 453/1/5 450/1/5 449/1/5
f 454/4/5 451/4/5 450/4/5
f 454/1/5 450/1/5 453/1/5
f 455/1/5 452/1/5 451/1/5
f 455/4/5 451/4/5 454/4/5
f 456/1/5 452/1/5 455/1/5
f 457/3/6 458/3/6 459/3/6
f 459/3/6 458/3/6 460/3/6
f 461/2/6 462/2/6 466/2/6
f 462/5/6 463/5/6 467/5/6
f 466/2/6 462/2/6 467/2/6
f 467/5/6 463/5/6 468/5/6
f 468/5/6 463/5/6 469/5/6
f 463/2/6 464/2/6 470/2/6
f 469/5/6 463/5/6 470/5/6
f 470/2/6 464/2/6 471/2/6
f 471/2/6 464/2/6 472/2/6
f 464/5/6 465/5/6 473/5/6
f 472/2/6 464/2/6 473/2/6
f 473/5/6 465/5/6 474/5/6
f 474/5/6 465/5/6 475/5/6
f 475/5/6 465/5/6 476/5/6
f 466/6/6 467/6/6 479/6/6
f 467/5/6 468/5/6 480/5/6
f 479/6/6 467/6/6 480/6/6
f 480/5/6 468/5/6 481/5/6
f 469/5/6 470/5/6 482/5/6
f 482/5/6 470/5/6 483/5/6
f 471/2/6 472/2/6 484/2/6
f 472/6/6 473/6/6 485/6/6
f 484/2/6 472/2/6 485/2/6
f 485/6/6 473/6/6 486/6/6
f 475/5/6 476/5/6 488/5/6
f 476/6/6 477/6/6 489/6/6
f 488/5/6 476/5/6 489/5/6
f 477/7/6 478/7/6 490/7/6
f 489/6/6 477/6/6 490/6/6
f 490/7/6 478/7/6 491/7/6
f 479/2/6 480/2/6 492/2/6
f 482/5/6 483/5/6 493/5/6
f 492/2/6 480/2/6 493/2/6
f 480/5/6 481/5/6 493/5/6
f 481/5/6 482/5/6 493/5/6
f 483/2/6 484/2/6 494/2/6
f 493/5/6 483/5/6 494/5/6
f 485/2/6 486/2/6 494/2/6
f 484/2/6 485/2/6 494/2/6
f 488/5/6 489/5/6 495/5/6
f 494/2/6 486/2/6 495/2/6
f 487/5/6 488/5/6 495/5/6
f 486/5/6 487/5/6 495/5/6
f 495/5/6 489/5/6 496/5/6
f 497/3/6 498/3/6 500/3/6
f 498/2/6 499/2/6 500/2/6
f 500/2/6 499/2/6 501/2/6
f 497/3/6 500/3/6 506/3/6
f 500/6/6 501/6/6 506/6/6
f 506/6/6 501/6/6 507/6/6
f 502/5/6 503/5/6 508/5/6
f 508/5/6 503/5/6 509/5/6
f 504/5/6 505/5/6 510/5/6
f 510/5/6 505/5/6 511/5/6
f 497/3/6 506/3/6 512/3/6
f 506/2/6 507/2/6 513/2/6
f 512/3/6 506/3/6 513/3/6
f 513/2/6 507/2/6 514/2/6
f 515/4/6 516/4/6 522/4/6
f 516/1/6 517/1/6 523/1/6
f 522/4/6 516/4/6 523/4/6
f 517/4/6 518/4/6 524/4/6
f 523/1/6 517/1/6 524/1/6
f 518/1/6 519/1/6 525/1/6
f 524/4/6 518/4/6 525/4/6
f 525/1/6 519/1/6 526/1/6
f 520/1/6 521/1/6 527/1/6
f 527/1/6 521/1/6 528/1/6
