# MagicaVoxel @ Ephtracy

# group
o 

# material
mtllib megaShark.mtl
usemtl palette

# normals
vn -1 0 0
vn 1 0 0
vn 0 0 1
vn 0 0 -1
vn 0 -1 0
vn 0 1 0

# texcoords
vt 0.970703 0.5
vt 0.974609 0.5
vt 0.978516 0.5
vt 0.982422 0.5
vt 0.986328 0.5
vt 0.990234 0.5

# verts
v -0.7 0 0.1
v -0.7 0 0
v -0.7 0.1 0.2
v -0.7 0.1 0.1
v -0.7 0.1 0
v -0.7 0.1 -0.1
v -0.7 0.4 0.2
v -0.7 0.4 0.1
v -0.7 0.4 0
v -0.7 0.4 -0.1
v -0.7 0.5 0.1
v -0.7 0.5 0
v -0.4 0.3 0.2
v -0.4 0.3 0.1
v -0.4 0.3 0
v -0.4 0.3 -0.1
v -0.4 0.4 0.2
v -0.4 0.4 0.1
v -0.4 0.4 0
v -0.4 0.4 -0.1
v -0.2 0.4 0.1
v -0.2 0.4 0
v -0.2 0.5 0.1
v -0.2 0.5 0
v -0.1 0.4 0.2
v -0.1 0.4 0.1
v -0.1 0.4 0
v -0.1 0.4 -0.1
v -0.1 0.5 0.2
v -0.1 0.5 0.1
v -0.1 0.5 0
v -0.1 0.5 -0.1
v 0 0 0.1
v 0 0 0
v 0 0.2 0.2
v 0 0.2 0.1
v 0 0.2 0
v 0 0.2 -0.1
v 0 0.3 0.2
v 0 0.3 0.1
v 0 0.3 0
v 0 0.3 -0.1
v 0 0.5 0.1
v 0 0.5 0
v 0 0.7 0.1
v 0 0.7 0
v -0.6 0 0.1
v -0.6 0 0
v -0.6 0.1 0.2
v -0.6 0.1 0.1
v -0.6 0.1 0
v -0.6 0.1 -0.1
v -0.6 0.2 0.2
v -0.6 0.2 0.1
v -0.6 0.2 0
v -0.6 0.2 -0.1
v -0.6 0.3 0.2
v -0.6 0.3 0.1
v -0.6 0.3 0
v -0.6 0.3 -0.1
v -0.6 0.4 0.2
v -0.6 0.4 0.1
v -0.6 0.4 0
v -0.6 0.4 -0.1
v -0.6 0.5 0.1
v -0.6 0.5 0
v -0.2 0.1 0.1
v -0.2 0.1 0
v -0.2 0.2 0.2
v -0.2 0.2 0.1
v -0.2 0.2 0
v -0.2 0.2 -0.1
v -0.2 0.3 0.2
v -0.2 0.3 0.1
v -0.2 0.3 0
v -0.2 0.3 -0.1
v 0.1 0 0.1
v 0.1 0 0
v 0.1 0.1 0.1
v 0.1 0.1 0
v 0.1 0.6 0.1
v 0.1 0.6 0
v 0.1 0.7 0.1
v 0.1 0.7 0
v 0.2 0.1 0.1
v 0.2 0.1 0
v 0.2 0.2 0.1
v 0.2 0.2 0
v 0.2 0.5 0.1
v 0.2 0.5 0
v 0.2 0.6 0.1
v 0.2 0.6 0
v 0.3 0.4 0.2
v 0.3 0.4 0.1
v 0.3 0.4 0
v 0.3 0.4 -0.1
v 0.3 0.5 0.2
v 0.3 0.5 0.1
v 0.3 0.5 0
v 0.3 0.5 -0.1
v 0.4 0.2 0.2
v 0.4 0.2 0.1
v 0.4 0.2 0
v 0.4 0.2 -0.1
v 0.4 0.4 0.2
v 0.4 0.4 0.1
v 0.4 0.4 0
v 0.4 0.4 -0.1
v 0.4 0.5 0.1
v 0.4 0.5 0
v 0.5 0.3 0.1
v 0.5 0.3 0
v 0.5 0.4 0.1
v 0.5 0.4 0
v 0.6 0.2 0.1
v 0.6 0.2 0
v 0.6 0.3 0.1
v 0.6 0.3 0
v -0.7 0.1 0.2
v -0.7 0.4 0.2
v -0.6 0.1 0.2
v -0.6 0.2 0.2
v -0.6 0.3 0.2
v -0.6 0.4 0.2
v -0.5 0.2 0.2
v -0.5 0.3 0.2
v -0.4 0.2 0.2
v -0.4 0.3 0.2
v -0.4 0.4 0.2
v -0.3 0.2 0.2
v -0.3 0.3 0.2
v -0.3 0.4 0.2
v -0.2 0.2 0.2
v -0.2 0.3 0.2
v -0.2 0.4 0.2
v -0.1 0.3 0.2
v -0.1 0.4 0.2
v -0.1 0.5 0.2
v 0 0.2 0.2
v 0 0.3 0.2
v 0 0.5 0.2
v 0.1 0.2 0.2
v 0.1 0.5 0.2
v 0.2 0.2 0.2
v 0.2 0.3 0.2
v 0.2 0.4 0.2
v 0.2 0.5 0.2
v 0.3 0.2 0.2
v 0.3 0.3 0.2
v 0.3 0.4 0.2
v 0.3 0.5 0.2
v 0.4 0.2 0.2
v 0.4 0.4 0.2
v -0.7 0 0.1
v -0.7 0.1 0.1
v -0.7 0.4 0.1
v -0.7 0.5 0.1
v -0.6 0 0.1
v -0.6 0.1 0.1
v -0.6 0.2 0.1
v -0.6 0.3 0.1
v -0.6 0.4 0.1
v -0.6 0.5 0.1
v -0.5 0.2 0.1
v -0.5 0.3 0.1
v -0.4 0.2 0.1
v -0.4 0.3 0.1
v -0.4 0.4 0.1
v -0.3 0.2 0.1
v -0.2 0.1 0.1
v -0.2 0.2 0.1
v -0.2 0.3 0.1
v -0.2 0.4 0.1
v -0.2 0.5 0.1
v -0.1 0.2 0.1
v -0.1 0.3 0.1
v -0.1 0.4 0.1
v -0.1 0.5 0.1
v 0 0 0.1
v 0 0.2 0.1
v 0 0.3 0.1
v 0 0.5 0.1
v 0 0.7 0.1
v 0.1 0 0.1
v 0.1 0.1 0.1
v 0.1 0.2 0.1
v 0.1 0.5 0.1
v 0.1 0.6 0.1
v 0.1 0.7 0.1
v 0.2 0.1 0.1
v 0.2 0.2 0.1
v 0.2 0.5 0.1
v 0.2 0.6 0.1
v 0.3 0.4 0.1
v 0.3 0.5 0.1
v 0.4 0.2 0.1
v 0.4 0.4 0.1
v 0.4 0.5 0.1
v 0.5 0.2 0.1
v 0.5 0.3 0.1
v 0.5 0.4 0.1
v 0.6 0.2 0.1
v 0.6 0.3 0.1
v -0.7 0 0
v -0.7 0.1 0
v -0.7 0.4 0
v -0.7 0.5 0
v -0.6 0 0
v -0.6 0.1 0
v -0.6 0.2 0
v -0.6 0.3 0
v -0.6 0.4 0
v -0.6 0.5 0
v -0.5 0.2 0
v -0.5 0.3 0
v -0.4 0.2 0
v -0.4 0.3 0
v -0.4 0.4 0
v -0.3 0.2 0
v -0.2 0.1 0
v -0.2 0.2 0
v -0.2 0.3 0
v -0.2 0.4 0
v -0.2 0.5 0
v -0.1 0.2 0
v -0.1 0.3 0
v -0.1 0.4 0
v -0.1 0.5 0
v 0 0 0
v 0 0.2 0
v 0 0.3 0
v 0 0.5 0
v 0 0.7 0
v 0.1 0 0
v 0.1 0.1 0
v 0.1 0.2 0
v 0.1 0.5 0
v 0.1 0.6 0
v 0.1 0.7 0
v 0.2 0.1 0
v 0.2 0.2 0
v 0.2 0.5 0
v 0.2 0.6 0
v 0.3 0.4 0
v 0.3 0.5 0
v 0.4 0.2 0
v 0.4 0.4 0
v 0.4 0.5 0
v 0.5 0.2 0
v 0.5 0.3 0
v 0.5 0.4 0
v 0.6 0.2 0
v 0.6 0.3 0
v -0.7 0.1 -0.1
v -0.7 0.4 -0.1
v -0.6 0.1 -0.1
v -0.6 0.2 -0.1
v -0.6 0.3 -0.1
v -0.6 0.4 -0.1
v -0.5 0.2 -0.1
v -0.5 0.3 -0.1
v -0.4 0.2 -0.1
v -0.4 0.3 -0.1
v -0.4 0.4 -0.1
v -0.3 0.2 -0.1
v -0.3 0.3 -0.1
v -0.3 0.4 -0.1
v -0.2 0.2 -0.1
v -0.2 0.3 -0.1
v -0.2 0.4 -0.1
v -0.1 0.3 -0.1
v -0.1 0.4 -0.1
v -0.1 0.5 -0.1
v 0 0.2 -0.1
v 0 0.3 -0.1
v 0 0.5 -0.1
v 0.1 0.2 -0.1
v 0.1 0.5 -0.1
v 0.2 0.2 -0.1
v 0.2 0.3 -0.1
v 0.2 0.4 -0.1
v 0.2 0.5 -0.1
v 0.3 0.2 -0.1
v 0.3 0.3 -0.1
v 0.3 0.4 -0.1
v 0.3 0.5 -0.1
v 0.4 0.2 -0.1
v 0.4 0.4 -0.1
v -0.7 0 0.1
v -0.6 0 0.1
v 0 0 0.1
v 0.1 0 0.1
v -0.7 0 0
v -0.6 0 0
v 0 0 0
v 0.1 0 0
v -0.7 0.1 0.2
v -0.6 0.1 0.2
v -0.7 0.1 0.1
v -0.6 0.1 0.1
v -0.2 0.1 0.1
v 0.1 0.1 0.1
v 0.2 0.1 0.1
v -0.7 0.1 0
v -0.6 0.1 0
v -0.2 0.1 0
v 0.1 0.1 0
v 0.2 0.1 0
v -0.7 0.1 -0.1
v -0.6 0.1 -0.1
v -0.6 0.2 0.2
v -0.5 0.2 0.2
v -0.4 0.2 0.2
v -0.3 0.2 0.2
v -0.2 0.2 0.2
v 0 0.2 0.2
v 0.1 0.2 0.2
v 0.2 0.2 0.2
v 0.3 0.2 0.2
v 0.4 0.2 0.2
v -0.6 0.2 0.1
v -0.5 0.2 0.1
v -0.4 0.2 0.1
v -0.3 0.2 0.1
v -0.2 0.2 0.1
v -0.1 0.2 0.1
v 0 0.2 0.1
v 0.1 0.2 0.1
v 0.2 0.2 0.1
v 0.4 0.2 0.1
v 0.5 0.2 0.1
v 0.6 0.2 0.1
v -0.6 0.2 0
v -0.5 0.2 0
v -0.4 0.2 0
v -0.3 0.2 0
v -0.2 0.2 0
v -0.1 0.2 0
v 0 0.2 0
v 0.1 0.2 0
v 0.2 0.2 0
v 0.4 0.2 0
v 0.5 0.2 0
v 0.6 0.2 0
v -0.6 0.2 -0.1
v -0.5 0.2 -0.1
v -0.4 0.2 -0.1
v -0.3 0.2 -0.1
v -0.2 0.2 -0.1
v 0 0.2 -0.1
v 0.1 0.2 -0.1
v 0.2 0.2 -0.1
v 0.3 0.2 -0.1
v 0.4 0.2 -0.1
v -0.2 0.3 0.2
v -0.1 0.3 0.2
v 0 0.3 0.2
v -0.2 0.3 0.1
v -0.1 0.3 0.1
v 0 0.3 0.1
v -0.2 0.3 0
v -0.1 0.3 0
v 0 0.3 0
v -0.2 0.3 -0.1
v -0.1 0.3 -0.1
v 0 0.3 -0.1
v -0.6 0.3 0.2
v -0.5 0.3 0.2
v -0.4 0.3 0.2
v -0.6 0.3 0.1
v -0.5 0.3 0.1
v -0.4 0.3 0.1
v 0.5 0.3 0.1
v 0.6 0.3 0.1
v -0.6 0.3 0
v -0.5 0.3 0
v -0.4 0.3 0
v 0.5 0.3 0
v 0.6 0.3 0
v -0.6 0.3 -0.1
v -0.5 0.3 -0.1
v -0.4 0.3 -0.1
v -0.7 0.4 0.2
v -0.6 0.4 0.2
v -0.4 0.4 0.2
v -0.3 0.4 0.2
v -0.2 0.4 0.2
v -0.1 0.4 0.2
v 0.3 0.4 0.2
v 0.4 0.4 0.2
v -0.7 0.4 0.1
v -0.6 0.4 0.1
v -0.4 0.4 0.1
v -0.2 0.4 0.1
v -0.1 0.4 0.1
v 0.3 0.4 0.1
v 0.4 0.4 0.1
v 0.5 0.4 0.1
v -0.7 0.4 0
v -0.6 0.4 0
v -0.4 0.4 0
v -0.2 0.4 0
v -0.1 0.4 0
v 0.3 0.4 0
v 0.4 0.4 0
v 0.5 0.4 0
v -0.7 0.4 -0.1
v -0.6 0.4 -0.1
v -0.4 0.4 -0.1
v -0.3 0.4 -0.1
v -0.2 0.4 -0.1
v -0.1 0.4 -0.1
v 0.3 0.4 -0.1
v 0.4 0.4 -0.1
v -0.1 0.5 0.2
v 0 0.5 0.2
v 0.1 0.5 0.2
v 0.2 0.5 0.2
v 0.3 0.5 0.2
v -0.7 0.5 0.1
v -0.6 0.5 0.1
v -0.2 0.5 0.1
v -0.1 0.5 0.1
v 0 0.5 0.1
v 0.1 0.5 0.1
v 0.2 0.5 0.1
v 0.3 0.5 0.1
v 0.4 0.5 0.1
v -0.7 0.5 0
v -0.6 0.5 0
v -0.2 0.5 0
v -0.1 0.5 0
v 0 0.5 0
v 0.1 0.5 0
v 0.2 0.5 0
v 0.3 0.5 0
v 0.4 0.5 0
v -0.1 0.5 -0.1
v 0 0.5 -0.1
v 0.1 0.5 -0.1
v 0.2 0.5 -0.1
v 0.3 0.5 -0.1
v 0.1 0.6 0.1
v 0.2 0.6 0.1
v 0.1 0.6 0
v 0.2 0.6 0
v 0 0.7 0.1
v 0.1 0.7 0.1
v 0 0.7 0
v 0.1 0.7 0

# faces
f 4/5/1 2/5/1 1/5/1
f 5/5/1 2/5/1 4/5/1
f 7/5/1 4/5/1 3/5/1
f 7/5/1 6/5/1 5/5/1
f 7/5/1 5/5/1 4/5/1
f 8/5/1 6/5/1 7/5/1
f 9/5/1 6/5/1 8/5/1
f 10/5/1 6/5/1 9/5/1
f 11/5/1 9/5/1 8/5/1
f 12/5/1 9/5/1 11/5/1
f 17/2/1 14/2/1 13/2/1
f 18/2/1 14/2/1 17/2/1
f 19/2/1 16/2/1 15/2/1
f 20/2/1 16/2/1 19/2/1
f 23/2/1 22/2/1 21/2/1
f 24/2/1 22/2/1 23/2/1
f 29/1/1 26/1/1 25/1/1
f 30/1/1 26/1/1 29/1/1
f 31/1/1 28/1/1 27/1/1
f 32/1/1 28/1/1 31/1/1
f 36/3/1 34/3/1 33/3/1
f 37/3/1 34/3/1 36/3/1
f 39/4/1 36/4/1 35/4/1
f 40/4/1 36/4/1 39/4/1
f 41/4/1 38/4/1 37/4/1
f 42/4/1 38/4/1 41/4/1
f 45/2/1 44/2/1 43/2/1
f 46/2/1 44/2/1 45/2/1
f 47/5/2 48/5/2 50/5/2
f 50/5/2 48/5/2 51/5/2
f 49/5/2 50/5/2 53/5/2
f 53/5/2 50/5/2 54/5/2
f 51/5/2 52/5/2 55/5/2
f 55/5/2 52/5/2 56/5/2
f 57/5/2 58/5/2 61/5/2
f 61/5/2 58/5/2 62/5/2
f 59/5/2 60/5/2 63/5/2
f 63/5/2 60/5/2 64/5/2
f 62/5/2 63/5/2 65/5/2
f 65/5/2 63/5/2 66/5/2
f 67/3/2 68/3/2 70/3/2
f 70/3/2 68/3/2 71/3/2
f 69/1/2 70/1/2 73/1/2
f 73/1/2 70/1/2 74/1/2
f 71/1/2 72/1/2 75/1/2
f 75/1/2 72/1/2 76/1/2
f 77/3/2 78/3/2 79/3/2
f 79/3/2 78/3/2 80/3/2
f 81/2/2 82/2/2 83/2/2
f 83/2/2 82/2/2 84/2/2
f 85/3/2 86/3/2 87/3/2
f 87/3/2 86/3/2 88/3/2
f 89/2/2 90/2/2 91/2/2
f 91/2/2 90/2/2 92/2/2
f 93/4/2 94/4/2 97/4/2
f 97/4/2 94/4/2 98/4/2
f 95/4/2 96/4/2 99/4/2
f 99/4/2 96/4/2 100/4/2
f 101/1/2 102/1/2 105/1/2
f 105/1/2 102/1/2 106/1/2
f 103/1/2 104/1/2 107/1/2
f 107/1/2 104/1/2 108/1/2
f 106/1/2 107/1/2 109/1/2
f 109/1/2 107/1/2 110/1/2
f 111/4/2 112/4/2 113/4/2
f 113/4/2 112/4/2 114/4/2
f 115/1/2 116/1/2 117/1/2
f 117/1/2 116/1/2 118/1/2
f 121/5/3 120/5/3 119/5/3
f 122/5/3 120/5/3 121/5/3
f 123/5/3 120/5/3 122/5/3
f 124/5/3 120/5/3 123/5/3
f 125/4/3 123/4/3 122/4/3
f 126/4/3 123/4/3 125/4/3
f 127/1/3 126/1/3 125/1/3
f 128/1/3 126/1/3 127/1/3
f 130/4/3 128/4/3 127/4/3
f 131/2/3 129/2/3 128/2/3
f 131/4/3 128/4/3 130/4/3
f 132/2/3 129/2/3 131/2/3
f 133/1/3 131/1/3 130/1/3
f 133/1/3 132/1/3 131/1/3
f 134/1/3 132/1/3 133/1/3
f 135/1/3 132/1/3 134/1/3
f 136/4/3 135/4/3 134/4/3
f 137/4/3 135/4/3 136/4/3
f 140/1/3 137/1/3 136/1/3
f 140/1/3 138/1/3 137/1/3
f 141/1/3 138/1/3 140/1/3
f 142/4/3 140/4/3 139/4/3
f 142/4/3 141/4/3 140/4/3
f 143/4/3 141/4/3 142/4/3
f 144/1/3 143/1/3 142/1/3
f 145/1/3 143/1/3 144/1/3
f 146/1/3 143/1/3 145/1/3
f 147/1/3 143/1/3 146/1/3
f 148/4/3 145/4/3 144/4/3
f 149/6/3 146/6/3 145/6/3
f 149/4/3 145/4/3 148/4/3
f 150/4/3 147/4/3 146/4/3
f 150/6/3 146/6/3 149/6/3
f 151/4/3 147/4/3 150/4/3
f 152/1/3 149/1/3 148/1/3
f 152/1/3 150/1/3 149/1/3
f 153/1/3 150/1/3 152/1/3
f 158/5/3 155/5/3 154/5/3
f 159/5/3 155/5/3 158/5/3
f 162/5/3 157/5/3 156/5/3
f 163/5/3 157/5/3 162/5/3
f 164/3/3 160/3/3 159/3/3
f 165/2/3 162/2/3 161/2/3
f 166/3/3 164/3/3 159/3/3
f 167/2/3 162/2/3 165/2/3
f 168/2/3 162/2/3 167/2/3
f 169/3/3 166/3/3 159/3/3
f 170/3/3 169/3/3 159/3/3
f 171/3/3 169/3/3 170/3/3
f 175/3/3 172/3/3 171/3/3
f 176/3/3 172/3/3 175/3/3
f 177/2/3 174/2/3 173/2/3
f 178/2/3 174/2/3 177/2/3
f 180/1/3 176/1/3 175/1/3
f 181/1/3 176/1/3 180/1/3
f 184/3/3 180/3/3 179/3/3
f 185/3/3 180/3/3 184/3/3
f 186/3/3 180/3/3 185/3/3
f 187/2/3 183/2/3 182/2/3
f 188/2/3 183/2/3 187/2/3
f 189/2/3 183/2/3 188/2/3
f 190/3/3 186/3/3 185/3/3
f 191/3/3 186/3/3 190/3/3
f 192/2/3 188/2/3 187/2/3
f 193/2/3 188/2/3 192/2/3
f 197/1/3 195/1/3 194/1/3
f 198/1/3 195/1/3 197/1/3
f 199/4/3 197/4/3 196/4/3
f 200/4/3 197/4/3 199/4/3
f 201/4/3 197/4/3 200/4/3
f 202/1/3 200/1/3 199/1/3
f 203/1/3 200/1/3 202/1/3
f 204/5/4 205/5/4 208/5/4
f 208/5/4 205/5/4 209/5/4
f 206/5/4 207/5/4 212/5/4
f 212/5/4 207/5/4 213/5/4
f 209/3/4 210/3/4 214/3/4
f 211/2/4 212/2/4 215/2/4
f 209/3/4 214/3/4 216/3/4
f 215/2/4 212/2/4 217/2/4
f 217/2/4 212/2/4 218/2/4
f 209/3/4 216/3/4 219/3/4
f 209/3/4 219/3/4 220/3/4
f 220/3/4 219/3/4 221/3/4
f 221/3/4 222/3/4 225/3/4
f 225/3/4 222/3/4 226/3/4
f 223/2/4 224/2/4 227/2/4
f 227/2/4 224/2/4 228/2/4
f 225/1/4 226/1/4 230/1/4
f 230/1/4 226/1/4 231/1/4
f 229/3/4 230/3/4 234/3/4
f 234/3/4 230/3/4 235/3/4
f 235/3/4 230/3/4 236/3/4
f 232/2/4 233/2/4 237/2/4
f 237/2/4 233/2/4 238/2/4
f 238/2/4 233/2/4 239/2/4
f 235/3/4 236/3/4 240/3/4
f 240/3/4 236/3/4 241/3/4
f 237/2/4 238/2/4 242/2/4
f 242/2/4 238/2/4 243/2/4
f 244/1/4 245/1/4 247/1/4
f 247/1/4 245/1/4 248/1/4
f 246/4/4 247/4/4 249/4/4
f 249/4/4 247/4/4 250/4/4
f 250/4/4 247/4/4 251/4/4
f 249/1/4 250/1/4 252/1/4
f 252/1/4 250/1/4 253/1/4
f 254/5/4 255/5/4 256/5/4
f 256/5/4 255/5/4 257/5/4
f 257/5/4 255/5/4 258/5/4
f 258/5/4 255/5/4 259/5/4
f 257/4/4 258/4/4 260/4/4
f 260/4/4 258/4/4 261/4/4
f 260/1/4 261/1/4 262/1/4
f 262/1/4 261/1/4 263/1/4
f 262/4/4 263/4/4 265/4/4
f 263/2/4 264/2/4 266/2/4
f 265/4/4 263/4/4 266/4/4
f 266/2/4 264/2/4 267/2/4
f 265/1/4 266/1/4 268/1/4
f 266/1/4 267/1/4 268/1/4
f 268/1/4 267/1/4 269/1/4
f 269/1/4 267/1/4 270/1/4
f 269/4/4 270/4/4 271/4/4
f 271/4/4 270/4/4 272/4/4
f 271/1/4 272/1/4 275/1/4
f 272/1/4 273/1/4 275/1/4
f 275/1/4 273/1/4 276/1/4
f 274/4/4 275/4/4 277/4/4
f 275/4/4 276/4/4 277/4/4
f 277/4/4 276/4/4 278/4/4
f 277/1/4 278/1/4 279/1/4
f 279/1/4 278/1/4 280/1/4
f 280/1/4 278/1/4 281/1/4
f 281/1/4 278/1/4 282/1/4
f 279/4/4 280/4/4 283/4/4
f 280/6/4 281/6/4 284/6/4
f 283/4/4 280/4/4 284/4/4
f 281/4/4 282/4/4 285/4/4
f 284/6/4 281/6/4 285/6/4
f 285/4/4 282/4/4 286/4/4
f 283/1/4 284/1/4 287/1/4
f 284/1/4 285/1/4 287/1/4
f 287/1/4 285/1/4 288/1/4
f 293/5/5 290/5/5 289/5/5
f 294/5/5 290/5/5 293/5/5
f 295/3/5 292/3/5 291/3/5
f 296/3/5 292/3/5 295/3/5
f 299/5/5 298/5/5 297/5/5
f 300/5/5 298/5/5 299/5/5
f 305/3/5 301/3/5 300/3/5
f 306/3/5 301/3/5 305/3/5
f 307/3/5 303/3/5 302/3/5
f 308/3/5 303/3/5 307/3/5
f 309/5/5 305/5/5 304/5/5
f 310/5/5 305/5/5 309/5/5
f 321/4/5 312/4/5 311/4/5
f 322/1/5 313/1/5 312/1/5
f 322/4/5 312/4/5 321/4/5
f 323/4/5 314/4/5 313/4/5
f 323/1/5 313/1/5 322/1/5
f 324/1/5 315/1/5 314/1/5
f 324/4/5 314/4/5 323/4/5
f 325/1/5 315/1/5 324/1/5
f 327/4/5 317/4/5 316/4/5
f 328/1/5 318/1/5 317/1/5
f 328/4/5 317/4/5 327/4/5
f 329/4/5 319/4/5 318/4/5
f 329/1/5 318/1/5 328/1/5
f 330/1/5 320/1/5 319/1/5
f 337/3/5 326/3/5 325/3/5
f 338/1/5 327/1/5 326/1/5
f 338/3/5 326/3/5 337/3/5
f 339/1/5 327/1/5 338/1/5
f 341/4/5 319/4/5 329/4/5
f 342/4/5 331/4/5 330/4/5
f 342/1/5 330/1/5 319/1/5
f 343/1/5 332/1/5 331/1/5
f 343/4/5 331/4/5 342/4/5
f 344/1/5 332/1/5 343/1/5
f 345/4/5 334/4/5 333/4/5
f 346/1/5 335/1/5 334/1/5
f 346/4/5 334/4/5 345/4/5
f 347/4/5 336/4/5 335/4/5
f 347/1/5 335/1/5 346/1/5
f 348/1/5 337/1/5 336/1/5
f 348/4/5 336/4/5 347/4/5
f 349/1/5 337/1/5 348/1/5
f 350/4/5 340/4/5 339/4/5
f 351/1/5 341/1/5 340/1/5
f 351/4/5 340/4/5 350/4/5
f 352/4/5 319/4/5 341/4/5
f 352/1/5 341/1/5 351/1/5
f 353/1/5 342/1/5 319/1/5
f 353/4/5 319/4/5 352/4/5
f 354/1/5 342/1/5 353/1/5
f 358/4/5 356/4/5 355/4/5
f 359/1/5 357/1/5 356/1/5
f 359/4/5 356/4/5 358/4/5
f 360/1/5 357/1/5 359/1/5
f 364/4/5 362/4/5 361/4/5
f 365/1/5 363/1/5 362/1/5
f 365/4/5 362/4/5 364/4/5
f 366/1/5 363/1/5 365/1/5
f 367/4/6 368/4/6 370/4/6
f 368/1/6 369/1/6 371/1/6
f 370/4/6 368/4/6 371/4/6
f 371/1/6 369/1/6 372/1/6
f 373/1/6 374/1/6 378/1/6
f 378/1/6 374/1/6 379/1/6
f 375/4/6 376/4/6 380/4/6
f 376/1/6 377/1/6 381/1/6
f 380/4/6 376/4/6 381/4/6
f 381/1/6 377/1/6 382/1/6
f 383/5/6 384/5/6 391/5/6
f 391/5/6 384/5/6 392/5/6
f 385/2/6 386/2/6 393/2/6
f 386/1/6 387/1/6 394/1/6
f 387/4/6 388/4/6 394/4/6
f 394/4/6 388/4/6 395/4/6
f 389/1/6 390/1/6 396/1/6
f 396/1/6 390/1/6 397/1/6
f 392/2/6 393/2/6 400/2/6
f 393/2/6 386/2/6 401/2/6
f 400/2/6 393/2/6 401/2/6
f 386/1/6 394/1/6 402/1/6
f 397/4/6 398/4/6 405/4/6
f 405/4/6 398/4/6 406/4/6
f 399/5/6 400/5/6 407/5/6
f 407/5/6 400/5/6 408/5/6
f 401/2/6 386/2/6 409/2/6
f 386/1/6 402/1/6 410/1/6
f 409/2/6 386/2/6 410/2/6
f 402/4/6 403/4/6 411/4/6
f 410/1/6 402/1/6 411/1/6
f 411/4/6 403/4/6 412/4/6
f 404/1/6 405/1/6 413/1/6
f 413/1/6 405/1/6 414/1/6
f 415/1/6 416/1/6 423/1/6
f 416/4/6 417/4/6 424/4/6
f 423/1/6 416/1/6 424/1/6
f 417/1/6 418/1/6 425/1/6
f 424/4/6 417/4/6 425/4/6
f 418/4/6 419/4/6 426/4/6
f 425/1/6 418/1/6 426/1/6
f 426/4/6 419/4/6 427/4/6
f 420/5/6 421/5/6 429/5/6
f 429/5/6 421/5/6 430/5/6
f 422/2/6 423/2/6 431/2/6
f 423/1/6 424/1/6 432/1/6
f 431/2/6 423/2/6 432/2/6
f 432/1/6 424/1/6 433/1/6
f 426/4/6 427/4/6 435/4/6
f 427/1/6 428/1/6 436/1/6
f 435/4/6 427/4/6 436/4/6
f 436/1/6 428/1/6 437/1/6
f 432/1/6 433/1/6 438/1/6
f 433/4/6 434/4/6 439/4/6
f 438/1/6 433/1/6 439/1/6
f 434/1/6 435/1/6 440/1/6
f 439/4/6 434/4/6 440/4/6
f 435/4/6 436/4/6 441/4/6
f 440/1/6 435/1/6 441/1/6
f 441/4/6 436/4/6 442/4/6
f 443/2/6 444/2/6 445/2/6
f 445/2/6 444/2/6 446/2/6
f 447/2/6 448/2/6 449/2/6
f 449/2/6 448/2/6 450/2/6
