# MagicaVoxel @ Ephtracy

# group
o 

# material
mtllib skeleton-4.mtl
usemtl palette

# normals
vn -1 0 0
vn 1 0 0
vn 0 0 1
vn 0 0 -1
vn 0 -1 0
vn 0 1 0

# texcoords
vt 0.970703 0.5
vt 0.974609 0.5
vt 0.978516 0.5
vt 0.982422 0.5

# verts
v -0.3 0.7 0.2
v -0.3 0.7 0.1
v -0.3 0.7 0
v -0.3 0.7 -0.1
v -0.3 0.7 -0.2
v -0.3 0.8 0.3
v -0.3 0.8 0.2
v -0.3 0.8 0
v -0.3 0.8 -0.1
v -0.3 0.8 -0.2
v -0.3 0.8 -0.3
v -0.3 0.9 0.2
v -0.3 0.9 0.1
v -0.3 0.9 -0.2
v -0.3 0.9 -0.3
v -0.3 1 0.3
v -0.3 1 0.2
v -0.3 1 -0.1
v -0.3 1 -0.2
v -0.3 1 -0.3
v -0.3 1.1 0.3
v -0.3 1.1 0.2
v -0.3 1.1 0.1
v -0.3 1.1 -0.1
v -0.3 1.1 -0.2
v -0.3 1.1 -0.3
v -0.3 1.2 0.2
v -0.3 1.2 0.1
v -0.3 1.2 -0.1
v -0.3 1.2 -0.2
v -0.2 0.7 0.3
v -0.2 0.7 0.2
v -0.2 0.7 -0.2
v -0.2 0.7 -0.3
v -0.2 0.8 0.3
v -0.2 0.8 0.2
v -0.2 0.8 -0.2
v -0.2 0.8 -0.3
v -0.2 1.1 0.3
v -0.2 1.1 0.2
v -0.2 1.1 -0.2
v -0.2 1.1 -0.3
v -0.2 1.2 0.3
v -0.2 1.2 0.2
v -0.2 1.2 -0.2
v -0.2 1.2 -0.3
v 0 1.1 0
v 0 1.1 -0.1
v 0 1.2 0
v 0 1.2 -0.1
v 0.1 1 0.2
v 0.1 1 0.1
v 0.1 1.1 0.2
v 0.1 1.1 0.1
v -0.1 1.1 0.1
v -0.1 1.1 -0.1
v -0.1 1.2 0.1
v -0.1 1.2 -0.1
v 0 1 0.3
v 0 1 0.2
v 0 1 0.1
v 0 1.1 0.3
v 0 1.1 0.2
v 0 1.1 0.1
v 0 1.2 0.3
v 0 1.2 0.2
v 0 1.2 0.1
v 0.1 0.7 0.3
v 0.1 0.7 0.2
v 0.1 0.7 -0.2
v 0.1 0.7 -0.3
v 0.1 0.8 0.3
v 0.1 0.8 0.2
v 0.1 0.8 -0.2
v 0.1 0.8 -0.3
v 0.1 0.9 0.2
v 0.1 0.9 0.1
v 0.1 0.9 -0.1
v 0.1 0.9 -0.2
v 0.1 1 0.2
v 0.1 1 0.1
v 0.1 1 -0.1
v 0.1 1 -0.2
v 0.1 1.1 -0.2
v 0.1 1.1 -0.3
v 0.1 1.2 -0.2
v 0.1 1.2 -0.3
v 0.2 0.7 0.2
v 0.2 0.7 0.1
v 0.2 0.7 0
v 0.2 0.7 -0.2
v 0.2 0.8 0.3
v 0.2 0.8 0.2
v 0.2 0.8 0.1
v 0.2 0.8 0
v 0.2 0.8 -0.2
v 0.2 0.8 -0.3
v 0.2 0.9 0.3
v 0.2 0.9 0.2
v 0.2 0.9 0.1
v 0.2 0.9 -0.1
v 0.2 0.9 -0.2
v 0.2 0.9 -0.3
v 0.2 1 0.3
v 0.2 1 0.2
v 0.2 1 0.1
v 0.2 1 0
v 0.2 1 -0.1
v 0.2 1 -0.2
v 0.2 1 -0.3
v 0.2 1.1 0.2
v 0.2 1.1 0
v 0.2 1.1 -0.1
v 0.2 1.1 -0.2
v 0.2 1.1 -0.3
v 0.2 1.2 0
v 0.2 1.2 -0.1
v 0.2 1.2 -0.2
v -0.3 0.8 0.3
v -0.3 1 0.3
v -0.3 1.1 0.3
v -0.2 0.7 0.3
v -0.2 0.8 0.3
v -0.2 1 0.3
v -0.2 1.1 0.3
v -0.2 1.2 0.3
v -0.1 0.7 0.3
v -0.1 0.8 0.3
v -0.1 1 0.3
v -0.1 1.1 0.3
v -0.1 1.2 0.3
v 0 0.9 0.3
v 0 1 0.3
v 0 1.1 0.3
v 0 1.2 0.3
v 0.1 0.7 0.3
v 0.1 0.8 0.3
v 0.1 0.9 0.3
v 0.2 0.8 0.3
v 0.2 0.9 0.3
v 0.2 1 0.3
v -0.3 0.7 0.2
v -0.3 0.8 0.2
v -0.3 1.1 0.2
v -0.3 1.2 0.2
v -0.2 0.7 0.2
v -0.2 0.8 0.2
v -0.2 1.1 0.2
v -0.2 1.2 0.2
v 0.1 0.7 0.2
v 0.1 0.8 0.2
v 0.1 1 0.2
v 0.1 1.1 0.2
v 0.2 0.7 0.2
v 0.2 0.8 0.2
v 0.2 1 0.2
v 0.2 1.1 0.2
v 0 1 0.1
v 0 1.1 0.1
v 0.1 0.9 0.1
v 0.1 1 0.1
v 0.1 1.1 0.1
v 0.2 0.9 0.1
v 0.2 1 0.1
v 0 1.1 0
v 0 1.2 0
v 0.1 1.1 0
v 0.2 1.1 0
v 0.2 1.2 0
v -0.1 1.1 -0.1
v -0.1 1.2 -0.1
v 0 1.1 -0.1
v 0 1.2 -0.1
v 0.1 0.9 -0.2
v 0.1 1 -0.2
v 0.2 0.9 -0.2
v 0.2 1 -0.2
v 0.1 0.9 0.2
v 0.1 1 0.2
v 0.2 0.9 0.2
v 0.2 1 0.2
v -0.1 1.1 0.1
v -0.1 1.2 0.1
v 0 1.1 0.1
v 0 1.2 0.1
v 0.1 0.9 -0.1
v 0.1 1 -0.1
v 0.2 0.9 -0.1
v 0.2 1 -0.1
v -0.3 0.7 -0.2
v -0.3 0.8 -0.2
v -0.3 1.1 -0.2
v -0.3 1.2 -0.2
v -0.2 0.7 -0.2
v -0.2 0.8 -0.2
v -0.2 1.1 -0.2
v -0.2 1.2 -0.2
v 0.1 0.7 -0.2
v 0.1 0.8 -0.2
v 0.1 1.1 -0.2
v 0.1 1.2 -0.2
v 0.2 0.7 -0.2
v 0.2 0.8 -0.2
v 0.2 1.1 -0.2
v 0.2 1.2 -0.2
v -0.3 0.8 -0.3
v -0.3 0.9 -0.3
v -0.3 1 -0.3
v -0.3 1.1 -0.3
v -0.2 0.7 -0.3
v -0.2 0.8 -0.3
v -0.2 0.9 -0.3
v -0.2 1 -0.3
v -0.2 1.1 -0.3
v -0.2 1.2 -0.3
v -0.1 0.7 -0.3
v -0.1 0.8 -0.3
v 0 1 -0.3
v 0 1.2 -0.3
v 0.1 0.7 -0.3
v 0.1 0.8 -0.3
v 0.1 0.9 -0.3
v 0.1 1.1 -0.3
v 0.1 1.2 -0.3
v 0.2 0.8 -0.3
v 0.2 0.9 -0.3
v 0.2 1 -0.3
v 0.2 1.1 -0.3
v -0.2 0.7 0.3
v -0.1 0.7 0.3
v 0.1 0.7 0.3
v -0.3 0.7 0.2
v -0.2 0.7 0.2
v -0.1 0.7 0.2
v 0.1 0.7 0.2
v 0.2 0.7 0.2
v -0.3 0.7 0.1
v -0.2 0.7 0.1
v 0.1 0.7 0.1
v 0.2 0.7 0.1
v -0.3 0.7 0
v -0.2 0.7 0
v 0.1 0.7 0
v 0.2 0.7 0
v -0.3 0.7 -0.1
v -0.2 0.7 -0.1
v 0 0.7 -0.1
v 0.1 0.7 -0.1
v -0.3 0.7 -0.2
v -0.2 0.7 -0.2
v -0.1 0.7 -0.2
v 0 0.7 -0.2
v 0.1 0.7 -0.2
v 0.2 0.7 -0.2
v -0.2 0.7 -0.3
v -0.1 0.7 -0.3
v 0.1 0.7 -0.3
v -0.3 0.8 0.3
v -0.2 0.8 0.3
v 0.1 0.8 0.3
v 0.2 0.8 0.3
v -0.3 0.8 0.2
v -0.2 0.8 0.2
v 0.1 0.8 0.2
v 0.2 0.8 0.2
v -0.3 0.8 -0.2
v -0.2 0.8 -0.2
v 0.1 0.8 -0.2
v 0.2 0.8 -0.2
v -0.3 0.8 -0.3
v -0.2 0.8 -0.3
v 0.1 0.8 -0.3
v 0.2 0.8 -0.3
v 0.1 1 0.2
v 0.2 1 0.2
v 0.1 1 0.1
v 0.2 1 0.1
v 0.1 1 -0.1
v 0.2 1 -0.1
v 0.1 1 -0.2
v 0.2 1 -0.2
v 0.1 0.9 0.2
v 0.2 0.9 0.2
v 0.1 0.9 0.1
v 0.2 0.9 0.1
v 0.1 0.9 -0.1
v 0.2 0.9 -0.1
v 0.1 0.9 -0.2
v 0.2 0.9 -0.2
v 0 1 0.3
v 0.2 1 0.3
v 0 1 0.2
v 0.1 1 0.2
v 0.2 1 0.2
v 0 1 0.1
v 0.1 1 0.1
v -0.3 1.1 0.3
v -0.2 1.1 0.3
v -0.3 1.1 0.2
v -0.2 1.1 0.2
v 0.1 1.1 0.2
v 0.2 1.1 0.2
v -0.1 1.1 0.1
v 0 1.1 0.1
v 0.1 1.1 0.1
v 0 1.1 0
v 0.1 1.1 0
v 0.2 1.1 0
v -0.1 1.1 -0.1
v 0 1.1 -0.1
v -0.3 1.1 -0.2
v -0.2 1.1 -0.2
v 0.1 1.1 -0.2
v 0.2 1.1 -0.2
v -0.3 1.1 -0.3
v -0.2 1.1 -0.3
v 0.1 1.1 -0.3
v 0.2 1.1 -0.3
v -0.2 1.2 0.3
v -0.1 1.2 0.3
v 0 1.2 0.3
v -0.3 1.2 0.2
v -0.2 1.2 0.2
v -0.1 1.2 0.2
v 0 1.2 0.2
v -0.3 1.2 0.1
v -0.2 1.2 0.1
v -0.1 1.2 0.1
v 0 1.2 0.1
v 0 1.2 0
v 0.2 1.2 0
v -0.3 1.2 -0.1
v -0.2 1.2 -0.1
v -0.1 1.2 -0.1
v 0 1.2 -0.1
v 0.2 1.2 -0.1
v -0.3 1.2 -0.2
v -0.2 1.2 -0.2
v 0 1.2 -0.2
v 0.1 1.2 -0.2
v 0.2 1.2 -0.2
v -0.2 1.2 -0.3
v 0 1.2 -0.3
v 0.1 1.2 -0.3

# faces
f 7/3/1 2/3/1 1/3/1
f 8/1/1 3/1/1 2/1/1
f 8/3/1 4/3/1 3/3/1
f 9/1/1 5/1/1 4/1/1
f 9/3/1 4/3/1 8/3/1
f 10/1/1 5/1/1 9/1/1
f 12/1/1 7/1/1 6/1/1
f 12/3/1 2/3/1 7/3/1
f 13/1/1 8/1/1 2/1/1
f 13/3/1 2/3/1 12/3/1
f 13/1/1 11/1/1 10/1/1
f 13/1/1 9/1/1 8/1/1
f 13/1/1 10/1/1 9/1/1
f 14/1/1 11/1/1 13/1/1
f 15/1/1 11/1/1 14/1/1
f 16/1/1 12/1/1 6/1/1
f 16/1/1 13/1/1 12/1/1
f 16/1/1 14/1/1 13/1/1
f 17/1/1 14/1/1 16/1/1
f 18/1/1 14/1/1 17/1/1
f 19/4/1 15/4/1 14/4/1
f 19/1/1 14/1/1 18/1/1
f 20/4/1 15/4/1 19/4/1
f 21/4/1 17/4/1 16/4/1
f 22/1/1 18/1/1 17/1/1
f 22/4/1 17/4/1 21/4/1
f 23/1/1 18/1/1 22/1/1
f 24/4/1 19/4/1 18/4/1
f 24/1/1 18/1/1 23/1/1
f 25/3/1 20/3/1 19/3/1
f 25/4/1 19/4/1 24/4/1
f 26/3/1 20/3/1 25/3/1
f 27/4/1 23/4/1 22/4/1
f 28/1/1 24/1/1 23/1/1
f 28/4/1 23/4/1 27/4/1
f 29/3/1 25/3/1 24/3/1
f 29/1/1 24/1/1 28/1/1
f 30/3/1 25/3/1 29/3/1
f 35/3/1 32/3/1 31/3/1
f 36/3/1 32/3/1 35/3/1
f 37/1/1 34/1/1 33/1/1
f 38/1/1 34/1/1 37/1/1
f 43/4/1 40/4/1 39/4/1
f 44/4/1 40/4/1 43/4/1
f 45/1/1 42/1/1 41/1/1
f 46/1/1 42/1/1 45/1/1
f 49/3/1 48/3/1 47/3/1
f 50/3/1 48/3/1 49/3/1
f 53/3/1 52/3/1 51/3/1
f 54/3/1 52/3/1 53/3/1
f 55/3/2 56/3/2 57/3/2
f 57/3/2 56/3/2 58/3/2
f 59/3/2 60/3/2 62/3/2
f 60/3/2 61/3/2 62/3/2
f 62/3/2 61/3/2 63/3/2
f 63/3/2 61/3/2 64/3/2
f 62/1/2 63/1/2 65/1/2
f 63/3/2 64/3/2 66/3/2
f 65/1/2 63/1/2 66/1/2
f 66/3/2 64/3/2 67/3/2
f 68/1/2 69/1/2 72/1/2
f 72/1/2 69/1/2 73/1/2
f 70/3/2 71/3/2 74/3/2
f 74/3/2 71/3/2 75/3/2
f 76/2/2 77/2/2 80/2/2
f 80/2/2 77/2/2 81/2/2
f 78/2/2 79/2/2 82/2/2
f 82/2/2 79/2/2 83/2/2
f 84/4/2 85/4/2 86/4/2
f 86/4/2 85/4/2 87/4/2
f 88/4/2 89/4/2 93/4/2
f 89/1/2 90/1/2 94/1/2
f 93/4/2 89/4/2 94/4/2
f 90/3/2 91/3/2 95/3/2
f 94/1/2 90/1/2 95/1/2
f 95/3/2 91/3/2 96/3/2
f 92/4/2 93/4/2 98/4/2
f 93/1/2 94/1/2 99/1/2
f 98/4/2 93/4/2 99/4/2
f 94/1/2 95/1/2 99/1/2
f 95/1/2 96/1/2 99/1/2
f 99/1/2 96/1/2 100/1/2
f 100/1/2 96/1/2 101/1/2
f 96/3/2 97/3/2 102/3/2
f 101/1/2 96/1/2 102/1/2
f 102/3/2 97/3/2 103/3/2
f 98/3/2 99/3/2 104/3/2
f 104/3/2 99/3/2 105/3/2
f 100/1/2 101/1/2 106/1/2
f 106/1/2 101/1/2 107/1/2
f 107/1/2 101/1/2 108/1/2
f 102/1/2 103/1/2 109/1/2
f 109/1/2 103/1/2 110/1/2
f 105/3/2 106/3/2 111/3/2
f 106/3/2 107/3/2 111/3/2
f 107/1/2 108/1/2 112/1/2
f 111/3/2 107/3/2 112/3/2
f 108/1/2 109/1/2 112/1/2
f 112/1/2 109/1/2 113/1/2
f 109/4/2 110/4/2 114/4/2
f 113/1/2 109/1/2 114/1/2
f 114/4/2 110/4/2 115/4/2
f 112/3/2 113/3/2 116/3/2
f 113/1/2 114/1/2 117/1/2
f 116/3/2 113/3/2 117/3/2
f 117/1/2 114/1/2 118/1/2
f 123/1/3 120/1/3 119/1/3
f 124/4/3 121/4/3 120/4/3
f 124/1/3 120/1/3 123/1/3
f 125/4/3 121/4/3 124/4/3
f 127/3/3 123/3/3 122/3/3
f 128/1/3 124/1/3 123/1/3
f 128/3/3 123/3/3 127/3/3
f 128/1/3 125/1/3 124/1/3
f 129/1/3 125/1/3 128/1/3
f 130/4/3 126/4/3 125/4/3
f 130/1/3 125/1/3 129/1/3
f 131/4/3 126/4/3 130/4/3
f 132/1/3 129/1/3 128/1/3
f 132/1/3 128/1/3 127/1/3
f 133/3/3 130/3/3 129/3/3
f 133/1/3 129/1/3 132/1/3
f 134/1/3 131/1/3 130/1/3
f 134/3/3 130/3/3 133/3/3
f 135/1/3 131/1/3 134/1/3
f 136/1/3 132/1/3 127/1/3
f 137/1/3 132/1/3 136/1/3
f 138/3/3 133/3/3 132/3/3
f 138/1/3 132/1/3 137/1/3
f 139/4/3 138/4/3 137/4/3
f 140/3/3 133/3/3 138/3/3
f 140/4/3 138/4/3 139/4/3
f 141/3/3 133/3/3 140/3/3
f 146/3/3 143/3/3 142/3/3
f 147/3/3 143/3/3 146/3/3
f 148/4/3 145/4/3 144/4/3
f 149/4/3 145/4/3 148/4/3
f 154/4/3 151/4/3 150/4/3
f 155/4/3 151/4/3 154/4/3
f 156/3/3 153/3/3 152/3/3
f 157/3/3 153/3/3 156/3/3
f 161/2/3 159/2/3 158/2/3
f 162/2/3 159/2/3 161/2/3
f 163/1/3 161/1/3 160/1/3
f 164/1/3 161/1/3 163/1/3
f 167/3/3 166/3/3 165/3/3
f 168/3/3 166/3/3 167/3/3
f 169/3/3 166/3/3 168/3/3
f 172/3/3 171/3/3 170/3/3
f 173/3/3 171/3/3 172/3/3
f 176/1/3 175/1/3 174/1/3
f 177/1/3 175/1/3 176/1/3
f 178/3/4 179/3/4 180/3/4
f 180/3/4 179/3/4 181/3/4
f 182/3/4 183/3/4 184/3/4
f 184/3/4 183/3/4 185/3/4
f 186/1/4 187/1/4 188/1/4
f 188/1/4 187/1/4 189/1/4
f 190/1/4 191/1/4 194/1/4
f 194/1/4 191/1/4 195/1/4
f 192/3/4 193/3/4 196/3/4
f 196/3/4 193/3/4 197/3/4
f 198/3/4 199/3/4 202/3/4
f 202/3/4 199/3/4 203/3/4
f 200/1/4 201/1/4 204/1/4
f 204/1/4 201/1/4 205/1/4
f 206/1/4 207/1/4 211/1/4
f 207/4/4 208/4/4 212/4/4
f 211/1/4 207/1/4 212/1/4
f 208/3/4 209/3/4 213/3/4
f 212/4/4 208/4/4 213/4/4
f 213/3/4 209/3/4 214/3/4
f 211/1/4 212/1/4 216/1/4
f 214/1/4 215/1/4 216/1/4
f 213/1/4 214/1/4 216/1/4
f 212/1/4 213/1/4 216/1/4
f 210/1/4 211/1/4 216/1/4
f 216/1/4 215/1/4 217/1/4
f 217/1/4 215/1/4 218/1/4
f 218/1/4 215/1/4 219/1/4
f 216/3/4 217/3/4 220/3/4
f 217/1/4 218/1/4 221/1/4
f 220/3/4 217/3/4 221/3/4
f 221/1/4 218/1/4 222/1/4
f 218/4/4 219/4/4 223/4/4
f 223/4/4 219/4/4 224/4/4
f 221/3/4 222/3/4 225/3/4
f 222/1/4 218/1/4 226/1/4
f 225/3/4 222/3/4 226/3/4
f 218/4/4 223/4/4 227/4/4
f 226/1/4 218/1/4 227/1/4
f 227/4/4 223/4/4 228/4/4
f 233/3/5 230/3/5 229/3/5
f 234/1/5 231/1/5 230/1/5
f 234/3/5 230/3/5 233/3/5
f 235/1/5 231/1/5 234/1/5
f 237/3/5 233/3/5 232/3/5
f 238/1/5 234/1/5 233/1/5
f 238/3/5 233/3/5 237/3/5
f 238/1/5 235/1/5 234/1/5
f 239/4/5 236/4/5 235/4/5
f 239/1/5 235/1/5 238/1/5
f 240/4/5 236/4/5 239/4/5
f 241/1/5 238/1/5 237/1/5
f 241/1/5 239/1/5 238/1/5
f 241/1/5 240/1/5 239/1/5
f 242/1/5 240/1/5 241/1/5
f 243/1/5 240/1/5 242/1/5
f 244/1/5 240/1/5 243/1/5
f 245/3/5 242/3/5 241/3/5
f 246/1/5 243/1/5 242/1/5
f 246/3/5 242/3/5 245/3/5
f 247/1/5 243/1/5 246/1/5
f 248/3/5 244/3/5 243/3/5
f 248/1/5 243/1/5 247/1/5
f 249/1/5 247/1/5 246/1/5
f 249/1/5 246/1/5 245/1/5
f 250/1/5 247/1/5 249/1/5
f 251/1/5 247/1/5 250/1/5
f 252/3/5 248/3/5 247/3/5
f 252/1/5 247/1/5 251/1/5
f 253/3/5 244/3/5 248/3/5
f 253/3/5 248/3/5 252/3/5
f 254/3/5 244/3/5 253/3/5
f 255/1/5 251/1/5 250/1/5
f 256/3/5 252/3/5 251/3/5
f 256/1/5 251/1/5 255/1/5
f 256/3/5 253/3/5 252/3/5
f 257/3/5 253/3/5 256/3/5
f 262/1/5 259/1/5 258/1/5
f 263/1/5 259/1/5 262/1/5
f 264/4/5 261/4/5 260/4/5
f 265/4/5 261/4/5 264/4/5
f 270/1/5 267/1/5 266/1/5
f 271/1/5 267/1/5 270/1/5
f 272/3/5 269/3/5 268/3/5
f 273/3/5 269/3/5 272/3/5
f 276/3/5 275/3/5 274/3/5
f 277/3/5 275/3/5 276/3/5
f 280/1/5 279/1/5 278/1/5
f 281/1/5 279/1/5 280/1/5
f 282/1/6 283/1/6 284/1/6
f 284/1/6 283/1/6 285/1/6
f 286/1/6 287/1/6 288/1/6
f 288/1/6 287/1/6 289/1/6
f 290/3/6 291/3/6 292/3/6
f 292/3/6 291/3/6 293/3/6
f 293/3/6 291/3/6 294/3/6
f 292/2/6 293/2/6 295/2/6
f 295/2/6 293/2/6 296/2/6
f 297/4/6 298/4/6 299/4/6
f 299/4/6 298/4/6 300/4/6
f 301/3/6 302/3/6 305/3/6
f 303/2/6 304/2/6 306/2/6
f 304/2/6 305/2/6 306/2/6
f 305/3/6 302/3/6 307/3/6
f 306/2/6 305/2/6 307/2/6
f 307/3/6 302/3/6 308/3/6
f 303/2/6 306/2/6 309/2/6
f 309/2/6 306/2/6 310/2/6
f 311/3/6 312/3/6 315/3/6
f 315/3/6 312/3/6 316/3/6
f 313/4/6 314/4/6 317/4/6
f 317/4/6 314/4/6 318/4/6
f 319/4/6 320/4/6 323/4/6
f 320/1/6 321/1/6 324/1/6
f 323/4/6 320/4/6 324/4/6
f 324/1/6 321/1/6 325/1/6
f 322/4/6 323/4/6 326/4/6
f 323/1/6 324/1/6 327/1/6
f 326/4/6 323/4/6 327/4/6
f 324/3/6 325/3/6 328/3/6
f 327/1/6 324/1/6 328/1/6
f 328/3/6 325/3/6 329/3/6
f 326/1/6 327/1/6 332/1/6
f 327/3/6 328/3/6 333/3/6
f 332/1/6 327/1/6 333/1/6
f 333/3/6 328/3/6 334/3/6
f 330/3/6 331/3/6 335/3/6
f 335/3/6 331/3/6 336/3/6
f 333/3/6 334/3/6 337/3/6
f 332/3/6 333/3/6 337/3/6
f 334/3/6 335/3/6 337/3/6
f 337/3/6 335/3/6 338/3/6
f 335/1/6 336/1/6 339/1/6
f 338/3/6 335/3/6 339/3/6
f 339/1/6 336/1/6 340/1/6
f 340/1/6 336/1/6 341/1/6
f 338/1/6 339/1/6 342/1/6
f 339/4/6 340/4/6 343/4/6
f 342/1/6 339/1/6 343/1/6
f 343/4/6 340/4/6 344/4/6
