# MagicaVoxel @ Ephtracy

# group
o 

# material
mtllib nature_map_1-1.mtl
usemtl palette

# normals
vn -1 0 0
vn 1 0 0
vn 0 0 1
vn 0 0 -1
vn 0 -1 0
vn 0 1 0

# texcoords
vt 0.939453 0.5
vt 0.943359 0.5
vt 0.947266 0.5

# verts
v -0.4 0 -0.1
v -0.4 0 -0.2
v -0.4 0 -0.4
v -0.4 0.1 -0.1
v -0.4 0.1 -0.2
v -0.4 0.1 -0.4
v -0.3 0 0.2
v -0.3 0 -0.1
v -0.3 0.1 0.1
v -0.3 0.1 -0.1
v -0.3 0.1 -0.2
v -0.3 0.1 -0.3
v -0.3 0.2 0.2
v -0.3 0.2 0.1
v -0.3 0.2 -0.1
v -0.3 0.2 -0.3
v -0.1 0 0.3
v -0.1 0 0.2
v -0.1 0.1 0.3
v -0.1 0.1 0.2
v 0 0 -0.3
v 0 0 -0.4
v 0 0.1 -0.3
v 0 0.1 -0.4
v 0.1 0 -0.2
v 0.1 0 -0.3
v 0.1 0.1 -0.1
v 0.1 0.1 -0.2
v 0.1 0.2 -0.1
v 0.1 0.2 -0.2
v 0.1 0.2 -0.3
v 0.2 0.1 0.2
v 0.2 0.1 0
v 0.2 0.1 -0.1
v 0.2 0.2 0.2
v 0.2 0.2 0
v 0.2 0.2 -0.1
v 0.3 0 0.3
v 0.3 0 -0.2
v 0.3 0.1 0.3
v 0.3 0.1 -0.2
v -0.1 0 0.3
v -0.1 0.1 0.3
v 0 0 0.3
v 0 0.1 0.3
v 0.3 0 0.3
v 0.3 0.1 0.3
v -0.3 0 0.2
v -0.3 0.2 0.2
v -0.2 0.1 0.2
v -0.2 0.2 0.2
v -0.1 0 0.2
v -0.1 0.1 0.2
v 0 0.1 0.2
v 0 0.2 0.2
v 0.2 0.1 0.2
v 0.2 0.2 0.2
v -0.4 0 -0.1
v -0.4 0.1 -0.1
v -0.3 0 -0.1
v -0.3 0.1 -0.1
v 0.1 0.1 -0.1
v 0.1 0.2 -0.1
v 0.2 0.1 -0.1
v 0.2 0.2 -0.1
v 0.1 0 -0.2
v 0.1 0.1 -0.2
v 0.2 0 -0.2
v 0.2 0.1 -0.2
v 0.3 0 -0.2
v 0.3 0.1 -0.2
v -0.3 0.1 -0.3
v -0.3 0.2 -0.3
v -0.1 0.1 -0.3
v -0.1 0.2 -0.3
v 0 0 -0.3
v 0 0.1 -0.3
v 0 0.2 -0.3
v 0.1 0 -0.3
v 0.1 0.2 -0.3
v -0.4 0 -0.4
v -0.4 0.1 -0.4
v -0.1 0 -0.4
v -0.1 0.1 -0.4
v 0 0 -0.4
v 0 0.1 -0.4
v -0.1 0 0.3
v 0 0 0.3
v 0.3 0 0.3
v -0.3 0 0.2
v -0.1 0 0.2
v 0 0 0.2
v -0.2 0 0.1
v -0.1 0 0.1
v -0.4 0 -0.1
v -0.3 0 -0.1
v -0.2 0 -0.1
v 0.1 0 -0.1
v 0.2 0 -0.1
v -0.4 0 -0.2
v -0.3 0 -0.2
v 0 0 -0.2
v 0.1 0 -0.2
v 0.2 0 -0.2
v 0.3 0 -0.2
v -0.1 0 -0.3
v 0 0 -0.3
v 0.1 0 -0.3
v -0.4 0 -0.4
v -0.1 0 -0.4
v 0 0 -0.4
v -0.1 0.1 0.3
v 0 0.1 0.3
v 0.3 0.1 0.3
v -0.1 0.1 0.2
v 0 0.1 0.2
v 0.2 0.1 0.2
v 0.2 0.1 0
v -0.4 0.1 -0.1
v -0.3 0.1 -0.1
v 0.1 0.1 -0.1
v 0.2 0.1 -0.1
v -0.4 0.1 -0.2
v -0.3 0.1 -0.2
v 0.1 0.1 -0.2
v 0.2 0.1 -0.2
v 0.3 0.1 -0.2
v -0.3 0.1 -0.3
v -0.1 0.1 -0.3
v 0 0.1 -0.3
v -0.4 0.1 -0.4
v -0.1 0.1 -0.4
v 0 0.1 -0.4
v -0.3 0.2 0.2
v -0.2 0.2 0.2
v 0 0.2 0.2
v 0.2 0.2 0.2
v -0.3 0.2 0.1
v -0.2 0.2 0.1
v 0 0.2 0.1
v 0.1 0.2 0.1
v 0.1 0.2 0
v 0.2 0.2 0
v -0.3 0.2 -0.1
v -0.2 0.2 -0.1
v 0.1 0.2 -0.1
v 0.2 0.2 -0.1
v -0.2 0.2 -0.2
v -0.1 0.2 -0.2
v 0 0.2 -0.2
v 0.1 0.2 -0.2
v -0.3 0.2 -0.3
v -0.1 0.2 -0.3
v 0 0.2 -0.3
v 0.1 0.2 -0.3

# faces
f 4/2/1 2/2/1 1/2/1
f 5/1/1 3/1/1 2/1/1
f 5/2/1 2/2/1 4/2/1
f 6/1/1 3/1/1 5/1/1
f 9/2/1 8/2/1 7/2/1
f 10/2/1 8/2/1 9/2/1
f 13/2/1 9/2/1 7/2/1
f 14/1/1 10/1/1 9/1/1
f 14/2/1 9/2/1 13/2/1
f 15/3/1 12/3/1 11/3/1
f 15/1/1 10/1/1 14/1/1
f 15/3/1 11/3/1 10/3/1
f 16/3/1 12/3/1 15/3/1
f 19/2/1 18/2/1 17/2/1
f 20/2/1 18/2/1 19/2/1
f 21/2/2 22/2/2 23/2/2
f 23/2/2 22/2/2 24/2/2
f 25/2/2 26/2/2 28/2/2
f 27/1/2 28/1/2 29/1/2
f 28/2/2 26/2/2 30/2/2
f 29/1/2 28/1/2 30/1/2
f 30/2/2 26/2/2 31/2/2
f 32/3/2 33/3/2 35/3/2
f 33/1/2 34/1/2 36/1/2
f 35/3/2 33/3/2 36/3/2
f 36/1/2 34/1/2 37/1/2
f 38/1/2 39/1/2 40/1/2
f 40/1/2 39/1/2 41/1/2
f 44/2/3 43/2/3 42/2/3
f 45/2/3 43/2/3 44/2/3
f 46/1/3 45/1/3 44/1/3
f 47/1/3 45/1/3 46/1/3
f 50/2/3 49/2/3 48/2/3
f 51/2/3 49/2/3 50/2/3
f 52/2/3 50/2/3 48/2/3
f 53/1/3 51/1/3 50/1/3
f 53/2/3 50/2/3 52/2/3
f 54/1/3 51/1/3 53/1/3
f 55/1/3 51/1/3 54/1/3
f 56/3/3 55/3/3 54/3/3
f 57/3/3 55/3/3 56/3/3
f 60/2/3 59/2/3 58/2/3
f 61/2/3 59/2/3 60/2/3
f 62/1/4 63/1/4 64/1/4
f 64/1/4 63/1/4 65/1/4
f 66/2/4 67/2/4 68/2/4
f 68/2/4 67/2/4 69/2/4
f 68/1/4 69/1/4 70/1/4
f 70/1/4 69/1/4 71/1/4
f 72/3/4 73/3/4 74/3/4
f 74/3/4 73/3/4 75/3/4
f 74/1/4 75/1/4 77/1/4
f 77/1/4 75/1/4 78/1/4
f 76/2/4 77/2/4 79/2/4
f 77/2/4 78/2/4 79/2/4
f 79/2/4 78/2/4 80/2/4
f 81/1/4 82/1/4 83/1/4
f 83/1/4 82/1/4 84/1/4
f 83/2/4 84/2/4 85/2/4
f 85/2/4 84/2/4 86/2/4
f 91/2/5 88/2/5 87/2/5
f 92/1/5 89/1/5 88/1/5
f 92/2/5 88/2/5 91/2/5
f 93/2/5 91/2/5 90/2/5
f 94/1/5 92/1/5 91/1/5
f 94/2/5 91/2/5 93/2/5
f 96/2/5 93/2/5 90/2/5
f 97/1/5 94/1/5 93/1/5
f 97/2/5 93/2/5 96/2/5
f 98/1/5 89/1/5 92/1/5
f 98/1/5 94/1/5 97/1/5
f 98/1/5 92/1/5 94/1/5
f 99/1/5 89/1/5 98/1/5
f 100/2/5 96/2/5 95/2/5
f 101/1/5 97/1/5 96/1/5
f 101/2/5 96/2/5 100/2/5
f 101/1/5 98/1/5 97/1/5
f 102/1/5 98/1/5 101/1/5
f 103/2/5 99/2/5 98/2/5
f 103/1/5 98/1/5 102/1/5
f 104/1/5 89/1/5 99/1/5
f 104/2/5 99/2/5 103/2/5
f 105/1/5 89/1/5 104/1/5
f 106/1/5 102/1/5 101/1/5
f 106/1/5 101/1/5 100/1/5
f 107/2/5 103/2/5 102/2/5
f 107/1/5 102/1/5 106/1/5
f 108/2/5 103/2/5 107/2/5
f 109/1/5 106/1/5 100/1/5
f 110/2/5 107/2/5 106/2/5
f 110/1/5 106/1/5 109/1/5
f 111/2/5 107/2/5 110/2/5
f 112/2/6 113/2/6 115/2/6
f 113/1/6 114/1/6 116/1/6
f 115/2/6 113/2/6 116/2/6
f 116/1/6 114/1/6 117/1/6
f 117/1/6 114/1/6 118/1/6
f 118/1/6 114/1/6 122/1/6
f 119/2/6 120/2/6 123/2/6
f 123/2/6 120/2/6 124/2/6
f 121/2/6 122/2/6 125/2/6
f 122/1/6 114/1/6 126/1/6
f 125/2/6 122/2/6 126/2/6
f 126/1/6 114/1/6 127/1/6
f 123/1/6 124/1/6 128/1/6
f 123/1/6 128/1/6 131/1/6
f 128/1/6 129/1/6 131/1/6
f 129/2/6 130/2/6 132/2/6
f 131/1/6 129/1/6 132/1/6
f 132/2/6 130/2/6 133/2/6
f 134/2/6 135/2/6 138/2/6
f 135/1/6 136/1/6 139/1/6
f 138/2/6 135/2/6 139/2/6
f 136/3/6 137/3/6 140/3/6
f 139/1/6 136/1/6 140/1/6
f 140/3/6 137/3/6 141/3/6
f 138/1/6 139/1/6 142/1/6
f 141/3/6 137/3/6 142/3/6
f 140/1/6 141/1/6 142/1/6
f 139/1/6 140/1/6 142/1/6
f 142/3/6 137/3/6 143/3/6
f 138/1/6 142/1/6 144/1/6
f 142/1/6 143/1/6 144/1/6
f 144/1/6 143/1/6 145/1/6
f 145/1/6 143/1/6 146/1/6
f 146/1/6 143/1/6 147/1/6
f 144/3/6 145/3/6 148/3/6
f 145/1/6 146/1/6 148/1/6
f 148/1/6 146/1/6 149/1/6
f 149/1/6 146/1/6 150/1/6
f 150/1/6 146/1/6 151/1/6
f 144/3/6 148/3/6 152/3/6
f 148/3/6 149/3/6 152/3/6
f 149/1/6 150/1/6 153/1/6
f 152/3/6 149/3/6 153/3/6
f 150/2/6 151/2/6 154/2/6
f 153/1/6 150/1/6 154/1/6
f 154/2/6 151/2/6 155/2/6
