# MagicaVoxel @ Ephtracy

# group
o 

# material
mtllib nature_map_1-8.mtl
usemtl palette

# normals
vn -1 0 0
vn 1 0 0
vn 0 0 1
vn 0 0 -1
vn 0 -1 0
vn 0 1 0

# texcoords
vt 0.970703 0.5
vt 0.974609 0.5
vt 0.978516 0.5

# verts
v -0.5 0 -0.2
v -0.5 0 -0.3
v -0.5 0.3 0.5
v -0.5 0.3 0.4
v -0.5 0.4 0.5
v -0.5 0.4 0.4
v -0.5 0.4 -0.2
v -0.5 0.4 -0.3
v -0.4 0 0.5
v -0.4 0 0.4
v -0.4 0.3 0.6
v -0.4 0.3 0.5
v -0.4 0.3 0.4
v -0.4 0.3 0.3
v -0.4 0.4 0.6
v -0.4 0.4 0.5
v -0.4 0.4 0.4
v -0.4 0.4 0.3
v -0.3 0 0.2
v -0.3 0 0.1
v -0.3 0.2 0.2
v -0.3 0.2 0.1
v -0.3 0.3 -0.1
v -0.3 0.3 -0.2
v -0.3 0.4 -0.1
v -0.3 0.4 -0.2
v -0.2 0 -0.1
v -0.2 0 -0.2
v -0.2 0.3 0
v -0.2 0.3 -0.1
v -0.2 0.3 -0.2
v -0.2 0.3 -0.3
v -0.2 0.4 0
v -0.2 0.4 -0.1
v -0.2 0.4 -0.2
v -0.2 0.4 -0.3
v 5.96046e-08 0 0.3
v 5.96046e-08 0 0.2
v 5.96046e-08 0 -0.4
v 5.96046e-08 0 -0.5
v 5.96046e-08 0.2 -0.4
v 5.96046e-08 0.2 -0.5
v 5.96046e-08 0.3 0.3
v 5.96046e-08 0.3 0.2
v 0.1 0 -0.1
v 0.1 0 -0.2
v 0.1 0.3 -0.1
v 0.1 0.3 -0.2
v 0.2 0.1 0.2
v 0.2 0.1 0.1
v 0.2 0.2 0.2
v 0.2 0.2 0.1
v 0.3 0 0.2
v 0.3 0 0.1
v 0.3 0.1 0.3
v 0.3 0.1 0.2
v 0.3 0.1 0.1
v 0.3 0.1 0
v 0.3 0.2 0.3
v 0.3 0.2 0.2
v 0.3 0.2 0.1
v 0.3 0.2 0
v -0.4 0 -0.2
v -0.4 0 -0.3
v -0.4 0.4 -0.2
v -0.4 0.4 -0.3
v -0.3 0 0.5
v -0.3 0 0.4
v -0.3 0.3 0.6
v -0.3 0.3 0.5
v -0.3 0.3 0.4
v -0.3 0.3 0.3
v -0.3 0.4 0.6
v -0.3 0.4 0.5
v -0.3 0.4 0.4
v -0.3 0.4 0.3
v -0.2 0 0.2
v -0.2 0 0.1
v -0.2 0.2 0.2
v -0.2 0.2 0.1
v -0.2 0.3 0.5
v -0.2 0.3 0.4
v -0.2 0.4 0.5
v -0.2 0.4 0.4
v -0.1 0 -0.1
v -0.1 0 -0.2
v -0.1 0.3 0
v -0.1 0.3 -0.1
v -0.1 0.3 -0.2
v -0.1 0.3 -0.3
v -0.1 0.4 0
v -0.1 0.4 -0.1
v -0.1 0.4 -0.2
v -0.1 0.4 -0.3
v 5.96046e-08 0.3 -0.1
v 5.96046e-08 0.3 -0.2
v 5.96046e-08 0.4 -0.1
v 5.96046e-08 0.4 -0.2
v 0.1 0 0.3
v 0.1 0 0.2
v 0.1 0 -0.4
v 0.1 0 -0.5
v 0.1 0.2 -0.4
v 0.1 0.2 -0.5
v 0.1 0.3 0.3
v 0.1 0.3 0.2
v 0.2 0 -0.1
v 0.2 0 -0.2
v 0.2 0.3 -0.1
v 0.2 0.3 -0.2
v 0.4 0 0.2
v 0.4 0 0.1
v 0.4 0.1 0.3
v 0.4 0.1 0.2
v 0.4 0.1 0.1
v 0.4 0.1 0
v 0.4 0.2 0.3
v 0.4 0.2 0.2
v 0.4 0.2 0.1
v 0.4 0.2 0
v 0.5 0.1 0.2
v 0.5 0.1 0.1
v 0.5 0.2 0.2
v 0.5 0.2 0.1
v -0.4 0.3 0.6
v -0.4 0.4 0.6
v -0.3 0.3 0.6
v -0.3 0.4 0.6
v -0.5 0.3 0.5
v -0.5 0.4 0.5
v -0.4 0 0.5
v -0.4 0.3 0.5
v -0.4 0.4 0.5
v -0.3 0 0.5
v -0.3 0.3 0.5
v -0.3 0.4 0.5
v -0.2 0.3 0.5
v -0.2 0.4 0.5
v 5.96046e-08 0 0.3
v 5.96046e-08 0.3 0.3
v 0.1 0 0.3
v 0.1 0.3 0.3
v 0.3 0.1 0.3
v 0.3 0.2 0.3
v 0.4 0.1 0.3
v 0.4 0.2 0.3
v -0.3 0 0.2
v -0.3 0.2 0.2
v -0.2 0 0.2
v -0.2 0.2 0.2
v 0.2 0.1 0.2
v 0.2 0.2 0.2
v 0.3 0 0.2
v 0.3 0.1 0.2
v 0.3 0.2 0.2
v 0.4 0 0.2
v 0.4 0.1 0.2
v 0.4 0.2 0.2
v 0.5 0.1 0.2
v 0.5 0.2 0.2
v -0.2 0.3 0
v -0.2 0.4 0
v -0.1 0.3 0
v -0.1 0.4 0
v -0.3 0.3 -0.1
v -0.3 0.4 -0.1
v -0.2 0 -0.1
v -0.2 0.3 -0.1
v -0.2 0.4 -0.1
v -0.1 0 -0.1
v -0.1 0.3 -0.1
v -0.1 0.4 -0.1
v 5.96046e-08 0.3 -0.1
v 5.96046e-08 0.4 -0.1
v 0.1 0 -0.1
v 0.1 0.3 -0.1
v 0.2 0 -0.1
v 0.2 0.3 -0.1
v -0.5 0 -0.2
v -0.5 0.4 -0.2
v -0.4 0 -0.2
v -0.4 0.4 -0.2
v 5.96046e-08 0 -0.4
v 5.96046e-08 0.2 -0.4
v 0.1 0 -0.4
v 0.1 0.2 -0.4
v -0.5 0.3 0.4
v -0.5 0.4 0.4
v -0.4 0 0.4
v -0.4 0.3 0.4
v -0.4 0.4 0.4
v -0.3 0 0.4
v -0.3 0.3 0.4
v -0.3 0.4 0.4
v -0.2 0.3 0.4
v -0.2 0.4 0.4
v -0.4 0.3 0.3
v -0.4 0.4 0.3
v -0.3 0.3 0.3
v -0.3 0.4 0.3
v 5.96046e-08 0 0.2
v 5.96046e-08 0.3 0.2
v 0.1 0 0.2
v 0.1 0.3 0.2
v -0.3 0 0.1
v -0.3 0.2 0.1
v -0.2 0 0.1
v -0.2 0.2 0.1
v 0.2 0.1 0.1
v 0.2 0.2 0.1
v 0.3 0 0.1
v 0.3 0.1 0.1
v 0.3 0.2 0.1
v 0.4 0 0.1
v 0.4 0.1 0.1
v 0.4 0.2 0.1
v 0.5 0.1 0.1
v 0.5 0.2 0.1
v 0.3 0.1 0
v 0.3 0.2 0
v 0.4 0.1 0
v 0.4 0.2 0
v -0.3 0.3 -0.2
v -0.3 0.4 -0.2
v -0.2 0 -0.2
v -0.2 0.3 -0.2
v -0.2 0.4 -0.2
v -0.1 0 -0.2
v -0.1 0.3 -0.2
v -0.1 0.4 -0.2
v 5.96046e-08 0.3 -0.2
v 5.96046e-08 0.4 -0.2
v 0.1 0 -0.2
v 0.1 0.3 -0.2
v 0.2 0 -0.2
v 0.2 0.3 -0.2
v -0.5 0 -0.3
v -0.5 0.4 -0.3
v -0.4 0 -0.3
v -0.4 0.4 -0.3
v -0.2 0.3 -0.3
v -0.2 0.4 -0.3
v -0.1 0.3 -0.3
v -0.1 0.4 -0.3
v 5.96046e-08 0 -0.5
v 5.96046e-08 0.2 -0.5
v 0.1 0 -0.5
v 0.1 0.2 -0.5
v -0.4 0 0.5
v -0.3 0 0.5
v -0.4 0 0.4
v -0.3 0 0.4
v 5.96046e-08 0 0.3
v 0.1 0 0.3
v -0.3 0 0.2
v -0.2 0 0.2
v 5.96046e-08 0 0.2
v 0.1 0 0.2
v 0.3 0 0.2
v 0.4 0 0.2
v -0.3 0 0.1
v -0.2 0 0.1
v 0.3 0 0.1
v 0.4 0 0.1
v -0.2 0 -0.1
v -0.1 0 -0.1
v 0.1 0 -0.1
v 0.2 0 -0.1
v -0.5 0 -0.2
v -0.4 0 -0.2
v -0.2 0 -0.2
v -0.1 0 -0.2
v 0.1 0 -0.2
v 0.2 0 -0.2
v -0.5 0 -0.3
v -0.4 0 -0.3
v 5.96046e-08 0 -0.4
v 0.1 0 -0.4
v 5.96046e-08 0 -0.5
v 0.1 0 -0.5
v 0.3 0.1 0.3
v 0.4 0.1 0.3
v 0.2 0.1 0.2
v 0.3 0.1 0.2
v 0.4 0.1 0.2
v 0.5 0.1 0.2
v 0.2 0.1 0.1
v 0.3 0.1 0.1
v 0.4 0.1 0.1
v 0.5 0.1 0.1
v 0.3 0.1 0
v 0.4 0.1 0
v -0.4 0.3 0.6
v -0.3 0.3 0.6
v -0.5 0.3 0.5
v -0.4 0.3 0.5
v -0.3 0.3 0.5
v -0.2 0.3 0.5
v -0.5 0.3 0.4
v -0.4 0.3 0.4
v -0.3 0.3 0.4
v -0.2 0.3 0.4
v -0.4 0.3 0.3
v -0.3 0.3 0.3
v -0.2 0.3 0
v -0.1 0.3 0
v -0.3 0.3 -0.1
v -0.2 0.3 -0.1
v -0.1 0.3 -0.1
v 5.96046e-08 0.3 -0.1
v -0.3 0.3 -0.2
v -0.2 0.3 -0.2
v -0.1 0.3 -0.2
v 5.96046e-08 0.3 -0.2
v -0.2 0.3 -0.3
v -0.1 0.3 -0.3
v 0.3 0.2 0.3
v 0.4 0.2 0.3
v -0.3 0.2 0.2
v -0.2 0.2 0.2
v 0.2 0.2 0.2
v 0.3 0.2 0.2
v 0.4 0.2 0.2
v 0.5 0.2 0.2
v -0.3 0.2 0.1
v -0.2 0.2 0.1
v 0.2 0.2 0.1
v 0.3 0.2 0.1
v 0.4 0.2 0.1
v 0.5 0.2 0.1
v 0.3 0.2 0
v 0.4 0.2 0
v 5.96046e-08 0.2 -0.4
v 0.1 0.2 -0.4
v 5.96046e-08 0.2 -0.5
v 0.1 0.2 -0.5
v 5.96046e-08 0.3 0.3
v 0.1 0.3 0.3
v 5.96046e-08 0.3 0.2
v 0.1 0.3 0.2
v 0.1 0.3 -0.1
v 0.2 0.3 -0.1
v 0.1 0.3 -0.2
v 0.2 0.3 -0.2
v -0.4 0.4 0.6
v -0.3 0.4 0.6
v -0.5 0.4 0.5
v -0.4 0.4 0.5
v -0.3 0.4 0.5
v -0.2 0.4 0.5
v -0.5 0.4 0.4
v -0.4 0.4 0.4
v -0.3 0.4 0.4
v -0.2 0.4 0.4
v -0.4 0.4 0.3
v -0.3 0.4 0.3
v -0.2 0.4 0
v -0.1 0.4 0
v -0.3 0.4 -0.1
v -0.2 0.4 -0.1
v -0.1 0.4 -0.1
v 5.96046e-08 0.4 -0.1
v -0.5 0.4 -0.2
v -0.4 0.4 -0.2
v -0.3 0.4 -0.2
v -0.2 0.4 -0.2
v -0.1 0.4 -0.2
v 5.96046e-08 0.4 -0.2
v -0.5 0.4 -0.3
v -0.4 0.4 -0.3
v -0.2 0.4 -0.3
v -0.1 0.4 -0.3

# faces
f 5/3/1 4/3/1 3/3/1
f 6/3/1 4/3/1 5/3/1
f 7/1/1 2/1/1 1/1/1
f 8/1/1 2/1/1 7/1/1
f 12/1/1 10/1/1 9/1/1
f 13/1/1 10/1/1 12/1/1
f 15/3/1 12/3/1 11/3/1
f 16/3/1 12/3/1 15/3/1
f 17/3/1 14/3/1 13/3/1
f 18/3/1 14/3/1 17/3/1
f 21/1/1 20/1/1 19/1/1
f 22/1/1 20/1/1 21/1/1
f 25/3/1 24/3/1 23/3/1
f 26/3/1 24/3/1 25/3/1
f 30/1/1 28/1/1 27/1/1
f 31/1/1 28/1/1 30/1/1
f 33/3/1 30/3/1 29/3/1
f 34/3/1 30/3/1 33/3/1
f 35/3/1 32/3/1 31/3/1
f 36/3/1 32/3/1 35/3/1
f 41/1/1 40/1/1 39/1/1
f 42/1/1 40/1/1 41/1/1
f 43/1/1 38/1/1 37/1/1
f 44/1/1 38/1/1 43/1/1
f 47/1/1 46/1/1 45/1/1
f 48/1/1 46/1/1 47/1/1
f 51/3/1 50/3/1 49/3/1
f 52/3/1 50/3/1 51/3/1
f 56/1/1 54/1/1 53/1/1
f 57/1/1 54/1/1 56/1/1
f 59/3/1 56/3/1 55/3/1
f 60/3/1 56/3/1 59/3/1
f 61/3/1 58/3/1 57/3/1
f 62/3/1 58/3/1 61/3/1
f 63/1/2 64/1/2 65/1/2
f 65/1/2 64/1/2 66/1/2
f 67/1/2 68/1/2 70/1/2
f 70/1/2 68/1/2 71/1/2
f 69/3/2 70/3/2 73/3/2
f 73/3/2 70/3/2 74/3/2
f 71/3/2 72/3/2 75/3/2
f 75/3/2 72/3/2 76/3/2
f 77/1/2 78/1/2 79/1/2
f 79/1/2 78/1/2 80/1/2
f 81/3/2 82/3/2 83/3/2
f 83/3/2 82/3/2 84/3/2
f 85/1/2 86/1/2 88/1/2
f 88/1/2 86/1/2 89/1/2
f 87/3/2 88/3/2 91/3/2
f 91/3/2 88/3/2 92/3/2
f 89/3/2 90/3/2 93/3/2
f 93/3/2 90/3/2 94/3/2
f 95/3/2 96/3/2 97/3/2
f 97/3/2 96/3/2 98/3/2
f 101/1/2 102/1/2 103/1/2
f 103/1/2 102/1/2 104/1/2
f 99/1/2 100/1/2 105/1/2
f 105/1/2 100/1/2 106/1/2
f 107/1/2 108/1/2 109/1/2
f 109/1/2 108/1/2 110/1/2
f 111/1/2 112/1/2 114/1/2
f 114/1/2 112/1/2 115/1/2
f 113/3/2 114/3/2 117/3/2
f 117/3/2 114/3/2 118/3/2
f 115/3/2 116/3/2 119/3/2
f 119/3/2 116/3/2 120/3/2
f 121/3/2 122/3/2 123/3/2
f 123/3/2 122/3/2 124/3/2
f 127/3/3 126/3/3 125/3/3
f 128/3/3 126/3/3 127/3/3
f 132/3/3 130/3/3 129/3/3
f 133/3/3 130/3/3 132/3/3
f 134/1/3 132/1/3 131/1/3
f 135/1/3 132/1/3 134/1/3
f 137/3/3 136/3/3 135/3/3
f 138/3/3 136/3/3 137/3/3
f 141/1/3 140/1/3 139/1/3
f 142/1/3 140/1/3 141/1/3
f 145/3/3 144/3/3 143/3/3
f 146/3/3 144/3/3 145/3/3
f 149/1/3 148/1/3 147/1/3
f 150/1/3 148/1/3 149/1/3
f 154/3/3 152/3/3 151/3/3
f 155/3/3 152/3/3 154/3/3
f 156/1/3 154/1/3 153/1/3
f 157/1/3 154/1/3 156/1/3
f 159/3/3 158/3/3 157/3/3
f 160/3/3 158/3/3 159/3/3
f 163/3/3 162/3/3 161/3/3
f 164/3/3 162/3/3 163/3/3
f 168/3/3 166/3/3 165/3/3
f 169/3/3 166/3/3 168/3/3
f 170/1/3 168/1/3 167/1/3
f 171/1/3 168/1/3 170/1/3
f 173/3/3 172/3/3 171/3/3
f 174/3/3 172/3/3 173/3/3
f 177/1/3 176/1/3 175/1/3
f 178/1/3 176/1/3 177/1/3
f 181/1/3 180/1/3 179/1/3
f 182/1/3 180/1/3 181/1/3
f 185/1/3 184/1/3 183/1/3
f 186/1/3 184/1/3 185/1/3
f 187/3/4 188/3/4 190/3/4
f 190/3/4 188/3/4 191/3/4
f 189/1/4 190/1/4 192/1/4
f 192/1/4 190/1/4 193/1/4
f 193/3/4 194/3/4 195/3/4
f 195/3/4 194/3/4 196/3/4
f 197/3/4 198/3/4 199/3/4
f 199/3/4 198/3/4 200/3/4
f 201/1/4 202/1/4 203/1/4
f 203/1/4 202/1/4 204/1/4
f 205/1/4 206/1/4 207/1/4
f 207/1/4 206/1/4 208/1/4
f 209/3/4 210/3/4 212/3/4
f 212/3/4 210/3/4 213/3/4
f 211/1/4 212/1/4 214/1/4
f 214/1/4 212/1/4 215/1/4
f 215/3/4 216/3/4 217/3/4
f 217/3/4 216/3/4 218/3/4
f 219/3/4 220/3/4 221/3/4
f 221/3/4 220/3/4 222/3/4
f 223/3/4 224/3/4 226/3/4
f 226/3/4 224/3/4 227/3/4
f 225/1/4 226/1/4 228/1/4
f 228/1/4 226/1/4 229/1/4
f 229/3/4 230/3/4 231/3/4
f 231/3/4 230/3/4 232/3/4
f 233/1/4 234/1/4 235/1/4
f 235/1/4 234/1/4 236/1/4
f 237/1/4 238/1/4 239/1/4
f 239/1/4 238/1/4 240/1/4
f 241/3/4 242/3/4 243/3/4
f 243/3/4 242/3/4 244/3/4
f 245/1/4 246/1/4 247/1/4
f 247/1/4 246/1/4 248/1/4
f 251/1/5 250/1/5 249/1/5
f 252/1/5 250/1/5 251/1/5
f 257/1/5 254/1/5 253/1/5
f 258/1/5 254/1/5 257/1/5
f 261/1/5 256/1/5 255/1/5
f 262/1/5 256/1/5 261/1/5
f 263/1/5 260/1/5 259/1/5
f 264/1/5 260/1/5 263/1/5
f 271/1/5 266/1/5 265/1/5
f 272/1/5 266/1/5 271/1/5
f 273/1/5 268/1/5 267/1/5
f 274/1/5 268/1/5 273/1/5
f 275/1/5 270/1/5 269/1/5
f 276/1/5 270/1/5 275/1/5
f 279/1/5 278/1/5 277/1/5
f 280/1/5 278/1/5 279/1/5
f 284/3/5 282/3/5 281/3/5
f 285/3/5 282/3/5 284/3/5
f 287/3/5 284/3/5 283/3/5
f 288/3/5 284/3/5 287/3/5
f 289/3/5 286/3/5 285/3/5
f 290/3/5 286/3/5 289/3/5
f 291/3/5 289/3/5 288/3/5
f 292/3/5 289/3/5 291/3/5
f 296/3/5 294/3/5 293/3/5
f 297/3/5 294/3/5 296/3/5
f 299/3/5 296/3/5 295/3/5
f 300/3/5 296/3/5 299/3/5
f 301/3/5 298/3/5 297/3/5
f 302/3/5 298/3/5 301/3/5
f 303/3/5 301/3/5 300/3/5
f 304/3/5 301/3/5 303/3/5
f 308/3/5 306/3/5 305/3/5
f 309/3/5 306/3/5 308/3/5
f 311/3/5 308/3/5 307/3/5
f 312/3/5 308/3/5 311/3/5
f 313/3/5 310/3/5 309/3/5
f 314/3/5 310/3/5 313/3/5
f 315/3/5 313/3/5 312/3/5
f 316/3/5 313/3/5 315/3/5
f 317/3/6 318/3/6 322/3/6
f 322/3/6 318/3/6 323/3/6
f 319/1/6 320/1/6 325/1/6
f 325/1/6 320/1/6 326/1/6
f 321/3/6 322/3/6 327/3/6
f 322/2/6 323/2/6 328/2/6
f 327/3/6 322/3/6 328/3/6
f 323/3/6 324/3/6 329/3/6
f 328/2/6 323/2/6 329/2/6
f 329/3/6 324/3/6 330/3/6
f 328/3/6 329/3/6 331/3/6
f 331/3/6 329/3/6 332/3/6
f 333/1/6 334/1/6 335/1/6
f 335/1/6 334/1/6 336/1/6
f 337/1/6 338/1/6 339/1/6
f 339/1/6 338/1/6 340/1/6
f 341/1/6 342/1/6 343/1/6
f 343/1/6 342/1/6 344/1/6
f 345/3/6 346/3/6 348/3/6
f 348/3/6 346/3/6 349/3/6
f 347/3/6 348/3/6 351/3/6
f 348/2/6 349/2/6 352/2/6
f 351/3/6 348/3/6 352/3/6
f 349/3/6 350/3/6 353/3/6
f 352/2/6 349/2/6 353/2/6
f 353/3/6 350/3/6 354/3/6
f 352/3/6 353/3/6 355/3/6
f 355/3/6 353/3/6 356/3/6
f 357/3/6 358/3/6 360/3/6
f 360/3/6 358/3/6 361/3/6
f 359/3/6 360/3/6 365/3/6
f 360/2/6 361/2/6 366/2/6
f 365/3/6 360/3/6 366/3/6
f 361/3/6 362/3/6 367/3/6
f 366/2/6 361/2/6 367/2/6
f 367/3/6 362/3/6 368/3/6
f 363/1/6 364/1/6 369/1/6
f 369/1/6 364/1/6 370/1/6
f 366/3/6 367/3/6 371/3/6
f 371/3/6 367/3/6 372/3/6
