# MagicaVoxel @ Ephtracy

# group
o 

# material
mtllib demon-0.mtl
usemtl palette

# normals
vn -1 0 0
vn 1 0 0
vn 0 0 1
vn 0 0 -1
vn 0 -1 0
vn 0 1 0

# texcoords
vt 0.970703 0.5
vt 0.974609 0.5
vt 0.978516 0.5
vt 0.990234 0.5

# verts
v -0.1 0.6 -0.2
v -0.1 0.6 -0.3
v -0.1 0.6 -0.4
v -0.1 0.6 -0.5
v -0.1 0.6 -0.6
v -0.1 0.7 -0.2
v -0.1 0.7 -0.3
v -0.1 0.7 -0.4
v -0.1 0.7 -0.5
v -0.1 0.7 -0.6
v 0 0.6 -0.2
v 0 0.6 -0.3
v 0 0.6 -0.4
v 0 0.6 -0.5
v 0 0.6 -0.6
v 0 0.7 -0.2
v 0 0.7 -0.3
v 0 0.7 -0.4
v 0 0.7 -0.5
v 0 0.7 -0.6
v -0.1 0.6 -0.2
v -0.1 0.7 -0.2
v 0 0.6 -0.2
v 0 0.7 -0.2
v -0.1 0.6 -0.6
v -0.1 0.7 -0.6
v 0 0.6 -0.6
v 0 0.7 -0.6
v -0.1 0.6 -0.2
v 0 0.6 -0.2
v -0.1 0.6 -0.3
v 0 0.6 -0.3
v -0.1 0.6 -0.4
v 0 0.6 -0.4
v -0.1 0.6 -0.5
v 0 0.6 -0.5
v -0.1 0.6 -0.6
v 0 0.6 -0.6
v -0.1 0.7 -0.2
v 0 0.7 -0.2
v -0.1 0.7 -0.3
v 0 0.7 -0.3
v -0.1 0.7 -0.4
v 0 0.7 -0.4
v -0.1 0.7 -0.5
v 0 0.7 -0.5
v -0.1 0.7 -0.6
v 0 0.7 -0.6

# faces
f 6/4/1 2/4/1 1/4/1
f 7/2/1 3/2/1 2/2/1
f 7/4/1 2/4/1 6/4/1
f 8/1/1 4/1/1 3/1/1
f 8/2/1 3/2/1 7/2/1
f 9/3/1 5/3/1 4/3/1
f 9/1/1 4/1/1 8/1/1
f 10/3/1 5/3/1 9/3/1
f 11/4/2 12/4/2 16/4/2
f 12/2/2 13/2/2 17/2/2
f 16/4/2 12/4/2 17/4/2
f 13/1/2 14/1/2 18/1/2
f 17/2/2 13/2/2 18/2/2
f 14/3/2 15/3/2 19/3/2
f 18/1/2 14/1/2 19/1/2
f 19/3/2 15/3/2 20/3/2
f 23/4/3 22/4/3 21/4/3
f 24/4/3 22/4/3 23/4/3
f 25/3/4 26/3/4 27/3/4
f 27/3/4 26/3/4 28/3/4
f 31/4/5 30/4/5 29/4/5
f 32/4/5 30/4/5 31/4/5
f 33/2/5 32/2/5 31/2/5
f 34/2/5 32/2/5 33/2/5
f 35/1/5 34/1/5 33/1/5
f 36/1/5 34/1/5 35/1/5
f 37/3/5 36/3/5 35/3/5
f 38/3/5 36/3/5 37/3/5
f 39/4/6 40/4/6 41/4/6
f 41/4/6 40/4/6 42/4/6
f 41/2/6 42/2/6 43/2/6
f 43/2/6 42/2/6 44/2/6
f 43/1/6 44/1/6 45/1/6
f 45/1/6 44/1/6 46/1/6
f 45/3/6 46/3/6 47/3/6
f 47/3/6 46/3/6 48/3/6
