# MagicaVoxel @ Ephtracy

# group
o 

# material
mtllib demon-3.mtl
usemtl palette

# normals
vn -1 0 0
vn 1 0 0
vn 0 0 1
vn 0 0 -1
vn 0 -1 0
vn 0 1 0

# texcoords
vt 0.970703 0.5
vt 0.974609 0.5
vt 0.978516 0.5
vt 0.990234 0.5

# verts
v -0.2 0.4 0.2
v -0.2 0.4 0.1
v -0.2 0.4 -0.1
v -0.2 0.4 -0.2
v -0.2 0.5 0.2
v -0.2 0.5 0.1
v -0.2 0.5 -0.1
v -0.2 0.5 -0.2
v -0.2 0.6 0.2
v -0.2 0.6 0.1
v -0.2 0.6 -0.1
v -0.2 0.6 -0.2
v -0.2 0.7 0.2
v -0.2 0.7 0.1
v -0.2 0.7 -0.1
v -0.2 0.7 -0.2
v 0.1 0.4 0.2
v 0.1 0.4 0.1
v 0.1 0.4 -0.1
v 0.1 0.4 -0.2
v 0.1 0.5 0.2
v 0.1 0.5 0.1
v 0.1 0.5 -0.1
v 0.1 0.5 -0.2
v 0.1 0.6 0.2
v 0.1 0.6 0.1
v 0.1 0.6 -0.1
v 0.1 0.6 -0.2
v 0.1 0.7 0.2
v 0.1 0.7 0.1
v 0.1 0.7 -0.1
v 0.1 0.7 -0.2
v -0.2 0.4 0.2
v -0.2 0.5 0.2
v -0.2 0.6 0.2
v -0.2 0.7 0.2
v -0.1 0.4 0.2
v -0.1 0.5 0.2
v -0.1 0.6 0.2
v 0 0.4 0.2
v 0 0.5 0.2
v 0 0.6 0.2
v 0.1 0.4 0.2
v 0.1 0.5 0.2
v 0.1 0.6 0.2
v 0.1 0.7 0.2
v -0.2 0.4 -0.2
v -0.2 0.5 -0.2
v -0.2 0.6 -0.2
v -0.2 0.7 -0.2
v -0.1 0.4 -0.2
v -0.1 0.5 -0.2
v -0.1 0.6 -0.2
v 0 0.4 -0.2
v 0 0.5 -0.2
v 0 0.6 -0.2
v 0.1 0.4 -0.2
v 0.1 0.5 -0.2
v 0.1 0.6 -0.2
v 0.1 0.7 -0.2
v -0.2 0.4 0.2
v -0.1 0.4 0.2
v 0 0.4 0.2
v 0.1 0.4 0.2
v -0.2 0.4 0.1
v -0.1 0.4 0.1
v 0 0.4 0.1
v 0.1 0.4 0.1
v -0.2 0.4 -0.1
v -0.1 0.4 -0.1
v 0 0.4 -0.1
v 0.1 0.4 -0.1
v -0.2 0.4 -0.2
v -0.1 0.4 -0.2
v 0 0.4 -0.2
v 0.1 0.4 -0.2
v -0.2 0.7 0.2
v 0.1 0.7 0.2
v -0.2 0.7 0.1
v -0.1 0.7 0.1
v 0 0.7 0.1
v 0.1 0.7 0.1
v -0.2 0.7 -0.1
v -0.1 0.7 -0.1
v 0 0.7 -0.1
v 0.1 0.7 -0.1
v -0.2 0.7 -0.2
v 0.1 0.7 -0.2

# faces
f 5/2/1 2/2/1 1/2/1
f 6/1/1 3/1/1 2/1/1
f 6/2/1 2/2/1 5/2/1
f 7/2/1 4/2/1 3/2/1
f 7/1/1 3/1/1 6/1/1
f 8/2/1 4/2/1 7/2/1
f 9/3/1 6/3/1 5/3/1
f 10/1/1 7/1/1 6/1/1
f 10/3/1 6/3/1 9/3/1
f 11/3/1 8/3/1 7/3/1
f 11/1/1 7/1/1 10/1/1
f 12/3/1 8/3/1 11/3/1
f 13/4/1 10/4/1 9/4/1
f 14/2/1 11/2/1 10/2/1
f 14/4/1 10/4/1 13/4/1
f 15/4/1 12/4/1 11/4/1
f 15/2/1 11/2/1 14/2/1
f 16/4/1 12/4/1 15/4/1
f 17/2/2 18/2/2 21/2/2
f 18/3/2 19/3/2 22/3/2
f 21/2/2 18/2/2 22/2/2
f 19/2/2 20/2/2 23/2/2
f 22/3/2 19/3/2 23/3/2
f 23/2/2 20/2/2 24/2/2
f 21/1/2 22/1/2 25/1/2
f 22/1/2 23/1/2 25/1/2
f 23/1/2 24/1/2 25/1/2
f 25/1/2 24/1/2 26/1/2
f 26/1/2 24/1/2 27/1/2
f 27/1/2 24/1/2 28/1/2
f 25/4/2 26/4/2 29/4/2
f 26/2/2 27/2/2 30/2/2
f 29/4/2 26/4/2 30/4/2
f 27/4/2 28/4/2 31/4/2
f 30/2/2 27/2/2 31/2/2
f 31/4/2 28/4/2 32/4/2
f 37/2/3 34/2/3 33/2/3
f 38/3/3 35/3/3 34/3/3
f 38/2/3 34/2/3 37/2/3
f 39/4/3 36/4/3 35/4/3
f 39/3/3 35/3/3 38/3/3
f 40/4/3 38/4/3 37/4/3
f 40/4/3 39/4/3 38/4/3
f 41/4/3 39/4/3 40/4/3
f 42/4/3 36/4/3 39/4/3
f 42/4/3 39/4/3 41/4/3
f 43/2/3 41/2/3 40/2/3
f 44/1/3 42/1/3 41/1/3
f 44/2/3 41/2/3 43/2/3
f 45/4/3 36/4/3 42/4/3
f 45/1/3 42/1/3 44/1/3
f 46/4/3 36/4/3 45/4/3
f 47/2/4 48/2/4 51/2/4
f 48/3/4 49/3/4 52/3/4
f 51/2/4 48/2/4 52/2/4
f 49/4/4 50/4/4 53/4/4
f 52/3/4 49/3/4 53/3/4
f 51/4/4 52/4/4 54/4/4
f 52/4/4 53/4/4 54/4/4
f 54/4/4 53/4/4 55/4/4
f 53/4/4 50/4/4 56/4/4
f 55/4/4 53/4/4 56/4/4
f 54/2/4 55/2/4 57/2/4
f 55/1/4 56/1/4 58/1/4
f 57/2/4 55/2/4 58/2/4
f 56/4/4 50/4/4 59/4/4
f 58/1/4 56/1/4 59/1/4
f 59/4/4 50/4/4 60/4/4
f 65/2/5 62/2/5 61/2/5
f 66/4/5 63/4/5 62/4/5
f 66/2/5 62/2/5 65/2/5
f 67/2/5 64/2/5 63/2/5
f 67/4/5 63/4/5 66/4/5
f 68/2/5 64/2/5 67/2/5
f 69/1/5 66/1/5 65/1/5
f 69/1/5 67/1/5 66/1/5
f 70/1/5 67/1/5 69/1/5
f 71/3/5 68/3/5 67/3/5
f 71/1/5 67/1/5 70/1/5
f 72/3/5 68/3/5 71/3/5
f 73/2/5 70/2/5 69/2/5
f 74/4/5 71/4/5 70/4/5
f 74/2/5 70/2/5 73/2/5
f 75/2/5 72/2/5 71/2/5
f 75/4/5 71/4/5 74/4/5
f 76/2/5 72/2/5 75/2/5
f 77/4/6 78/4/6 79/4/6
f 79/4/6 78/4/6 80/4/6
f 80/4/6 78/4/6 81/4/6
f 81/4/6 78/4/6 82/4/6
f 79/2/6 80/2/6 83/2/6
f 80/1/6 81/1/6 84/1/6
f 83/2/6 80/2/6 84/2/6
f 81/2/6 82/2/6 85/2/6
f 84/1/6 81/1/6 85/1/6
f 85/2/6 82/2/6 86/2/6
f 83/4/6 84/4/6 87/4/6
f 84/4/6 85/4/6 87/4/6
f 85/4/6 86/4/6 87/4/6
f 87/4/6 86/4/6 88/4/6
