# MagicaVoxel @ Ephtracy

# group
o 

# material
mtllib player_skin_cathead-2.mtl
usemtl palette

# normals
vn -1 0 0
vn 1 0 0
vn 0 0 1
vn 0 0 -1
vn 0 -1 0
vn 0 1 0

# texcoords
vt 0.970703 0.5
vt 0.978516 0.5

# verts
v -0.2 0.3 0.2
v -0.2 0.3 0
v -0.2 0.3 -0.2
v -0.2 0.4 0.2
v -0.2 0.4 0
v -0.2 0.4 -0.2
v 0.1 0.3 0.2
v 0.1 0.3 0.1
v 0.1 0.3 -0.1
v 0.1 0.3 -0.2
v 0.1 0.4 0.2
v 0.1 0.4 0.1
v 0.1 0.4 -0.1
v 0.1 0.4 -0.2
v -0.2 0.3 0.2
v -0.2 0.4 0.2
v -0.1 0.3 0.2
v -0.1 0.4 0.2
v 0.1 0.3 0.2
v 0.1 0.4 0.2
v -0.2 0.3 -0.2
v -0.2 0.4 -0.2
v 0.1 0.3 -0.2
v 0.1 0.4 -0.2
v -0.2 0.3 0.2
v -0.1 0.3 0.2
v 0.1 0.3 0.2
v 0 0.3 0.1
v 0.1 0.3 0.1
v -0.2 0.3 0
v -0.1 0.3 0
v 0 0.3 -0.1
v 0.1 0.3 -0.1
v -0.2 0.3 -0.2
v 0.1 0.3 -0.2
v -0.2 0.4 0.2
v -0.1 0.4 0.2
v 0.1 0.4 0.2
v 0 0.4 0.1
v 0.1 0.4 0.1
v -0.2 0.4 0
v -0.1 0.4 0
v 0 0.4 -0.1
v 0.1 0.4 -0.1
v -0.2 0.4 -0.2
v 0.1 0.4 -0.2

# faces
f 4/2/1 2/2/1 1/2/1
f 5/1/1 3/1/1 2/1/1
f 5/2/1 2/2/1 4/2/1
f 6/1/1 3/1/1 5/1/1
f 7/1/2 8/1/2 11/1/2
f 8/2/2 9/2/2 12/2/2
f 11/1/2 8/1/2 12/1/2
f 9/1/2 10/1/2 13/1/2
f 12/2/2 9/2/2 13/2/2
f 13/1/2 10/1/2 14/1/2
f 17/2/3 16/2/3 15/2/3
f 18/2/3 16/2/3 17/2/3
f 19/1/3 18/1/3 17/1/3
f 20/1/3 18/1/3 19/1/3
f 21/1/4 22/1/4 23/1/4
f 23/1/4 22/1/4 24/1/4
f 28/1/5 27/1/5 26/1/5
f 29/1/5 27/1/5 28/1/5
f 30/2/5 26/2/5 25/2/5
f 31/1/5 28/1/5 26/1/5
f 31/2/5 26/2/5 30/2/5
f 32/2/5 29/2/5 28/2/5
f 32/1/5 28/1/5 31/1/5
f 32/1/5 31/1/5 30/1/5
f 33/2/5 29/2/5 32/2/5
f 34/1/5 32/1/5 30/1/5
f 34/1/5 33/1/5 32/1/5
f 35/1/5 33/1/5 34/1/5
f 37/1/6 38/1/6 39/1/6
f 39/1/6 38/1/6 40/1/6
f 36/2/6 37/2/6 41/2/6
f 37/1/6 39/1/6 42/1/6
f 41/2/6 37/2/6 42/2/6
f 39/2/6 40/2/6 43/2/6
f 42/1/6 39/1/6 43/1/6
f 41/1/6 42/1/6 43/1/6
f 43/2/6 40/2/6 44/2/6
f 41/1/6 43/1/6 45/1/6
f 43/1/6 44/1/6 45/1/6
f 45/1/6 44/1/6 46/1/6
