# MagicaVoxel @ Ephtracy

# group
o 

# material
mtllib nature_map_winter-6.mtl
usemtl palette

# normals
vn -1 0 0
vn 1 0 0
vn 0 0 1
vn 0 0 -1
vn 0 -1 0
vn 0 1 0

# texcoords
vt 0.970703 0.5
vt 0.974609 0.5
vt 0.978516 0.5

# verts
v -0.5 0 0.3
v -0.5 0 0.2
v -0.5 0 0
v -0.5 0 -0.1
v -0.5 0 -0.2
v -0.5 0 -0.3
v -0.5 0.2 0.3
v -0.5 0.2 0.2
v -0.5 0.2 0
v -0.5 0.2 -0.1
v -0.5 0.6 -0.2
v -0.5 0.6 -0.3
v -0.4 0 0.5
v -0.4 0 0.4
v -0.4 0 -0.4
v -0.4 0 -0.5
v -0.4 0.2 -0.4
v -0.4 0.2 -0.5
v -0.4 0.3 0.2
v -0.4 0.3 0.1
v -0.4 0.4 0.2
v -0.4 0.4 0.1
v -0.4 0.6 0.5
v -0.4 0.6 0.4
v -0.3 0 0.2
v -0.3 0 0.1
v -0.3 0.1 0.4
v -0.3 0.1 0.3
v -0.3 0.2 0.4
v -0.3 0.2 0.3
v -0.3 0.3 0.3
v -0.3 0.3 0.2
v -0.3 0.3 0.1
v -0.3 0.3 0
v -0.3 0.4 0.3
v -0.3 0.4 0.2
v -0.3 0.4 0.1
v -0.3 0.4 0
v -0.3 0.5 -0.1
v -0.3 0.5 -0.2
v -0.3 0.6 -0.1
v -0.3 0.6 -0.2
v -0.2 0 0.4
v -0.2 0 0.3
v -0.2 0 0.1
v -0.2 0 0
v -0.2 0 -0.1
v -0.2 0 -0.2
v -0.2 0 -0.4
v -0.2 0 -0.5
v -0.2 0.1 0.5
v -0.2 0.1 0.4
v -0.2 0.1 0.3
v -0.2 0.1 0.2
v -0.2 0.2 0.5
v -0.2 0.2 0.4
v -0.2 0.2 0.3
v -0.2 0.2 0.2
v -0.2 0.2 0.1
v -0.2 0.2 0
v -0.2 0.2 -0.4
v -0.2 0.2 -0.5
v -0.2 0.5 0
v -0.2 0.5 -0.1
v -0.2 0.5 -0.2
v -0.2 0.5 -0.3
v -0.2 0.6 0
v -0.2 0.6 -0.1
v -0.2 0.6 -0.2
v -0.2 0.6 -0.3
v 0 0 0.3
v 0 0 0.2
v 0 0 -0.4
v 0 0 -0.5
v 0 0.1 0.3
v 0 0.1 0.1
v 0 0.1 0
v 0 0.2 0.3
v 0 0.2 0.1
v 0 0.2 0
v 0 0.4 -0.1
v 0 0.4 -0.2
v 0 0.4 -0.4
v 0 0.4 -0.5
v 0 0.5 0.3
v 0 0.5 0.2
v 0 0.5 -0.1
v 0 0.5 -0.2
v 0.1 0 0.1
v 0.1 0 0
v 0.1 0 -0.1
v 0.1 0 -0.2
v 0.1 0.1 0.2
v 0.1 0.1 0.1
v 0.1 0.1 0
v 0.1 0.1 -0.1
v 0.1 0.2 0.2
v 0.1 0.2 0.1
v 0.1 0.2 0
v 0.1 0.2 -0.1
v 0.1 0.4 0
v 0.1 0.4 -0.1
v 0.1 0.4 -0.2
v 0.1 0.4 -0.3
v 0.1 0.5 0
v 0.1 0.5 -0.1
v 0.1 0.5 -0.2
v 0.1 0.5 -0.3
v 0.2 0 0.5
v 0.2 0 0.4
v 0.2 0.1 -0.3
v 0.2 0.1 -0.4
v 0.2 0.2 0.5
v 0.2 0.2 0.4
v 0.2 0.2 -0.3
v 0.2 0.2 -0.4
v 0.3 0 0.2
v 0.3 0 0.1
v 0.3 0 -0.3
v 0.3 0 -0.4
v 0.3 0.1 0.1
v 0.3 0.1 -0.2
v 0.3 0.1 -0.3
v 0.3 0.1 -0.4
v 0.3 0.1 -0.5
v 0.3 0.2 0.1
v 0.3 0.2 -0.2
v 0.3 0.2 -0.3
v 0.3 0.2 -0.4
v 0.3 0.2 -0.5
v 0.3 0.4 0.2
v 0.3 0.4 0.1
v 0.4 0 0.4
v 0.4 0 0.3
v 0.4 0 0
v 0.4 0 -0.1
v 0.4 0.2 0.4
v 0.4 0.2 0.3
v 0.4 0.2 0
v 0.4 0.2 -0.1
v -0.4 0 0.3
v -0.4 0 0.2
v -0.4 0 0
v -0.4 0 -0.1
v -0.4 0 -0.2
v -0.4 0 -0.3
v -0.4 0.2 0.3
v -0.4 0.2 0.2
v -0.4 0.2 0
v -0.4 0.2 -0.1
v -0.4 0.6 -0.2
v -0.4 0.6 -0.3
v -0.3 0 0.5
v -0.3 0 0.4
v -0.3 0 -0.4
v -0.3 0 -0.5
v -0.3 0.1 0.4
v -0.3 0.2 0.4
v -0.3 0.2 -0.4
v -0.3 0.2 -0.5
v -0.3 0.6 0.5
v -0.3 0.6 0.4
v -0.2 0 0.2
v -0.2 0 0.1
v -0.2 0.1 0.2
v -0.2 0.2 0.2
v -0.2 0.2 0.1
v -0.2 0.3 0.3
v -0.2 0.3 0.2
v -0.2 0.3 0.1
v -0.2 0.3 0
v -0.2 0.4 0.3
v -0.2 0.4 0.2
v -0.2 0.4 0.1
v -0.2 0.4 0
v -0.1 0 0.4
v -0.1 0 0.3
v -0.1 0 0.1
v -0.1 0 0
v -0.1 0 -0.1
v -0.1 0 -0.2
v -0.1 0 -0.4
v -0.1 0 -0.5
v -0.1 0.1 0.5
v -0.1 0.1 0.4
v -0.1 0.1 0.3
v -0.1 0.1 0.2
v -0.1 0.2 0.5
v -0.1 0.2 0.4
v -0.1 0.2 0.3
v -0.1 0.2 0.2
v -0.1 0.2 0.1
v -0.1 0.2 0
v -0.1 0.2 -0.4
v -0.1 0.2 -0.5
v -0.1 0.3 0.2
v -0.1 0.3 0.1
v -0.1 0.4 0.2
v -0.1 0.4 0.1
v -0.1 0.5 0
v -0.1 0.5 -0.1
v -0.1 0.5 -0.2
v -0.1 0.5 -0.3
v -0.1 0.6 0
v -0.1 0.6 -0.1
v -0.1 0.6 -0.2
v -0.1 0.6 -0.3
v 0 0.1 0.4
v 0 0.1 0.3
v 0 0.2 0.4
v 0 0.2 0.3
v 0 0.5 -0.1
v 0 0.5 -0.2
v 0 0.6 -0.1
v 0 0.6 -0.2
v 0.1 0 0.3
v 0.1 0 0.2
v 0.1 0 -0.4
v 0.1 0 -0.5
v 0.1 0.1 0.2
v 0.1 0.2 0.2
v 0.1 0.4 -0.4
v 0.1 0.4 -0.5
v 0.1 0.5 0.3
v 0.1 0.5 0.2
v 0.2 0 0.1
v 0.2 0 0
v 0.2 0 -0.1
v 0.2 0 -0.2
v 0.2 0.1 0.2
v 0.2 0.1 0.1
v 0.2 0.1 0
v 0.2 0.1 -0.1
v 0.2 0.2 0.2
v 0.2 0.2 0.1
v 0.2 0.2 0
v 0.2 0.2 -0.1
v 0.2 0.4 0
v 0.2 0.4 -0.1
v 0.2 0.4 -0.2
v 0.2 0.4 -0.3
v 0.2 0.5 0
v 0.2 0.5 -0.1
v 0.2 0.5 -0.2
v 0.2 0.5 -0.3
v 0.3 0 0.5
v 0.3 0 0.4
v 0.3 0.1 0.1
v 0.3 0.1 0
v 0.3 0.2 0.5
v 0.3 0.2 0.4
v 0.3 0.2 0.1
v 0.3 0.2 0
v 0.3 0.4 -0.1
v 0.3 0.4 -0.2
v 0.3 0.5 -0.1
v 0.3 0.5 -0.2
v 0.4 0 0.2
v 0.4 0 0.1
v 0.4 0 -0.3
v 0.4 0 -0.4
v 0.4 0.1 -0.2
v 0.4 0.1 -0.3
v 0.4 0.1 -0.4
v 0.4 0.1 -0.5
v 0.4 0.2 -0.2
v 0.4 0.2 -0.3
v 0.4 0.2 -0.4
v 0.4 0.2 -0.5
v 0.4 0.4 0.2
v 0.4 0.4 0.1
v 0.5 0 0.4
v 0.5 0 0.3
v 0.5 0 0
v 0.5 0 -0.1
v 0.5 0.1 -0.3
v 0.5 0.1 -0.4
v 0.5 0.2 0.4
v 0.5 0.2 0.3
v 0.5 0.2 0
v 0.5 0.2 -0.1
v 0.5 0.2 -0.3
v 0.5 0.2 -0.4
v -0.4 0 0.5
v -0.4 0.6 0.5
v -0.3 0 0.5
v -0.3 0.6 0.5
v -0.2 0.1 0.5
v -0.2 0.2 0.5
v -0.1 0.1 0.5
v -0.1 0.2 0.5
v 0.2 0 0.5
v 0.2 0.2 0.5
v 0.3 0 0.5
v 0.3 0.2 0.5
v -0.3 0.1 0.4
v -0.3 0.2 0.4
v -0.2 0 0.4
v -0.2 0.1 0.4
v -0.2 0.2 0.4
v -0.1 0 0.4
v -0.1 0.1 0.4
v -0.1 0.2 0.4
v 0 0.1 0.4
v 0 0.2 0.4
v 0.4 0 0.4
v 0.4 0.2 0.4
v 0.5 0 0.4
v 0.5 0.2 0.4
v -0.5 0 0.3
v -0.5 0.2 0.3
v -0.4 0 0.3
v -0.4 0.2 0.3
v -0.3 0.3 0.3
v -0.3 0.4 0.3
v -0.2 0.3 0.3
v -0.2 0.4 0.3
v 0 0 0.3
v 0 0.1 0.3
v 0 0.2 0.3
v 0 0.5 0.3
v 0.1 0 0.3
v 0.1 0.5 0.3
v -0.4 0.3 0.2
v -0.4 0.4 0.2
v -0.3 0 0.2
v -0.3 0.3 0.2
v -0.3 0.4 0.2
v -0.2 0 0.2
v -0.2 0.1 0.2
v -0.2 0.2 0.2
v -0.2 0.3 0.2
v -0.2 0.4 0.2
v -0.1 0.3 0.2
v -0.1 0.4 0.2
v 0.1 0.1 0.2
v 0.1 0.2 0.2
v 0.2 0.1 0.2
v 0.2 0.2 0.2
v 0.3 0 0.2
v 0.3 0.4 0.2
v 0.4 0 0.2
v 0.4 0.4 0.2
v -0.2 0 0.1
v -0.2 0.2 0.1
v -0.1 0 0.1
v -0.1 0.2 0.1
v 0 0.1 0.1
v 0 0.2 0.1
v 0.1 0 0.1
v 0.1 0.1 0.1
v 0.1 0.2 0.1
v 0.2 0 0.1
v 0.2 0.1 0.1
v 0.2 0.2 0.1
v 0.3 0.1 0.1
v 0.3 0.2 0.1
v -0.5 0 0
v -0.5 0.2 0
v -0.4 0 0
v -0.4 0.2 0
v -0.2 0.5 0
v -0.2 0.6 0
v -0.1 0.5 0
v -0.1 0.6 0
v 0.1 0.4 0
v 0.1 0.5 0
v 0.2 0.4 0
v 0.2 0.5 0
v 0.4 0 0
v 0.4 0.2 0
v 0.5 0 0
v 0.5 0.2 0
v -0.3 0.5 -0.1
v -0.3 0.6 -0.1
v -0.2 0 -0.1
v -0.2 0.5 -0.1
v -0.2 0.6 -0.1
v -0.1 0 -0.1
v -0.1 0.5 -0.1
v -0.1 0.6 -0.1
v 0 0.4 -0.1
v 0 0.5 -0.1
v 0 0.6 -0.1
v 0.1 0 -0.1
v 0.1 0.1 -0.1
v 0.1 0.2 -0.1
v 0.1 0.4 -0.1
v 0.1 0.5 -0.1
v 0.2 0 -0.1
v 0.2 0.1 -0.1
v 0.2 0.2 -0.1
v 0.2 0.4 -0.1
v 0.2 0.5 -0.1
v 0.3 0.4 -0.1
v 0.3 0.5 -0.1
v -0.5 0 -0.2
v -0.5 0.6 -0.2
v -0.4 0 -0.2
v -0.4 0.6 -0.2
v 0.3 0.1 -0.2
v 0.3 0.2 -0.2
v 0.4 0.1 -0.2
v 0.4 0.2 -0.2
v 0.2 0.1 -0.3
v 0.2 0.2 -0.3
v 0.3 0 -0.3
v 0.3 0.1 -0.3
v 0.3 0.2 -0.3
v 0.4 0 -0.3
v 0.4 0.1 -0.3
v 0.4 0.2 -0.3
v 0.5 0.1 -0.3
v 0.5 0.2 -0.3
v -0.4 0 -0.4
v -0.4 0.2 -0.4
v -0.3 0 -0.4
v -0.3 0.2 -0.4
v -0.2 0 -0.4
v -0.2 0.2 -0.4
v -0.1 0 -0.4
v -0.1 0.2 -0.4
v 0 0 -0.4
v 0 0.4 -0.4
v 0.1 0 -0.4
v 0.1 0.4 -0.4
v -0.4 0 0.4
v -0.4 0.6 0.4
v -0.3 0 0.4
v -0.3 0.1 0.4
v -0.3 0.2 0.4
v -0.3 0.6 0.4
v 0.2 0 0.4
v 0.2 0.2 0.4
v 0.3 0 0.4
v 0.3 0.2 0.4
v -0.3 0.1 0.3
v -0.3 0.2 0.3
v -0.2 0 0.3
v -0.2 0.1 0.3
v -0.2 0.2 0.3
v -0.1 0 0.3
v -0.1 0.1 0.3
v -0.1 0.2 0.3
v 0 0.1 0.3
v 0 0.2 0.3
v 0.4 0 0.3
v 0.4 0.2 0.3
v 0.5 0 0.3
v 0.5 0.2 0.3
v -0.5 0 0.2
v -0.5 0.2 0.2
v -0.4 0 0.2
v -0.4 0.2 0.2
v -0.2 0.1 0.2
v -0.2 0.2 0.2
v -0.1 0.1 0.2
v -0.1 0.2 0.2
v 0 0 0.2
v 0 0.5 0.2
v 0.1 0 0.2
v 0.1 0.1 0.2
v 0.1 0.2 0.2
v 0.1 0.5 0.2
v -0.4 0.3 0.1
v -0.4 0.4 0.1
v -0.3 0 0.1
v -0.3 0.3 0.1
v -0.3 0.4 0.1
v -0.2 0 0.1
v -0.2 0.2 0.1
v -0.2 0.3 0.1
v -0.2 0.4 0.1
v -0.1 0.3 0.1
v -0.1 0.4 0.1
v 0.3 0 0.1
v 0.3 0.1 0.1
v 0.3 0.2 0.1
v 0.3 0.4 0.1
v 0.4 0 0.1
v 0.4 0.4 0.1
v -0.3 0.3 0
v -0.3 0.4 0
v -0.2 0 0
v -0.2 0.2 0
v -0.2 0.3 0
v -0.2 0.4 0
v -0.1 0 0
v -0.1 0.2 0
v 0 0.1 0
v 0 0.2 0
v 0.1 0 0
v 0.1 0.1 0
v 0.1 0.2 0
v 0.2 0 0
v 0.2 0.1 0
v 0.2 0.2 0
v 0.3 0.1 0
v 0.3 0.2 0
v -0.5 0 -0.1
v -0.5 0.2 -0.1
v -0.4 0 -0.1
v -0.4 0.2 -0.1
v 0.4 0 -0.1
v 0.4 0.2 -0.1
v 0.5 0 -0.1
v 0.5 0.2 -0.1
v -0.3 0.5 -0.2
v -0.3 0.6 -0.2
v -0.2 0 -0.2
v -0.2 0.5 -0.2
v -0.2 0.6 -0.2
v -0.1 0 -0.2
v -0.1 0.5 -0.2
v -0.1 0.6 -0.2
v 0 0.4 -0.2
v 0 0.5 -0.2
v 0 0.6 -0.2
v 0.1 0 -0.2
v 0.1 0.4 -0.2
v 0.1 0.5 -0.2
v 0.2 0 -0.2
v 0.2 0.4 -0.2
v 0.2 0.5 -0.2
v 0.3 0.4 -0.2
v 0.3 0.5 -0.2
v -0.5 0 -0.3
v -0.5 0.6 -0.3
v -0.4 0 -0.3
v -0.4 0.6 -0.3
v -0.2 0.5 -0.3
v -0.2 0.6 -0.3
v -0.1 0.5 -0.3
v -0.1 0.6 -0.3
v 0.1 0.4 -0.3
v 0.1 0.5 -0.3
v 0.2 0.4 -0.3
v 0.2 0.5 -0.3
v 0.2 0.1 -0.4
v 0.2 0.2 -0.4
v 0.3 0 -0.4
v 0.3 0.1 -0.4
v 0.3 0.2 -0.4
v 0.4 0 -0.4
v 0.4 0.1 -0.4
v 0.4 0.2 -0.4
v 0.5 0.1 -0.4
v 0.5 0.2 -0.4
v -0.4 0 -0.5
v -0.4 0.2 -0.5
v -0.3 0 -0.5
v -0.3 0.2 -0.5
v -0.2 0 -0.5
v -0.2 0.2 -0.5
v -0.1 0 -0.5
v -0.1 0.2 -0.5
v 0 0 -0.5
v 0 0.4 -0.5
v 0.1 0 -0.5
v 0.1 0.4 -0.5
v 0.3 0.1 -0.5
v 0.3 0.2 -0.5
v 0.4 0.1 -0.5
v 0.4 0.2 -0.5
v -0.4 0 0.5
v -0.3 0 0.5
v 0.2 0 0.5
v 0.3 0 0.5
v -0.4 0 0.4
v -0.3 0 0.4
v -0.2 0 0.4
v -0.1 0 0.4
v 0.2 0 0.4
v 0.3 0 0.4
v 0.4 0 0.4
v 0.5 0 0.4
v -0.5 0 0.3
v -0.4 0 0.3
v -0.2 0 0.3
v -0.1 0 0.3
v 0 0 0.3
v 0.1 0 0.3
v 0.4 0 0.3
v 0.5 0 0.3
v -0.5 0 0.2
v -0.4 0 0.2
v -0.3 0 0.2
v -0.2 0 0.2
v 0 0 0.2
v 0.1 0 0.2
v 0.3 0 0.2
v 0.4 0 0.2
v -0.3 0 0.1
v -0.2 0 0.1
v -0.1 0 0.1
v 0.1 0 0.1
v 0.2 0 0.1
v 0.3 0 0.1
v 0.4 0 0.1
v -0.5 0 0
v -0.4 0 0
v -0.2 0 0
v -0.1 0 0
v 0.1 0 0
v 0.2 0 0
v 0.4 0 0
v 0.5 0 0
v -0.5 0 -0.1
v -0.4 0 -0.1
v -0.2 0 -0.1
v -0.1 0 -0.1
v 0.1 0 -0.1
v 0.2 0 -0.1
v 0.4 0 -0.1
v 0.5 0 -0.1
v -0.5 0 -0.2
v -0.4 0 -0.2
v -0.2 0 -0.2
v -0.1 0 -0.2
v 0.1 0 -0.2
v 0.2 0 -0.2
v -0.5 0 -0.3
v -0.4 0 -0.3
v 0.3 0 -0.3
v 0.4 0 -0.3
v -0.4 0 -0.4
v -0.3 0 -0.4
v -0.2 0 -0.4
v -0.1 0 -0.4
v 0 0 -0.4
v 0.1 0 -0.4
v 0.3 0 -0.4
v 0.4 0 -0.4
v -0.4 0 -0.5
v -0.3 0 -0.5
v -0.2 0 -0.5
v -0.1 0 -0.5
v 0 0 -0.5
v 0.1 0 -0.5
v -0.2 0.1 0.5
v -0.1 0.1 0.5
v -0.3 0.1 0.4
v -0.2 0.1 0.4
v -0.1 0.1 0.4
v 0 0.1 0.4
v -0.3 0.1 0.3
v -0.2 0.1 0.3
v -0.1 0.1 0.3
v 0 0.1 0.3
v -0.2 0.1 0.2
v -0.1 0.1 0.2
v 0.1 0.1 0.2
v 0.2 0.1 0.2
v 0 0.1 0.1
v 0.1 0.1 0.1
v 0.2 0.1 0.1
v 0.3 0.1 0.1
v 0 0.1 0
v 0.1 0.1 0
v 0.2 0.1 0
v 0.3 0.1 0
v 0.1 0.1 -0.1
v 0.2 0.1 -0.1
v 0.3 0.1 -0.2
v 0.4 0.1 -0.2
v 0.2 0.1 -0.3
v 0.3 0.1 -0.3
v 0.4 0.1 -0.3
v 0.5 0.1 -0.3
v 0.2 0.1 -0.4
v 0.3 0.1 -0.4
v 0.4 0.1 -0.4
v 0.5 0.1 -0.4
v 0.3 0.1 -0.5
v 0.4 0.1 -0.5
v -0.3 0.3 0.3
v -0.2 0.3 0.3
v -0.4 0.3 0.2
v -0.3 0.3 0.2
v -0.2 0.3 0.2
v -0.1 0.3 0.2
v -0.4 0.3 0.1
v -0.3 0.3 0.1
v -0.2 0.3 0.1
v -0.1 0.3 0.1
v -0.3 0.3 0
v -0.2 0.3 0
v 0.1 0.4 0
v 0.2 0.4 0
v 0 0.4 -0.1
v 0.1 0.4 -0.1
v 0.2 0.4 -0.1
v 0.3 0.4 -0.1
v 0 0.4 -0.2
v 0.1 0.4 -0.2
v 0.2 0.4 -0.2
v 0.3 0.4 -0.2
v 0.1 0.4 -0.3
v 0.2 0.4 -0.3
v -0.2 0.5 0
v -0.1 0.5 0
v -0.3 0.5 -0.1
v -0.2 0.5 -0.1
v -0.1 0.5 -0.1
v 0 0.5 -0.1
v -0.3 0.5 -0.2
v -0.2 0.5 -0.2
v -0.1 0.5 -0.2
v 0 0.5 -0.2
v -0.2 0.5 -0.3
v -0.1 0.5 -0.3
v -0.2 0.2 0.5
v -0.1 0.2 0.5
v 0.2 0.2 0.5
v 0.3 0.2 0.5
v -0.3 0.2 0.4
v -0.2 0.2 0.4
v -0.1 0.2 0.4
v 0 0.2 0.4
v 0.2 0.2 0.4
v 0.3 0.2 0.4
v 0.4 0.2 0.4
v 0.5 0.2 0.4
v -0.5 0.2 0.3
v -0.4 0.2 0.3
v -0.3 0.2 0.3
v -0.2 0.2 0.3
v -0.1 0.2 0.3
v 0 0.2 0.3
v 0.4 0.2 0.3
v 0.5 0.2 0.3
v -0.5 0.2 0.2
v -0.4 0.2 0.2
v -0.2 0.2 0.2
v -0.1 0.2 0.2
v 0.1 0.2 0.2
v 0.2 0.2 0.2
v -0.2 0.2 0.1
v -0.1 0.2 0.1
v 0 0.2 0.1
v 0.1 0.2 0.1
v 0.2 0.2 0.1
v 0.3 0.2 0.1
v -0.5 0.2 0
v -0.4 0.2 0
v -0.2 0.2 0
v -0.1 0.2 0
v 0 0.2 0
v 0.1 0.2 0
v 0.2 0.2 0
v 0.3 0.2 0
v 0.4 0.2 0
v 0.5 0.2 0
v -0.5 0.2 -0.1
v -0.4 0.2 -0.1
v 0.1 0.2 -0.1
v 0.2 0.2 -0.1
v 0.4 0.2 -0.1
v 0.5 0.2 -0.1
v 0.3 0.2 -0.2
v 0.4 0.2 -0.2
v 0.2 0.2 -0.3
v 0.3 0.2 -0.3
v 0.4 0.2 -0.3
v 0.5 0.2 -0.3
v -0.4 0.2 -0.4
v -0.3 0.2 -0.4
v -0.2 0.2 -0.4
v -0.1 0.2 -0.4
v 0.2 0.2 -0.4
v 0.3 0.2 -0.4
v 0.4 0.2 -0.4
v 0.5 0.2 -0.4
v -0.4 0.2 -0.5
v -0.3 0.2 -0.5
v -0.2 0.2 -0.5
v -0.1 0.2 -0.5
v 0.3 0.2 -0.5
v 0.4 0.2 -0.5
v -0.3 0.4 0.3
v -0.2 0.4 0.3
v -0.4 0.4 0.2
v -0.3 0.4 0.2
v -0.2 0.4 0.2
v -0.1 0.4 0.2
v 0.3 0.4 0.2
v 0.4 0.4 0.2
v -0.4 0.4 0.1
v -0.3 0.4 0.1
v -0.2 0.4 0.1
v -0.1 0.4 0.1
v 0.3 0.4 0.1
v 0.4 0.4 0.1
v -0.3 0.4 0
v -0.2 0.4 0
v 0 0.4 -0.4
v 0.1 0.4 -0.4
v 0 0.4 -0.5
v 0.1 0.4 -0.5
v 0 0.5 0.3
v 0.1 0.5 0.3
v 0 0.5 0.2
v 0.1 0.5 0.2
v 0.1 0.5 0
v 0.2 0.5 0
v 0 0.5 -0.1
v 0.1 0.5 -0.1
v 0.2 0.5 -0.1
v 0.3 0.5 -0.1
v 0 0.5 -0.2
v 0.1 0.5 -0.2
v 0.2 0.5 -0.2
v 0.3 0.5 -0.2
v 0.1 0.5 -0.3
v 0.2 0.5 -0.3
v -0.4 0.6 0.5
v -0.3 0.6 0.5
v -0.4 0.6 0.4
v -0.3 0.6 0.4
v -0.2 0.6 0
v -0.1 0.6 0
v -0.3 0.6 -0.1
v -0.2 0.6 -0.1
v -0.1 0.6 -0.1
v 0 0.6 -0.1
v -0.5 0.6 -0.2
v -0.4 0.6 -0.2
v -0.3 0.6 -0.2
v -0.2 0.6 -0.2
v -0.1 0.6 -0.2
v 0 0.6 -0.2
v -0.5 0.6 -0.3
v -0.4 0.6 -0.3
v -0.2 0.6 -0.3
v -0.1 0.6 -0.3

# faces
f 7/1/1 2/1/1 1/1/1
f 8/1/1 2/1/1 7/1/1
f 9/1/1 4/1/1 3/1/1
f 10/1/1 4/1/1 9/1/1
f 11/1/1 6/1/1 5/1/1
f 12/1/1 6/1/1 11/1/1
f 17/1/1 16/1/1 15/1/1
f 18/1/1 16/1/1 17/1/1
f 21/3/1 20/3/1 19/3/1
f 22/3/1 20/3/1 21/3/1
f 23/1/1 14/1/1 13/1/1
f 24/1/1 14/1/1 23/1/1
f 29/3/1 28/3/1 27/3/1
f 30/3/1 28/3/1 29/3/1
f 32/1/1 26/1/1 25/1/1
f 33/1/1 26/1/1 32/1/1
f 35/3/1 32/3/1 31/3/1
f 36/3/1 32/3/1 35/3/1
f 37/3/1 34/3/1 33/3/1
f 38/3/1 34/3/1 37/3/1
f 41/3/1 40/3/1 39/3/1
f 42/3/1 40/3/1 41/3/1
f 52/1/1 44/1/1 43/1/1
f 53/1/1 44/1/1 52/1/1
f 55/3/1 52/3/1 51/3/1
f 56/3/1 52/3/1 55/3/1
f 57/3/1 54/3/1 53/3/1
f 58/3/1 54/3/1 57/3/1
f 59/1/1 46/1/1 45/1/1
f 60/1/1 46/1/1 59/1/1
f 61/1/1 50/1/1 49/1/1
f 62/1/1 50/1/1 61/1/1
f 64/1/1 48/1/1 47/1/1
f 65/1/1 48/1/1 64/1/1
f 67/3/1 64/3/1 63/3/1
f 68/3/1 64/3/1 67/3/1
f 69/3/1 66/3/1 65/3/1
f 70/3/1 66/3/1 69/3/1
f 75/1/1 72/1/1 71/1/1
f 78/1/1 72/1/1 75/1/1
f 79/3/1 77/3/1 76/3/1
f 80/3/1 77/3/1 79/3/1
f 83/1/1 74/1/1 73/1/1
f 84/1/1 74/1/1 83/1/1
f 85/1/1 72/1/1 78/1/1
f 86/1/1 72/1/1 85/1/1
f 87/3/1 82/3/1 81/3/1
f 88/3/1 82/3/1 87/3/1
f 94/1/1 90/1/1 89/1/1
f 95/1/1 90/1/1 94/1/1
f 96/1/1 92/1/1 91/1/1
f 97/3/1 94/3/1 93/3/1
f 98/3/1 94/3/1 97/3/1
f 99/3/1 96/3/1 95/3/1
f 100/1/1 92/1/1 96/1/1
f 100/3/1 96/3/1 99/3/1
f 102/1/1 92/1/1 100/1/1
f 103/1/1 92/1/1 102/1/1
f 105/3/1 102/3/1 101/3/1
f 106/3/1 102/3/1 105/3/1
f 107/3/1 104/3/1 103/3/1
f 108/3/1 104/3/1 107/3/1
f 113/1/1 110/1/1 109/1/1
f 114/1/1 110/1/1 113/1/1
f 115/3/1 112/3/1 111/3/1
f 116/3/1 112/3/1 115/3/1
f 121/1/1 118/1/1 117/1/1
f 123/1/1 120/1/1 119/1/1
f 124/1/1 120/1/1 123/1/1
f 126/1/1 121/1/1 117/1/1
f 127/3/1 123/3/1 122/3/1
f 128/3/1 123/3/1 127/3/1
f 129/3/1 125/3/1 124/3/1
f 130/3/1 125/3/1 129/3/1
f 131/1/1 126/1/1 117/1/1
f 132/1/1 126/1/1 131/1/1
f 137/1/1 134/1/1 133/1/1
f 138/1/1 134/1/1 137/1/1
f 139/1/1 136/1/1 135/1/1
f 140/1/1 136/1/1 139/1/1
f 141/1/2 142/1/2 147/1/2
f 147/1/2 142/1/2 148/1/2
f 143/1/2 144/1/2 149/1/2
f 149/1/2 144/1/2 150/1/2
f 145/1/2 146/1/2 151/1/2
f 151/1/2 146/1/2 152/1/2
f 153/1/2 154/1/2 157/1/2
f 153/1/2 157/1/2 158/1/2
f 155/1/2 156/1/2 159/1/2
f 159/1/2 156/1/2 160/1/2
f 153/1/2 158/1/2 161/1/2
f 161/1/2 158/1/2 162/1/2
f 163/1/2 164/1/2 165/1/2
f 165/1/2 164/1/2 166/1/2
f 166/1/2 164/1/2 167/1/2
f 166/1/2 167/1/2 169/1/2
f 169/1/2 167/1/2 170/1/2
f 168/3/2 169/3/2 172/3/2
f 172/3/2 169/3/2 173/3/2
f 170/3/2 171/3/2 174/3/2
f 174/3/2 171/3/2 175/3/2
f 176/1/2 177/1/2 185/1/2
f 185/1/2 177/1/2 186/1/2
f 184/3/2 185/3/2 188/3/2
f 188/3/2 185/3/2 189/3/2
f 186/3/2 187/3/2 190/3/2
f 190/3/2 187/3/2 191/3/2
f 178/1/2 179/1/2 192/1/2
f 192/1/2 179/1/2 193/1/2
f 182/1/2 183/1/2 194/1/2
f 194/1/2 183/1/2 195/1/2
f 196/3/2 197/3/2 198/3/2
f 198/3/2 197/3/2 199/3/2
f 180/1/2 181/1/2 201/1/2
f 201/1/2 181/1/2 202/1/2
f 200/3/2 201/3/2 204/3/2
f 204/3/2 201/3/2 205/3/2
f 202/3/2 203/3/2 206/3/2
f 206/3/2 203/3/2 207/3/2
f 208/3/2 209/3/2 210/3/2
f 210/3/2 209/3/2 211/3/2
f 212/3/2 213/3/2 214/3/2
f 214/3/2 213/3/2 215/3/2
f 216/1/2 217/1/2 220/1/2
f 216/1/2 220/1/2 221/1/2
f 218/1/2 219/1/2 222/1/2
f 222/1/2 219/1/2 223/1/2
f 216/1/2 221/1/2 224/1/2
f 224/1/2 221/1/2 225/1/2
f 226/1/2 227/1/2 231/1/2
f 231/1/2 227/1/2 232/1/2
f 228/1/2 229/1/2 233/1/2
f 230/3/2 231/3/2 234/3/2
f 234/3/2 231/3/2 235/3/2
f 232/3/2 233/3/2 236/3/2
f 233/1/2 229/1/2 237/1/2
f 236/3/2 233/3/2 237/3/2
f 237/1/2 229/1/2 239/1/2
f 239/1/2 229/1/2 240/1/2
f 238/3/2 239/3/2 242/3/2
f 242/3/2 239/3/2 243/3/2
f 240/3/2 241/3/2 244/3/2
f 244/3/2 241/3/2 245/3/2
f 246/1/2 247/1/2 250/1/2
f 250/1/2 247/1/2 251/1/2
f 248/3/2 249/3/2 252/3/2
f 252/3/2 249/3/2 253/3/2
f 254/3/2 255/3/2 256/3/2
f 256/3/2 255/3/2 257/3/2
f 260/1/2 261/1/2 263/1/2
f 263/1/2 261/1/2 264/1/2
f 262/3/2 263/3/2 266/3/2
f 266/3/2 263/3/2 267/3/2
f 264/3/2 265/3/2 268/3/2
f 268/3/2 265/3/2 269/3/2
f 258/1/2 259/1/2 270/1/2
f 270/1/2 259/1/2 271/1/2
f 272/1/2 273/1/2 278/1/2
f 278/1/2 273/1/2 279/1/2
f 274/1/2 275/1/2 280/1/2
f 280/1/2 275/1/2 281/1/2
f 276/3/2 277/3/2 282/3/2
f 282/3/2 277/3/2 283/3/2
f 286/1/3 285/1/3 284/1/3
f 287/1/3 285/1/3 286/1/3
f 290/3/3 289/3/3 288/3/3
f 291/3/3 289/3/3 290/3/3
f 294/1/3 293/1/3 292/1/3
f 295/1/3 293/1/3 294/1/3
f 299/3/3 297/3/3 296/3/3
f 300/3/3 297/3/3 299/3/3
f 301/1/3 299/1/3 298/1/3
f 302/1/3 299/1/3 301/1/3
f 304/3/3 303/3/3 302/3/3
f 305/3/3 303/3/3 304/3/3
f 308/1/3 307/1/3 306/1/3
f 309/1/3 307/1/3 308/1/3
f 312/1/3 311/1/3 310/1/3
f 313/1/3 311/1/3 312/1/3
f 316/3/3 315/3/3 314/3/3
f 317/3/3 315/3/3 316/3/3
f 322/1/3 320/1/3 319/1/3
f 322/1/3 321/1/3 320/1/3
f 322/1/3 319/1/3 318/1/3
f 323/1/3 321/1/3 322/1/3
f 327/3/3 325/3/3 324/3/3
f 328/3/3 325/3/3 327/3/3
f 329/1/3 327/1/3 326/1/3
f 330/1/3 327/1/3 329/1/3
f 331/1/3 327/1/3 330/1/3
f 332/1/3 327/1/3 331/1/3
f 334/3/3 333/3/3 332/3/3
f 335/3/3 333/3/3 334/3/3
f 338/3/3 337/3/3 336/3/3
f 339/3/3 337/3/3 338/3/3
f 342/1/3 341/1/3 340/1/3
f 343/1/3 341/1/3 342/1/3
f 346/1/3 345/1/3 344/1/3
f 347/1/3 345/1/3 346/1/3
f 351/3/3 349/3/3 348/3/3
f 352/3/3 349/3/3 351/3/3
f 353/1/3 351/1/3 350/1/3
f 354/1/3 351/1/3 353/1/3
f 356/3/3 355/3/3 354/3/3
f 357/3/3 355/3/3 356/3/3
f 360/1/3 359/1/3 358/1/3
f 361/1/3 359/1/3 360/1/3
f 364/3/3 363/3/3 362/3/3
f 365/3/3 363/3/3 364/3/3
f 368/3/3 367/3/3 366/3/3
f 369/3/3 367/3/3 368/3/3
f 372/1/3 371/1/3 370/1/3
f 373/1/3 371/1/3 372/1/3
f 377/3/3 375/3/3 374/3/3
f 378/3/3 375/3/3 377/3/3
f 379/1/3 377/1/3 376/1/3
f 380/1/3 377/1/3 379/1/3
f 383/3/3 381/3/3 380/3/3
f 384/3/3 381/3/3 383/3/3
f 388/3/3 383/3/3 382/3/3
f 389/3/3 383/3/3 388/3/3
f 390/1/3 386/1/3 385/1/3
f 391/1/3 386/1/3 390/1/3
f 392/1/3 388/1/3 387/1/3
f 393/1/3 388/1/3 392/1/3
f 395/3/3 394/3/3 393/3/3
f 396/3/3 394/3/3 395/3/3
f 399/1/3 398/1/3 397/1/3
f 400/1/3 398/1/3 399/1/3
f 403/3/3 402/3/3 401/3/3
f 404/3/3 402/3/3 403/3/3
f 408/3/3 406/3/3 405/3/3
f 409/3/3 406/3/3 408/3/3
f 410/1/3 408/1/3 407/1/3
f 411/1/3 408/1/3 410/1/3
f 413/3/3 412/3/3 411/3/3
f 414/3/3 412/3/3 413/3/3
f 417/1/3 416/1/3 415/1/3
f 418/1/3 416/1/3 417/1/3
f 421/1/3 420/1/3 419/1/3
f 422/1/3 420/1/3 421/1/3
f 425/1/3 424/1/3 423/1/3
f 426/1/3 424/1/3 425/1/3
f 427/1/4 428/1/4 429/1/4
f 429/1/4 428/1/4 430/1/4
f 430/1/4 428/1/4 431/1/4
f 431/1/4 428/1/4 432/1/4
f 433/1/4 434/1/4 435/1/4
f 435/1/4 434/1/4 436/1/4
f 437/3/4 438/3/4 440/3/4
f 440/3/4 438/3/4 441/3/4
f 439/1/4 440/1/4 442/1/4
f 442/1/4 440/1/4 443/1/4
f 443/3/4 444/3/4 445/3/4
f 445/3/4 444/3/4 446/3/4
f 447/1/4 448/1/4 449/1/4
f 449/1/4 448/1/4 450/1/4
f 451/1/4 452/1/4 453/1/4
f 453/1/4 452/1/4 454/1/4
f 455/3/4 456/3/4 457/3/4
f 457/3/4 456/3/4 458/3/4
f 459/1/4 460/1/4 461/1/4
f 461/1/4 460/1/4 462/1/4
f 462/1/4 460/1/4 463/1/4
f 463/1/4 460/1/4 464/1/4
f 465/3/4 466/3/4 468/3/4
f 468/3/4 466/3/4 469/3/4
f 467/1/4 468/1/4 470/1/4
f 470/1/4 468/1/4 471/1/4
f 471/1/4 468/1/4 472/1/4
f 472/3/4 473/3/4 474/3/4
f 474/3/4 473/3/4 475/3/4
f 476/1/4 477/1/4 480/1/4
f 478/1/4 479/1/4 480/1/4
f 477/1/4 478/1/4 480/1/4
f 480/1/4 479/1/4 481/1/4
f 482/3/4 483/3/4 486/3/4
f 486/3/4 483/3/4 487/3/4
f 484/1/4 485/1/4 488/1/4
f 488/1/4 485/1/4 489/1/4
f 490/3/4 491/3/4 493/3/4
f 493/3/4 491/3/4 494/3/4
f 492/1/4 493/1/4 495/1/4
f 495/1/4 493/1/4 496/1/4
f 496/3/4 497/3/4 498/3/4
f 498/3/4 497/3/4 499/3/4
f 500/1/4 501/1/4 502/1/4
f 502/1/4 501/1/4 503/1/4
f 504/1/4 505/1/4 506/1/4
f 506/1/4 505/1/4 507/1/4
f 508/3/4 509/3/4 511/3/4
f 511/3/4 509/3/4 512/3/4
f 510/1/4 511/1/4 513/1/4
f 513/1/4 511/1/4 514/1/4
f 514/3/4 515/3/4 517/3/4
f 517/3/4 515/3/4 518/3/4
f 516/3/4 517/3/4 520/3/4
f 520/3/4 517/3/4 521/3/4
f 519/1/4 520/1/4 522/1/4
f 522/1/4 520/1/4 523/1/4
f 523/3/4 524/3/4 525/3/4
f 525/3/4 524/3/4 526/3/4
f 527/1/4 528/1/4 529/1/4
f 529/1/4 528/1/4 530/1/4
f 531/3/4 532/3/4 533/3/4
f 533/3/4 532/3/4 534/3/4
f 535/3/4 536/3/4 537/3/4
f 537/3/4 536/3/4 538/3/4
f 539/3/4 540/3/4 542/3/4
f 542/3/4 540/3/4 543/3/4
f 541/1/4 542/1/4 544/1/4
f 544/1/4 542/1/4 545/1/4
f 545/3/4 546/3/4 547/3/4
f 547/3/4 546/3/4 548/3/4
f 549/1/4 550/1/4 551/1/4
f 551/1/4 550/1/4 552/1/4
f 553/1/4 554/1/4 555/1/4
f 555/1/4 554/1/4 556/1/4
f 557/1/4 558/1/4 559/1/4
f 559/1/4 558/1/4 560/1/4
f 561/3/4 562/3/4 563/3/4
f 563/3/4 562/3/4 564/3/4
f 569/1/5 566/1/5 565/1/5
f 570/1/5 566/1/5 569/1/5
f 573/1/5 568/1/5 567/1/5
f 574/1/5 568/1/5 573/1/5
f 579/1/5 572/1/5 571/1/5
f 580/1/5 572/1/5 579/1/5
f 583/1/5 576/1/5 575/1/5
f 584/1/5 576/1/5 583/1/5
f 585/1/5 578/1/5 577/1/5
f 586/1/5 578/1/5 585/1/5
f 589/1/5 582/1/5 581/1/5
f 590/1/5 582/1/5 589/1/5
f 593/1/5 588/1/5 587/1/5
f 594/1/5 588/1/5 593/1/5
f 598/1/5 592/1/5 591/1/5
f 599/1/5 592/1/5 598/1/5
f 602/1/5 595/1/5 594/1/5
f 603/1/5 595/1/5 602/1/5
f 604/1/5 597/1/5 596/1/5
f 605/1/5 597/1/5 604/1/5
f 608/1/5 601/1/5 600/1/5
f 609/1/5 601/1/5 608/1/5
f 614/1/5 607/1/5 606/1/5
f 615/1/5 607/1/5 614/1/5
f 618/1/5 611/1/5 610/1/5
f 619/1/5 611/1/5 618/1/5
f 620/1/5 613/1/5 612/1/5
f 621/1/5 613/1/5 620/1/5
f 622/1/5 617/1/5 616/1/5
f 623/1/5 617/1/5 622/1/5
f 632/1/5 625/1/5 624/1/5
f 633/1/5 625/1/5 632/1/5
f 634/1/5 627/1/5 626/1/5
f 635/1/5 627/1/5 634/1/5
f 636/1/5 629/1/5 628/1/5
f 637/1/5 629/1/5 636/1/5
f 638/1/5 631/1/5 630/1/5
f 639/1/5 631/1/5 638/1/5
f 643/3/5 641/3/5 640/3/5
f 644/3/5 641/3/5 643/3/5
f 646/3/5 643/3/5 642/3/5
f 647/3/5 643/3/5 646/3/5
f 648/3/5 645/3/5 644/3/5
f 649/3/5 645/3/5 648/3/5
f 650/3/5 648/3/5 647/3/5
f 651/3/5 648/3/5 650/3/5
f 655/3/5 653/3/5 652/3/5
f 656/3/5 653/3/5 655/3/5
f 658/3/5 655/3/5 654/3/5
f 659/3/5 655/3/5 658/3/5
f 660/3/5 657/3/5 656/3/5
f 661/3/5 657/3/5 660/3/5
f 662/3/5 660/3/5 659/3/5
f 663/3/5 660/3/5 662/3/5
f 667/3/5 665/3/5 664/3/5
f 668/3/5 665/3/5 667/3/5
f 670/3/5 667/3/5 666/3/5
f 671/3/5 667/3/5 670/3/5
f 672/3/5 669/3/5 668/3/5
f 673/3/5 669/3/5 672/3/5
f 674/3/5 672/3/5 671/3/5
f 675/3/5 672/3/5 674/3/5
f 679/3/5 677/3/5 676/3/5
f 680/3/5 677/3/5 679/3/5
f 682/3/5 679/3/5 678/3/5
f 683/3/5 679/3/5 682/3/5
f 684/3/5 681/3/5 680/3/5
f 685/3/5 681/3/5 684/3/5
f 686/3/5 684/3/5 683/3/5
f 687/3/5 684/3/5 686/3/5
f 691/3/5 689/3/5 688/3/5
f 692/3/5 689/3/5 691/3/5
f 694/3/5 691/3/5 690/3/5
f 695/3/5 691/3/5 694/3/5
f 696/3/5 693/3/5 692/3/5
f 697/3/5 693/3/5 696/3/5
f 698/3/5 696/3/5 695/3/5
f 699/3/5 696/3/5 698/3/5
f 703/3/5 701/3/5 700/3/5
f 704/3/5 701/3/5 703/3/5
f 706/3/5 703/3/5 702/3/5
f 707/3/5 703/3/5 706/3/5
f 708/3/5 705/3/5 704/3/5
f 709/3/5 705/3/5 708/3/5
f 710/3/5 708/3/5 707/3/5
f 711/3/5 708/3/5 710/3/5
f 712/3/6 713/3/6 717/3/6
f 717/3/6 713/3/6 718/3/6
f 714/1/6 715/1/6 720/1/6
f 720/1/6 715/1/6 721/1/6
f 716/3/6 717/3/6 726/3/6
f 717/2/6 718/2/6 727/2/6
f 726/3/6 717/3/6 727/3/6
f 718/3/6 719/3/6 728/3/6
f 727/2/6 718/2/6 728/2/6
f 728/3/6 719/3/6 729/3/6
f 722/1/6 723/1/6 730/1/6
f 730/1/6 723/1/6 731/1/6
f 724/1/6 725/1/6 732/1/6
f 732/1/6 725/1/6 733/1/6
f 727/3/6 728/3/6 734/3/6
f 734/3/6 728/3/6 735/3/6
f 736/3/6 737/3/6 741/3/6
f 741/3/6 737/3/6 742/3/6
f 738/1/6 739/1/6 746/1/6
f 746/1/6 739/1/6 747/1/6
f 740/3/6 741/3/6 748/3/6
f 741/2/6 742/2/6 749/2/6
f 748/3/6 741/3/6 749/3/6
f 742/3/6 743/3/6 750/3/6
f 749/2/6 742/2/6 750/2/6
f 750/3/6 743/3/6 751/3/6
f 744/1/6 745/1/6 754/1/6
f 754/1/6 745/1/6 755/1/6
f 749/3/6 750/3/6 756/3/6
f 756/3/6 750/3/6 757/3/6
f 752/1/6 753/1/6 758/1/6
f 758/1/6 753/1/6 759/1/6
f 760/3/6 761/3/6 763/3/6
f 763/3/6 761/3/6 764/3/6
f 762/3/6 763/3/6 770/3/6
f 763/2/6 764/2/6 771/2/6
f 770/3/6 763/3/6 771/3/6
f 764/3/6 765/3/6 772/3/6
f 771/2/6 764/2/6 772/2/6
f 772/3/6 765/3/6 773/3/6
f 766/1/6 767/1/6 774/1/6
f 774/1/6 767/1/6 775/1/6
f 768/1/6 769/1/6 776/1/6
f 776/1/6 769/1/6 777/1/6
f 771/3/6 772/3/6 778/3/6
f 778/3/6 772/3/6 779/3/6
f 780/3/6 781/3/6 783/3/6
f 783/3/6 781/3/6 784/3/6
f 782/3/6 783/3/6 788/3/6
f 783/2/6 784/2/6 789/2/6
f 788/3/6 783/3/6 789/3/6
f 784/3/6 785/3/6 790/3/6
f 789/2/6 784/2/6 790/2/6
f 790/3/6 785/3/6 791/3/6
f 786/1/6 787/1/6 792/1/6
f 792/1/6 787/1/6 793/1/6
f 789/3/6 790/3/6 794/3/6
f 794/3/6 790/3/6 795/3/6
f 796/1/6 797/1/6 798/1/6
f 798/1/6 797/1/6 799/1/6
f 800/1/6 801/1/6 802/1/6
f 802/1/6 801/1/6 803/1/6
f 804/3/6 805/3/6 807/3/6
f 807/3/6 805/3/6 808/3/6
f 806/3/6 807/3/6 810/3/6
f 807/2/6 808/2/6 811/2/6
f 810/3/6 807/3/6 811/3/6
f 808/3/6 809/3/6 812/3/6
f 811/2/6 808/2/6 812/2/6
f 812/3/6 809/3/6 813/3/6
f 811/3/6 812/3/6 814/3/6
f 814/3/6 812/3/6 815/3/6
f 816/1/6 817/1/6 818/1/6
f 818/1/6 817/1/6 819/1/6
f 820/3/6 821/3/6 823/3/6
f 823/3/6 821/3/6 824/3/6
f 822/3/6 823/3/6 828/3/6
f 823/2/6 824/2/6 829/2/6
f 828/3/6 823/3/6 829/3/6
f 824/3/6 825/3/6 830/3/6
f 829/2/6 824/2/6 830/2/6
f 830/3/6 825/3/6 831/3/6
f 826/1/6 827/1/6 832/1/6
f 832/1/6 827/1/6 833/1/6
f 829/3/6 830/3/6 834/3/6
f 834/3/6 830/3/6 835/3/6
