# MagicaVoxel @ Ephtracy

# group
o 

# material
mtllib player_skin_1-5.mtl
usemtl palette

# normals
vn -1 0 0
vn 1 0 0
vn 0 0 1
vn 0 0 -1
vn 0 -1 0
vn 0 1 0

# texcoords
vt 0.939453 0.5
vt 0.970703 0.5
vt 0.986328 0.5

# verts
v -0.3 0.7 0.3
v -0.3 0.7 -0.3
v -0.3 1.2 0.3
v -0.3 1.2 -0.3
v 0.2 0.7 0.3
v 0.2 0.7 -0.3
v 0.2 0.9 0.2
v 0.2 0.9 0.1
v 0.2 0.9 -0.1
v 0.2 0.9 -0.2
v 0.2 1 0.3
v 0.2 1 0.2
v 0.2 1 0.1
v 0.2 1 -0.1
v 0.2 1 -0.2
v 0.2 1 -0.3
v 0.2 1.1 0.3
v 0.2 1.1 0.1
v 0.2 1.1 -0.1
v 0.2 1.1 -0.3
v 0.2 1.2 0.3
v 0.2 1.2 -0.3
v -0.3 0.7 0.3
v -0.3 1.2 0.3
v 0.1 1 0.3
v 0.1 1.1 0.3
v 0.2 0.7 0.3
v 0.2 1 0.3
v 0.2 1.1 0.3
v 0.2 1.2 0.3
v -0.3 0.7 -0.3
v -0.3 1.2 -0.3
v 0.1 1 -0.3
v 0.1 1.1 -0.3
v 0.2 0.7 -0.3
v 0.2 1 -0.3
v 0.2 1.1 -0.3
v 0.2 1.2 -0.3
v -0.3 0.7 0.3
v 0.2 0.7 0.3
v -0.3 0.7 -0.3
v 0.2 0.7 -0.3
v -0.3 1.2 0.3
v 0.2 1.2 0.3
v -0.3 1.2 -0.3
v 0.2 1.2 -0.3

# faces
f 3/2/1 2/2/1 1/2/1
f 4/2/1 2/2/1 3/2/1
f 5/2/2 6/2/2 7/2/2
f 7/2/2 6/2/2 8/2/2
f 8/2/2 6/2/2 9/2/2
f 9/2/2 6/2/2 10/2/2
f 5/2/2 7/2/2 11/2/2
f 7/3/2 8/3/2 12/3/2
f 11/2/2 7/2/2 12/2/2
f 8/2/2 9/2/2 13/2/2
f 12/3/2 8/3/2 13/3/2
f 9/3/2 10/3/2 14/3/2
f 13/2/2 9/2/2 14/2/2
f 10/2/2 6/2/2 15/2/2
f 14/3/2 10/3/2 15/3/2
f 15/2/2 6/2/2 16/2/2
f 11/1/2 12/1/2 17/1/2
f 12/1/2 13/1/2 17/1/2
f 13/2/2 14/2/2 18/2/2
f 17/1/2 13/1/2 18/1/2
f 15/1/2 16/1/2 19/1/2
f 18/2/2 14/2/2 19/2/2
f 14/1/2 15/1/2 19/1/2
f 19/1/2 16/1/2 20/1/2
f 17/2/2 18/2/2 21/2/2
f 18/2/2 19/2/2 21/2/2
f 19/2/2 20/2/2 21/2/2
f 21/2/2 20/2/2 22/2/2
f 25/2/3 24/2/3 23/2/3
f 26/2/3 24/2/3 25/2/3
f 27/2/3 25/2/3 23/2/3
f 28/1/3 26/1/3 25/1/3
f 28/2/3 25/2/3 27/2/3
f 29/2/3 24/2/3 26/2/3
f 29/1/3 26/1/3 28/1/3
f 30/2/3 24/2/3 29/2/3
f 31/2/4 32/2/4 33/2/4
f 33/2/4 32/2/4 34/2/4
f 31/2/4 33/2/4 35/2/4
f 33/1/4 34/1/4 36/1/4
f 35/2/4 33/2/4 36/2/4
f 34/2/4 32/2/4 37/2/4
f 36/1/4 34/1/4 37/1/4
f 37/2/4 32/2/4 38/2/4
f 41/2/5 40/2/5 39/2/5
f 42/2/5 40/2/5 41/2/5
f 43/2/6 44/2/6 45/2/6
f 45/2/6 44/2/6 46/2/6
