# MagicaVoxel @ Ephtracy

# group
o 

# material
mtllib golem-3.mtl
usemtl palette

# normals
vn -1 0 0
vn 1 0 0
vn 0 0 1
vn 0 0 -1
vn 0 -1 0
vn 0 1 0

# texcoords
vt 0.970703 0.5
vt 0.974609 0.5
vt 0.978516 0.5
vt 0.994141 0.5

# verts
v -0.1 0.9 0.2
v -0.1 0.9 0
v -0.1 0.9 -0.1
v -0.1 0.9 -0.2
v -0.1 1 0.2
v -0.1 1 0
v -0.1 1 -0.1
v -0.1 1 -0.2
v -0.1 1.1 -0.1
v -0.1 1.1 -0.2
v -0.1 1.2 0.1
v -0.1 1.2 0
v -0.1 1.3 0.2
v -0.1 1.3 0.1
v -0.1 1.3 0
v -0.1 1.3 -0.1
v -0.1 1.4 0.2
v -0.1 1.4 -0.2
v 0.3 0.9 0.2
v 0.3 0.9 0.1
v 0.3 0.9 0
v 0.3 0.9 -0.2
v 0.3 1 0.2
v 0.3 1 0.1
v 0.3 1 0
v 0.3 1 -0.1
v 0.3 1 -0.2
v 0.3 1.1 0.2
v 0.3 1.1 0.1
v 0.3 1.1 -0.1
v 0.3 1.1 -0.2
v 0.3 1.2 0.2
v 0.3 1.2 0.1
v 0.3 1.2 -0.1
v 0.3 1.2 -0.2
v 0.3 1.3 0.1
v 0.3 1.3 0
v 0.3 1.3 -0.1
v 0.3 1.3 -0.2
v 0.3 1.4 0.2
v 0.3 1.4 -0.2
v -0.1 0.9 0.2
v -0.1 1 0.2
v -0.1 1.3 0.2
v -0.1 1.4 0.2
v 0 0.9 0.2
v 0 1 0.2
v 0 1.1 0.2
v 0 1.3 0.2
v 0.1 1.1 0.2
v 0.1 1.3 0.2
v 0.2 0.9 0.2
v 0.2 1 0.2
v 0.2 1.1 0.2
v 0.2 1.2 0.2
v 0.2 1.3 0.2
v 0.3 0.9 0.2
v 0.3 1 0.2
v 0.3 1.1 0.2
v 0.3 1.2 0.2
v 0.3 1.4 0.2
v -0.1 0.9 -0.2
v -0.1 1 -0.2
v -0.1 1.1 -0.2
v -0.1 1.4 -0.2
v 0 1.1 -0.2
v 0 1.3 -0.2
v 0.1 0.9 -0.2
v 0.1 1 -0.2
v 0.1 1.2 -0.2
v 0.1 1.3 -0.2
v 0.2 0.9 -0.2
v 0.2 1 -0.2
v 0.2 1.1 -0.2
v 0.2 1.2 -0.2
v 0.2 1.3 -0.2
v 0.3 0.9 -0.2
v 0.3 1 -0.2
v 0.3 1.1 -0.2
v 0.3 1.2 -0.2
v 0.3 1.3 -0.2
v 0.3 1.4 -0.2
v -0.1 0.9 0.2
v 0 0.9 0.2
v 0.2 0.9 0.2
v 0.3 0.9 0.2
v 0.2 0.9 0.1
v 0.3 0.9 0.1
v -0.1 0.9 0
v 0 0.9 0
v 0.2 0.9 0
v 0.3 0.9 0
v -0.1 0.9 -0.1
v 0.1 0.9 -0.1
v -0.1 0.9 -0.2
v 0.1 0.9 -0.2
v 0.2 0.9 -0.2
v 0.3 0.9 -0.2
v -0.1 1.4 0.2
v 0.3 1.4 0.2
v -0.1 1.4 -0.2
v 0.3 1.4 -0.2

# faces
f 5/3/1 2/3/1 1/3/1
f 6/1/1 3/1/1 2/1/1
f 6/3/1 2/3/1 5/3/1
f 7/3/1 4/3/1 3/3/1
f 7/1/1 3/1/1 6/1/1
f 8/3/1 4/3/1 7/3/1
f 9/1/1 6/1/1 5/1/1
f 9/1/1 7/1/1 6/1/1
f 9/1/1 8/1/1 7/1/1
f 10/1/1 8/1/1 9/1/1
f 11/1/1 9/1/1 5/1/1
f 12/1/1 9/1/1 11/1/1
f 13/1/1 11/1/1 5/1/1
f 14/2/1 12/2/1 11/2/1
f 14/1/1 11/1/1 13/1/1
f 15/1/1 9/1/1 12/1/1
f 15/2/1 12/2/1 14/2/1
f 16/2/1 10/2/1 9/2/1
f 16/1/1 9/1/1 15/1/1
f 17/2/1 15/2/1 14/2/1
f 17/2/1 14/2/1 13/2/1
f 17/2/1 16/2/1 15/2/1
f 18/2/1 10/2/1 16/2/1
f 18/2/1 16/2/1 17/2/1
f 19/3/2 20/3/2 23/3/2
f 20/1/2 21/1/2 24/1/2
f 23/3/2 20/3/2 24/3/2
f 21/3/2 22/3/2 25/3/2
f 24/1/2 21/1/2 25/1/2
f 25/3/2 22/3/2 26/3/2
f 26/3/2 22/3/2 27/3/2
f 23/1/2 24/1/2 28/1/2
f 24/1/2 25/1/2 28/1/2
f 28/1/2 25/1/2 29/1/2
f 26/1/2 27/1/2 30/1/2
f 25/2/2 26/2/2 30/2/2
f 30/1/2 27/1/2 31/1/2
f 28/4/2 29/4/2 32/4/2
f 29/1/2 25/1/2 33/1/2
f 32/4/2 29/4/2 33/4/2
f 25/2/2 30/2/2 34/2/2
f 30/4/2 31/4/2 34/4/2
f 34/4/2 31/4/2 35/4/2
f 33/1/2 25/1/2 36/1/2
f 32/2/2 33/2/2 36/2/2
f 25/2/2 34/2/2 37/2/2
f 36/1/2 25/1/2 37/1/2
f 34/1/2 35/1/2 38/1/2
f 37/2/2 34/2/2 38/2/2
f 38/1/2 35/1/2 39/1/2
f 36/2/2 37/2/2 40/2/2
f 32/2/2 36/2/2 40/2/2
f 38/2/2 39/2/2 40/2/2
f 37/2/2 38/2/2 40/2/2
f 40/2/2 39/2/2 41/2/2
f 46/3/3 43/3/3 42/3/3
f 47/1/3 44/1/3 43/1/3
f 47/3/3 43/3/3 46/3/3
f 48/1/3 44/1/3 47/1/3
f 49/2/3 45/2/3 44/2/3
f 49/1/3 44/1/3 48/1/3
f 50/1/3 48/1/3 47/1/3
f 50/1/3 47/1/3 46/1/3
f 50/2/3 49/2/3 48/2/3
f 51/2/3 45/2/3 49/2/3
f 51/2/3 49/2/3 50/2/3
f 52/1/3 50/1/3 46/1/3
f 52/1/3 51/1/3 50/1/3
f 53/1/3 51/1/3 52/1/3
f 54/1/3 51/1/3 53/1/3
f 55/1/3 51/1/3 54/1/3
f 56/2/3 45/2/3 51/2/3
f 56/1/3 51/1/3 55/1/3
f 57/3/3 53/3/3 52/3/3
f 58/1/3 54/1/3 53/1/3
f 58/3/3 53/3/3 57/3/3
f 59/4/3 55/4/3 54/4/3
f 59/1/3 54/1/3 58/1/3
f 60/2/3 56/2/3 55/2/3
f 60/4/3 55/4/3 59/4/3
f 61/2/3 45/2/3 56/2/3
f 61/2/3 56/2/3 60/2/3
f 63/1/4 64/1/4 66/1/4
f 64/2/4 65/2/4 66/2/4
f 66/2/4 65/2/4 67/2/4
f 62/3/4 63/3/4 68/3/4
f 63/1/4 66/1/4 69/1/4
f 68/3/4 63/3/4 69/3/4
f 66/1/4 67/1/4 69/1/4
f 69/1/4 67/1/4 70/1/4
f 67/2/4 65/2/4 71/2/4
f 70/1/4 67/1/4 71/1/4
f 69/1/4 70/1/4 72/1/4
f 68/1/4 69/1/4 72/1/4
f 72/1/4 70/1/4 73/1/4
f 73/1/4 70/1/4 74/1/4
f 70/2/4 71/2/4 75/2/4
f 74/1/4 70/1/4 75/1/4
f 71/2/4 65/2/4 76/2/4
f 75/2/4 71/2/4 76/2/4
f 72/3/4 73/3/4 77/3/4
f 73/1/4 74/1/4 78/1/4
f 77/3/4 73/3/4 78/3/4
f 74/4/4 75/4/4 79/4/4
f 78/1/4 74/1/4 79/1/4
f 75/1/4 76/1/4 80/1/4
f 79/4/4 75/4/4 80/4/4
f 76/2/4 65/2/4 81/2/4
f 80/1/4 76/1/4 81/1/4
f 81/2/4 65/2/4 82/2/4
f 87/1/5 85/1/5 84/1/5
f 87/3/5 86/3/5 85/3/5
f 88/3/5 86/3/5 87/3/5
f 89/3/5 84/3/5 83/3/5
f 90/1/5 87/1/5 84/1/5
f 90/3/5 84/3/5 89/3/5
f 90/1/5 88/1/5 87/1/5
f 91/1/5 88/1/5 90/1/5
f 92/1/5 88/1/5 91/1/5
f 93/1/5 90/1/5 89/1/5
f 93/1/5 91/1/5 90/1/5
f 94/1/5 91/1/5 93/1/5
f 95/3/5 94/3/5 93/3/5
f 96/1/5 91/1/5 94/1/5
f 96/3/5 94/3/5 95/3/5
f 97/3/5 92/3/5 91/3/5
f 97/1/5 91/1/5 96/1/5
f 98/3/5 92/3/5 97/3/5
f 99/2/6 100/2/6 101/2/6
f 101/2/6 100/2/6 102/2/6
