# MagicaVoxel @ Ephtracy

# group
o 

# material
mtllib golem-1.mtl
usemtl palette

# normals
vn -1 0 0
vn 1 0 0
vn 0 0 1
vn 0 0 -1
vn 0 -1 0
vn 0 1 0

# texcoords
vt 0.970703 0.5
vt 0.974609 0.5
vt 0.978516 0.5

# verts
v -0.2 0.3 -0.4
v -0.2 0.3 -0.6
v -0.2 0.4 -0.5
v -0.2 0.4 -0.6
v -0.2 0.5 -0.4
v -0.2 0.5 -0.5
v -0.2 0.5 -0.6
v -0.2 0.6 -0.5
v -0.2 0.6 -0.6
v -0.1 0.2 -0.4
v -0.1 0.2 -0.6
v -0.1 0.3 -0.3
v -0.1 0.3 -0.4
v -0.1 0.3 -0.6
v -0.1 0.3 -0.7
v -0.1 0.4 -0.6
v -0.1 0.5 -0.3
v -0.1 0.5 -0.4
v -0.1 0.5 -0.5
v -0.1 0.5 -0.6
v -0.1 0.5 -0.7
v -0.1 0.6 -0.4
v -0.1 0.6 -0.5
v -0.1 0.6 -0.6
v -0.1 0.6 -0.7
v -0.1 0.7 -0.3
v -0.1 0.7 -0.4
v -0.1 0.7 -0.5
v -0.1 0.7 -0.6
v -0.1 0.8 -0.4
v -0.1 0.8 -0.5
v -0.1 0.8 -0.6
v -0.1 0.9 -0.4
v -0.1 0.9 -0.5
v -0.1 1 -0.3
v -0.1 1 -0.4
v -0.1 1 -0.5
v 0.1 0.2 -0.4
v 0.1 0.2 -0.6
v 0.1 0.3 -0.3
v 0.1 0.3 -0.4
v 0.1 0.3 -0.6
v 0.1 0.3 -0.7
v 0.1 0.4 -0.4
v 0.1 0.4 -0.6
v 0.1 0.4 -0.7
v 0.1 0.5 -0.3
v 0.1 0.5 -0.4
v 0.1 0.5 -0.5
v 0.1 0.5 -0.6
v 0.1 0.5 -0.7
v 0.1 0.6 -0.5
v 0.1 0.6 -0.6
v 0.1 0.6 -0.7
v 0.1 0.7 -0.3
v 0.1 0.7 -0.4
v 0.1 0.7 -0.5
v 0.1 0.7 -0.6
v 0.1 0.8 -0.5
v 0.1 0.8 -0.6
v 0.1 0.9 -0.4
v 0.1 0.9 -0.5
v 0.1 1 -0.3
v 0.1 1 -0.5
v 0.2 0.3 -0.4
v 0.2 0.3 -0.6
v 0.2 0.4 -0.4
v 0.2 0.4 -0.5
v 0.2 0.5 -0.4
v 0.2 0.5 -0.5
v 0.2 0.5 -0.6
v 0.2 0.6 -0.5
v 0.2 0.6 -0.6
v -0.1 0.3 -0.3
v -0.1 0.5 -0.3
v -0.1 0.7 -0.3
v -0.1 1 -0.3
v 0.1 0.3 -0.3
v 0.1 0.5 -0.3
v 0.1 0.7 -0.3
v 0.1 1 -0.3
v -0.2 0.3 -0.4
v -0.2 0.5 -0.4
v -0.1 0.2 -0.4
v -0.1 0.3 -0.4
v -0.1 0.5 -0.4
v -0.1 0.6 -0.4
v -0.1 0.7 -0.4
v 0 0.6 -0.4
v 0 0.7 -0.4
v 0.1 0.2 -0.4
v 0.1 0.3 -0.4
v 0.1 0.4 -0.4
v 0.1 0.5 -0.4
v 0.1 0.7 -0.4
v 0.2 0.3 -0.4
v 0.2 0.4 -0.4
v 0.2 0.5 -0.4
v -0.2 0.5 -0.5
v -0.2 0.6 -0.5
v -0.1 0.5 -0.5
v -0.1 0.6 -0.5
v 0.1 0.5 -0.5
v 0.1 0.6 -0.5
v 0.2 0.5 -0.5
v 0.2 0.6 -0.5
v -0.1 0.8 -0.5
v -0.1 0.9 -0.5
v -0.1 1 -0.5
v 0 0.9 -0.5
v 0 1 -0.5
v 0.1 0.8 -0.5
v 0.1 0.9 -0.5
v 0.1 1 -0.5
v -0.2 0.3 -0.6
v -0.2 0.4 -0.6
v -0.2 0.5 -0.6
v -0.2 0.6 -0.6
v -0.1 0.2 -0.6
v -0.1 0.3 -0.6
v -0.1 0.4 -0.6
v -0.1 0.5 -0.6
v -0.1 0.6 -0.6
v -0.1 0.7 -0.6
v -0.1 0.8 -0.6
v 0.1 0.2 -0.6
v 0.1 0.3 -0.6
v 0.1 0.4 -0.6
v 0.1 0.5 -0.6
v 0.1 0.6 -0.6
v 0.1 0.7 -0.6
v 0.1 0.8 -0.6
v 0.2 0.3 -0.6
v 0.2 0.5 -0.6
v 0.2 0.6 -0.6
v -0.1 0.3 -0.7
v -0.1 0.5 -0.7
v -0.1 0.6 -0.7
v 0 0.4 -0.7
v 0 0.5 -0.7
v 0.1 0.3 -0.7
v 0.1 0.4 -0.7
v 0.1 0.5 -0.7
v 0.1 0.6 -0.7
v -0.1 0.2 -0.4
v 0.1 0.2 -0.4
v -0.1 0.2 -0.6
v 0.1 0.2 -0.6
v -0.1 0.3 -0.3
v 0.1 0.3 -0.3
v -0.2 0.3 -0.4
v -0.1 0.3 -0.4
v 0.1 0.3 -0.4
v 0.2 0.3 -0.4
v -0.2 0.3 -0.6
v -0.1 0.3 -0.6
v 0.1 0.3 -0.6
v 0.2 0.3 -0.6
v -0.1 0.3 -0.7
v 0.1 0.3 -0.7
v -0.1 0.7 -0.3
v 0.1 0.7 -0.3
v -0.1 0.7 -0.4
v 0 0.7 -0.4
v 0.1 0.7 -0.4
v -0.1 0.5 -0.3
v 0.1 0.5 -0.3
v -0.2 0.5 -0.4
v -0.1 0.5 -0.4
v 0.1 0.5 -0.4
v 0.2 0.5 -0.4
v -0.2 0.5 -0.5
v -0.1 0.5 -0.5
v 0.1 0.5 -0.5
v 0.2 0.5 -0.5
v -0.2 0.6 -0.5
v -0.1 0.6 -0.5
v 0.1 0.6 -0.5
v 0.2 0.6 -0.5
v -0.2 0.6 -0.6
v -0.1 0.6 -0.6
v 0.1 0.6 -0.6
v 0.2 0.6 -0.6
v -0.1 0.6 -0.7
v 0.1 0.6 -0.7
v -0.1 0.8 -0.5
v 0.1 0.8 -0.5
v -0.1 0.8 -0.6
v 0.1 0.8 -0.6
v -0.1 1 -0.3
v 0.1 1 -0.3
v -0.1 1 -0.4
v 0 1 -0.4
v -0.1 1 -0.5
v 0 1 -0.5
v 0.1 1 -0.5

# faces
f 3/3/1 2/3/1 1/3/1
f 4/3/1 2/3/1 3/3/1
f 5/3/1 3/3/1 1/3/1
f 6/1/1 4/1/1 3/1/1
f 6/3/1 3/3/1 5/3/1
f 7/1/1 4/1/1 6/1/1
f 8/2/1 7/2/1 6/2/1
f 9/2/1 7/2/1 8/2/1
f 13/3/1 11/3/1 10/3/1
f 14/3/1 11/3/1 13/3/1
f 16/3/1 15/3/1 14/3/1
f 17/3/1 13/3/1 12/3/1
f 18/3/1 13/3/1 17/3/1
f 20/3/1 15/3/1 16/3/1
f 21/3/1 15/3/1 20/3/1
f 22/1/1 19/1/1 18/1/1
f 23/1/1 19/1/1 22/1/1
f 24/2/1 21/2/1 20/2/1
f 25/2/1 21/2/1 24/2/1
f 27/3/1 23/3/1 22/3/1
f 28/1/1 24/1/1 23/1/1
f 28/3/1 23/3/1 27/3/1
f 29/1/1 24/1/1 28/1/1
f 30/3/1 27/3/1 26/3/1
f 30/3/1 28/3/1 27/3/1
f 31/2/1 29/2/1 28/2/1
f 31/3/1 28/3/1 30/3/1
f 32/2/1 29/2/1 31/2/1
f 33/3/1 30/3/1 26/3/1
f 33/1/1 31/1/1 30/1/1
f 34/1/1 31/1/1 33/1/1
f 35/3/1 33/3/1 26/3/1
f 36/2/1 34/2/1 33/2/1
f 36/3/1 33/3/1 35/3/1
f 37/2/1 34/2/1 36/2/1
f 38/3/2 39/3/2 41/3/2
f 41/3/2 39/3/2 42/3/2
f 40/3/2 41/3/2 44/3/2
f 42/3/2 43/3/2 45/3/2
f 45/3/2 43/3/2 46/3/2
f 40/3/2 44/3/2 47/3/2
f 47/3/2 44/3/2 48/3/2
f 45/1/2 46/1/2 50/1/2
f 50/1/2 46/1/2 51/1/2
f 48/1/2 49/1/2 52/1/2
f 50/2/2 51/2/2 53/2/2
f 53/2/2 51/2/2 54/2/2
f 48/1/2 52/1/2 56/1/2
f 52/1/2 53/1/2 56/1/2
f 56/1/2 53/1/2 57/1/2
f 57/1/2 53/1/2 58/1/2
f 56/1/2 57/1/2 59/1/2
f 57/2/2 58/2/2 59/2/2
f 59/2/2 58/2/2 60/2/2
f 55/3/2 56/3/2 61/3/2
f 56/1/2 59/1/2 61/1/2
f 61/1/2 59/1/2 62/1/2
f 55/3/2 61/3/2 63/3/2
f 61/3/2 62/3/2 63/3/2
f 63/3/2 62/3/2 64/3/2
f 65/3/2 66/3/2 67/3/2
f 67/3/2 66/3/2 68/3/2
f 67/1/2 68/1/2 69/1/2
f 68/3/2 66/3/2 70/3/2
f 69/1/2 68/1/2 70/1/2
f 70/3/2 66/3/2 71/3/2
f 70/2/2 71/2/2 72/2/2
f 72/2/2 71/2/2 73/2/2
f 78/3/3 75/3/3 74/3/3
f 79/3/3 75/3/3 78/3/3
f 80/3/3 77/3/3 76/3/3
f 81/3/3 77/3/3 80/3/3
f 85/3/3 83/3/3 82/3/3
f 86/3/3 83/3/3 85/3/3
f 89/3/3 88/3/3 87/3/3
f 89/1/3 87/1/3 86/1/3
f 90/3/3 88/3/3 89/3/3
f 91/3/3 85/3/3 84/3/3
f 92/3/3 85/3/3 91/3/3
f 94/1/3 89/1/3 86/1/3
f 94/1/3 90/1/3 89/1/3
f 95/1/3 90/1/3 94/1/3
f 96/3/3 93/3/3 92/3/3
f 97/1/3 94/1/3 93/1/3
f 97/3/3 93/3/3 96/3/3
f 98/1/3 94/1/3 97/1/3
f 101/2/3 100/2/3 99/2/3
f 102/2/3 100/2/3 101/2/3
f 105/2/3 104/2/3 103/2/3
f 106/2/3 104/2/3 105/2/3
f 107/1/4 108/1/4 110/1/4
f 108/2/4 109/2/4 110/2/4
f 110/2/4 109/2/4 111/2/4
f 107/1/4 110/1/4 112/1/4
f 110/3/4 111/3/4 113/3/4
f 112/1/4 110/1/4 113/1/4
f 113/3/4 111/3/4 114/3/4
f 115/3/4 116/3/4 120/3/4
f 116/1/4 117/1/4 121/1/4
f 120/3/4 116/3/4 121/3/4
f 117/2/4 118/2/4 122/2/4
f 121/1/4 117/1/4 122/1/4
f 122/2/4 118/2/4 123/2/4
f 119/3/4 120/3/4 126/3/4
f 126/3/4 120/3/4 127/3/4
f 123/1/4 124/1/4 130/1/4
f 124/2/4 125/2/4 131/2/4
f 130/1/4 124/1/4 131/1/4
f 131/2/4 125/2/4 132/2/4
f 128/3/4 129/3/4 133/3/4
f 127/3/4 128/3/4 133/3/4
f 129/2/4 130/2/4 134/2/4
f 133/3/4 129/3/4 134/3/4
f 134/2/4 130/2/4 135/2/4
f 136/3/4 137/3/4 139/3/4
f 137/2/4 138/2/4 140/2/4
f 139/3/4 137/3/4 140/3/4
f 136/3/4 139/3/4 141/3/4
f 139/1/4 140/1/4 142/1/4
f 141/3/4 139/3/4 142/3/4
f 140/2/4 138/2/4 143/2/4
f 142/1/4 140/1/4 143/1/4
f 143/2/4 138/2/4 144/2/4
f 147/3/5 146/3/5 145/3/5
f 148/3/5 146/3/5 147/3/5
f 152/3/5 150/3/5 149/3/5
f 153/3/5 150/3/5 152/3/5
f 155/3/5 152/3/5 151/3/5
f 156/3/5 152/3/5 155/3/5
f 157/3/5 154/3/5 153/3/5
f 158/3/5 154/3/5 157/3/5
f 159/3/5 157/3/5 156/3/5
f 160/3/5 157/3/5 159/3/5
f 163/3/5 162/3/5 161/3/5
f 164/3/5 162/3/5 163/3/5
f 165/3/5 162/3/5 164/3/5
f 166/3/6 167/3/6 169/3/6
f 169/3/6 167/3/6 170/3/6
f 168/3/6 169/3/6 172/3/6
f 172/3/6 169/3/6 173/3/6
f 170/1/6 171/1/6 174/1/6
f 174/1/6 171/1/6 175/1/6
f 176/2/6 177/2/6 180/2/6
f 180/2/6 177/2/6 181/2/6
f 178/2/6 179/2/6 182/2/6
f 182/2/6 179/2/6 183/2/6
f 181/2/6 182/2/6 184/2/6
f 184/2/6 182/2/6 185/2/6
f 186/2/6 187/2/6 188/2/6
f 188/2/6 187/2/6 189/2/6
f 190/3/6 191/3/6 192/3/6
f 192/3/6 191/3/6 193/3/6
f 192/2/6 193/2/6 194/2/6
f 193/3/6 191/3/6 195/3/6
f 194/2/6 193/2/6 195/2/6
f 195/3/6 191/3/6 196/3/6
