# MagicaVoxel @ Ephtracy

# group
o 

# material
mtllib golem-2.mtl
usemtl palette

# normals
vn -1 0 0
vn 1 0 0
vn 0 0 1
vn 0 0 -1
vn 0 -1 0
vn 0 1 0

# texcoords
vt 0.970703 0.5
vt 0.974609 0.5
vt 0.978516 0.5

# verts
v -0.2 0.3 0.2
v -0.2 0.3 -0.2
v -0.2 0.4 0.3
v -0.2 0.4 0.2
v -0.2 0.4 0.1
v -0.2 0.4 0
v -0.2 0.4 -0.2
v -0.2 0.4 -0.3
v -0.2 0.5 0.3
v -0.2 0.5 0.2
v -0.2 0.5 -0.1
v -0.2 0.5 -0.2
v -0.2 0.5 -0.3
v -0.2 0.6 0.2
v -0.2 0.6 0.1
v -0.2 0.6 0
v -0.2 0.6 -0.1
v -0.2 0.7 -0.1
v -0.2 0.7 -0.2
v -0.2 0.7 -0.3
v -0.2 0.8 0.1
v -0.2 0.8 0
v -0.2 0.8 -0.1
v -0.2 0.9 0.3
v -0.2 0.9 0.2
v -0.2 0.9 0
v -0.2 0.9 -0.1
v -0.2 0.9 -0.2
v -0.2 0.9 -0.3
v 0.2 0.3 0.2
v 0.2 0.3 -0.2
v 0.2 0.4 0.3
v 0.2 0.4 0.2
v 0.2 0.4 0.1
v 0.2 0.4 -0.1
v 0.2 0.4 -0.2
v 0.2 0.4 -0.3
v 0.2 0.5 0.3
v 0.2 0.5 0.2
v 0.2 0.5 0
v 0.2 0.5 -0.1
v 0.2 0.5 -0.2
v 0.2 0.5 -0.3
v 0.2 0.6 0.1
v 0.2 0.6 0
v 0.2 0.6 -0.1
v 0.2 0.6 -0.2
v 0.2 0.7 0.3
v 0.2 0.7 0.2
v 0.2 0.7 0.1
v 0.2 0.8 0.3
v 0.2 0.8 0.2
v 0.2 0.8 0.1
v 0.2 0.8 0
v 0.2 0.8 -0.1
v 0.2 0.9 0.3
v 0.2 0.9 0.1
v 0.2 0.9 0
v 0.2 0.9 -0.2
v 0.2 0.9 -0.3
v -0.2 0.4 0.3
v -0.2 0.5 0.3
v -0.2 0.9 0.3
v -0.1 0.8 0.3
v -0.1 0.9 0.3
v 0 0.5 0.3
v 0 0.6 0.3
v 0 0.8 0.3
v 0 0.9 0.3
v 0.1 0.4 0.3
v 0.1 0.5 0.3
v 0.1 0.6 0.3
v 0.1 0.7 0.3
v 0.1 0.8 0.3
v 0.1 0.9 0.3
v 0.2 0.4 0.3
v 0.2 0.5 0.3
v 0.2 0.7 0.3
v 0.2 0.8 0.3
v 0.2 0.9 0.3
v -0.2 0.3 0.2
v -0.2 0.4 0.2
v 0.1 0.4 0.2
v 0.2 0.3 0.2
v 0.2 0.4 0.2
v -0.2 0.3 -0.2
v -0.2 0.4 -0.2
v -0.1 0.4 -0.2
v 0 0.4 -0.2
v 0.2 0.3 -0.2
v 0.2 0.4 -0.2
v -0.2 0.4 -0.3
v -0.2 0.5 -0.3
v -0.2 0.7 -0.3
v -0.2 0.9 -0.3
v -0.1 0.4 -0.3
v -0.1 0.5 -0.3
v -0.1 0.7 -0.3
v -0.1 0.8 -0.3
v -0.1 0.9 -0.3
v 0 0.4 -0.3
v 0 0.6 -0.3
v 0 0.8 -0.3
v 0.1 0.5 -0.3
v 0.1 0.6 -0.3
v 0.1 0.8 -0.3
v 0.1 0.9 -0.3
v 0.2 0.4 -0.3
v 0.2 0.5 -0.3
v 0.2 0.9 -0.3
v -0.2 0.3 0.2
v 0.2 0.3 0.2
v -0.2 0.3 -0.2
v 0.2 0.3 -0.2
v -0.2 0.4 0.3
v 0.1 0.4 0.3
v 0.2 0.4 0.3
v -0.2 0.4 0.2
v 0.1 0.4 0.2
v 0.2 0.4 0.2
v -0.2 0.4 -0.2
v -0.1 0.4 -0.2
v 0 0.4 -0.2
v 0.2 0.4 -0.2
v -0.2 0.4 -0.3
v -0.1 0.4 -0.3
v 0 0.4 -0.3
v 0.2 0.4 -0.3
v -0.2 0.9 0.3
v -0.1 0.9 0.3
v 0 0.9 0.3
v 0.1 0.9 0.3
v 0.2 0.9 0.3
v -0.2 0.9 0.2
v -0.1 0.9 0.2
v 0 0.9 0.2
v 0.1 0.9 0.1
v 0.2 0.9 0.1
v -0.2 0.9 0
v -0.1 0.9 0
v 0.1 0.9 0
v 0.2 0.9 0
v -0.2 0.9 -0.1
v -0.1 0.9 -0.1
v -0.2 0.9 -0.2
v -0.1 0.9 -0.2
v 0.1 0.9 -0.2
v 0.2 0.9 -0.2
v -0.2 0.9 -0.3
v -0.1 0.9 -0.3
v 0.1 0.9 -0.3
v 0.2 0.9 -0.3

# faces
f 4/3/1 2/3/1 1/3/1
f 5/3/1 2/3/1 4/3/1
f 6/3/1 2/3/1 5/3/1
f 7/3/1 2/3/1 6/3/1
f 9/3/1 4/3/1 3/3/1
f 10/2/1 5/2/1 4/2/1
f 10/3/1 4/3/1 9/3/1
f 11/3/1 8/3/1 7/3/1
f 11/3/1 7/3/1 6/3/1
f 12/3/1 8/3/1 11/3/1
f 13/3/1 8/3/1 12/3/1
f 14/2/1 5/2/1 10/2/1
f 14/1/1 10/1/1 9/1/1
f 15/1/1 6/1/1 5/1/1
f 15/2/1 5/2/1 14/2/1
f 16/3/1 11/3/1 6/3/1
f 16/1/1 6/1/1 15/1/1
f 17/1/1 12/1/1 11/1/1
f 17/3/1 11/3/1 16/3/1
f 18/2/1 17/2/1 16/2/1
f 18/1/1 12/1/1 17/1/1
f 19/2/1 13/2/1 12/2/1
f 19/1/1 12/1/1 18/1/1
f 20/2/1 13/2/1 19/2/1
f 21/3/1 15/3/1 14/3/1
f 21/1/1 16/1/1 15/1/1
f 22/2/1 18/2/1 16/2/1
f 22/1/1 16/1/1 21/1/1
f 23/3/1 19/3/1 18/3/1
f 23/2/1 18/2/1 22/2/1
f 24/1/1 14/1/1 9/1/1
f 25/3/1 21/3/1 14/3/1
f 25/1/1 14/1/1 24/1/1
f 25/3/1 22/3/1 21/3/1
f 26/1/1 23/1/1 22/1/1
f 26/3/1 22/3/1 25/3/1
f 27/3/1 19/3/1 23/3/1
f 27/1/1 23/1/1 26/1/1
f 28/1/1 20/1/1 19/1/1
f 28/3/1 19/3/1 27/3/1
f 29/1/1 20/1/1 28/1/1
f 30/3/2 31/3/2 33/3/2
f 33/3/2 31/3/2 34/3/2
f 34/3/2 31/3/2 35/3/2
f 35/3/2 31/3/2 36/3/2
f 32/1/2 33/1/2 38/1/2
f 33/1/2 34/1/2 38/1/2
f 38/1/2 34/1/2 39/1/2
f 34/3/2 35/3/2 40/3/2
f 35/2/2 36/2/2 41/2/2
f 40/3/2 35/3/2 41/3/2
f 36/3/2 37/3/2 42/3/2
f 41/2/2 36/2/2 42/2/2
f 42/3/2 37/3/2 43/3/2
f 34/3/2 40/3/2 44/3/2
f 39/1/2 34/1/2 44/1/2
f 40/1/2 41/1/2 45/1/2
f 44/3/2 40/3/2 45/3/2
f 41/2/2 42/2/2 46/2/2
f 45/1/2 41/1/2 46/1/2
f 42/1/2 43/1/2 47/1/2
f 46/2/2 42/2/2 47/2/2
f 38/2/2 39/2/2 48/2/2
f 39/1/2 44/1/2 49/1/2
f 48/2/2 39/2/2 49/2/2
f 44/2/2 45/2/2 50/2/2
f 49/1/2 44/1/2 50/1/2
f 48/1/2 49/1/2 51/1/2
f 49/3/2 50/3/2 52/3/2
f 51/1/2 49/1/2 52/1/2
f 50/2/2 45/2/2 53/2/2
f 52/3/2 50/3/2 53/3/2
f 45/1/2 46/1/2 54/1/2
f 53/2/2 45/2/2 54/2/2
f 46/3/2 47/3/2 55/3/2
f 54/1/2 46/1/2 55/1/2
f 52/3/2 53/3/2 56/3/2
f 51/3/2 52/3/2 56/3/2
f 53/1/2 54/1/2 57/1/2
f 56/3/2 53/3/2 57/3/2
f 54/3/2 55/3/2 58/3/2
f 57/1/2 54/1/2 58/1/2
f 55/3/2 47/3/2 59/3/2
f 58/3/2 55/3/2 59/3/2
f 47/1/2 43/1/2 59/1/2
f 59/1/2 43/1/2 60/1/2
f 64/1/3 63/1/3 62/1/3
f 65/1/3 63/1/3 64/1/3
f 66/3/3 62/3/3 61/3/3
f 66/1/3 64/1/3 62/1/3
f 67/1/3 64/1/3 66/1/3
f 68/3/3 65/3/3 64/3/3
f 68/1/3 64/1/3 67/1/3
f 69/3/3 65/3/3 68/3/3
f 70/3/3 67/3/3 66/3/3
f 70/3/3 66/3/3 61/3/3
f 71/3/3 67/3/3 70/3/3
f 72/1/3 69/1/3 68/1/3
f 72/3/3 67/3/3 71/3/3
f 72/1/3 68/1/3 67/1/3
f 73/1/3 69/1/3 72/1/3
f 74/1/3 69/1/3 73/1/3
f 75/1/3 69/1/3 74/1/3
f 76/1/3 71/1/3 70/1/3
f 77/2/3 72/2/3 71/2/3
f 77/1/3 71/1/3 76/1/3
f 77/2/3 73/2/3 72/2/3
f 78/1/3 74/1/3 73/1/3
f 78/2/3 73/2/3 77/2/3
f 79/3/3 75/3/3 74/3/3
f 79/1/3 74/1/3 78/1/3
f 80/3/3 75/3/3 79/3/3
f 83/3/3 82/3/3 81/3/3
f 84/3/3 83/3/3 81/3/3
f 85/3/3 83/3/3 84/3/3
f 86/3/4 87/3/4 88/3/4
f 86/3/4 88/3/4 89/3/4
f 86/3/4 89/3/4 90/3/4
f 90/3/4 89/3/4 91/3/4
f 92/3/4 93/3/4 96/3/4
f 93/2/4 94/2/4 97/2/4
f 96/3/4 93/3/4 97/3/4
f 94/1/4 95/1/4 98/1/4
f 97/2/4 94/2/4 98/2/4
f 98/1/4 95/1/4 99/1/4
f 99/1/4 95/1/4 100/1/4
f 96/1/4 97/1/4 101/1/4
f 97/1/4 98/1/4 101/1/4
f 98/1/4 99/1/4 101/1/4
f 101/1/4 99/1/4 102/1/4
f 99/3/4 100/3/4 103/3/4
f 102/1/4 99/1/4 103/1/4
f 101/3/4 102/3/4 104/3/4
f 102/2/4 103/2/4 105/2/4
f 104/3/4 102/3/4 105/3/4
f 103/3/4 100/3/4 106/3/4
f 105/2/4 103/2/4 106/2/4
f 106/3/4 100/3/4 107/3/4
f 101/3/4 104/3/4 108/3/4
f 104/1/4 105/1/4 109/1/4
f 108/3/4 104/3/4 109/3/4
f 105/1/4 106/1/4 109/1/4
f 106/1/4 107/1/4 109/1/4
f 109/1/4 107/1/4 110/1/4
f 113/3/5 112/3/5 111/3/5
f 114/3/5 112/3/5 113/3/5
f 118/3/5 116/3/5 115/3/5
f 119/1/5 117/1/5 116/1/5
f 119/3/5 116/3/5 118/3/5
f 120/1/5 117/1/5 119/1/5
f 125/3/5 122/3/5 121/3/5
f 126/1/5 123/1/5 122/1/5
f 126/3/5 122/3/5 125/3/5
f 127/3/5 124/3/5 123/3/5
f 127/1/5 123/1/5 126/1/5
f 128/3/5 124/3/5 127/3/5
f 129/1/6 130/1/6 134/1/6
f 130/3/6 131/3/6 135/3/6
f 134/1/6 130/1/6 135/1/6
f 131/1/6 132/1/6 136/1/6
f 135/3/6 131/3/6 136/3/6
f 132/3/6 133/3/6 137/3/6
f 136/1/6 132/1/6 137/1/6
f 135/1/6 136/1/6 137/1/6
f 137/3/6 133/3/6 138/3/6
f 134/3/6 135/3/6 139/3/6
f 135/1/6 137/1/6 140/1/6
f 139/3/6 135/3/6 140/3/6
f 137/1/6 138/1/6 140/1/6
f 140/1/6 138/1/6 141/1/6
f 141/1/6 138/1/6 142/1/6
f 139/1/6 140/1/6 143/1/6
f 140/1/6 141/1/6 143/1/6
f 143/1/6 141/1/6 144/1/6
f 143/3/6 144/3/6 145/3/6
f 144/1/6 141/1/6 146/1/6
f 145/3/6 144/3/6 146/3/6
f 141/3/6 142/3/6 147/3/6
f 146/1/6 141/1/6 147/1/6
f 147/3/6 142/3/6 148/3/6
f 145/1/6 146/1/6 149/1/6
f 146/3/6 147/3/6 150/3/6
f 149/1/6 146/1/6 150/1/6
f 147/1/6 148/1/6 151/1/6
f 150/3/6 147/3/6 151/3/6
f 151/1/6 148/1/6 152/1/6
