# MagicaVoxel @ Ephtracy

# group
o 

# material
mtllib seaEagle.mtl
usemtl palette

# normals
vn -1 0 0
vn 1 0 0
vn 0 0 1
vn 0 0 -1
vn 0 -1 0
vn 0 1 0

# texcoords
vt 0.970703 0.5
vt 0.974609 0.5
vt 0.978516 0.5
vt 0.982422 0.5
vt 0.986328 0.5
vt 0.990234 0.5

# verts
v -0.5 0 0.1
v -0.5 0 0
v -0.5 0.3 0.2
v -0.5 0.3 0.1
v -0.5 0.3 0
v -0.5 0.3 -0.1
v -0.5 0.4 0.2
v -0.5 0.4 -0.1
v -0.4 0.4 0.1
v -0.4 0.4 0
v -0.4 0.5 0.1
v -0.4 0.5 0
v -0.2 0.2 0.2
v -0.2 0.2 0.1
v -0.2 0.2 0
v -0.2 0.2 -0.1
v -0.2 0.3 0.2
v -0.2 0.3 0.1
v -0.2 0.3 0
v -0.2 0.3 -0.1
v 0 0.2 0.2
v 0 0.2 0.1
v 0 0.2 0
v 0 0.2 -0.1
v 0 0.3 0.2
v 0 0.3 0.1
v 0 0.3 0
v 0 0.3 -0.1
v 0.1 0.4 0.1
v 0.1 0.4 0
v 0.1 0.5 0.1
v 0.1 0.5 0
v 0.2 0.2 0.2
v 0.2 0.2 0.1
v 0.2 0.2 0
v 0.2 0.2 -0.1
v 0.2 0.3 0.2
v 0.2 0.3 0.1
v 0.2 0.3 0
v 0.2 0.3 -0.1
v -0.4 0 0.1
v -0.4 0 0
v -0.4 0.1 0.1
v -0.4 0.1 0
v -0.1 0.2 0.2
v -0.1 0.2 0.1
v -0.1 0.2 0
v -0.1 0.2 -0.1
v -0.1 0.3 0.2
v -0.1 0.3 0.1
v -0.1 0.3 0
v -0.1 0.3 -0.1
v -0.1 0.4 0.1
v -0.1 0.4 0
v -0.1 0.5 0.1
v -0.1 0.5 0
v 0.1 0.2 0.2
v 0.1 0.2 0.1
v 0.1 0.2 0
v 0.1 0.2 -0.1
v 0.1 0.3 0.2
v 0.1 0.3 0.1
v 0.1 0.3 0
v 0.1 0.3 -0.1
v 0.3 0.1 0.1
v 0.3 0.1 0
v 0.3 0.2 0.1
v 0.3 0.2 0
v 0.3 0.4 0.1
v 0.3 0.4 0
v 0.3 0.5 0.1
v 0.3 0.5 0
v 0.4 0.2 0.2
v 0.4 0.2 0.1
v 0.4 0.2 0
v 0.4 0.2 -0.1
v 0.4 0.4 0.2
v 0.4 0.4 0.1
v 0.4 0.4 0
v 0.4 0.4 -0.1
v -0.5 0.3 0.2
v -0.5 0.4 0.2
v -0.4 0.3 0.2
v -0.4 0.4 0.2
v -0.3 0.3 0.2
v -0.3 0.4 0.2
v -0.2 0.2 0.2
v -0.2 0.3 0.2
v -0.1 0.2 0.2
v -0.1 0.3 0.2
v -0.1 0.4 0.2
v 0 0.2 0.2
v 0 0.3 0.2
v 0.1 0.2 0.2
v 0.1 0.3 0.2
v 0.2 0.2 0.2
v 0.2 0.3 0.2
v 0.3 0.3 0.2
v 0.3 0.4 0.2
v 0.4 0.2 0.2
v 0.4 0.4 0.2
v -0.5 0 0.1
v -0.5 0.3 0.1
v -0.4 0 0.1
v -0.4 0.1 0.1
v -0.4 0.3 0.1
v -0.4 0.4 0.1
v -0.4 0.5 0.1
v -0.3 0.2 0.1
v -0.3 0.3 0.1
v -0.3 0.4 0.1
v -0.3 0.5 0.1
v -0.2 0.2 0.1
v -0.2 0.3 0.1
v -0.1 0.2 0.1
v -0.1 0.3 0.1
v -0.1 0.4 0.1
v -0.1 0.5 0.1
v 0 0.2 0.1
v 0 0.3 0.1
v 0.1 0.2 0.1
v 0.1 0.3 0.1
v 0.1 0.4 0.1
v 0.1 0.5 0.1
v 0.2 0.2 0.1
v 0.2 0.3 0.1
v 0.3 0.1 0.1
v 0.3 0.2 0.1
v 0.3 0.4 0.1
v 0.3 0.5 0.1
v -0.5 0 0
v -0.5 0.3 0
v -0.4 0 0
v -0.4 0.1 0
v -0.4 0.3 0
v -0.4 0.4 0
v -0.4 0.5 0
v -0.3 0.2 0
v -0.3 0.3 0
v -0.3 0.4 0
v -0.3 0.5 0
v -0.2 0.2 0
v -0.2 0.3 0
v -0.1 0.2 0
v -0.1 0.3 0
v -0.1 0.4 0
v -0.1 0.5 0
v 0 0.2 0
v 0 0.3 0
v 0.1 0.2 0
v 0.1 0.3 0
v 0.1 0.4 0
v 0.1 0.5 0
v 0.2 0.2 0
v 0.2 0.3 0
v 0.3 0.1 0
v 0.3 0.2 0
v 0.3 0.4 0
v 0.3 0.5 0
v -0.5 0.3 -0.1
v -0.5 0.4 -0.1
v -0.4 0.3 -0.1
v -0.4 0.4 -0.1
v -0.3 0.3 -0.1
v -0.3 0.4 -0.1
v -0.2 0.2 -0.1
v -0.2 0.3 -0.1
v -0.1 0.2 -0.1
v -0.1 0.3 -0.1
v -0.1 0.4 -0.1
v 0 0.2 -0.1
v 0 0.3 -0.1
v 0.1 0.2 -0.1
v 0.1 0.3 -0.1
v 0.2 0.2 -0.1
v 0.2 0.3 -0.1
v 0.3 0.3 -0.1
v 0.3 0.4 -0.1
v 0.4 0.2 -0.1
v 0.4 0.4 -0.1
v -0.5 0 0.1
v -0.4 0 0.1
v -0.5 0 0
v -0.4 0 0
v -0.4 0.1 0.1
v 0.3 0.1 0.1
v -0.4 0.1 0
v 0.3 0.1 0
v -0.2 0.2 0.2
v -0.1 0.2 0.2
v 0 0.2 0.2
v 0.1 0.2 0.2
v 0.2 0.2 0.2
v 0.4 0.2 0.2
v -0.2 0.2 0.1
v -0.1 0.2 0.1
v 0 0.2 0.1
v 0.1 0.2 0.1
v 0.2 0.2 0.1
v 0.3 0.2 0.1
v 0.4 0.2 0.1
v -0.2 0.2 0
v -0.1 0.2 0
v 0 0.2 0
v 0.1 0.2 0
v 0.2 0.2 0
v 0.3 0.2 0
v 0.4 0.2 0
v -0.2 0.2 -0.1
v -0.1 0.2 -0.1
v 0 0.2 -0.1
v 0.1 0.2 -0.1
v 0.2 0.2 -0.1
v 0.4 0.2 -0.1
v -0.5 0.3 0.2
v -0.4 0.3 0.2
v -0.3 0.3 0.2
v -0.2 0.3 0.2
v -0.1 0.3 0.2
v 0 0.3 0.2
v 0.1 0.3 0.2
v 0.2 0.3 0.2
v -0.5 0.3 0.1
v -0.4 0.3 0.1
v -0.3 0.3 0.1
v -0.2 0.3 0.1
v -0.1 0.3 0.1
v 0 0.3 0.1
v 0.1 0.3 0.1
v 0.2 0.3 0.1
v -0.5 0.3 0
v -0.4 0.3 0
v -0.3 0.3 0
v -0.2 0.3 0
v -0.1 0.3 0
v 0 0.3 0
v 0.1 0.3 0
v 0.2 0.3 0
v -0.5 0.3 -0.1
v -0.4 0.3 -0.1
v -0.3 0.3 -0.1
v -0.2 0.3 -0.1
v -0.1 0.3 -0.1
v 0 0.3 -0.1
v 0.1 0.3 -0.1
v 0.2 0.3 -0.1
v -0.5 0.4 0.2
v -0.4 0.4 0.2
v -0.3 0.4 0.2
v -0.1 0.4 0.2
v 0.3 0.4 0.2
v 0.4 0.4 0.2
v -0.4 0.4 0.1
v -0.3 0.4 0.1
v -0.1 0.4 0.1
v 0.1 0.4 0.1
v 0.3 0.4 0.1
v 0.4 0.4 0.1
v -0.4 0.4 0
v -0.3 0.4 0
v -0.1 0.4 0
v 0.1 0.4 0
v 0.3 0.4 0
v 0.4 0.4 0
v -0.5 0.4 -0.1
v -0.4 0.4 -0.1
v -0.3 0.4 -0.1
v -0.1 0.4 -0.1
v 0.3 0.4 -0.1
v 0.4 0.4 -0.1
v -0.4 0.5 0.1
v -0.3 0.5 0.1
v -0.1 0.5 0.1
v 0.1 0.5 0.1
v 0.3 0.5 0.1
v -0.4 0.5 0
v -0.3 0.5 0
v -0.1 0.5 0
v 0.1 0.5 0
v 0.3 0.5 0

# faces
f 4/3/1 2/3/1 1/3/1
f 5/3/1 2/3/1 4/3/1
f 7/3/1 4/3/1 3/3/1
f 7/3/1 6/3/1 5/3/1
f 7/3/1 5/3/1 4/3/1
f 8/3/1 6/3/1 7/3/1
f 11/5/1 10/5/1 9/5/1
f 12/5/1 10/5/1 11/5/1
f 17/2/1 14/2/1 13/2/1
f 18/2/1 14/2/1 17/2/1
f 19/2/1 16/2/1 15/2/1
f 20/2/1 16/2/1 19/2/1
f 25/2/1 22/2/1 21/2/1
f 26/2/1 22/2/1 25/2/1
f 27/2/1 24/2/1 23/2/1
f 28/2/1 24/2/1 27/2/1
f 31/5/1 30/5/1 29/5/1
f 32/5/1 30/5/1 31/5/1
f 37/2/1 34/2/1 33/2/1
f 38/2/1 34/2/1 37/2/1
f 39/2/1 36/2/1 35/2/1
f 40/2/1 36/2/1 39/2/1
f 41/3/2 42/3/2 43/3/2
f 43/3/2 42/3/2 44/3/2
f 45/2/2 46/2/2 49/2/2
f 49/2/2 46/2/2 50/2/2
f 47/2/2 48/2/2 51/2/2
f 51/2/2 48/2/2 52/2/2
f 53/2/2 54/2/2 55/2/2
f 55/2/2 54/2/2 56/2/2
f 57/2/2 58/2/2 61/2/2
f 61/2/2 58/2/2 62/2/2
f 59/2/2 60/2/2 63/2/2
f 63/2/2 60/2/2 64/2/2
f 65/5/2 66/5/2 67/5/2
f 67/5/2 66/5/2 68/5/2
f 69/5/2 70/5/2 71/5/2
f 71/5/2 70/5/2 72/5/2
f 73/2/2 74/2/2 77/2/2
f 74/6/2 75/6/2 78/6/2
f 77/2/2 74/2/2 78/2/2
f 75/2/2 76/2/2 79/2/2
f 78/6/2 75/6/2 79/6/2
f 79/2/2 76/2/2 80/2/2
f 83/3/3 82/3/3 81/3/3
f 84/3/3 82/3/3 83/3/3
f 85/5/3 84/5/3 83/5/3
f 86/5/3 84/5/3 85/5/3
f 88/2/3 86/2/3 85/2/3
f 89/2/3 88/2/3 87/2/3
f 90/2/3 86/2/3 88/2/3
f 90/2/3 88/2/3 89/2/3
f 91/2/3 86/2/3 90/2/3
f 93/1/3 91/1/3 90/1/3
f 94/2/3 93/2/3 92/2/3
f 95/1/3 91/1/3 93/1/3
f 95/2/3 93/2/3 94/2/3
f 97/1/3 91/1/3 95/1/3
f 98/1/3 91/1/3 97/1/3
f 98/2/3 97/2/3 96/2/3
f 99/1/3 91/1/3 98/1/3
f 100/2/3 98/2/3 96/2/3
f 100/2/3 99/2/3 98/2/3
f 101/2/3 99/2/3 100/2/3
f 104/3/3 103/3/3 102/3/3
f 105/3/3 103/3/3 104/3/3
f 106/3/3 103/3/3 105/3/3
f 109/5/3 106/5/3 105/5/3
f 110/5/3 106/5/3 109/5/3
f 111/5/3 108/5/3 107/5/3
f 112/5/3 108/5/3 111/5/3
f 113/4/3 110/4/3 109/4/3
f 113/5/3 109/5/3 105/5/3
f 114/4/3 110/4/3 113/4/3
f 115/5/3 113/5/3 105/5/3
f 117/2/3 112/2/3 111/2/3
f 118/2/3 112/2/3 117/2/3
f 119/4/3 116/4/3 115/4/3
f 119/5/3 115/5/3 105/5/3
f 120/4/3 116/4/3 119/4/3
f 121/5/3 119/5/3 105/5/3
f 125/4/3 122/4/3 121/4/3
f 125/5/3 121/5/3 105/5/3
f 126/4/3 122/4/3 125/4/3
f 127/5/3 125/5/3 105/5/3
f 128/5/3 125/5/3 127/5/3
f 129/5/3 124/5/3 123/5/3
f 130/5/3 124/5/3 129/5/3
f 131/3/4 132/3/4 133/3/4
f 133/3/4 132/3/4 134/3/4
f 134/3/4 132/3/4 135/3/4
f 134/5/4 135/5/4 138/5/4
f 138/5/4 135/5/4 139/5/4
f 136/5/4 137/5/4 140/5/4
f 140/5/4 137/5/4 141/5/4
f 138/4/4 139/4/4 142/4/4
f 134/5/4 138/5/4 142/5/4
f 142/4/4 139/4/4 143/4/4
f 134/5/4 142/5/4 144/5/4
f 140/2/4 141/2/4 146/2/4
f 146/2/4 141/2/4 147/2/4
f 144/4/4 145/4/4 148/4/4
f 134/5/4 144/5/4 148/5/4
f 148/4/4 145/4/4 149/4/4
f 134/5/4 148/5/4 150/5/4
f 150/4/4 151/4/4 154/4/4
f 134/5/4 150/5/4 154/5/4
f 154/4/4 151/4/4 155/4/4
f 134/5/4 154/5/4 156/5/4
f 156/5/4 154/5/4 157/5/4
f 152/5/4 153/5/4 158/5/4
f 158/5/4 153/5/4 159/5/4
f 160/3/4 161/3/4 162/3/4
f 162/3/4 161/3/4 163/3/4
f 162/5/4 163/5/4 164/5/4
f 164/5/4 163/5/4 165/5/4
f 164/2/4 165/2/4 167/2/4
f 166/2/4 167/2/4 168/2/4
f 167/2/4 165/2/4 169/2/4
f 168/2/4 167/2/4 169/2/4
f 169/2/4 165/2/4 170/2/4
f 169/1/4 170/1/4 172/1/4
f 171/2/4 172/2/4 173/2/4
f 172/1/4 170/1/4 174/1/4
f 173/2/4 172/2/4 174/2/4
f 174/1/4 170/1/4 176/1/4
f 176/1/4 170/1/4 177/1/4
f 175/2/4 176/2/4 177/2/4
f 177/1/4 170/1/4 178/1/4
f 175/2/4 177/2/4 179/2/4
f 177/2/4 178/2/4 179/2/4
f 179/2/4 178/2/4 180/2/4
f 183/3/5 182/3/5 181/3/5
f 184/3/5 182/3/5 183/3/5
f 187/5/5 186/5/5 185/5/5
f 188/5/5 186/5/5 187/5/5
f 195/2/5 190/2/5 189/2/5
f 196/2/5 190/2/5 195/2/5
f 197/2/5 192/2/5 191/2/5
f 198/2/5 192/2/5 197/2/5
f 199/2/5 194/2/5 193/2/5
f 200/2/5 194/2/5 199/2/5
f 201/2/5 194/2/5 200/2/5
f 207/6/5 201/6/5 200/6/5
f 208/6/5 201/6/5 207/6/5
f 209/2/5 203/2/5 202/2/5
f 210/2/5 203/2/5 209/2/5
f 211/2/5 205/2/5 204/2/5
f 212/2/5 205/2/5 211/2/5
f 213/2/5 207/2/5 206/2/5
f 213/2/5 208/2/5 207/2/5
f 214/2/5 208/2/5 213/2/5
f 223/3/5 216/3/5 215/3/5
f 224/5/5 217/5/5 216/5/5
f 224/3/5 216/3/5 223/3/5
f 225/2/5 218/2/5 217/2/5
f 225/5/5 217/5/5 224/5/5
f 226/2/5 218/2/5 225/2/5
f 227/1/5 220/1/5 219/1/5
f 228/1/5 220/1/5 227/1/5
f 229/1/5 222/1/5 221/1/5
f 230/1/5 222/1/5 229/1/5
f 239/3/5 232/3/5 231/3/5
f 240/5/5 233/5/5 232/5/5
f 240/3/5 232/3/5 239/3/5
f 241/2/5 234/2/5 233/2/5
f 241/5/5 233/5/5 240/5/5
f 242/2/5 234/2/5 241/2/5
f 243/1/5 236/1/5 235/1/5
f 244/1/5 236/1/5 243/1/5
f 245/1/5 238/1/5 237/1/5
f 246/1/5 238/1/5 245/1/5
f 247/3/6 248/3/6 253/3/6
f 248/5/6 249/5/6 253/5/6
f 249/2/6 250/2/6 254/2/6
f 253/5/6 249/5/6 254/5/6
f 250/1/6 251/1/6 255/1/6
f 254/2/6 250/2/6 255/2/6
f 255/1/6 251/1/6 256/1/6
f 251/2/6 252/2/6 257/2/6
f 256/1/6 251/1/6 257/1/6
f 257/2/6 252/2/6 258/2/6
f 247/3/6 253/3/6 259/3/6
f 255/1/6 256/1/6 261/1/6
f 261/1/6 256/1/6 262/1/6
f 257/6/6 258/6/6 263/6/6
f 263/6/6 258/6/6 264/6/6
f 247/3/6 259/3/6 265/3/6
f 259/5/6 260/5/6 266/5/6
f 265/3/6 259/3/6 266/3/6
f 260/2/6 261/2/6 267/2/6
f 266/5/6 260/5/6 267/5/6
f 261/1/6 262/1/6 268/1/6
f 267/2/6 261/2/6 268/2/6
f 262/1/6 263/1/6 268/1/6
f 263/2/6 264/2/6 269/2/6
f 268/1/6 263/1/6 269/1/6
f 269/2/6 264/2/6 270/2/6
f 271/5/6 272/5/6 276/5/6
f 272/2/6 273/2/6 277/2/6
f 276/5/6 272/5/6 277/5/6
f 277/2/6 273/2/6 278/2/6
f 274/5/6 275/5/6 279/5/6
f 279/5/6 275/5/6 280/5/6
