# MagicaVoxel @ Ephtracy

# group
o 

# material
mtllib granade launch.mtl
usemtl palette

# normals
vn -1 0 0
vn 1 0 0
vn 0 0 1
vn 0 0 -1
vn 0 -1 0
vn 0 1 0

# texcoords
vt 0.970703 0.5
vt 0.974609 0.5
vt 0.978516 0.5
vt 0.982422 0.5
vt 0.986328 0.5
vt 0.990234 0.5

# verts
v -0.8 0.1 0.1
v -0.8 0.1 0
v -0.8 0.2 0.2
v -0.8 0.2 0.1
v -0.8 0.2 0
v -0.8 0.2 -0.1
v -0.8 0.5 0.2
v -0.8 0.5 0.1
v -0.8 0.5 0
v -0.8 0.5 -0.1
v -0.8 0.6 0.1
v -0.8 0.6 0
v -0.4 0 0.1
v -0.4 0 0
v -0.4 0.2 0.1
v -0.4 0.2 0
v -0.4 0.3 0.2
v -0.4 0.3 -0.1
v -0.4 0.4 0.2
v -0.4 0.4 -0.1
v -0.3 0.5 0.1
v -0.3 0.5 0
v -0.3 0.6 0.1
v -0.3 0.6 0
v -0.1 0 0.1
v -0.1 0 0
v -0.1 0.1 0.2
v -0.1 0.1 0.1
v -0.1 0.1 0
v -0.1 0.1 -0.1
v -0.1 0.2 0.3
v -0.1 0.2 0.2
v -0.1 0.2 0.1
v -0.1 0.2 0
v -0.1 0.2 -0.1
v -0.1 0.2 -0.2
v -0.1 0.3 0.3
v -0.1 0.3 0.2
v -0.1 0.3 0.1
v -0.1 0.3 0
v -0.1 0.3 -0.1
v -0.1 0.3 -0.2
v -0.1 0.4 0.3
v -0.1 0.4 0.2
v -0.1 0.4 -0.1
v -0.1 0.4 -0.2
v -0.1 0.5 0.3
v -0.1 0.5 0.2
v -0.1 0.5 -0.1
v -0.1 0.5 -0.2
v 0.4 0.1 0.1
v 0.4 0.1 0
v 0.4 0.2 0.1
v 0.4 0.2 0
v 0.4 0.3 0.1
v 0.4 0.3 0
v 0.5 0.5 0.1
v 0.5 0.5 0
v 0.5 0.6 0.1
v 0.5 0.6 0
v 0.6 0.3 0.2
v 0.6 0.3 0.1
v 0.6 0.3 0
v 0.6 0.3 -0.1
v 0.6 0.4 0.2
v 0.6 0.4 0.1
v 0.6 0.4 0
v 0.6 0.4 -0.1
v -0.7 0.3 0.2
v -0.7 0.3 0.1
v -0.7 0.3 0
v -0.7 0.3 -0.1
v -0.7 0.4 0.2
v -0.7 0.4 0.1
v -0.7 0.4 0
v -0.7 0.4 -0.1
v -0.6 0.1 0.1
v -0.6 0.1 0
v -0.6 0.2 0.1
v -0.6 0.2 0
v -0.6 0.3 0.1
v -0.6 0.3 0
v -0.6 0.4 0.1
v -0.6 0.4 0
v -0.6 0.5 0.1
v -0.6 0.5 0
v -0.6 0.6 0.1
v -0.6 0.6 0
v -0.3 0 0.1
v -0.3 0 0
v -0.3 0.1 0.1
v -0.3 0.1 0
v -0.3 0.2 0.2
v -0.3 0.2 0.1
v -0.3 0.2 0
v -0.3 0.2 -0.1
v -0.3 0.3 0.2
v -0.3 0.3 0.1
v -0.3 0.3 0
v -0.3 0.3 -0.1
v -0.2 0.1 0.1
v -0.2 0.1 0
v -0.2 0.2 0.1
v -0.2 0.2 0
v 0.2 0 0.1
v 0.2 0 0
v 0.2 0.1 0.2
v 0.2 0.1 0.1
v 0.2 0.1 0
v 0.2 0.1 -0.1
v 0.2 0.2 0.3
v 0.2 0.2 0.2
v 0.2 0.2 -0.1
v 0.2 0.2 -0.2
v 0.2 0.3 0.3
v 0.2 0.3 0.2
v 0.2 0.3 -0.1
v 0.2 0.3 -0.2
v 0.2 0.4 0.3
v 0.2 0.4 0.2
v 0.2 0.4 -0.1
v 0.2 0.4 -0.2
v 0.2 0.5 0.3
v 0.2 0.5 0.2
v 0.2 0.5 -0.1
v 0.2 0.5 -0.2
v 0.3 0.2 0.2
v 0.3 0.2 -0.1
v 0.3 0.3 0.2
v 0.3 0.3 -0.1
v 0.3 0.5 0.1
v 0.3 0.5 0
v 0.3 0.6 0.1
v 0.3 0.6 0
v 0.4 0.3 0.2
v 0.4 0.3 0.1
v 0.4 0.3 0
v 0.4 0.3 -0.1
v 0.4 0.4 0.2
v 0.4 0.4 0.1
v 0.4 0.4 0
v 0.4 0.4 -0.1
v 0.5 0.1 0.1
v 0.5 0.1 0
v 0.5 0.2 0.1
v 0.5 0.2 0
v 0.5 0.3 0.1
v 0.5 0.3 0
v 0.6 0.5 0.1
v 0.6 0.5 0
v 0.6 0.6 0.1
v 0.6 0.6 0
v 0.7 0.3 0.2
v 0.7 0.3 -0.1
v 0.7 0.5 0.2
v 0.7 0.5 -0.1
v -0.1 0.2 0.3
v -0.1 0.3 0.3
v -0.1 0.4 0.3
v -0.1 0.5 0.3
v 0 0.2 0.3
v 0 0.3 0.3
v 0 0.4 0.3
v 0 0.5 0.3
v 0.1 0.3 0.3
v 0.1 0.4 0.3
v 0.2 0.2 0.3
v 0.2 0.3 0.3
v 0.2 0.4 0.3
v 0.2 0.5 0.3
v -0.8 0.2 0.2
v -0.8 0.5 0.2
v -0.7 0.2 0.2
v -0.7 0.3 0.2
v -0.7 0.4 0.2
v -0.7 0.5 0.2
v -0.6 0.4 0.2
v -0.6 0.5 0.2
v -0.4 0.3 0.2
v -0.4 0.4 0.2
v -0.3 0.2 0.2
v -0.3 0.3 0.2
v -0.3 0.4 0.2
v -0.2 0.3 0.2
v -0.2 0.4 0.2
v -0.1 0.1 0.2
v -0.1 0.2 0.2
v -0.1 0.3 0.2
v -0.1 0.4 0.2
v -0.1 0.5 0.2
v 0 0.2 0.2
v 0.2 0.1 0.2
v 0.2 0.2 0.2
v 0.2 0.3 0.2
v 0.2 0.4 0.2
v 0.2 0.5 0.2
v 0.3 0.2 0.2
v 0.3 0.3 0.2
v 0.3 0.4 0.2
v 0.4 0.3 0.2
v 0.4 0.4 0.2
v 0.6 0.3 0.2
v 0.6 0.4 0.2
v 0.6 0.5 0.2
v 0.7 0.3 0.2
v 0.7 0.5 0.2
v -0.8 0.1 0.1
v -0.8 0.2 0.1
v -0.8 0.5 0.1
v -0.8 0.6 0.1
v -0.7 0.1 0.1
v -0.7 0.2 0.1
v -0.7 0.3 0.1
v -0.7 0.4 0.1
v -0.7 0.5 0.1
v -0.7 0.6 0.1
v -0.6 0.1 0.1
v -0.6 0.2 0.1
v -0.6 0.3 0.1
v -0.6 0.4 0.1
v -0.6 0.5 0.1
v -0.6 0.6 0.1
v -0.4 0 0.1
v -0.4 0.2 0.1
v -0.3 0 0.1
v -0.3 0.1 0.1
v -0.3 0.2 0.1
v -0.3 0.3 0.1
v -0.3 0.5 0.1
v -0.3 0.6 0.1
v -0.2 0.1 0.1
v -0.2 0.2 0.1
v -0.2 0.3 0.1
v -0.1 0 0.1
v -0.1 0.1 0.1
v -0.1 0.2 0.1
v -0.1 0.3 0.1
v 0.2 0 0.1
v 0.2 0.1 0.1
v 0.3 0.5 0.1
v 0.3 0.6 0.1
v 0.4 0.1 0.1
v 0.4 0.2 0.1
v 0.4 0.3 0.1
v 0.4 0.4 0.1
v 0.5 0.1 0.1
v 0.5 0.2 0.1
v 0.5 0.3 0.1
v 0.5 0.5 0.1
v 0.5 0.6 0.1
v 0.6 0.3 0.1
v 0.6 0.4 0.1
v 0.6 0.5 0.1
v 0.6 0.6 0.1
v -0.8 0.1 0
v -0.8 0.2 0
v -0.8 0.5 0
v -0.8 0.6 0
v -0.7 0.1 0
v -0.7 0.2 0
v -0.7 0.3 0
v -0.7 0.4 0
v -0.7 0.5 0
v -0.7 0.6 0
v -0.6 0.1 0
v -0.6 0.2 0
v -0.6 0.3 0
v -0.6 0.4 0
v -0.6 0.5 0
v -0.6 0.6 0
v -0.4 0 0
v -0.4 0.2 0
v -0.3 0 0
v -0.3 0.1 0
v -0.3 0.2 0
v -0.3 0.3 0
v -0.3 0.5 0
v -0.3 0.6 0
v -0.2 0.1 0
v -0.2 0.2 0
v -0.2 0.3 0
v -0.1 0 0
v -0.1 0.1 0
v -0.1 0.2 0
v -0.1 0.3 0
v 0.2 0 0
v 0.2 0.1 0
v 0.3 0.5 0
v 0.3 0.6 0
v 0.4 0.1 0
v 0.4 0.2 0
v 0.4 0.3 0
v 0.4 0.4 0
v 0.5 0.1 0
v 0.5 0.2 0
v 0.5 0.3 0
v 0.5 0.5 0
v 0.5 0.6 0
v 0.6 0.3 0
v 0.6 0.4 0
v 0.6 0.5 0
v 0.6 0.6 0
v -0.8 0.2 -0.1
v -0.8 0.5 -0.1
v -0.7 0.2 -0.1
v -0.7 0.3 -0.1
v -0.7 0.4 -0.1
v -0.7 0.5 -0.1
v -0.6 0.4 -0.1
v -0.6 0.5 -0.1
v -0.4 0.3 -0.1
v -0.4 0.4 -0.1
v -0.3 0.2 -0.1
v -0.3 0.3 -0.1
v -0.3 0.4 -0.1
v -0.2 0.3 -0.1
v -0.2 0.4 -0.1
v -0.1 0.1 -0.1
v -0.1 0.2 -0.1
v -0.1 0.3 -0.1
v -0.1 0.4 -0.1
v -0.1 0.5 -0.1
v 0 0.2 -0.1
v 0.2 0.1 -0.1
v 0.2 0.2 -0.1
v 0.2 0.3 -0.1
v 0.2 0.4 -0.1
v 0.2 0.5 -0.1
v 0.3 0.2 -0.1
v 0.3 0.3 -0.1
v 0.3 0.4 -0.1
v 0.4 0.3 -0.1
v 0.4 0.4 -0.1
v 0.6 0.3 -0.1
v 0.6 0.4 -0.1
v 0.6 0.5 -0.1
v 0.7 0.3 -0.1
v 0.7 0.5 -0.1
v -0.1 0.2 -0.2
v -0.1 0.3 -0.2
v -0.1 0.4 -0.2
v -0.1 0.5 -0.2
v 0 0.2 -0.2
v 0 0.3 -0.2
v 0 0.4 -0.2
v 0 0.5 -0.2
v 0.1 0.3 -0.2
v 0.1 0.4 -0.2
v 0.2 0.2 -0.2
v 0.2 0.3 -0.2
v 0.2 0.4 -0.2
v 0.2 0.5 -0.2
v -0.4 0 0.1
v -0.3 0 0.1
v -0.1 0 0.1
v 0.2 0 0.1
v -0.4 0 0
v -0.3 0 0
v -0.1 0 0
v 0.2 0 0
v -0.1 0.1 0.2
v 0.2 0.1 0.2
v -0.8 0.1 0.1
v -0.7 0.1 0.1
v -0.6 0.1 0.1
v -0.3 0.1 0.1
v -0.2 0.1 0.1
v -0.1 0.1 0.1
v 0.2 0.1 0.1
v 0.4 0.1 0.1
v 0.5 0.1 0.1
v -0.8 0.1 0
v -0.7 0.1 0
v -0.6 0.1 0
v -0.3 0.1 0
v -0.2 0.1 0
v -0.1 0.1 0
v 0.2 0.1 0
v 0.4 0.1 0
v 0.5 0.1 0
v -0.1 0.1 -0.1
v 0.2 0.1 -0.1
v -0.1 0.2 0.3
v 0 0.2 0.3
v 0.2 0.2 0.3
v -0.8 0.2 0.2
v -0.7 0.2 0.2
v -0.3 0.2 0.2
v -0.1 0.2 0.2
v 0 0.2 0.2
v 0.2 0.2 0.2
v 0.3 0.2 0.2
v -0.8 0.2 0.1
v -0.7 0.2 0.1
v -0.6 0.2 0.1
v -0.4 0.2 0.1
v -0.3 0.2 0.1
v -0.2 0.2 0.1
v -0.1 0.2 0.1
v -0.8 0.2 0
v -0.7 0.2 0
v -0.6 0.2 0
v -0.4 0.2 0
v -0.3 0.2 0
v -0.2 0.2 0
v -0.1 0.2 0
v -0.8 0.2 -0.1
v -0.7 0.2 -0.1
v -0.3 0.2 -0.1
v -0.1 0.2 -0.1
v 0 0.2 -0.1
v 0.2 0.2 -0.1
v 0.3 0.2 -0.1
v -0.1 0.2 -0.2
v 0 0.2 -0.2
v 0.2 0.2 -0.2
v -0.3 0.3 0.2
v -0.2 0.3 0.2
v -0.1 0.3 0.2
v 0.3 0.3 0.2
v 0.4 0.3 0.2
v 0.6 0.3 0.2
v 0.7 0.3 0.2
v -0.3 0.3 0.1
v -0.2 0.3 0.1
v -0.1 0.3 0.1
v 0.4 0.3 0.1
v 0.5 0.3 0.1
v 0.6 0.3 0.1
v -0.3 0.3 0
v -0.2 0.3 0
v -0.1 0.3 0
v 0.4 0.3 0
v 0.5 0.3 0
v 0.6 0.3 0
v -0.3 0.3 -0.1
v -0.2 0.3 -0.1
v -0.1 0.3 -0.1
v 0.3 0.3 -0.1
v 0.4 0.3 -0.1
v 0.6 0.3 -0.1
v 0.7 0.3 -0.1
v -0.7 0.4 0.2
v -0.6 0.4 0.2
v -0.4 0.4 0.2
v 0.4 0.4 0.2
v 0.6 0.4 0.2
v -0.7 0.4 0.1
v -0.6 0.4 0.1
v 0.4 0.4 0.1
v 0.6 0.4 0.1
v -0.7 0.4 0
v -0.6 0.4 0
v 0.4 0.4 0
v 0.6 0.4 0
v -0.7 0.4 -0.1
v -0.6 0.4 -0.1
v -0.4 0.4 -0.1
v 0.4 0.4 -0.1
v 0.6 0.4 -0.1
v -0.7 0.3 0.2
v -0.4 0.3 0.2
v -0.7 0.3 0.1
v -0.6 0.3 0.1
v -0.7 0.3 0
v -0.6 0.3 0
v -0.7 0.3 -0.1
v -0.4 0.3 -0.1
v -0.1 0.5 0.3
v 0 0.5 0.3
v 0.2 0.5 0.3
v -0.8 0.5 0.2
v -0.7 0.5 0.2
v -0.6 0.5 0.2
v -0.1 0.5 0.2
v 0 0.5 0.2
v 0.2 0.5 0.2
v 0.6 0.5 0.2
v 0.7 0.5 0.2
v -0.8 0.5 0.1
v -0.7 0.5 0.1
v -0.6 0.5 0.1
v -0.3 0.5 0.1
v 0.3 0.5 0.1
v 0.5 0.5 0.1
v 0.6 0.5 0.1
v -0.8 0.5 0
v -0.7 0.5 0
v -0.6 0.5 0
v -0.3 0.5 0
v 0.3 0.5 0
v 0.5 0.5 0
v 0.6 0.5 0
v -0.8 0.5 -0.1
v -0.7 0.5 -0.1
v -0.6 0.5 -0.1
v -0.1 0.5 -0.1
v 0 0.5 -0.1
v 0.2 0.5 -0.1
v 0.6 0.5 -0.1
v 0.7 0.5 -0.1
v -0.1 0.5 -0.2
v 0 0.5 -0.2
v 0.2 0.5 -0.2
v -0.8 0.6 0.1
v -0.7 0.6 0.1
v -0.6 0.6 0.1
v -0.3 0.6 0.1
v 0.3 0.6 0.1
v 0.5 0.6 0.1
v 0.6 0.6 0.1
v -0.8 0.6 0
v -0.7 0.6 0
v -0.6 0.6 0
v -0.3 0.6 0
v 0.3 0.6 0
v 0.5 0.6 0
v 0.6 0.6 0

# faces
f 4/4/1 2/4/1 1/4/1
f 5/4/1 2/4/1 4/4/1
f 7/4/1 4/4/1 3/4/1
f 7/4/1 6/4/1 5/4/1
f 7/4/1 5/4/1 4/4/1
f 8/4/1 6/4/1 7/4/1
f 9/4/1 6/4/1 8/4/1
f 10/4/1 6/4/1 9/4/1
f 11/4/1 9/4/1 8/4/1
f 12/4/1 9/4/1 11/4/1
f 15/4/1 14/4/1 13/4/1
f 16/4/1 14/4/1 15/4/1
f 19/2/1 18/2/1 17/2/1
f 20/2/1 18/2/1 19/2/1
f 23/1/1 22/1/1 21/1/1
f 24/1/1 22/1/1 23/1/1
f 28/4/1 26/4/1 25/4/1
f 29/4/1 26/4/1 28/4/1
f 32/3/1 28/3/1 27/3/1
f 32/3/1 30/3/1 29/3/1
f 32/3/1 29/3/1 28/3/1
f 33/3/1 30/3/1 32/3/1
f 34/3/1 30/3/1 33/3/1
f 35/3/1 30/3/1 34/3/1
f 37/5/1 32/5/1 31/5/1
f 38/2/1 33/2/1 32/2/1
f 38/5/1 32/5/1 37/5/1
f 39/2/1 33/2/1 38/2/1
f 40/2/1 35/2/1 34/2/1
f 41/5/1 36/5/1 35/5/1
f 41/2/1 35/2/1 40/2/1
f 42/5/1 36/5/1 41/5/1
f 43/2/1 38/2/1 37/2/1
f 44/2/1 38/2/1 43/2/1
f 45/2/1 42/2/1 41/2/1
f 46/2/1 42/2/1 45/2/1
f 47/5/1 44/5/1 43/5/1
f 48/5/1 44/5/1 47/5/1
f 49/5/1 46/5/1 45/5/1
f 50/5/1 46/5/1 49/5/1
f 53/4/1 52/4/1 51/4/1
f 54/4/1 52/4/1 53/4/1
f 55/3/1 54/3/1 53/3/1
f 56/3/1 54/3/1 55/3/1
f 59/2/1 58/2/1 57/2/1
f 60/2/1 58/2/1 59/2/1
f 65/6/1 62/6/1 61/6/1
f 66/6/1 62/6/1 65/6/1
f 67/6/1 64/6/1 63/6/1
f 68/6/1 64/6/1 67/6/1
f 69/4/2 70/4/2 73/4/2
f 73/4/2 70/4/2 74/4/2
f 71/4/2 72/4/2 75/4/2
f 75/4/2 72/4/2 76/4/2
f 77/3/2 78/3/2 79/3/2
f 79/3/2 78/3/2 80/3/2
f 81/3/2 82/3/2 83/3/2
f 83/3/2 82/3/2 84/3/2
f 85/3/2 86/3/2 87/3/2
f 87/3/2 86/3/2 88/3/2
f 89/4/2 90/4/2 91/4/2
f 91/4/2 90/4/2 92/4/2
f 93/3/2 94/3/2 97/3/2
f 97/3/2 94/3/2 98/3/2
f 95/3/2 96/3/2 99/3/2
f 99/3/2 96/3/2 100/3/2
f 101/4/2 102/4/2 103/4/2
f 103/4/2 102/4/2 104/4/2
f 105/4/2 106/4/2 108/4/2
f 108/4/2 106/4/2 109/4/2
f 107/3/2 108/3/2 112/3/2
f 109/3/2 110/3/2 112/3/2
f 108/3/2 109/3/2 112/3/2
f 112/3/2 110/3/2 113/3/2
f 111/3/2 112/3/2 115/3/2
f 115/3/2 112/3/2 116/3/2
f 113/3/2 114/3/2 117/3/2
f 117/3/2 114/3/2 118/3/2
f 115/5/2 116/5/2 119/5/2
f 119/5/2 116/5/2 120/5/2
f 117/5/2 118/5/2 121/5/2
f 121/5/2 118/5/2 122/5/2
f 119/1/2 120/1/2 123/1/2
f 123/1/2 120/1/2 124/1/2
f 121/1/2 122/1/2 125/1/2
f 125/1/2 122/1/2 126/1/2
f 127/3/2 128/3/2 129/3/2
f 129/3/2 128/3/2 130/3/2
f 131/1/2 132/1/2 133/1/2
f 133/1/2 132/1/2 134/1/2
f 135/1/2 136/1/2 139/1/2
f 139/1/2 136/1/2 140/1/2
f 137/1/2 138/1/2 141/1/2
f 141/1/2 138/1/2 142/1/2
f 143/4/2 144/4/2 145/4/2
f 145/4/2 144/4/2 146/4/2
f 145/3/2 146/3/2 147/3/2
f 147/3/2 146/3/2 148/3/2
f 149/2/2 150/2/2 151/2/2
f 151/2/2 150/2/2 152/2/2
f 153/6/2 154/6/2 155/6/2
f 155/6/2 154/6/2 156/6/2
f 161/5/3 158/5/3 157/5/3
f 162/2/3 159/2/3 158/2/3
f 162/5/3 158/5/3 161/5/3
f 163/5/3 160/5/3 159/5/3
f 163/2/3 159/2/3 162/2/3
f 164/5/3 160/5/3 163/5/3
f 165/3/3 162/3/3 161/3/3
f 165/2/3 163/2/3 162/2/3
f 166/1/3 164/1/3 163/1/3
f 166/2/3 163/2/3 165/2/3
f 167/3/3 165/3/3 161/3/3
f 168/5/3 166/5/3 165/5/3
f 168/3/3 165/3/3 167/3/3
f 169/1/3 164/1/3 166/1/3
f 169/5/3 166/5/3 168/5/3
f 170/1/3 164/1/3 169/1/3
f 173/4/3 172/4/3 171/4/3
f 174/4/3 172/4/3 173/4/3
f 175/4/3 172/4/3 174/4/3
f 176/4/3 172/4/3 175/4/3
f 177/3/3 176/3/3 175/3/3
f 178/3/3 176/3/3 177/3/3
f 179/3/3 174/3/3 173/3/3
f 180/2/3 178/2/3 177/2/3
f 181/3/3 179/3/3 173/3/3
f 182/2/3 180/2/3 179/2/3
f 182/3/3 179/3/3 181/3/3
f 183/2/3 178/2/3 180/2/3
f 183/2/3 180/2/3 182/2/3
f 184/1/3 183/1/3 182/1/3
f 185/2/3 178/2/3 183/2/3
f 185/1/3 183/1/3 184/1/3
f 188/2/3 185/2/3 184/2/3
f 189/2/3 178/2/3 185/2/3
f 189/2/3 185/2/3 188/2/3
f 190/2/3 178/2/3 189/2/3
f 191/3/3 187/3/3 186/3/3
f 192/3/3 191/3/3 186/3/3
f 193/3/3 191/3/3 192/3/3
f 197/3/3 194/3/3 193/3/3
f 198/2/3 196/2/3 195/2/3
f 198/3/3 194/3/3 197/3/3
f 198/2/3 195/2/3 194/2/3
f 199/2/3 196/2/3 198/2/3
f 200/1/3 199/1/3 198/1/3
f 201/2/3 196/2/3 199/2/3
f 201/1/3 199/1/3 200/1/3
f 203/2/3 196/2/3 201/2/3
f 204/2/3 196/2/3 203/2/3
f 205/6/3 203/6/3 202/6/3
f 205/6/3 204/6/3 203/6/3
f 206/6/3 204/6/3 205/6/3
f 211/4/3 208/4/3 207/4/3
f 212/4/3 208/4/3 211/4/3
f 215/4/3 210/4/3 209/4/3
f 216/4/3 210/4/3 215/4/3
f 217/3/3 212/3/3 211/3/3
f 218/3/3 212/3/3 217/3/3
f 219/3/3 214/3/3 213/3/3
f 220/3/3 214/3/3 219/3/3
f 221/3/3 216/3/3 215/3/3
f 222/3/3 216/3/3 221/3/3
f 225/4/3 224/4/3 223/4/3
f 226/4/3 224/4/3 225/4/3
f 227/4/3 224/4/3 226/4/3
f 231/4/3 227/4/3 226/4/3
f 232/3/3 228/3/3 227/3/3
f 232/4/3 227/4/3 231/4/3
f 233/3/3 228/3/3 232/3/3
f 236/3/3 233/3/3 232/3/3
f 237/3/3 233/3/3 236/3/3
f 238/4/3 235/4/3 234/4/3
f 239/4/3 235/4/3 238/4/3
f 240/1/3 230/1/3 229/1/3
f 241/1/3 230/1/3 240/1/3
f 246/4/3 243/4/3 242/4/3
f 247/3/3 245/3/3 244/3/3
f 247/4/3 243/4/3 246/4/3
f 247/3/3 244/3/3 243/3/3
f 248/3/3 245/3/3 247/3/3
f 251/3/3 245/3/3 248/3/3
f 252/3/3 245/3/3 251/3/3
f 253/2/3 250/2/3 249/2/3
f 254/2/3 250/2/3 253/2/3
f 255/4/4 256/4/4 259/4/4
f 259/4/4 256/4/4 260/4/4
f 257/4/4 258/4/4 263/4/4
f 263/4/4 258/4/4 264/4/4
f 259/3/4 260/3/4 265/3/4
f 265/3/4 260/3/4 266/3/4
f 261/3/4 262/3/4 267/3/4
f 267/3/4 262/3/4 268/3/4
f 263/3/4 264/3/4 269/3/4
f 269/3/4 264/3/4 270/3/4
f 271/4/4 272/4/4 273/4/4
f 273/4/4 272/4/4 274/4/4
f 274/4/4 272/4/4 275/4/4
f 274/4/4 275/4/4 279/4/4
f 275/3/4 276/3/4 280/3/4
f 279/4/4 275/4/4 280/4/4
f 280/3/4 276/3/4 281/3/4
f 280/3/4 281/3/4 284/3/4
f 284/3/4 281/3/4 285/3/4
f 282/4/4 283/4/4 286/4/4
f 286/4/4 283/4/4 287/4/4
f 277/1/4 278/1/4 288/1/4
f 288/1/4 278/1/4 289/1/4
f 290/4/4 291/4/4 294/4/4
f 292/3/4 293/3/4 295/3/4
f 294/4/4 291/4/4 295/4/4
f 291/3/4 292/3/4 295/3/4
f 295/3/4 293/3/4 296/3/4
f 296/3/4 293/3/4 299/3/4
f 299/3/4 293/3/4 300/3/4
f 297/2/4 298/2/4 301/2/4
f 301/2/4 298/2/4 302/2/4
f 303/4/4 304/4/4 305/4/4
f 305/4/4 304/4/4 306/4/4
f 306/4/4 304/4/4 307/4/4
f 307/4/4 304/4/4 308/4/4
f 307/3/4 308/3/4 309/3/4
f 309/3/4 308/3/4 310/3/4
f 305/3/4 306/3/4 311/3/4
f 309/2/4 310/2/4 312/2/4
f 305/3/4 311/3/4 313/3/4
f 311/2/4 312/2/4 314/2/4
f 313/3/4 311/3/4 314/3/4
f 312/2/4 310/2/4 315/2/4
f 314/2/4 312/2/4 315/2/4
f 314/1/4 315/1/4 316/1/4
f 315/2/4 310/2/4 317/2/4
f 316/1/4 315/1/4 317/1/4
f 316/2/4 317/2/4 320/2/4
f 317/2/4 310/2/4 321/2/4
f 320/2/4 317/2/4 321/2/4
f 321/2/4 310/2/4 322/2/4
f 318/3/4 319/3/4 323/3/4
f 318/3/4 323/3/4 324/3/4
f 324/3/4 323/3/4 325/3/4
f 325/3/4 326/3/4 329/3/4
f 327/2/4 328/2/4 330/2/4
f 329/3/4 326/3/4 330/3/4
f 326/2/4 327/2/4 330/2/4
f 330/2/4 328/2/4 331/2/4
f 330/1/4 331/1/4 332/1/4
f 331/2/4 328/2/4 333/2/4
f 332/1/4 331/1/4 333/1/4
f 333/2/4 328/2/4 335/2/4
f 335/2/4 328/2/4 336/2/4
f 334/6/4 335/6/4 337/6/4
f 335/6/4 336/6/4 337/6/4
f 337/6/4 336/6/4 338/6/4
f 339/5/4 340/5/4 343/5/4
f 340/2/4 341/2/4 344/2/4
f 343/5/4 340/5/4 344/5/4
f 341/5/4 342/5/4 345/5/4
f 344/2/4 341/2/4 345/2/4
f 345/5/4 342/5/4 346/5/4
f 343/3/4 344/3/4 347/3/4
f 344/2/4 345/2/4 347/2/4
f 345/1/4 346/1/4 348/1/4
f 347/2/4 345/2/4 348/2/4
f 343/3/4 347/3/4 349/3/4
f 347/5/4 348/5/4 350/5/4
f 349/3/4 347/3/4 350/3/4
f 348/1/4 346/1/4 351/1/4
f 350/5/4 348/5/4 351/5/4
f 351/1/4 346/1/4 352/1/4
f 357/4/5 354/4/5 353/4/5
f 358/4/5 354/4/5 357/4/5
f 359/4/5 356/4/5 355/4/5
f 360/4/5 356/4/5 359/4/5
f 368/3/5 362/3/5 361/3/5
f 369/3/5 362/3/5 368/3/5
f 372/4/5 364/4/5 363/4/5
f 373/3/5 365/3/5 364/3/5
f 373/4/5 364/4/5 372/4/5
f 374/3/5 365/3/5 373/3/5
f 375/4/5 367/4/5 366/4/5
f 376/4/5 367/4/5 375/4/5
f 379/4/5 371/4/5 370/4/5
f 380/4/5 371/4/5 379/4/5
f 381/3/5 378/3/5 377/3/5
f 382/3/5 378/3/5 381/3/5
f 389/5/5 384/5/5 383/5/5
f 390/3/5 385/3/5 384/3/5
f 390/5/5 384/5/5 389/5/5
f 391/3/5 385/3/5 390/3/5
f 393/4/5 387/4/5 386/4/5
f 394/3/5 388/3/5 387/3/5
f 394/4/5 387/4/5 393/4/5
f 395/3/5 388/3/5 394/3/5
f 396/3/5 388/3/5 395/3/5
f 397/3/5 388/3/5 396/3/5
f 402/3/5 396/3/5 395/3/5
f 403/3/5 396/3/5 402/3/5
f 405/3/5 399/3/5 398/3/5
f 406/3/5 399/3/5 405/3/5
f 407/4/5 401/4/5 400/4/5
f 408/3/5 404/3/5 403/3/5
f 408/4/5 401/4/5 407/4/5
f 408/3/5 402/3/5 401/3/5
f 408/3/5 403/3/5 402/3/5
f 409/3/5 404/3/5 408/3/5
f 412/3/5 392/3/5 391/3/5
f 413/3/5 392/3/5 412/3/5
f 414/5/5 411/5/5 410/5/5
f 415/3/5 412/3/5 411/3/5
f 415/5/5 411/5/5 414/5/5
f 416/3/5 412/3/5 415/3/5
f 424/1/5 418/1/5 417/1/5
f 425/2/5 419/2/5 418/2/5
f 425/1/5 418/1/5 424/1/5
f 426/2/5 419/2/5 425/2/5
f 427/1/5 421/1/5 420/1/5
f 429/6/5 423/6/5 422/6/5
f 433/1/5 427/1/5 420/1/5
f 434/3/5 429/3/5 428/3/5
f 435/6/5 423/6/5 429/6/5
f 435/3/5 429/3/5 434/3/5
f 436/1/5 431/1/5 430/1/5
f 437/2/5 432/2/5 431/2/5
f 437/1/5 431/1/5 436/1/5
f 438/2/5 432/2/5 437/2/5
f 439/1/5 433/1/5 420/1/5
f 440/1/5 433/1/5 439/1/5
f 441/6/5 423/6/5 435/6/5
f 442/6/5 423/6/5 441/6/5
f 448/3/5 444/3/5 443/3/5
f 449/2/5 445/2/5 444/2/5
f 449/3/5 444/3/5 448/3/5
f 450/2/5 447/2/5 446/2/5
f 451/2/5 447/2/5 450/2/5
f 453/2/5 445/2/5 449/2/5
f 456/3/5 453/3/5 452/3/5
f 457/2/5 445/2/5 453/2/5
f 457/3/5 453/3/5 456/3/5
f 458/2/5 445/2/5 457/2/5
f 459/2/5 455/2/5 454/2/5
f 460/2/5 455/2/5 459/2/5
f 461/3/6 462/3/6 463/3/6
f 463/3/6 462/3/6 464/3/6
f 464/3/6 462/3/6 466/3/6
f 465/3/6 466/3/6 467/3/6
f 466/3/6 462/3/6 468/3/6
f 467/3/6 466/3/6 468/3/6
f 469/5/6 470/5/6 475/5/6
f 470/1/6 471/1/6 476/1/6
f 475/5/6 470/5/6 476/5/6
f 476/1/6 471/1/6 477/1/6
f 472/4/6 473/4/6 480/4/6
f 473/3/6 474/3/6 481/3/6
f 480/4/6 473/4/6 481/4/6
f 474/2/6 475/2/6 482/2/6
f 481/3/6 474/3/6 482/3/6
f 475/2/6 476/2/6 482/2/6
f 477/2/6 478/2/6 482/2/6
f 476/2/6 477/2/6 482/2/6
f 482/2/6 478/2/6 483/2/6
f 483/2/6 478/2/6 484/2/6
f 484/2/6 478/2/6 485/2/6
f 478/6/6 479/6/6 486/6/6
f 485/2/6 478/2/6 486/2/6
f 482/2/6 483/2/6 489/2/6
f 489/2/6 483/2/6 490/2/6
f 484/2/6 485/2/6 491/2/6
f 491/2/6 485/2/6 492/2/6
f 486/6/6 479/6/6 493/6/6
f 487/4/6 488/4/6 494/4/6
f 488/3/6 489/3/6 495/3/6
f 494/4/6 488/4/6 495/4/6
f 491/2/6 492/2/6 496/2/6
f 495/3/6 489/3/6 496/3/6
f 489/2/6 490/2/6 496/2/6
f 492/2/6 493/2/6 496/2/6
f 490/2/6 491/2/6 496/2/6
f 496/2/6 493/2/6 497/2/6
f 497/2/6 493/2/6 498/2/6
f 498/2/6 493/2/6 499/2/6
f 493/6/6 479/6/6 500/6/6
f 499/2/6 493/2/6 500/2/6
f 500/6/6 479/6/6 501/6/6
f 497/5/6 498/5/6 502/5/6
f 498/1/6 499/1/6 503/1/6
f 502/5/6 498/5/6 503/5/6
f 503/1/6 499/1/6 504/1/6
f 505/4/6 506/4/6 512/4/6
f 506/3/6 507/3/6 513/3/6
f 512/4/6 506/4/6 513/4/6
f 513/3/6 507/3/6 514/3/6
f 508/1/6 509/1/6 515/1/6
f 515/1/6 509/1/6 516/1/6
f 510/2/6 511/2/6 517/2/6
f 517/2/6 511/2/6 518/2/6
